%TF.GenerationSoftware,KiCad,Pcbnew,9.0.2*%
%TF.CreationDate,2025-07-27T12:29:31+02:00*%
%TF.ProjectId,ESP32-S3-TESTBOARD,45535033-322d-4533-932d-54455354424f,rev?*%
%TF.SameCoordinates,Original*%
%TF.FileFunction,Copper,L3,Inr*%
%TF.FilePolarity,Positive*%
%FSLAX46Y46*%
G04 Gerber Fmt 4.6, Leading zero omitted, Abs format (unit mm)*
G04 Created by KiCad (PCBNEW 9.0.2) date 2025-07-27 12:29:31*
%MOMM*%
%LPD*%
G01*
G04 APERTURE LIST*
%TA.AperFunction,ComponentPad*%
%ADD10C,2.100000*%
%TD*%
%TA.AperFunction,ComponentPad*%
%ADD11C,1.750000*%
%TD*%
%TA.AperFunction,ComponentPad*%
%ADD12R,1.700000X1.700000*%
%TD*%
%TA.AperFunction,ComponentPad*%
%ADD13C,1.700000*%
%TD*%
%TA.AperFunction,HeatsinkPad*%
%ADD14O,1.000000X2.100000*%
%TD*%
%TA.AperFunction,HeatsinkPad*%
%ADD15O,1.000000X1.600000*%
%TD*%
%TA.AperFunction,HeatsinkPad*%
%ADD16C,0.600000*%
%TD*%
%TA.AperFunction,ViaPad*%
%ADD17C,0.600000*%
%TD*%
G04 APERTURE END LIST*
D10*
%TO.N,*%
%TO.C,SW3*%
X157647500Y-103875000D03*
X157647500Y-110885000D03*
D11*
%TO.N,GND*%
X160137500Y-105125000D03*
%TO.N,/USER_SW*%
X160137500Y-109625000D03*
%TD*%
D12*
%TO.N,+3V3*%
%TO.C,J2*%
X120125000Y-109995000D03*
D13*
X122665000Y-109995000D03*
%TO.N,/RESET*%
X120125000Y-112535000D03*
%TO.N,/CS*%
X122665000Y-112535000D03*
%TO.N,/MOSI*%
X120125000Y-115075000D03*
%TO.N,/CLK*%
X122665000Y-115075000D03*
%TO.N,/MISO*%
X120125000Y-117615000D03*
%TO.N,/IRQ*%
X122665000Y-117615000D03*
%TO.N,GND*%
X120125000Y-120155000D03*
X122665000Y-120155000D03*
%TD*%
D14*
%TO.N,GND*%
%TO.C,J1*%
X133680000Y-131770000D03*
D15*
X133680000Y-135950000D03*
D14*
X142320000Y-131770000D03*
D15*
X142320000Y-135950000D03*
%TD*%
D12*
%TO.N,/ESP_EN*%
%TO.C,J3*%
X152860000Y-98600000D03*
D13*
%TO.N,+3V3*%
X152860000Y-96060000D03*
%TO.N,/ESP_TXD*%
X155400000Y-98600000D03*
%TO.N,GND*%
X155400000Y-96060000D03*
%TO.N,/ESP_RXD*%
X157940000Y-98600000D03*
%TO.N,/ESP_IO0*%
X157940000Y-96060000D03*
%TD*%
D16*
%TO.N,GND*%
%TO.C,U2*%
X135000000Y-95560000D03*
X135000000Y-96960000D03*
X135700000Y-94860000D03*
X135700000Y-96260000D03*
X135700000Y-97660000D03*
X136400000Y-95560000D03*
X136400000Y-96960000D03*
X137100000Y-94860000D03*
X137100000Y-96260000D03*
X137100000Y-97660000D03*
X137800000Y-95560000D03*
X137800000Y-96960000D03*
%TD*%
D17*
%TO.N,+5V*%
X141800000Y-124550000D03*
X131250000Y-131800000D03*
%TO.N,GND*%
X154100000Y-103790000D03*
X161250000Y-96050000D03*
X155550000Y-113170000D03*
X148670000Y-106430000D03*
X127025000Y-87800000D03*
X116030000Y-103350000D03*
X143000000Y-88000000D03*
X161780000Y-120420000D03*
X123850000Y-88200000D03*
X127880000Y-126620000D03*
X139000000Y-88000000D03*
X135000000Y-88000000D03*
X131000000Y-93000000D03*
X161650000Y-117200000D03*
X126790000Y-99140000D03*
X154400000Y-110600000D03*
X154000000Y-88000000D03*
X147200000Y-127050000D03*
X115250000Y-126775000D03*
X138000000Y-127800000D03*
X120000000Y-88000000D03*
X138990000Y-110290000D03*
X115000000Y-96000000D03*
X131000000Y-88000000D03*
X124220000Y-127380000D03*
X150420000Y-102100000D03*
X129300000Y-108010000D03*
X137000000Y-88000000D03*
X161650000Y-123950000D03*
X155500000Y-118900000D03*
X123000000Y-88000000D03*
X116760000Y-121970000D03*
X114670000Y-107230000D03*
X155300000Y-107100000D03*
X151130000Y-90640000D03*
X140850000Y-111825000D03*
X119470000Y-128420000D03*
X131000000Y-100000000D03*
X143880000Y-91920000D03*
X141200000Y-97830000D03*
X160170000Y-101270000D03*
X141250000Y-129700000D03*
X140514893Y-120767106D03*
X121990000Y-134820000D03*
X135230000Y-134730000D03*
X124680000Y-106780000D03*
X122000000Y-92000000D03*
X135940000Y-101390000D03*
X142440000Y-116050000D03*
X116725000Y-99900000D03*
X140010000Y-116130000D03*
X147200000Y-130350000D03*
X161100000Y-128140000D03*
X148000000Y-88000000D03*
X155080000Y-128060000D03*
X145000000Y-88000000D03*
X134750000Y-129700000D03*
X122000000Y-88000000D03*
X120000000Y-97000000D03*
X146325000Y-114075000D03*
X141000000Y-88000000D03*
X129370000Y-115800000D03*
X156000000Y-88000000D03*
X117990000Y-106800000D03*
X153900000Y-118750000D03*
X152000000Y-88000000D03*
X133000000Y-88000000D03*
X150000000Y-88000000D03*
X148420000Y-103830000D03*
%TO.N,+3V3*%
X123850000Y-133200000D03*
X116700000Y-100900000D03*
X125150000Y-90800000D03*
X149850000Y-108050000D03*
X146325000Y-110925000D03*
X121560000Y-100315000D03*
X146500000Y-122500000D03*
X125200000Y-100325000D03*
X118750000Y-123675000D03*
X152700000Y-113850000D03*
X123700000Y-96000000D03*
%TO.N,/ESP_EN*%
X151700000Y-115850000D03*
X142300000Y-94000000D03*
%TO.N,/USER_SW*%
X150900000Y-108150000D03*
X146650000Y-108900000D03*
%TO.N,Net-(F1-Pad1)*%
X140425000Y-129275000D03*
X135550000Y-129275000D03*
%TO.N,/CC1*%
X145200000Y-128000000D03*
X136750000Y-132875000D03*
%TO.N,/RESET*%
X139800000Y-104600000D03*
X129450000Y-112925000D03*
%TO.N,/MISO*%
X138525000Y-104575000D03*
%TO.N,/CS*%
X134725000Y-104475000D03*
%TO.N,/IRQ*%
X127575000Y-97450000D03*
%TO.N,/MOSI*%
X135975000Y-104525000D03*
%TO.N,/CLK*%
X137265000Y-104585000D03*
%TO.N,/ESP_RXD*%
X152200000Y-93600000D03*
%TO.N,/SDA*%
X122500000Y-102150000D03*
X125875000Y-102500000D03*
X141800000Y-108325000D03*
%TO.N,/SCL*%
X144725000Y-108400000D03*
X133455000Y-102425000D03*
X127100000Y-101350000D03*
%TO.N,Net-(U2-GPIO3)*%
X126925000Y-96000000D03*
X134000000Y-100950000D03*
%TO.N,/R_LED*%
X144800000Y-122700000D03*
X144650000Y-98700000D03*
%TO.N,/G_LED*%
X144450000Y-97400000D03*
X151700000Y-126350000D03*
%TO.N,/B_LED*%
X144160000Y-96160000D03*
X152800000Y-121350000D03*
%TD*%
%TA.AperFunction,Conductor*%
%TO.N,+3V3*%
G36*
X119610870Y-87519407D02*
G01*
X119646834Y-87568907D01*
X119646834Y-87630093D01*
X119622684Y-87669501D01*
X119599500Y-87692686D01*
X119599497Y-87692689D01*
X119599496Y-87692690D01*
X119533609Y-87806809D01*
X119533608Y-87806814D01*
X119499500Y-87934108D01*
X119499500Y-88065892D01*
X119510598Y-88107309D01*
X119533609Y-88193190D01*
X119599496Y-88307309D01*
X119599498Y-88307311D01*
X119599500Y-88307314D01*
X119692686Y-88400500D01*
X119692688Y-88400501D01*
X119692690Y-88400503D01*
X119806810Y-88466390D01*
X119806808Y-88466390D01*
X119806812Y-88466391D01*
X119806814Y-88466392D01*
X119934108Y-88500500D01*
X119934110Y-88500500D01*
X120065890Y-88500500D01*
X120065892Y-88500500D01*
X120193186Y-88466392D01*
X120193188Y-88466390D01*
X120193190Y-88466390D01*
X120307309Y-88400503D01*
X120307309Y-88400502D01*
X120307314Y-88400500D01*
X120400500Y-88307314D01*
X120409370Y-88291951D01*
X120466390Y-88193190D01*
X120466390Y-88193188D01*
X120466392Y-88193186D01*
X120500500Y-88065892D01*
X120500500Y-87934108D01*
X120466392Y-87806814D01*
X120466390Y-87806811D01*
X120466390Y-87806809D01*
X120400503Y-87692690D01*
X120400501Y-87692688D01*
X120400500Y-87692686D01*
X120377315Y-87669501D01*
X120349540Y-87614987D01*
X120359111Y-87554555D01*
X120402376Y-87511290D01*
X120447321Y-87500500D01*
X121552679Y-87500500D01*
X121610870Y-87519407D01*
X121646834Y-87568907D01*
X121646834Y-87630093D01*
X121622684Y-87669501D01*
X121599500Y-87692686D01*
X121599497Y-87692689D01*
X121599496Y-87692690D01*
X121533609Y-87806809D01*
X121533608Y-87806814D01*
X121499500Y-87934108D01*
X121499500Y-88065892D01*
X121510598Y-88107309D01*
X121533609Y-88193190D01*
X121599496Y-88307309D01*
X121599498Y-88307311D01*
X121599500Y-88307314D01*
X121692686Y-88400500D01*
X121692688Y-88400501D01*
X121692690Y-88400503D01*
X121806810Y-88466390D01*
X121806808Y-88466390D01*
X121806812Y-88466391D01*
X121806814Y-88466392D01*
X121934108Y-88500500D01*
X121934110Y-88500500D01*
X122065890Y-88500500D01*
X122065892Y-88500500D01*
X122193186Y-88466392D01*
X122193188Y-88466390D01*
X122193190Y-88466390D01*
X122307309Y-88400503D01*
X122307309Y-88400502D01*
X122307314Y-88400500D01*
X122400500Y-88307314D01*
X122414264Y-88283474D01*
X122459733Y-88242534D01*
X122520583Y-88236138D01*
X122573571Y-88266731D01*
X122585734Y-88283471D01*
X122599500Y-88307314D01*
X122692686Y-88400500D01*
X122692688Y-88400501D01*
X122692690Y-88400503D01*
X122806810Y-88466390D01*
X122806808Y-88466390D01*
X122806812Y-88466391D01*
X122806814Y-88466392D01*
X122934108Y-88500500D01*
X122934110Y-88500500D01*
X123065890Y-88500500D01*
X123065892Y-88500500D01*
X123193186Y-88466392D01*
X123193188Y-88466390D01*
X123193190Y-88466390D01*
X123281965Y-88415136D01*
X123341813Y-88402414D01*
X123397709Y-88427301D01*
X123417201Y-88451372D01*
X123449496Y-88507309D01*
X123449498Y-88507311D01*
X123449500Y-88507314D01*
X123542686Y-88600500D01*
X123542688Y-88600501D01*
X123542690Y-88600503D01*
X123656810Y-88666390D01*
X123656808Y-88666390D01*
X123656812Y-88666391D01*
X123656814Y-88666392D01*
X123784108Y-88700500D01*
X123784110Y-88700500D01*
X123915890Y-88700500D01*
X123915892Y-88700500D01*
X124043186Y-88666392D01*
X124043188Y-88666390D01*
X124043190Y-88666390D01*
X124157309Y-88600503D01*
X124157309Y-88600502D01*
X124157314Y-88600500D01*
X124250500Y-88507314D01*
X124254434Y-88500500D01*
X124316390Y-88393190D01*
X124316390Y-88393188D01*
X124316392Y-88393186D01*
X124350500Y-88265892D01*
X124350500Y-88134108D01*
X124316392Y-88006814D01*
X124316390Y-88006811D01*
X124316390Y-88006809D01*
X124250503Y-87892690D01*
X124250501Y-87892688D01*
X124250500Y-87892686D01*
X124157314Y-87799500D01*
X124157311Y-87799498D01*
X124157309Y-87799496D01*
X124043189Y-87733609D01*
X124043191Y-87733609D01*
X123993799Y-87720375D01*
X123915892Y-87699500D01*
X123784108Y-87699500D01*
X123706200Y-87720375D01*
X123656809Y-87733609D01*
X123568035Y-87784864D01*
X123508187Y-87797586D01*
X123452291Y-87772699D01*
X123432799Y-87748628D01*
X123400503Y-87692690D01*
X123400501Y-87692688D01*
X123400500Y-87692686D01*
X123377315Y-87669501D01*
X123349540Y-87614987D01*
X123359111Y-87554555D01*
X123402376Y-87511290D01*
X123447321Y-87500500D01*
X126458076Y-87500500D01*
X126516267Y-87519407D01*
X126552231Y-87568907D01*
X126553702Y-87625120D01*
X126524500Y-87734108D01*
X126524500Y-87865892D01*
X126537315Y-87913717D01*
X126558609Y-87993190D01*
X126624496Y-88107309D01*
X126624498Y-88107311D01*
X126624500Y-88107314D01*
X126717686Y-88200500D01*
X126717688Y-88200501D01*
X126717690Y-88200503D01*
X126831810Y-88266390D01*
X126831808Y-88266390D01*
X126831812Y-88266391D01*
X126831814Y-88266392D01*
X126959108Y-88300500D01*
X126959110Y-88300500D01*
X127090890Y-88300500D01*
X127090892Y-88300500D01*
X127218186Y-88266392D01*
X127218188Y-88266390D01*
X127218190Y-88266390D01*
X127332309Y-88200503D01*
X127332309Y-88200502D01*
X127332314Y-88200500D01*
X127425500Y-88107314D01*
X127425503Y-88107309D01*
X127491390Y-87993190D01*
X127491390Y-87993188D01*
X127491392Y-87993186D01*
X127525500Y-87865892D01*
X127525500Y-87734108D01*
X127496297Y-87625120D01*
X127499500Y-87564022D01*
X127538005Y-87516472D01*
X127591924Y-87500500D01*
X130552679Y-87500500D01*
X130610870Y-87519407D01*
X130646834Y-87568907D01*
X130646834Y-87630093D01*
X130622684Y-87669501D01*
X130599500Y-87692686D01*
X130599497Y-87692689D01*
X130599496Y-87692690D01*
X130533609Y-87806809D01*
X130533608Y-87806814D01*
X130499500Y-87934108D01*
X130499500Y-88065892D01*
X130510598Y-88107309D01*
X130533609Y-88193190D01*
X130599496Y-88307309D01*
X130599498Y-88307311D01*
X130599500Y-88307314D01*
X130692686Y-88400500D01*
X130692688Y-88400501D01*
X130692690Y-88400503D01*
X130806810Y-88466390D01*
X130806808Y-88466390D01*
X130806812Y-88466391D01*
X130806814Y-88466392D01*
X130934108Y-88500500D01*
X130934110Y-88500500D01*
X131065890Y-88500500D01*
X131065892Y-88500500D01*
X131193186Y-88466392D01*
X131193188Y-88466390D01*
X131193190Y-88466390D01*
X131307309Y-88400503D01*
X131307309Y-88400502D01*
X131307314Y-88400500D01*
X131400500Y-88307314D01*
X131409370Y-88291951D01*
X131466390Y-88193190D01*
X131466390Y-88193188D01*
X131466392Y-88193186D01*
X131500500Y-88065892D01*
X131500500Y-87934108D01*
X131466392Y-87806814D01*
X131466390Y-87806811D01*
X131466390Y-87806809D01*
X131400503Y-87692690D01*
X131400501Y-87692688D01*
X131400500Y-87692686D01*
X131377315Y-87669501D01*
X131349540Y-87614987D01*
X131359111Y-87554555D01*
X131402376Y-87511290D01*
X131447321Y-87500500D01*
X132552679Y-87500500D01*
X132610870Y-87519407D01*
X132646834Y-87568907D01*
X132646834Y-87630093D01*
X132622684Y-87669501D01*
X132599500Y-87692686D01*
X132599497Y-87692689D01*
X132599496Y-87692690D01*
X132533609Y-87806809D01*
X132533608Y-87806814D01*
X132499500Y-87934108D01*
X132499500Y-88065892D01*
X132510598Y-88107309D01*
X132533609Y-88193190D01*
X132599496Y-88307309D01*
X132599498Y-88307311D01*
X132599500Y-88307314D01*
X132692686Y-88400500D01*
X132692688Y-88400501D01*
X132692690Y-88400503D01*
X132806810Y-88466390D01*
X132806808Y-88466390D01*
X132806812Y-88466391D01*
X132806814Y-88466392D01*
X132934108Y-88500500D01*
X132934110Y-88500500D01*
X133065890Y-88500500D01*
X133065892Y-88500500D01*
X133193186Y-88466392D01*
X133193188Y-88466390D01*
X133193190Y-88466390D01*
X133307309Y-88400503D01*
X133307309Y-88400502D01*
X133307314Y-88400500D01*
X133400500Y-88307314D01*
X133409370Y-88291951D01*
X133466390Y-88193190D01*
X133466390Y-88193188D01*
X133466392Y-88193186D01*
X133500500Y-88065892D01*
X133500500Y-87934108D01*
X133466392Y-87806814D01*
X133466390Y-87806811D01*
X133466390Y-87806809D01*
X133400503Y-87692690D01*
X133400501Y-87692688D01*
X133400500Y-87692686D01*
X133377315Y-87669501D01*
X133349540Y-87614987D01*
X133359111Y-87554555D01*
X133402376Y-87511290D01*
X133447321Y-87500500D01*
X134552679Y-87500500D01*
X134610870Y-87519407D01*
X134646834Y-87568907D01*
X134646834Y-87630093D01*
X134622684Y-87669501D01*
X134599500Y-87692686D01*
X134599497Y-87692689D01*
X134599496Y-87692690D01*
X134533609Y-87806809D01*
X134533608Y-87806814D01*
X134499500Y-87934108D01*
X134499500Y-88065892D01*
X134510598Y-88107309D01*
X134533609Y-88193190D01*
X134599496Y-88307309D01*
X134599498Y-88307311D01*
X134599500Y-88307314D01*
X134692686Y-88400500D01*
X134692688Y-88400501D01*
X134692690Y-88400503D01*
X134806810Y-88466390D01*
X134806808Y-88466390D01*
X134806812Y-88466391D01*
X134806814Y-88466392D01*
X134934108Y-88500500D01*
X134934110Y-88500500D01*
X135065890Y-88500500D01*
X135065892Y-88500500D01*
X135193186Y-88466392D01*
X135193188Y-88466390D01*
X135193190Y-88466390D01*
X135307309Y-88400503D01*
X135307309Y-88400502D01*
X135307314Y-88400500D01*
X135400500Y-88307314D01*
X135409370Y-88291951D01*
X135466390Y-88193190D01*
X135466390Y-88193188D01*
X135466392Y-88193186D01*
X135500500Y-88065892D01*
X135500500Y-87934108D01*
X135466392Y-87806814D01*
X135466390Y-87806811D01*
X135466390Y-87806809D01*
X135400503Y-87692690D01*
X135400501Y-87692688D01*
X135400500Y-87692686D01*
X135377315Y-87669501D01*
X135349540Y-87614987D01*
X135359111Y-87554555D01*
X135402376Y-87511290D01*
X135447321Y-87500500D01*
X136552679Y-87500500D01*
X136610870Y-87519407D01*
X136646834Y-87568907D01*
X136646834Y-87630093D01*
X136622684Y-87669501D01*
X136599500Y-87692686D01*
X136599497Y-87692689D01*
X136599496Y-87692690D01*
X136533609Y-87806809D01*
X136533608Y-87806814D01*
X136499500Y-87934108D01*
X136499500Y-88065892D01*
X136510598Y-88107309D01*
X136533609Y-88193190D01*
X136599496Y-88307309D01*
X136599498Y-88307311D01*
X136599500Y-88307314D01*
X136692686Y-88400500D01*
X136692688Y-88400501D01*
X136692690Y-88400503D01*
X136806810Y-88466390D01*
X136806808Y-88466390D01*
X136806812Y-88466391D01*
X136806814Y-88466392D01*
X136934108Y-88500500D01*
X136934110Y-88500500D01*
X137065890Y-88500500D01*
X137065892Y-88500500D01*
X137193186Y-88466392D01*
X137193188Y-88466390D01*
X137193190Y-88466390D01*
X137307309Y-88400503D01*
X137307309Y-88400502D01*
X137307314Y-88400500D01*
X137400500Y-88307314D01*
X137409370Y-88291951D01*
X137466390Y-88193190D01*
X137466390Y-88193188D01*
X137466392Y-88193186D01*
X137500500Y-88065892D01*
X137500500Y-87934108D01*
X137466392Y-87806814D01*
X137466390Y-87806811D01*
X137466390Y-87806809D01*
X137400503Y-87692690D01*
X137400501Y-87692688D01*
X137400500Y-87692686D01*
X137377315Y-87669501D01*
X137349540Y-87614987D01*
X137359111Y-87554555D01*
X137402376Y-87511290D01*
X137447321Y-87500500D01*
X138552679Y-87500500D01*
X138610870Y-87519407D01*
X138646834Y-87568907D01*
X138646834Y-87630093D01*
X138622684Y-87669501D01*
X138599500Y-87692686D01*
X138599497Y-87692689D01*
X138599496Y-87692690D01*
X138533609Y-87806809D01*
X138533608Y-87806814D01*
X138499500Y-87934108D01*
X138499500Y-88065892D01*
X138510598Y-88107309D01*
X138533609Y-88193190D01*
X138599496Y-88307309D01*
X138599498Y-88307311D01*
X138599500Y-88307314D01*
X138692686Y-88400500D01*
X138692688Y-88400501D01*
X138692690Y-88400503D01*
X138806810Y-88466390D01*
X138806808Y-88466390D01*
X138806812Y-88466391D01*
X138806814Y-88466392D01*
X138934108Y-88500500D01*
X138934110Y-88500500D01*
X139065890Y-88500500D01*
X139065892Y-88500500D01*
X139193186Y-88466392D01*
X139193188Y-88466390D01*
X139193190Y-88466390D01*
X139307309Y-88400503D01*
X139307309Y-88400502D01*
X139307314Y-88400500D01*
X139400500Y-88307314D01*
X139409370Y-88291951D01*
X139466390Y-88193190D01*
X139466390Y-88193188D01*
X139466392Y-88193186D01*
X139500500Y-88065892D01*
X139500500Y-87934108D01*
X139466392Y-87806814D01*
X139466390Y-87806811D01*
X139466390Y-87806809D01*
X139400503Y-87692690D01*
X139400501Y-87692688D01*
X139400500Y-87692686D01*
X139377315Y-87669501D01*
X139349540Y-87614987D01*
X139359111Y-87554555D01*
X139402376Y-87511290D01*
X139447321Y-87500500D01*
X140552679Y-87500500D01*
X140610870Y-87519407D01*
X140646834Y-87568907D01*
X140646834Y-87630093D01*
X140622684Y-87669501D01*
X140599500Y-87692686D01*
X140599497Y-87692689D01*
X140599496Y-87692690D01*
X140533609Y-87806809D01*
X140533608Y-87806814D01*
X140499500Y-87934108D01*
X140499500Y-88065892D01*
X140510598Y-88107309D01*
X140533609Y-88193190D01*
X140599496Y-88307309D01*
X140599498Y-88307311D01*
X140599500Y-88307314D01*
X140692686Y-88400500D01*
X140692688Y-88400501D01*
X140692690Y-88400503D01*
X140806810Y-88466390D01*
X140806808Y-88466390D01*
X140806812Y-88466391D01*
X140806814Y-88466392D01*
X140934108Y-88500500D01*
X140934110Y-88500500D01*
X141065890Y-88500500D01*
X141065892Y-88500500D01*
X141193186Y-88466392D01*
X141193188Y-88466390D01*
X141193190Y-88466390D01*
X141307309Y-88400503D01*
X141307309Y-88400502D01*
X141307314Y-88400500D01*
X141400500Y-88307314D01*
X141409370Y-88291951D01*
X141466390Y-88193190D01*
X141466390Y-88193188D01*
X141466392Y-88193186D01*
X141500500Y-88065892D01*
X141500500Y-87934108D01*
X141466392Y-87806814D01*
X141466390Y-87806811D01*
X141466390Y-87806809D01*
X141400503Y-87692690D01*
X141400501Y-87692688D01*
X141400500Y-87692686D01*
X141377315Y-87669501D01*
X141349540Y-87614987D01*
X141359111Y-87554555D01*
X141402376Y-87511290D01*
X141447321Y-87500500D01*
X142552679Y-87500500D01*
X142610870Y-87519407D01*
X142646834Y-87568907D01*
X142646834Y-87630093D01*
X142622684Y-87669501D01*
X142599500Y-87692686D01*
X142599497Y-87692689D01*
X142599496Y-87692690D01*
X142533609Y-87806809D01*
X142533608Y-87806814D01*
X142499500Y-87934108D01*
X142499500Y-88065892D01*
X142510598Y-88107309D01*
X142533609Y-88193190D01*
X142599496Y-88307309D01*
X142599498Y-88307311D01*
X142599500Y-88307314D01*
X142692686Y-88400500D01*
X142692688Y-88400501D01*
X142692690Y-88400503D01*
X142806810Y-88466390D01*
X142806808Y-88466390D01*
X142806812Y-88466391D01*
X142806814Y-88466392D01*
X142934108Y-88500500D01*
X142934110Y-88500500D01*
X143065890Y-88500500D01*
X143065892Y-88500500D01*
X143193186Y-88466392D01*
X143193188Y-88466390D01*
X143193190Y-88466390D01*
X143307309Y-88400503D01*
X143307309Y-88400502D01*
X143307314Y-88400500D01*
X143400500Y-88307314D01*
X143409370Y-88291951D01*
X143466390Y-88193190D01*
X143466390Y-88193188D01*
X143466392Y-88193186D01*
X143500500Y-88065892D01*
X143500500Y-87934108D01*
X143466392Y-87806814D01*
X143466390Y-87806811D01*
X143466390Y-87806809D01*
X143400503Y-87692690D01*
X143400501Y-87692688D01*
X143400500Y-87692686D01*
X143377315Y-87669501D01*
X143349540Y-87614987D01*
X143359111Y-87554555D01*
X143402376Y-87511290D01*
X143447321Y-87500500D01*
X144552679Y-87500500D01*
X144610870Y-87519407D01*
X144646834Y-87568907D01*
X144646834Y-87630093D01*
X144622684Y-87669501D01*
X144599500Y-87692686D01*
X144599497Y-87692689D01*
X144599496Y-87692690D01*
X144533609Y-87806809D01*
X144533608Y-87806814D01*
X144499500Y-87934108D01*
X144499500Y-88065892D01*
X144510598Y-88107309D01*
X144533609Y-88193190D01*
X144599496Y-88307309D01*
X144599498Y-88307311D01*
X144599500Y-88307314D01*
X144692686Y-88400500D01*
X144692688Y-88400501D01*
X144692690Y-88400503D01*
X144806810Y-88466390D01*
X144806808Y-88466390D01*
X144806812Y-88466391D01*
X144806814Y-88466392D01*
X144934108Y-88500500D01*
X144934110Y-88500500D01*
X145065890Y-88500500D01*
X145065892Y-88500500D01*
X145193186Y-88466392D01*
X145193188Y-88466390D01*
X145193190Y-88466390D01*
X145307309Y-88400503D01*
X145307309Y-88400502D01*
X145307314Y-88400500D01*
X145400500Y-88307314D01*
X145409370Y-88291951D01*
X145466390Y-88193190D01*
X145466390Y-88193188D01*
X145466392Y-88193186D01*
X145500500Y-88065892D01*
X145500500Y-87934108D01*
X145466392Y-87806814D01*
X145466390Y-87806811D01*
X145466390Y-87806809D01*
X145400503Y-87692690D01*
X145400501Y-87692688D01*
X145400500Y-87692686D01*
X145377315Y-87669501D01*
X145349540Y-87614987D01*
X145359111Y-87554555D01*
X145402376Y-87511290D01*
X145447321Y-87500500D01*
X147552679Y-87500500D01*
X147610870Y-87519407D01*
X147646834Y-87568907D01*
X147646834Y-87630093D01*
X147622684Y-87669501D01*
X147599500Y-87692686D01*
X147599497Y-87692689D01*
X147599496Y-87692690D01*
X147533609Y-87806809D01*
X147533608Y-87806814D01*
X147499500Y-87934108D01*
X147499500Y-88065892D01*
X147510598Y-88107309D01*
X147533609Y-88193190D01*
X147599496Y-88307309D01*
X147599498Y-88307311D01*
X147599500Y-88307314D01*
X147692686Y-88400500D01*
X147692688Y-88400501D01*
X147692690Y-88400503D01*
X147806810Y-88466390D01*
X147806808Y-88466390D01*
X147806812Y-88466391D01*
X147806814Y-88466392D01*
X147934108Y-88500500D01*
X147934110Y-88500500D01*
X148065890Y-88500500D01*
X148065892Y-88500500D01*
X148193186Y-88466392D01*
X148193188Y-88466390D01*
X148193190Y-88466390D01*
X148307309Y-88400503D01*
X148307309Y-88400502D01*
X148307314Y-88400500D01*
X148400500Y-88307314D01*
X148409370Y-88291951D01*
X148466390Y-88193190D01*
X148466390Y-88193188D01*
X148466392Y-88193186D01*
X148500500Y-88065892D01*
X148500500Y-87934108D01*
X148466392Y-87806814D01*
X148466390Y-87806811D01*
X148466390Y-87806809D01*
X148400503Y-87692690D01*
X148400501Y-87692688D01*
X148400500Y-87692686D01*
X148377315Y-87669501D01*
X148349540Y-87614987D01*
X148359111Y-87554555D01*
X148402376Y-87511290D01*
X148447321Y-87500500D01*
X149552679Y-87500500D01*
X149610870Y-87519407D01*
X149646834Y-87568907D01*
X149646834Y-87630093D01*
X149622684Y-87669501D01*
X149599500Y-87692686D01*
X149599497Y-87692689D01*
X149599496Y-87692690D01*
X149533609Y-87806809D01*
X149533608Y-87806814D01*
X149499500Y-87934108D01*
X149499500Y-88065892D01*
X149510598Y-88107309D01*
X149533609Y-88193190D01*
X149599496Y-88307309D01*
X149599498Y-88307311D01*
X149599500Y-88307314D01*
X149692686Y-88400500D01*
X149692688Y-88400501D01*
X149692690Y-88400503D01*
X149806810Y-88466390D01*
X149806808Y-88466390D01*
X149806812Y-88466391D01*
X149806814Y-88466392D01*
X149934108Y-88500500D01*
X149934110Y-88500500D01*
X150065890Y-88500500D01*
X150065892Y-88500500D01*
X150193186Y-88466392D01*
X150193188Y-88466390D01*
X150193190Y-88466390D01*
X150307309Y-88400503D01*
X150307309Y-88400502D01*
X150307314Y-88400500D01*
X150400500Y-88307314D01*
X150409370Y-88291951D01*
X150466390Y-88193190D01*
X150466390Y-88193188D01*
X150466392Y-88193186D01*
X150500500Y-88065892D01*
X150500500Y-87934108D01*
X150466392Y-87806814D01*
X150466390Y-87806811D01*
X150466390Y-87806809D01*
X150400503Y-87692690D01*
X150400501Y-87692688D01*
X150400500Y-87692686D01*
X150377315Y-87669501D01*
X150349540Y-87614987D01*
X150359111Y-87554555D01*
X150402376Y-87511290D01*
X150447321Y-87500500D01*
X151552679Y-87500500D01*
X151610870Y-87519407D01*
X151646834Y-87568907D01*
X151646834Y-87630093D01*
X151622684Y-87669501D01*
X151599500Y-87692686D01*
X151599497Y-87692689D01*
X151599496Y-87692690D01*
X151533609Y-87806809D01*
X151533608Y-87806814D01*
X151499500Y-87934108D01*
X151499500Y-88065892D01*
X151510598Y-88107309D01*
X151533609Y-88193190D01*
X151599496Y-88307309D01*
X151599498Y-88307311D01*
X151599500Y-88307314D01*
X151692686Y-88400500D01*
X151692688Y-88400501D01*
X151692690Y-88400503D01*
X151806810Y-88466390D01*
X151806808Y-88466390D01*
X151806812Y-88466391D01*
X151806814Y-88466392D01*
X151934108Y-88500500D01*
X151934110Y-88500500D01*
X152065890Y-88500500D01*
X152065892Y-88500500D01*
X152193186Y-88466392D01*
X152193188Y-88466390D01*
X152193190Y-88466390D01*
X152307309Y-88400503D01*
X152307309Y-88400502D01*
X152307314Y-88400500D01*
X152400500Y-88307314D01*
X152409370Y-88291951D01*
X152466390Y-88193190D01*
X152466390Y-88193188D01*
X152466392Y-88193186D01*
X152500500Y-88065892D01*
X152500500Y-87934108D01*
X152466392Y-87806814D01*
X152466390Y-87806811D01*
X152466390Y-87806809D01*
X152400503Y-87692690D01*
X152400501Y-87692688D01*
X152400500Y-87692686D01*
X152377315Y-87669501D01*
X152349540Y-87614987D01*
X152359111Y-87554555D01*
X152402376Y-87511290D01*
X152447321Y-87500500D01*
X153552679Y-87500500D01*
X153610870Y-87519407D01*
X153646834Y-87568907D01*
X153646834Y-87630093D01*
X153622684Y-87669501D01*
X153599500Y-87692686D01*
X153599497Y-87692689D01*
X153599496Y-87692690D01*
X153533609Y-87806809D01*
X153533608Y-87806814D01*
X153499500Y-87934108D01*
X153499500Y-88065892D01*
X153510598Y-88107309D01*
X153533609Y-88193190D01*
X153599496Y-88307309D01*
X153599498Y-88307311D01*
X153599500Y-88307314D01*
X153692686Y-88400500D01*
X153692688Y-88400501D01*
X153692690Y-88400503D01*
X153806810Y-88466390D01*
X153806808Y-88466390D01*
X153806812Y-88466391D01*
X153806814Y-88466392D01*
X153934108Y-88500500D01*
X153934110Y-88500500D01*
X154065890Y-88500500D01*
X154065892Y-88500500D01*
X154193186Y-88466392D01*
X154193188Y-88466390D01*
X154193190Y-88466390D01*
X154307309Y-88400503D01*
X154307309Y-88400502D01*
X154307314Y-88400500D01*
X154400500Y-88307314D01*
X154409370Y-88291951D01*
X154466390Y-88193190D01*
X154466390Y-88193188D01*
X154466392Y-88193186D01*
X154500500Y-88065892D01*
X154500500Y-87934108D01*
X154466392Y-87806814D01*
X154466390Y-87806811D01*
X154466390Y-87806809D01*
X154400503Y-87692690D01*
X154400501Y-87692688D01*
X154400500Y-87692686D01*
X154377315Y-87669501D01*
X154349540Y-87614987D01*
X154359111Y-87554555D01*
X154402376Y-87511290D01*
X154447321Y-87500500D01*
X155552679Y-87500500D01*
X155610870Y-87519407D01*
X155646834Y-87568907D01*
X155646834Y-87630093D01*
X155622684Y-87669501D01*
X155599500Y-87692686D01*
X155599497Y-87692689D01*
X155599496Y-87692690D01*
X155533609Y-87806809D01*
X155533608Y-87806814D01*
X155499500Y-87934108D01*
X155499500Y-88065892D01*
X155510598Y-88107309D01*
X155533609Y-88193190D01*
X155599496Y-88307309D01*
X155599498Y-88307311D01*
X155599500Y-88307314D01*
X155692686Y-88400500D01*
X155692688Y-88400501D01*
X155692690Y-88400503D01*
X155806810Y-88466390D01*
X155806808Y-88466390D01*
X155806812Y-88466391D01*
X155806814Y-88466392D01*
X155934108Y-88500500D01*
X155934110Y-88500500D01*
X156065890Y-88500500D01*
X156065892Y-88500500D01*
X156193186Y-88466392D01*
X156193188Y-88466390D01*
X156193190Y-88466390D01*
X156307309Y-88400503D01*
X156307309Y-88400502D01*
X156307314Y-88400500D01*
X156400500Y-88307314D01*
X156409370Y-88291951D01*
X156466390Y-88193190D01*
X156466390Y-88193188D01*
X156466392Y-88193186D01*
X156500500Y-88065892D01*
X156500500Y-87934108D01*
X156466392Y-87806814D01*
X156466390Y-87806811D01*
X156466390Y-87806809D01*
X156400503Y-87692690D01*
X156400501Y-87692688D01*
X156400500Y-87692686D01*
X156377315Y-87669501D01*
X156349540Y-87614987D01*
X156359111Y-87554555D01*
X156402376Y-87511290D01*
X156447321Y-87500500D01*
X158934108Y-87500500D01*
X158997564Y-87500500D01*
X159002421Y-87500619D01*
X159031158Y-87502030D01*
X159338173Y-87517113D01*
X159347815Y-87518063D01*
X159677915Y-87567029D01*
X159687421Y-87568919D01*
X160011144Y-87650008D01*
X160020415Y-87652820D01*
X160334625Y-87765246D01*
X160343594Y-87768961D01*
X160645263Y-87911640D01*
X160653823Y-87916216D01*
X160903542Y-88065892D01*
X160940049Y-88087773D01*
X160948125Y-88093169D01*
X161003324Y-88134108D01*
X161216150Y-88291951D01*
X161223660Y-88298114D01*
X161302110Y-88369217D01*
X161470921Y-88522218D01*
X161477781Y-88529078D01*
X161542514Y-88600500D01*
X161701885Y-88776339D01*
X161708048Y-88783849D01*
X161906828Y-89051872D01*
X161912226Y-89059950D01*
X162083781Y-89346173D01*
X162088361Y-89354741D01*
X162231036Y-89656402D01*
X162234754Y-89665378D01*
X162347175Y-89979571D01*
X162349995Y-89988868D01*
X162431077Y-90312567D01*
X162432972Y-90322096D01*
X162481934Y-90652170D01*
X162482887Y-90661838D01*
X162493542Y-90878713D01*
X162496911Y-90947309D01*
X162499381Y-90997576D01*
X162499500Y-91002434D01*
X162499500Y-132997564D01*
X162499381Y-133002422D01*
X162482887Y-133338161D01*
X162481934Y-133347829D01*
X162432972Y-133677903D01*
X162431077Y-133687432D01*
X162349995Y-134011131D01*
X162347175Y-134020428D01*
X162234754Y-134334621D01*
X162231036Y-134343597D01*
X162088361Y-134645258D01*
X162083781Y-134653826D01*
X161912226Y-134940049D01*
X161906828Y-134948127D01*
X161708048Y-135216150D01*
X161701885Y-135223660D01*
X161477786Y-135470916D01*
X161470916Y-135477786D01*
X161223660Y-135701885D01*
X161216150Y-135708048D01*
X160948127Y-135906828D01*
X160940049Y-135912226D01*
X160653826Y-136083781D01*
X160645258Y-136088361D01*
X160343597Y-136231036D01*
X160334621Y-136234754D01*
X160020428Y-136347175D01*
X160011131Y-136349995D01*
X159687432Y-136431077D01*
X159677903Y-136432972D01*
X159347829Y-136481934D01*
X159338161Y-136482887D01*
X159002422Y-136499381D01*
X158997564Y-136499500D01*
X143105227Y-136499500D01*
X143047036Y-136480593D01*
X143011072Y-136431093D01*
X143008129Y-136381186D01*
X143020045Y-136321278D01*
X143020500Y-136318993D01*
X143020500Y-135581007D01*
X142993580Y-135445672D01*
X142975978Y-135403177D01*
X142940777Y-135318193D01*
X142940771Y-135318182D01*
X142864114Y-135203458D01*
X142766541Y-135105885D01*
X142651817Y-135029228D01*
X142651806Y-135029222D01*
X142524328Y-134976420D01*
X142388995Y-134949500D01*
X142388993Y-134949500D01*
X142251007Y-134949500D01*
X142251004Y-134949500D01*
X142115672Y-134976420D01*
X142115670Y-134976420D01*
X141988193Y-135029222D01*
X141988182Y-135029228D01*
X141873458Y-135105885D01*
X141775885Y-135203458D01*
X141699228Y-135318182D01*
X141699222Y-135318193D01*
X141646420Y-135445670D01*
X141646420Y-135445672D01*
X141619500Y-135581004D01*
X141619500Y-136318995D01*
X141631871Y-136381186D01*
X141624679Y-136441947D01*
X141583147Y-136486877D01*
X141534773Y-136499500D01*
X134465227Y-136499500D01*
X134407036Y-136480593D01*
X134371072Y-136431093D01*
X134368129Y-136381186D01*
X134380045Y-136321278D01*
X134380500Y-136318993D01*
X134380500Y-135581007D01*
X134353580Y-135445672D01*
X134335978Y-135403177D01*
X134300777Y-135318193D01*
X134300771Y-135318182D01*
X134224114Y-135203458D01*
X134126541Y-135105885D01*
X134011817Y-135029228D01*
X134011806Y-135029222D01*
X133884328Y-134976420D01*
X133748995Y-134949500D01*
X133748993Y-134949500D01*
X133611007Y-134949500D01*
X133611004Y-134949500D01*
X133475672Y-134976420D01*
X133475670Y-134976420D01*
X133348193Y-135029222D01*
X133348182Y-135029228D01*
X133233458Y-135105885D01*
X133135885Y-135203458D01*
X133059228Y-135318182D01*
X133059222Y-135318193D01*
X133006420Y-135445670D01*
X133006420Y-135445672D01*
X132979500Y-135581004D01*
X132979500Y-136318995D01*
X132991871Y-136381186D01*
X132984679Y-136441947D01*
X132943147Y-136486877D01*
X132894773Y-136499500D01*
X117002436Y-136499500D01*
X116997578Y-136499381D01*
X116661838Y-136482887D01*
X116652170Y-136481934D01*
X116322096Y-136432972D01*
X116312567Y-136431077D01*
X115988868Y-136349995D01*
X115979571Y-136347175D01*
X115665378Y-136234754D01*
X115656402Y-136231036D01*
X115354741Y-136088361D01*
X115346173Y-136083781D01*
X115059950Y-135912226D01*
X115051872Y-135906828D01*
X114783849Y-135708048D01*
X114776339Y-135701885D01*
X114529083Y-135477786D01*
X114522218Y-135470921D01*
X114298114Y-135223660D01*
X114291951Y-135216150D01*
X114093171Y-134948127D01*
X114087773Y-134940049D01*
X114055311Y-134885890D01*
X113916216Y-134653823D01*
X113911638Y-134645258D01*
X113902912Y-134626809D01*
X113768961Y-134343594D01*
X113765245Y-134334621D01*
X113759835Y-134319500D01*
X113652820Y-134020415D01*
X113650008Y-134011144D01*
X113568919Y-133687421D01*
X113567029Y-133677915D01*
X113518063Y-133347815D01*
X113517113Y-133338173D01*
X113500619Y-133002421D01*
X113500500Y-132997564D01*
X113500500Y-132878712D01*
X115149500Y-132878712D01*
X115149500Y-133121288D01*
X115178476Y-133341390D01*
X115181161Y-133361781D01*
X115181161Y-133361786D01*
X115243944Y-133596092D01*
X115243948Y-133596105D01*
X115336772Y-133820204D01*
X115336774Y-133820208D01*
X115336776Y-133820212D01*
X115452371Y-134020428D01*
X115458066Y-134030292D01*
X115605729Y-134222731D01*
X115605731Y-134222733D01*
X115605735Y-134222738D01*
X115777262Y-134394265D01*
X115777266Y-134394268D01*
X115777268Y-134394270D01*
X115931597Y-134512690D01*
X115969711Y-134541936D01*
X116179788Y-134663224D01*
X116179794Y-134663226D01*
X116179795Y-134663227D01*
X116216406Y-134678391D01*
X116403900Y-134756054D01*
X116638211Y-134818838D01*
X116878712Y-134850500D01*
X116878713Y-134850500D01*
X117121287Y-134850500D01*
X117121288Y-134850500D01*
X117361789Y-134818838D01*
X117596100Y-134756054D01*
X117600798Y-134754108D01*
X121489500Y-134754108D01*
X121489500Y-134885892D01*
X121506176Y-134948127D01*
X121523609Y-135013190D01*
X121589496Y-135127309D01*
X121589498Y-135127311D01*
X121589500Y-135127314D01*
X121682686Y-135220500D01*
X121682688Y-135220501D01*
X121682690Y-135220503D01*
X121796810Y-135286390D01*
X121796808Y-135286390D01*
X121796812Y-135286391D01*
X121796814Y-135286392D01*
X121924108Y-135320500D01*
X121924110Y-135320500D01*
X122055890Y-135320500D01*
X122055892Y-135320500D01*
X122183186Y-135286392D01*
X122183188Y-135286390D01*
X122183190Y-135286390D01*
X122297309Y-135220503D01*
X122297309Y-135220502D01*
X122297314Y-135220500D01*
X122390500Y-135127314D01*
X122390503Y-135127309D01*
X122456390Y-135013190D01*
X122456390Y-135013188D01*
X122456392Y-135013186D01*
X122490500Y-134885892D01*
X122490500Y-134754108D01*
X122466385Y-134664108D01*
X134729500Y-134664108D01*
X134729500Y-134795892D01*
X134744132Y-134850499D01*
X134763609Y-134923190D01*
X134829496Y-135037309D01*
X134829498Y-135037311D01*
X134829500Y-135037314D01*
X134922686Y-135130500D01*
X134922688Y-135130501D01*
X134922690Y-135130503D01*
X135036810Y-135196390D01*
X135036808Y-135196390D01*
X135036812Y-135196391D01*
X135036814Y-135196392D01*
X135164108Y-135230500D01*
X135164110Y-135230500D01*
X135295890Y-135230500D01*
X135295892Y-135230500D01*
X135423186Y-135196392D01*
X135423188Y-135196390D01*
X135423190Y-135196390D01*
X135537309Y-135130503D01*
X135537309Y-135130502D01*
X135537314Y-135130500D01*
X135630500Y-135037314D01*
X135630503Y-135037309D01*
X135696390Y-134923190D01*
X135696390Y-134923188D01*
X135696392Y-134923186D01*
X135730500Y-134795892D01*
X135730500Y-134664108D01*
X135696392Y-134536814D01*
X135696390Y-134536811D01*
X135696390Y-134536809D01*
X135630503Y-134422690D01*
X135630501Y-134422688D01*
X135630500Y-134422686D01*
X135537314Y-134329500D01*
X135537311Y-134329498D01*
X135537309Y-134329496D01*
X135423189Y-134263609D01*
X135423191Y-134263609D01*
X135373799Y-134250375D01*
X135295892Y-134229500D01*
X135164108Y-134229500D01*
X135086200Y-134250375D01*
X135036809Y-134263609D01*
X134922690Y-134329496D01*
X134829496Y-134422690D01*
X134763609Y-134536809D01*
X134744539Y-134607978D01*
X134729500Y-134664108D01*
X122466385Y-134664108D01*
X122456392Y-134626814D01*
X122456390Y-134626811D01*
X122456390Y-134626809D01*
X122390503Y-134512690D01*
X122390501Y-134512688D01*
X122390500Y-134512686D01*
X122297314Y-134419500D01*
X122297311Y-134419498D01*
X122297309Y-134419496D01*
X122183189Y-134353609D01*
X122183191Y-134353609D01*
X122129418Y-134339201D01*
X122055892Y-134319500D01*
X121924108Y-134319500D01*
X121850582Y-134339201D01*
X121796809Y-134353609D01*
X121682690Y-134419496D01*
X121589496Y-134512690D01*
X121523609Y-134626809D01*
X121513851Y-134663227D01*
X121489500Y-134754108D01*
X117600798Y-134754108D01*
X117771884Y-134683242D01*
X117820208Y-134663226D01*
X117820210Y-134663225D01*
X117820212Y-134663224D01*
X118030289Y-134541936D01*
X118222738Y-134394265D01*
X118394265Y-134222738D01*
X118541936Y-134030289D01*
X118663224Y-133820212D01*
X118756054Y-133596100D01*
X118818838Y-133361789D01*
X118850500Y-133121288D01*
X118850500Y-132878712D01*
X118818838Y-132638211D01*
X118756054Y-132403900D01*
X118663224Y-132179788D01*
X118541936Y-131969711D01*
X118524229Y-131946635D01*
X118402421Y-131787890D01*
X118402419Y-131787888D01*
X118394268Y-131777266D01*
X118394265Y-131777262D01*
X118351111Y-131734108D01*
X130749500Y-131734108D01*
X130749500Y-131865892D01*
X130771135Y-131946635D01*
X130783609Y-131993190D01*
X130849496Y-132107309D01*
X130849498Y-132107311D01*
X130849500Y-132107314D01*
X130942686Y-132200500D01*
X130942688Y-132200501D01*
X130942690Y-132200503D01*
X131056810Y-132266390D01*
X131056808Y-132266390D01*
X131056812Y-132266391D01*
X131056814Y-132266392D01*
X131184108Y-132300500D01*
X131184110Y-132300500D01*
X131315890Y-132300500D01*
X131315892Y-132300500D01*
X131443186Y-132266392D01*
X131443188Y-132266390D01*
X131443190Y-132266390D01*
X131557309Y-132200503D01*
X131557309Y-132200502D01*
X131557314Y-132200500D01*
X131650500Y-132107314D01*
X131664043Y-132083857D01*
X131716390Y-131993190D01*
X131716390Y-131993188D01*
X131716392Y-131993186D01*
X131750500Y-131865892D01*
X131750500Y-131734108D01*
X131716392Y-131606814D01*
X131716390Y-131606811D01*
X131716390Y-131606809D01*
X131650503Y-131492690D01*
X131650501Y-131492688D01*
X131650500Y-131492686D01*
X131557314Y-131399500D01*
X131557311Y-131399498D01*
X131557309Y-131399496D01*
X131443189Y-131333609D01*
X131443191Y-131333609D01*
X131393799Y-131320375D01*
X131315892Y-131299500D01*
X131184108Y-131299500D01*
X131106200Y-131320375D01*
X131056809Y-131333609D01*
X130942690Y-131399496D01*
X130849496Y-131492690D01*
X130783609Y-131606809D01*
X130783608Y-131606814D01*
X130749500Y-131734108D01*
X118351111Y-131734108D01*
X118222738Y-131605735D01*
X118222733Y-131605731D01*
X118222731Y-131605729D01*
X118030292Y-131458066D01*
X118030289Y-131458064D01*
X117820212Y-131336776D01*
X117820208Y-131336774D01*
X117820204Y-131336772D01*
X117596105Y-131243948D01*
X117596104Y-131243947D01*
X117596100Y-131243946D01*
X117361789Y-131181162D01*
X117361786Y-131181161D01*
X117361784Y-131181161D01*
X117132713Y-131151004D01*
X132979500Y-131151004D01*
X132979500Y-132388995D01*
X132990807Y-132445835D01*
X133005984Y-132522138D01*
X133006420Y-132524327D01*
X133006420Y-132524329D01*
X133059222Y-132651806D01*
X133059228Y-132651817D01*
X133135885Y-132766541D01*
X133233458Y-132864114D01*
X133348182Y-132940771D01*
X133348193Y-132940777D01*
X133348471Y-132940892D01*
X133475672Y-132993580D01*
X133611007Y-133020500D01*
X133611008Y-133020500D01*
X133748992Y-133020500D01*
X133748993Y-133020500D01*
X133884328Y-132993580D01*
X134011811Y-132940775D01*
X134126542Y-132864114D01*
X134224114Y-132766542D01*
X134300775Y-132651811D01*
X134353580Y-132524328D01*
X134364790Y-132467968D01*
X134394686Y-132414585D01*
X134450251Y-132388969D01*
X134510261Y-132400906D01*
X134551794Y-132445835D01*
X134557515Y-132461660D01*
X134573720Y-132522139D01*
X134649481Y-132653360D01*
X134649483Y-132653362D01*
X134649485Y-132653365D01*
X134756635Y-132760515D01*
X134756637Y-132760516D01*
X134756639Y-132760518D01*
X134887861Y-132836279D01*
X134887859Y-132836279D01*
X134887863Y-132836280D01*
X134887865Y-132836281D01*
X135034234Y-132875500D01*
X135034236Y-132875500D01*
X135185764Y-132875500D01*
X135185766Y-132875500D01*
X135332135Y-132836281D01*
X135332137Y-132836279D01*
X135332139Y-132836279D01*
X135379200Y-132809108D01*
X136249500Y-132809108D01*
X136249500Y-132940892D01*
X136270831Y-133020500D01*
X136283609Y-133068190D01*
X136349496Y-133182309D01*
X136349498Y-133182311D01*
X136349500Y-133182314D01*
X136442686Y-133275500D01*
X136442688Y-133275501D01*
X136442690Y-133275503D01*
X136556810Y-133341390D01*
X136556808Y-133341390D01*
X136556812Y-133341391D01*
X136556814Y-133341392D01*
X136684108Y-133375500D01*
X136684110Y-133375500D01*
X136815890Y-133375500D01*
X136815892Y-133375500D01*
X136943186Y-133341392D01*
X136943188Y-133341390D01*
X136943190Y-133341390D01*
X137057309Y-133275503D01*
X137057309Y-133275502D01*
X137057314Y-133275500D01*
X137150500Y-133182314D01*
X137185733Y-133121289D01*
X137216390Y-133068190D01*
X137216390Y-133068188D01*
X137216392Y-133068186D01*
X137250500Y-132940892D01*
X137250500Y-132809108D01*
X137216392Y-132681814D01*
X137216390Y-132681811D01*
X137216390Y-132681809D01*
X137150503Y-132567690D01*
X137150501Y-132567688D01*
X137150500Y-132567686D01*
X137057314Y-132474500D01*
X137057311Y-132474498D01*
X137057309Y-132474496D01*
X136943189Y-132408609D01*
X136943191Y-132408609D01*
X136893799Y-132395375D01*
X136815892Y-132374500D01*
X136684108Y-132374500D01*
X136606200Y-132395375D01*
X136556809Y-132408609D01*
X136442690Y-132474496D01*
X136349496Y-132567690D01*
X136283609Y-132681809D01*
X136283608Y-132681814D01*
X136249500Y-132809108D01*
X135379200Y-132809108D01*
X135463360Y-132760518D01*
X135463360Y-132760517D01*
X135463365Y-132760515D01*
X135570515Y-132653365D01*
X135619982Y-132567686D01*
X135646279Y-132522139D01*
X135646279Y-132522137D01*
X135646281Y-132522135D01*
X135685500Y-132375766D01*
X135685500Y-132224234D01*
X140314500Y-132224234D01*
X140314500Y-132375766D01*
X140349086Y-132504847D01*
X140353720Y-132522139D01*
X140429481Y-132653360D01*
X140429483Y-132653362D01*
X140429485Y-132653365D01*
X140536635Y-132760515D01*
X140536637Y-132760516D01*
X140536639Y-132760518D01*
X140667861Y-132836279D01*
X140667859Y-132836279D01*
X140667863Y-132836280D01*
X140667865Y-132836281D01*
X140814234Y-132875500D01*
X140814236Y-132875500D01*
X140965764Y-132875500D01*
X140965766Y-132875500D01*
X141112135Y-132836281D01*
X141112137Y-132836279D01*
X141112139Y-132836279D01*
X141243360Y-132760518D01*
X141243360Y-132760517D01*
X141243365Y-132760515D01*
X141350515Y-132653365D01*
X141426281Y-132522135D01*
X141442485Y-132461658D01*
X141475807Y-132410346D01*
X141532929Y-132388419D01*
X141592029Y-132404254D01*
X141630535Y-132451804D01*
X141635209Y-132467968D01*
X141646420Y-132524329D01*
X141699222Y-132651806D01*
X141699228Y-132651817D01*
X141775885Y-132766541D01*
X141873458Y-132864114D01*
X141988182Y-132940771D01*
X141988193Y-132940777D01*
X141988471Y-132940892D01*
X142115672Y-132993580D01*
X142251007Y-133020500D01*
X142251008Y-133020500D01*
X142388992Y-133020500D01*
X142388993Y-133020500D01*
X142524328Y-132993580D01*
X142651811Y-132940775D01*
X142744695Y-132878712D01*
X157149500Y-132878712D01*
X157149500Y-133121288D01*
X157178476Y-133341390D01*
X157181161Y-133361781D01*
X157181161Y-133361786D01*
X157243944Y-133596092D01*
X157243948Y-133596105D01*
X157336772Y-133820204D01*
X157336774Y-133820208D01*
X157336776Y-133820212D01*
X157452371Y-134020428D01*
X157458066Y-134030292D01*
X157605729Y-134222731D01*
X157605731Y-134222733D01*
X157605735Y-134222738D01*
X157777262Y-134394265D01*
X157777266Y-134394268D01*
X157777268Y-134394270D01*
X157931597Y-134512690D01*
X157969711Y-134541936D01*
X158179788Y-134663224D01*
X158179794Y-134663226D01*
X158179795Y-134663227D01*
X158216406Y-134678391D01*
X158403900Y-134756054D01*
X158638211Y-134818838D01*
X158878712Y-134850500D01*
X158878713Y-134850500D01*
X159121287Y-134850500D01*
X159121288Y-134850500D01*
X159361789Y-134818838D01*
X159596100Y-134756054D01*
X159820212Y-134663224D01*
X160030289Y-134541936D01*
X160222738Y-134394265D01*
X160394265Y-134222738D01*
X160541936Y-134030289D01*
X160663224Y-133820212D01*
X160756054Y-133596100D01*
X160818838Y-133361789D01*
X160850500Y-133121288D01*
X160850500Y-132878712D01*
X160818838Y-132638211D01*
X160756054Y-132403900D01*
X160663224Y-132179788D01*
X160541936Y-131969711D01*
X160462272Y-131865890D01*
X160394270Y-131777268D01*
X160394268Y-131777266D01*
X160394265Y-131777262D01*
X160222738Y-131605735D01*
X160222733Y-131605731D01*
X160222731Y-131605729D01*
X160030292Y-131458066D01*
X160030289Y-131458064D01*
X159820212Y-131336776D01*
X159820208Y-131336774D01*
X159820204Y-131336772D01*
X159596105Y-131243948D01*
X159596104Y-131243947D01*
X159596100Y-131243946D01*
X159361789Y-131181162D01*
X159361786Y-131181161D01*
X159361784Y-131181161D01*
X159121289Y-131149500D01*
X159121288Y-131149500D01*
X158878712Y-131149500D01*
X158878710Y-131149500D01*
X158638218Y-131181161D01*
X158638213Y-131181161D01*
X158403907Y-131243944D01*
X158403894Y-131243948D01*
X158179795Y-131336772D01*
X157969707Y-131458066D01*
X157777268Y-131605729D01*
X157605729Y-131777268D01*
X157458066Y-131969707D01*
X157336772Y-132179795D01*
X157243948Y-132403894D01*
X157243944Y-132403907D01*
X157181161Y-132638213D01*
X157181161Y-132638218D01*
X157165061Y-132760515D01*
X157149500Y-132878712D01*
X142744695Y-132878712D01*
X142766542Y-132864114D01*
X142864114Y-132766542D01*
X142940775Y-132651811D01*
X142993580Y-132524328D01*
X143020500Y-132388993D01*
X143020500Y-131151007D01*
X142993580Y-131015672D01*
X142940775Y-130888189D01*
X142940774Y-130888187D01*
X142940771Y-130888182D01*
X142864114Y-130773458D01*
X142766541Y-130675885D01*
X142651817Y-130599228D01*
X142651806Y-130599222D01*
X142524328Y-130546420D01*
X142388995Y-130519500D01*
X142388993Y-130519500D01*
X142251007Y-130519500D01*
X142251004Y-130519500D01*
X142115672Y-130546420D01*
X142115670Y-130546420D01*
X141988193Y-130599222D01*
X141988182Y-130599228D01*
X141873458Y-130675885D01*
X141775885Y-130773458D01*
X141699228Y-130888182D01*
X141699222Y-130888193D01*
X141646420Y-131015670D01*
X141646420Y-131015672D01*
X141619500Y-131151004D01*
X141619500Y-132046989D01*
X141600593Y-132105180D01*
X141551093Y-132141144D01*
X141489907Y-132141144D01*
X141440407Y-132105180D01*
X141429993Y-132083347D01*
X141428763Y-132083857D01*
X141426279Y-132077861D01*
X141350518Y-131946639D01*
X141350516Y-131946637D01*
X141350515Y-131946635D01*
X141243365Y-131839485D01*
X141243362Y-131839483D01*
X141243360Y-131839481D01*
X141112138Y-131763720D01*
X141112140Y-131763720D01*
X141055347Y-131748503D01*
X140965766Y-131724500D01*
X140814234Y-131724500D01*
X140724652Y-131748503D01*
X140667860Y-131763720D01*
X140536639Y-131839481D01*
X140429481Y-131946639D01*
X140353720Y-132077860D01*
X140339745Y-132130016D01*
X140314500Y-132224234D01*
X135685500Y-132224234D01*
X135646281Y-132077865D01*
X135646279Y-132077861D01*
X135646279Y-132077860D01*
X135570518Y-131946639D01*
X135570516Y-131946637D01*
X135570515Y-131946635D01*
X135463365Y-131839485D01*
X135463362Y-131839483D01*
X135463360Y-131839481D01*
X135332138Y-131763720D01*
X135332140Y-131763720D01*
X135275347Y-131748503D01*
X135185766Y-131724500D01*
X135034234Y-131724500D01*
X134944652Y-131748503D01*
X134887860Y-131763720D01*
X134756639Y-131839481D01*
X134649481Y-131946639D01*
X134573720Y-132077861D01*
X134571237Y-132083857D01*
X134568548Y-132082743D01*
X134541800Y-132123928D01*
X134484678Y-132145853D01*
X134425578Y-132130016D01*
X134387075Y-132082465D01*
X134380500Y-132046989D01*
X134380500Y-131151008D01*
X134380499Y-131151004D01*
X134380200Y-131149500D01*
X134353580Y-131015672D01*
X134300775Y-130888189D01*
X134300774Y-130888187D01*
X134300771Y-130888182D01*
X134224114Y-130773458D01*
X134126541Y-130675885D01*
X134011817Y-130599228D01*
X134011806Y-130599222D01*
X133884328Y-130546420D01*
X133748995Y-130519500D01*
X133748993Y-130519500D01*
X133611007Y-130519500D01*
X133611004Y-130519500D01*
X133475672Y-130546420D01*
X133475670Y-130546420D01*
X133348193Y-130599222D01*
X133348182Y-130599228D01*
X133233458Y-130675885D01*
X133135885Y-130773458D01*
X133059228Y-130888182D01*
X133059222Y-130888193D01*
X133006420Y-131015670D01*
X133006420Y-131015672D01*
X132979500Y-131151004D01*
X117132713Y-131151004D01*
X117121289Y-131149500D01*
X117121288Y-131149500D01*
X116878712Y-131149500D01*
X116878710Y-131149500D01*
X116638218Y-131181161D01*
X116638213Y-131181161D01*
X116403907Y-131243944D01*
X116403894Y-131243948D01*
X116179795Y-131336772D01*
X115969707Y-131458066D01*
X115777268Y-131605729D01*
X115605729Y-131777268D01*
X115458066Y-131969707D01*
X115336772Y-132179795D01*
X115243948Y-132403894D01*
X115243944Y-132403907D01*
X115181161Y-132638213D01*
X115181161Y-132638218D01*
X115165061Y-132760515D01*
X115149500Y-132878712D01*
X113500500Y-132878712D01*
X113500500Y-130284108D01*
X146699500Y-130284108D01*
X146699500Y-130415892D01*
X146727261Y-130519500D01*
X146733609Y-130543190D01*
X146799496Y-130657309D01*
X146799498Y-130657311D01*
X146799500Y-130657314D01*
X146892686Y-130750500D01*
X146892688Y-130750501D01*
X146892690Y-130750503D01*
X147006810Y-130816390D01*
X147006808Y-130816390D01*
X147006812Y-130816391D01*
X147006814Y-130816392D01*
X147134108Y-130850500D01*
X147134110Y-130850500D01*
X147265890Y-130850500D01*
X147265892Y-130850500D01*
X147393186Y-130816392D01*
X147393188Y-130816390D01*
X147393190Y-130816390D01*
X147507309Y-130750503D01*
X147507309Y-130750502D01*
X147507314Y-130750500D01*
X147600500Y-130657314D01*
X147666392Y-130543186D01*
X147700500Y-130415892D01*
X147700500Y-130284108D01*
X147666392Y-130156814D01*
X147666390Y-130156811D01*
X147666390Y-130156809D01*
X147600503Y-130042690D01*
X147600501Y-130042688D01*
X147600500Y-130042686D01*
X147507314Y-129949500D01*
X147507311Y-129949498D01*
X147507309Y-129949496D01*
X147393189Y-129883609D01*
X147393191Y-129883609D01*
X147343799Y-129870375D01*
X147265892Y-129849500D01*
X147134108Y-129849500D01*
X147056200Y-129870375D01*
X147006809Y-129883609D01*
X146892690Y-129949496D01*
X146799496Y-130042690D01*
X146733609Y-130156809D01*
X146721902Y-130200500D01*
X146699500Y-130284108D01*
X113500500Y-130284108D01*
X113500500Y-129634108D01*
X134249500Y-129634108D01*
X134249500Y-129765892D01*
X134279579Y-129878151D01*
X134283609Y-129893190D01*
X134349496Y-130007309D01*
X134349498Y-130007311D01*
X134349500Y-130007314D01*
X134442686Y-130100500D01*
X134442688Y-130100501D01*
X134442690Y-130100503D01*
X134556810Y-130166390D01*
X134556808Y-130166390D01*
X134556812Y-130166391D01*
X134556814Y-130166392D01*
X134684108Y-130200500D01*
X134684110Y-130200500D01*
X134815890Y-130200500D01*
X134815892Y-130200500D01*
X134943186Y-130166392D01*
X134943188Y-130166390D01*
X134943190Y-130166390D01*
X135057309Y-130100503D01*
X135057309Y-130100502D01*
X135057314Y-130100500D01*
X135150500Y-130007314D01*
X135183879Y-129949500D01*
X135216390Y-129893190D01*
X135216390Y-129893188D01*
X135216392Y-129893186D01*
X135238124Y-129812078D01*
X135271447Y-129760767D01*
X135328568Y-129738840D01*
X135359368Y-129742076D01*
X135484108Y-129775500D01*
X135484110Y-129775500D01*
X135615890Y-129775500D01*
X135615892Y-129775500D01*
X135743186Y-129741392D01*
X135743188Y-129741390D01*
X135743190Y-129741390D01*
X135857309Y-129675503D01*
X135857309Y-129675502D01*
X135857314Y-129675500D01*
X135950500Y-129582314D01*
X136016392Y-129468186D01*
X136050500Y-129340892D01*
X136050500Y-129209108D01*
X139924500Y-129209108D01*
X139924500Y-129340892D01*
X139938378Y-129392686D01*
X139958609Y-129468190D01*
X140024496Y-129582309D01*
X140024498Y-129582311D01*
X140024500Y-129582314D01*
X140117686Y-129675500D01*
X140117688Y-129675501D01*
X140117690Y-129675503D01*
X140231810Y-129741390D01*
X140231808Y-129741390D01*
X140231812Y-129741391D01*
X140231814Y-129741392D01*
X140359108Y-129775500D01*
X140359110Y-129775500D01*
X140490890Y-129775500D01*
X140490892Y-129775500D01*
X140618186Y-129741392D01*
X140618188Y-129741390D01*
X140618191Y-129741390D01*
X140624184Y-129738908D01*
X140625160Y-129741265D01*
X140674301Y-129730802D01*
X140730206Y-129755668D01*
X140759614Y-129803638D01*
X140780839Y-129882853D01*
X140783609Y-129893190D01*
X140849496Y-130007309D01*
X140849498Y-130007311D01*
X140849500Y-130007314D01*
X140942686Y-130100500D01*
X140942688Y-130100501D01*
X140942690Y-130100503D01*
X141056810Y-130166390D01*
X141056808Y-130166390D01*
X141056812Y-130166391D01*
X141056814Y-130166392D01*
X141184108Y-130200500D01*
X141184110Y-130200500D01*
X141315890Y-130200500D01*
X141315892Y-130200500D01*
X141443186Y-130166392D01*
X141443188Y-130166390D01*
X141443190Y-130166390D01*
X141557309Y-130100503D01*
X141557309Y-130100502D01*
X141557314Y-130100500D01*
X141650500Y-130007314D01*
X141683879Y-129949500D01*
X141716390Y-129893190D01*
X141716390Y-129893188D01*
X141716392Y-129893186D01*
X141750500Y-129765892D01*
X141750500Y-129634108D01*
X141716392Y-129506814D01*
X141716390Y-129506811D01*
X141716390Y-129506809D01*
X141650503Y-129392690D01*
X141650501Y-129392688D01*
X141650500Y-129392686D01*
X141557314Y-129299500D01*
X141557311Y-129299498D01*
X141557309Y-129299496D01*
X141443189Y-129233609D01*
X141443191Y-129233609D01*
X141389750Y-129219290D01*
X141315892Y-129199500D01*
X141184108Y-129199500D01*
X141129123Y-129214233D01*
X141056808Y-129233609D01*
X141050816Y-129236092D01*
X141049843Y-129233744D01*
X141000637Y-129244191D01*
X140944748Y-129219290D01*
X140915385Y-129171360D01*
X140891392Y-129081814D01*
X140891389Y-129081809D01*
X140825503Y-128967690D01*
X140825501Y-128967688D01*
X140825500Y-128967686D01*
X140732314Y-128874500D01*
X140732311Y-128874498D01*
X140732309Y-128874496D01*
X140618189Y-128808609D01*
X140618191Y-128808609D01*
X140568799Y-128795375D01*
X140490892Y-128774500D01*
X140359108Y-128774500D01*
X140281200Y-128795375D01*
X140231809Y-128808609D01*
X140117690Y-128874496D01*
X140024496Y-128967690D01*
X139958609Y-129081809D01*
X139958608Y-129081814D01*
X139924500Y-129209108D01*
X136050500Y-129209108D01*
X136016392Y-129081814D01*
X136016390Y-129081810D01*
X136016390Y-129081809D01*
X135950503Y-128967690D01*
X135950501Y-128967688D01*
X135950500Y-128967686D01*
X135857314Y-128874500D01*
X135857311Y-128874498D01*
X135857309Y-128874496D01*
X135743189Y-128808609D01*
X135743191Y-128808609D01*
X135693799Y-128795375D01*
X135615892Y-128774500D01*
X135484108Y-128774500D01*
X135406200Y-128795375D01*
X135356809Y-128808609D01*
X135242690Y-128874496D01*
X135149496Y-128967690D01*
X135083609Y-129081810D01*
X135083607Y-129081814D01*
X135061875Y-129162919D01*
X135028551Y-129214233D01*
X134971429Y-129236159D01*
X134940627Y-129232922D01*
X134870877Y-129214233D01*
X134815892Y-129199500D01*
X134684108Y-129199500D01*
X134610250Y-129219290D01*
X134556809Y-129233609D01*
X134442690Y-129299496D01*
X134349496Y-129392690D01*
X134283609Y-129506809D01*
X134283608Y-129506814D01*
X134249500Y-129634108D01*
X113500500Y-129634108D01*
X113500500Y-128354108D01*
X118969500Y-128354108D01*
X118969500Y-128485892D01*
X118980352Y-128526392D01*
X119003609Y-128613190D01*
X119069496Y-128727309D01*
X119069498Y-128727311D01*
X119069500Y-128727314D01*
X119162686Y-128820500D01*
X119162688Y-128820501D01*
X119162690Y-128820503D01*
X119276810Y-128886390D01*
X119276808Y-128886390D01*
X119276812Y-128886391D01*
X119276814Y-128886392D01*
X119404108Y-128920500D01*
X119404110Y-128920500D01*
X119535890Y-128920500D01*
X119535892Y-128920500D01*
X119663186Y-128886392D01*
X119663188Y-128886390D01*
X119663190Y-128886390D01*
X119777309Y-128820503D01*
X119777309Y-128820502D01*
X119777314Y-128820500D01*
X119870500Y-128727314D01*
X119936392Y-128613186D01*
X119970500Y-128485892D01*
X119970500Y-128354108D01*
X119936392Y-128226814D01*
X119936390Y-128226811D01*
X119936390Y-128226809D01*
X119870503Y-128112690D01*
X119870501Y-128112688D01*
X119870500Y-128112686D01*
X119777314Y-128019500D01*
X119777311Y-128019498D01*
X119777309Y-128019496D01*
X119663189Y-127953609D01*
X119663191Y-127953609D01*
X119613799Y-127940375D01*
X119535892Y-127919500D01*
X119404108Y-127919500D01*
X119326200Y-127940375D01*
X119276809Y-127953609D01*
X119162690Y-128019496D01*
X119069496Y-128112690D01*
X119003609Y-128226809D01*
X118993004Y-128266390D01*
X118969500Y-128354108D01*
X113500500Y-128354108D01*
X113500500Y-127314108D01*
X123719500Y-127314108D01*
X123719500Y-127445892D01*
X123747529Y-127550500D01*
X123753609Y-127573190D01*
X123819496Y-127687309D01*
X123819498Y-127687311D01*
X123819500Y-127687314D01*
X123912686Y-127780500D01*
X123912688Y-127780501D01*
X123912690Y-127780503D01*
X124026810Y-127846390D01*
X124026808Y-127846390D01*
X124026812Y-127846391D01*
X124026814Y-127846392D01*
X124154108Y-127880500D01*
X124154110Y-127880500D01*
X124285890Y-127880500D01*
X124285892Y-127880500D01*
X124413186Y-127846392D01*
X124413188Y-127846390D01*
X124413190Y-127846390D01*
X124527309Y-127780503D01*
X124527309Y-127780502D01*
X124527314Y-127780500D01*
X124573706Y-127734108D01*
X137499500Y-127734108D01*
X137499500Y-127865892D01*
X137529579Y-127978151D01*
X137533609Y-127993190D01*
X137599496Y-128107309D01*
X137599498Y-128107311D01*
X137599500Y-128107314D01*
X137692686Y-128200500D01*
X137692688Y-128200501D01*
X137692690Y-128200503D01*
X137806810Y-128266390D01*
X137806808Y-128266390D01*
X137806812Y-128266391D01*
X137806814Y-128266392D01*
X137934108Y-128300500D01*
X137934110Y-128300500D01*
X138065890Y-128300500D01*
X138065892Y-128300500D01*
X138193186Y-128266392D01*
X138193188Y-128266390D01*
X138193190Y-128266390D01*
X138307309Y-128200503D01*
X138307309Y-128200502D01*
X138307314Y-128200500D01*
X138400500Y-128107314D01*
X138466392Y-127993186D01*
X138482222Y-127934108D01*
X144699500Y-127934108D01*
X144699500Y-128065892D01*
X144715577Y-128125892D01*
X144733609Y-128193190D01*
X144799496Y-128307309D01*
X144799498Y-128307311D01*
X144799500Y-128307314D01*
X144892686Y-128400500D01*
X144892688Y-128400501D01*
X144892690Y-128400503D01*
X145006810Y-128466390D01*
X145006808Y-128466390D01*
X145006812Y-128466391D01*
X145006814Y-128466392D01*
X145134108Y-128500500D01*
X145134110Y-128500500D01*
X145265890Y-128500500D01*
X145265892Y-128500500D01*
X145393186Y-128466392D01*
X145393188Y-128466390D01*
X145393190Y-128466390D01*
X145507309Y-128400503D01*
X145507309Y-128400502D01*
X145507314Y-128400500D01*
X145600500Y-128307314D01*
X145604434Y-128300500D01*
X145666390Y-128193190D01*
X145666390Y-128193188D01*
X145666392Y-128193186D01*
X145700500Y-128065892D01*
X145700500Y-127994108D01*
X154579500Y-127994108D01*
X154579500Y-128125892D01*
X154597531Y-128193186D01*
X154613609Y-128253190D01*
X154679496Y-128367309D01*
X154679498Y-128367311D01*
X154679500Y-128367314D01*
X154772686Y-128460500D01*
X154772688Y-128460501D01*
X154772690Y-128460503D01*
X154886810Y-128526390D01*
X154886808Y-128526390D01*
X154886812Y-128526391D01*
X154886814Y-128526392D01*
X155014108Y-128560500D01*
X155014110Y-128560500D01*
X155145890Y-128560500D01*
X155145892Y-128560500D01*
X155273186Y-128526392D01*
X155273188Y-128526390D01*
X155273190Y-128526390D01*
X155387309Y-128460503D01*
X155387309Y-128460502D01*
X155387314Y-128460500D01*
X155480500Y-128367314D01*
X155519075Y-128300500D01*
X155546390Y-128253190D01*
X155546390Y-128253188D01*
X155546392Y-128253186D01*
X155580500Y-128125892D01*
X155580500Y-128074108D01*
X160599500Y-128074108D01*
X160599500Y-128205892D01*
X160615710Y-128266390D01*
X160633609Y-128333190D01*
X160699496Y-128447309D01*
X160699498Y-128447311D01*
X160699500Y-128447314D01*
X160792686Y-128540500D01*
X160792688Y-128540501D01*
X160792690Y-128540503D01*
X160906810Y-128606390D01*
X160906808Y-128606390D01*
X160906812Y-128606391D01*
X160906814Y-128606392D01*
X161034108Y-128640500D01*
X161034110Y-128640500D01*
X161165890Y-128640500D01*
X161165892Y-128640500D01*
X161293186Y-128606392D01*
X161293188Y-128606390D01*
X161293190Y-128606390D01*
X161407309Y-128540503D01*
X161407309Y-128540502D01*
X161407314Y-128540500D01*
X161500500Y-128447314D01*
X161500503Y-128447309D01*
X161566390Y-128333190D01*
X161566390Y-128333188D01*
X161566392Y-128333186D01*
X161600500Y-128205892D01*
X161600500Y-128074108D01*
X161566392Y-127946814D01*
X161566390Y-127946811D01*
X161566390Y-127946809D01*
X161500503Y-127832690D01*
X161500501Y-127832688D01*
X161500500Y-127832686D01*
X161407314Y-127739500D01*
X161407311Y-127739498D01*
X161407309Y-127739496D01*
X161293189Y-127673609D01*
X161293191Y-127673609D01*
X161240519Y-127659496D01*
X161165892Y-127639500D01*
X161034108Y-127639500D01*
X160959481Y-127659496D01*
X160906809Y-127673609D01*
X160792690Y-127739496D01*
X160699496Y-127832690D01*
X160633609Y-127946809D01*
X160631787Y-127953609D01*
X160599500Y-128074108D01*
X155580500Y-128074108D01*
X155580500Y-127994108D01*
X155546392Y-127866814D01*
X155546390Y-127866811D01*
X155546390Y-127866809D01*
X155480503Y-127752690D01*
X155480501Y-127752688D01*
X155480500Y-127752686D01*
X155387314Y-127659500D01*
X155387311Y-127659498D01*
X155387309Y-127659496D01*
X155273189Y-127593609D01*
X155273191Y-127593609D01*
X155196969Y-127573186D01*
X155145892Y-127559500D01*
X155014108Y-127559500D01*
X154963031Y-127573186D01*
X154886809Y-127593609D01*
X154772690Y-127659496D01*
X154679496Y-127752690D01*
X154613609Y-127866809D01*
X154613608Y-127866814D01*
X154579500Y-127994108D01*
X145700500Y-127994108D01*
X145700500Y-127934108D01*
X145666392Y-127806814D01*
X145666390Y-127806811D01*
X145666390Y-127806809D01*
X145600503Y-127692690D01*
X145600501Y-127692688D01*
X145600500Y-127692686D01*
X145507314Y-127599500D01*
X145507311Y-127599498D01*
X145507309Y-127599496D01*
X145393189Y-127533609D01*
X145393191Y-127533609D01*
X145328927Y-127516390D01*
X145265892Y-127499500D01*
X145134108Y-127499500D01*
X145071073Y-127516390D01*
X145006809Y-127533609D01*
X144892690Y-127599496D01*
X144799496Y-127692690D01*
X144733609Y-127806809D01*
X144717531Y-127866814D01*
X144699500Y-127934108D01*
X138482222Y-127934108D01*
X138500500Y-127865892D01*
X138500500Y-127734108D01*
X138466392Y-127606814D01*
X138466390Y-127606811D01*
X138466390Y-127606809D01*
X138400503Y-127492690D01*
X138400501Y-127492688D01*
X138400500Y-127492686D01*
X138307314Y-127399500D01*
X138307311Y-127399498D01*
X138307309Y-127399496D01*
X138193189Y-127333609D01*
X138193191Y-127333609D01*
X138143799Y-127320375D01*
X138065892Y-127299500D01*
X137934108Y-127299500D01*
X137856200Y-127320375D01*
X137806809Y-127333609D01*
X137692690Y-127399496D01*
X137599496Y-127492690D01*
X137533609Y-127606809D01*
X137514539Y-127677978D01*
X137499500Y-127734108D01*
X124573706Y-127734108D01*
X124620500Y-127687314D01*
X124686392Y-127573186D01*
X124720500Y-127445892D01*
X124720500Y-127314108D01*
X124686392Y-127186814D01*
X124686390Y-127186811D01*
X124686390Y-127186809D01*
X124620503Y-127072690D01*
X124620501Y-127072688D01*
X124620500Y-127072686D01*
X124527314Y-126979500D01*
X124527311Y-126979498D01*
X124527309Y-126979496D01*
X124413189Y-126913609D01*
X124413191Y-126913609D01*
X124363799Y-126900375D01*
X124285892Y-126879500D01*
X124154108Y-126879500D01*
X124076200Y-126900375D01*
X124026809Y-126913609D01*
X123912690Y-126979496D01*
X123819496Y-127072690D01*
X123753609Y-127186809D01*
X123738984Y-127241392D01*
X123719500Y-127314108D01*
X113500500Y-127314108D01*
X113500500Y-126709108D01*
X114749500Y-126709108D01*
X114749500Y-126840892D01*
X114779579Y-126953151D01*
X114783609Y-126968190D01*
X114849496Y-127082309D01*
X114849498Y-127082311D01*
X114849500Y-127082314D01*
X114942686Y-127175500D01*
X114942688Y-127175501D01*
X114942690Y-127175503D01*
X115056810Y-127241390D01*
X115056808Y-127241390D01*
X115056812Y-127241391D01*
X115056814Y-127241392D01*
X115184108Y-127275500D01*
X115184110Y-127275500D01*
X115315890Y-127275500D01*
X115315892Y-127275500D01*
X115443186Y-127241392D01*
X115443188Y-127241390D01*
X115443190Y-127241390D01*
X115476978Y-127221883D01*
X115557309Y-127175503D01*
X115557309Y-127175502D01*
X115557314Y-127175500D01*
X115650500Y-127082314D01*
X115650503Y-127082309D01*
X115716390Y-126968190D01*
X115716390Y-126968188D01*
X115716392Y-126968186D01*
X115750500Y-126840892D01*
X115750500Y-126709108D01*
X115716392Y-126581814D01*
X115716390Y-126581811D01*
X115716390Y-126581809D01*
X115700397Y-126554108D01*
X127379500Y-126554108D01*
X127379500Y-126685892D01*
X127409579Y-126798151D01*
X127413609Y-126813190D01*
X127479496Y-126927309D01*
X127479498Y-126927311D01*
X127479500Y-126927314D01*
X127572686Y-127020500D01*
X127572688Y-127020501D01*
X127572690Y-127020503D01*
X127686810Y-127086390D01*
X127686808Y-127086390D01*
X127686812Y-127086391D01*
X127686814Y-127086392D01*
X127814108Y-127120500D01*
X127814110Y-127120500D01*
X127945890Y-127120500D01*
X127945892Y-127120500D01*
X128073186Y-127086392D01*
X128073188Y-127086390D01*
X128073190Y-127086390D01*
X128187309Y-127020503D01*
X128187309Y-127020502D01*
X128187314Y-127020500D01*
X128223706Y-126984108D01*
X146699500Y-126984108D01*
X146699500Y-127115892D01*
X146727900Y-127221883D01*
X146733609Y-127243190D01*
X146799496Y-127357309D01*
X146799498Y-127357311D01*
X146799500Y-127357314D01*
X146892686Y-127450500D01*
X146892688Y-127450501D01*
X146892690Y-127450503D01*
X147006810Y-127516390D01*
X147006808Y-127516390D01*
X147006812Y-127516391D01*
X147006814Y-127516392D01*
X147134108Y-127550500D01*
X147134110Y-127550500D01*
X147265890Y-127550500D01*
X147265892Y-127550500D01*
X147393186Y-127516392D01*
X147393188Y-127516390D01*
X147393190Y-127516390D01*
X147507309Y-127450503D01*
X147507309Y-127450502D01*
X147507314Y-127450500D01*
X147600500Y-127357314D01*
X147614187Y-127333608D01*
X147666390Y-127243190D01*
X147666390Y-127243188D01*
X147666392Y-127243186D01*
X147700500Y-127115892D01*
X147700500Y-126984108D01*
X147666392Y-126856814D01*
X147666390Y-126856811D01*
X147666390Y-126856809D01*
X147600503Y-126742690D01*
X147600501Y-126742688D01*
X147600500Y-126742686D01*
X147507314Y-126649500D01*
X147507311Y-126649498D01*
X147507309Y-126649496D01*
X147393189Y-126583609D01*
X147393191Y-126583609D01*
X147343799Y-126570375D01*
X147265892Y-126549500D01*
X147134108Y-126549500D01*
X147056200Y-126570375D01*
X147006809Y-126583609D01*
X146892690Y-126649496D01*
X146799496Y-126742690D01*
X146733609Y-126856809D01*
X146733608Y-126856814D01*
X146699500Y-126984108D01*
X128223706Y-126984108D01*
X128280500Y-126927314D01*
X128288413Y-126913608D01*
X128346390Y-126813190D01*
X128346390Y-126813188D01*
X128346392Y-126813186D01*
X128380500Y-126685892D01*
X128380500Y-126554108D01*
X128346392Y-126426814D01*
X128316188Y-126374500D01*
X128288833Y-126327119D01*
X128288832Y-126327117D01*
X128280501Y-126312688D01*
X128280500Y-126312686D01*
X128251922Y-126284108D01*
X151199500Y-126284108D01*
X151199500Y-126415892D01*
X151202426Y-126426812D01*
X151233609Y-126543190D01*
X151299496Y-126657309D01*
X151299498Y-126657311D01*
X151299500Y-126657314D01*
X151392686Y-126750500D01*
X151392688Y-126750501D01*
X151392690Y-126750503D01*
X151506810Y-126816390D01*
X151506808Y-126816390D01*
X151506812Y-126816391D01*
X151506814Y-126816392D01*
X151634108Y-126850500D01*
X151634110Y-126850500D01*
X151765890Y-126850500D01*
X151765892Y-126850500D01*
X151893186Y-126816392D01*
X151893188Y-126816390D01*
X151893190Y-126816390D01*
X152007309Y-126750503D01*
X152007309Y-126750502D01*
X152007314Y-126750500D01*
X152100500Y-126657314D01*
X152100503Y-126657309D01*
X152166390Y-126543190D01*
X152166390Y-126543188D01*
X152166392Y-126543186D01*
X152200500Y-126415892D01*
X152200500Y-126284108D01*
X152166392Y-126156814D01*
X152166390Y-126156811D01*
X152166390Y-126156809D01*
X152100503Y-126042690D01*
X152100501Y-126042688D01*
X152100500Y-126042686D01*
X152007314Y-125949500D01*
X152007311Y-125949498D01*
X152007309Y-125949496D01*
X151893189Y-125883609D01*
X151893191Y-125883609D01*
X151843799Y-125870375D01*
X151765892Y-125849500D01*
X151634108Y-125849500D01*
X151556200Y-125870375D01*
X151506809Y-125883609D01*
X151392690Y-125949496D01*
X151299496Y-126042690D01*
X151233609Y-126156809D01*
X151233608Y-126156814D01*
X151199500Y-126284108D01*
X128251922Y-126284108D01*
X128187314Y-126219500D01*
X128187311Y-126219498D01*
X128187309Y-126219496D01*
X128073189Y-126153609D01*
X128073191Y-126153609D01*
X128023799Y-126140375D01*
X127945892Y-126119500D01*
X127814108Y-126119500D01*
X127736200Y-126140375D01*
X127686809Y-126153609D01*
X127572690Y-126219496D01*
X127479496Y-126312690D01*
X127413609Y-126426809D01*
X127413608Y-126426814D01*
X127379500Y-126554108D01*
X115700397Y-126554108D01*
X115650503Y-126467690D01*
X115650501Y-126467688D01*
X115650500Y-126467686D01*
X115557314Y-126374500D01*
X115557311Y-126374498D01*
X115557309Y-126374496D01*
X115443189Y-126308609D01*
X115443191Y-126308609D01*
X115393799Y-126295375D01*
X115315892Y-126274500D01*
X115184108Y-126274500D01*
X115106200Y-126295375D01*
X115056809Y-126308609D01*
X114942690Y-126374496D01*
X114849496Y-126467690D01*
X114783609Y-126581809D01*
X114783608Y-126581814D01*
X114749500Y-126709108D01*
X113500500Y-126709108D01*
X113500500Y-124484108D01*
X141299500Y-124484108D01*
X141299500Y-124615892D01*
X141329579Y-124728151D01*
X141333609Y-124743190D01*
X141399496Y-124857309D01*
X141399498Y-124857311D01*
X141399500Y-124857314D01*
X141492686Y-124950500D01*
X141492688Y-124950501D01*
X141492690Y-124950503D01*
X141606810Y-125016390D01*
X141606808Y-125016390D01*
X141606812Y-125016391D01*
X141606814Y-125016392D01*
X141734108Y-125050500D01*
X141734110Y-125050500D01*
X141865890Y-125050500D01*
X141865892Y-125050500D01*
X141993186Y-125016392D01*
X141993188Y-125016390D01*
X141993190Y-125016390D01*
X142107309Y-124950503D01*
X142107309Y-124950502D01*
X142107314Y-124950500D01*
X142200500Y-124857314D01*
X142266392Y-124743186D01*
X142300500Y-124615892D01*
X142300500Y-124484108D01*
X142266392Y-124356814D01*
X142266390Y-124356811D01*
X142266390Y-124356809D01*
X142200503Y-124242690D01*
X142200501Y-124242688D01*
X142200500Y-124242686D01*
X142107314Y-124149500D01*
X142107311Y-124149498D01*
X142107309Y-124149496D01*
X141993189Y-124083609D01*
X141993191Y-124083609D01*
X141943799Y-124070375D01*
X141865892Y-124049500D01*
X141734108Y-124049500D01*
X141656200Y-124070375D01*
X141606809Y-124083609D01*
X141492690Y-124149496D01*
X141399496Y-124242690D01*
X141333609Y-124356809D01*
X141333608Y-124356814D01*
X141299500Y-124484108D01*
X113500500Y-124484108D01*
X113500500Y-123884108D01*
X161149500Y-123884108D01*
X161149500Y-124015892D01*
X161167644Y-124083608D01*
X161183609Y-124143190D01*
X161249496Y-124257309D01*
X161249498Y-124257311D01*
X161249500Y-124257314D01*
X161342686Y-124350500D01*
X161342688Y-124350501D01*
X161342690Y-124350503D01*
X161456810Y-124416390D01*
X161456808Y-124416390D01*
X161456812Y-124416391D01*
X161456814Y-124416392D01*
X161584108Y-124450500D01*
X161584110Y-124450500D01*
X161715890Y-124450500D01*
X161715892Y-124450500D01*
X161843186Y-124416392D01*
X161843188Y-124416390D01*
X161843190Y-124416390D01*
X161957309Y-124350503D01*
X161957309Y-124350502D01*
X161957314Y-124350500D01*
X162050500Y-124257314D01*
X162116392Y-124143186D01*
X162150500Y-124015892D01*
X162150500Y-123884108D01*
X162116392Y-123756814D01*
X162116390Y-123756811D01*
X162116390Y-123756809D01*
X162050503Y-123642690D01*
X162050501Y-123642688D01*
X162050500Y-123642686D01*
X161957314Y-123549500D01*
X161957311Y-123549498D01*
X161957309Y-123549496D01*
X161843189Y-123483609D01*
X161843191Y-123483609D01*
X161793799Y-123470375D01*
X161715892Y-123449500D01*
X161584108Y-123449500D01*
X161506200Y-123470375D01*
X161456809Y-123483609D01*
X161342690Y-123549496D01*
X161249496Y-123642690D01*
X161183609Y-123756809D01*
X161183608Y-123756814D01*
X161149500Y-123884108D01*
X113500500Y-123884108D01*
X113500500Y-122634108D01*
X144299500Y-122634108D01*
X144299500Y-122765892D01*
X144329579Y-122878151D01*
X144333609Y-122893190D01*
X144399496Y-123007309D01*
X144399498Y-123007311D01*
X144399500Y-123007314D01*
X144492686Y-123100500D01*
X144492688Y-123100501D01*
X144492690Y-123100503D01*
X144606810Y-123166390D01*
X144606808Y-123166390D01*
X144606812Y-123166391D01*
X144606814Y-123166392D01*
X144734108Y-123200500D01*
X144734110Y-123200500D01*
X144865890Y-123200500D01*
X144865892Y-123200500D01*
X144993186Y-123166392D01*
X144993188Y-123166390D01*
X144993190Y-123166390D01*
X145107309Y-123100503D01*
X145107309Y-123100502D01*
X145107314Y-123100500D01*
X145200500Y-123007314D01*
X145266392Y-122893186D01*
X145300500Y-122765892D01*
X145300500Y-122634108D01*
X145266392Y-122506814D01*
X145266390Y-122506811D01*
X145266390Y-122506809D01*
X145200503Y-122392690D01*
X145200501Y-122392688D01*
X145200500Y-122392686D01*
X145107314Y-122299500D01*
X145107311Y-122299498D01*
X145107309Y-122299496D01*
X144993189Y-122233609D01*
X144993191Y-122233609D01*
X144943799Y-122220375D01*
X144865892Y-122199500D01*
X144734108Y-122199500D01*
X144656200Y-122220375D01*
X144606809Y-122233609D01*
X144492690Y-122299496D01*
X144399496Y-122392690D01*
X144333609Y-122506809D01*
X144333608Y-122506814D01*
X144299500Y-122634108D01*
X113500500Y-122634108D01*
X113500500Y-121904108D01*
X116259500Y-121904108D01*
X116259500Y-122035892D01*
X116289579Y-122148151D01*
X116293609Y-122163190D01*
X116359496Y-122277309D01*
X116359498Y-122277311D01*
X116359500Y-122277314D01*
X116452686Y-122370500D01*
X116452688Y-122370501D01*
X116452690Y-122370503D01*
X116566810Y-122436390D01*
X116566808Y-122436390D01*
X116566812Y-122436391D01*
X116566814Y-122436392D01*
X116694108Y-122470500D01*
X116694110Y-122470500D01*
X116825890Y-122470500D01*
X116825892Y-122470500D01*
X116953186Y-122436392D01*
X116953188Y-122436390D01*
X116953190Y-122436390D01*
X117067309Y-122370503D01*
X117067309Y-122370502D01*
X117067314Y-122370500D01*
X117160500Y-122277314D01*
X117226392Y-122163186D01*
X117260500Y-122035892D01*
X117260500Y-121904108D01*
X117226392Y-121776814D01*
X117226390Y-121776811D01*
X117226390Y-121776809D01*
X117160503Y-121662690D01*
X117160501Y-121662688D01*
X117160500Y-121662686D01*
X117067314Y-121569500D01*
X117067311Y-121569498D01*
X117067309Y-121569496D01*
X116953189Y-121503609D01*
X116953191Y-121503609D01*
X116903799Y-121490375D01*
X116825892Y-121469500D01*
X116694108Y-121469500D01*
X116616200Y-121490375D01*
X116566809Y-121503609D01*
X116452690Y-121569496D01*
X116359496Y-121662690D01*
X116293609Y-121776809D01*
X116293608Y-121776814D01*
X116259500Y-121904108D01*
X113500500Y-121904108D01*
X113500500Y-121284108D01*
X152299500Y-121284108D01*
X152299500Y-121415892D01*
X152329579Y-121528151D01*
X152333609Y-121543190D01*
X152399496Y-121657309D01*
X152399498Y-121657311D01*
X152399500Y-121657314D01*
X152492686Y-121750500D01*
X152492688Y-121750501D01*
X152492690Y-121750503D01*
X152606810Y-121816390D01*
X152606808Y-121816390D01*
X152606812Y-121816391D01*
X152606814Y-121816392D01*
X152734108Y-121850500D01*
X152734110Y-121850500D01*
X152865890Y-121850500D01*
X152865892Y-121850500D01*
X152993186Y-121816392D01*
X152993188Y-121816390D01*
X152993190Y-121816390D01*
X153107309Y-121750503D01*
X153107309Y-121750502D01*
X153107314Y-121750500D01*
X153200500Y-121657314D01*
X153266392Y-121543186D01*
X153300500Y-121415892D01*
X153300500Y-121284108D01*
X153266392Y-121156814D01*
X153266390Y-121156811D01*
X153266390Y-121156809D01*
X153200503Y-121042690D01*
X153200501Y-121042688D01*
X153200500Y-121042686D01*
X153107314Y-120949500D01*
X153107311Y-120949498D01*
X153107309Y-120949496D01*
X152993189Y-120883609D01*
X152993191Y-120883609D01*
X152943799Y-120870375D01*
X152865892Y-120849500D01*
X152734108Y-120849500D01*
X152656200Y-120870375D01*
X152606809Y-120883609D01*
X152492690Y-120949496D01*
X152399496Y-121042690D01*
X152333609Y-121156809D01*
X152324209Y-121191891D01*
X152299500Y-121284108D01*
X113500500Y-121284108D01*
X113500500Y-120051532D01*
X119074500Y-120051532D01*
X119074500Y-120258467D01*
X119114869Y-120461418D01*
X119194058Y-120652597D01*
X119309020Y-120824651D01*
X119309023Y-120824655D01*
X119455345Y-120970977D01*
X119627402Y-121085941D01*
X119818580Y-121165130D01*
X120021535Y-121205500D01*
X120021536Y-121205500D01*
X120228464Y-121205500D01*
X120228465Y-121205500D01*
X120431420Y-121165130D01*
X120622598Y-121085941D01*
X120794655Y-120970977D01*
X120940977Y-120824655D01*
X121055941Y-120652598D01*
X121135130Y-120461420D01*
X121175500Y-120258465D01*
X121175500Y-120051535D01*
X121175499Y-120051532D01*
X121614500Y-120051532D01*
X121614500Y-120258467D01*
X121654869Y-120461418D01*
X121734058Y-120652597D01*
X121849020Y-120824651D01*
X121849023Y-120824655D01*
X121995345Y-120970977D01*
X122167402Y-121085941D01*
X122358580Y-121165130D01*
X122561535Y-121205500D01*
X122561536Y-121205500D01*
X122768464Y-121205500D01*
X122768465Y-121205500D01*
X122971420Y-121165130D01*
X123162598Y-121085941D01*
X123334655Y-120970977D01*
X123480977Y-120824655D01*
X123563457Y-120701214D01*
X140014393Y-120701214D01*
X140014393Y-120832998D01*
X140018815Y-120849500D01*
X140048502Y-120960296D01*
X140114389Y-121074415D01*
X140114391Y-121074417D01*
X140114393Y-121074420D01*
X140207579Y-121167606D01*
X140207581Y-121167607D01*
X140207583Y-121167609D01*
X140321703Y-121233496D01*
X140321701Y-121233496D01*
X140321705Y-121233497D01*
X140321707Y-121233498D01*
X140449001Y-121267606D01*
X140449003Y-121267606D01*
X140580783Y-121267606D01*
X140580785Y-121267606D01*
X140708079Y-121233498D01*
X140708081Y-121233496D01*
X140708083Y-121233496D01*
X140780145Y-121191891D01*
X140780151Y-121191886D01*
X140822207Y-121167606D01*
X140915393Y-121074420D01*
X140915396Y-121074415D01*
X140981283Y-120960296D01*
X140981283Y-120960294D01*
X140981285Y-120960292D01*
X141015393Y-120832998D01*
X141015393Y-120701214D01*
X140981285Y-120573920D01*
X140981283Y-120573917D01*
X140981283Y-120573915D01*
X140915396Y-120459796D01*
X140915394Y-120459794D01*
X140915393Y-120459792D01*
X140822207Y-120366606D01*
X140822204Y-120366604D01*
X140822202Y-120366602D01*
X140800562Y-120354108D01*
X161279500Y-120354108D01*
X161279500Y-120485892D01*
X161303087Y-120573920D01*
X161313609Y-120613190D01*
X161379496Y-120727309D01*
X161379498Y-120727311D01*
X161379500Y-120727314D01*
X161472686Y-120820500D01*
X161472688Y-120820501D01*
X161472690Y-120820503D01*
X161586810Y-120886390D01*
X161586808Y-120886390D01*
X161586812Y-120886391D01*
X161586814Y-120886392D01*
X161714108Y-120920500D01*
X161714110Y-120920500D01*
X161845890Y-120920500D01*
X161845892Y-120920500D01*
X161973186Y-120886392D01*
X161973188Y-120886390D01*
X161973190Y-120886390D01*
X162087309Y-120820503D01*
X162087309Y-120820502D01*
X162087314Y-120820500D01*
X162180500Y-120727314D01*
X162195569Y-120701214D01*
X162246390Y-120613190D01*
X162246390Y-120613188D01*
X162246392Y-120613186D01*
X162280500Y-120485892D01*
X162280500Y-120354108D01*
X162246392Y-120226814D01*
X162246390Y-120226811D01*
X162246390Y-120226809D01*
X162180503Y-120112690D01*
X162180501Y-120112688D01*
X162180500Y-120112686D01*
X162087314Y-120019500D01*
X162087311Y-120019498D01*
X162087309Y-120019496D01*
X161973189Y-119953609D01*
X161973191Y-119953609D01*
X161923799Y-119940375D01*
X161845892Y-119919500D01*
X161714108Y-119919500D01*
X161636200Y-119940375D01*
X161586809Y-119953609D01*
X161472690Y-120019496D01*
X161379496Y-120112690D01*
X161313609Y-120226809D01*
X161302946Y-120266606D01*
X161279500Y-120354108D01*
X140800562Y-120354108D01*
X140708082Y-120300715D01*
X140708084Y-120300715D01*
X140658692Y-120287481D01*
X140580785Y-120266606D01*
X140449001Y-120266606D01*
X140371093Y-120287481D01*
X140321702Y-120300715D01*
X140207583Y-120366602D01*
X140114389Y-120459796D01*
X140048502Y-120573915D01*
X140048501Y-120573920D01*
X140014393Y-120701214D01*
X123563457Y-120701214D01*
X123595941Y-120652598D01*
X123675130Y-120461420D01*
X123715500Y-120258465D01*
X123715500Y-120051535D01*
X123675130Y-119848580D01*
X123595941Y-119657402D01*
X123480977Y-119485345D01*
X123334655Y-119339023D01*
X123334651Y-119339020D01*
X123162597Y-119224058D01*
X122971418Y-119144869D01*
X122768467Y-119104500D01*
X122768465Y-119104500D01*
X122561535Y-119104500D01*
X122561532Y-119104500D01*
X122358581Y-119144869D01*
X122167402Y-119224058D01*
X121995348Y-119339020D01*
X121849020Y-119485348D01*
X121734058Y-119657402D01*
X121654869Y-119848581D01*
X121614500Y-120051532D01*
X121175499Y-120051532D01*
X121135130Y-119848580D01*
X121055941Y-119657402D01*
X120940977Y-119485345D01*
X120794655Y-119339023D01*
X120794651Y-119339020D01*
X120622597Y-119224058D01*
X120431418Y-119144869D01*
X120228467Y-119104500D01*
X120228465Y-119104500D01*
X120021535Y-119104500D01*
X120021532Y-119104500D01*
X119818581Y-119144869D01*
X119627402Y-119224058D01*
X119455348Y-119339020D01*
X119309020Y-119485348D01*
X119194058Y-119657402D01*
X119114869Y-119848581D01*
X119074500Y-120051532D01*
X113500500Y-120051532D01*
X113500500Y-118684108D01*
X153399500Y-118684108D01*
X153399500Y-118815892D01*
X153429579Y-118928151D01*
X153433609Y-118943190D01*
X153499496Y-119057309D01*
X153499498Y-119057311D01*
X153499500Y-119057314D01*
X153592686Y-119150500D01*
X153592688Y-119150501D01*
X153592690Y-119150503D01*
X153706810Y-119216390D01*
X153706808Y-119216390D01*
X153706812Y-119216391D01*
X153706814Y-119216392D01*
X153834108Y-119250500D01*
X153834110Y-119250500D01*
X153965890Y-119250500D01*
X153965892Y-119250500D01*
X154093186Y-119216392D01*
X154093188Y-119216390D01*
X154093190Y-119216390D01*
X154207309Y-119150503D01*
X154207309Y-119150502D01*
X154207314Y-119150500D01*
X154300500Y-119057314D01*
X154366392Y-118943186D01*
X154395619Y-118834108D01*
X154999500Y-118834108D01*
X154999500Y-118965892D01*
X155023995Y-119057309D01*
X155033609Y-119093190D01*
X155099496Y-119207309D01*
X155099498Y-119207311D01*
X155099500Y-119207314D01*
X155192686Y-119300500D01*
X155192688Y-119300501D01*
X155192690Y-119300503D01*
X155306810Y-119366390D01*
X155306808Y-119366390D01*
X155306812Y-119366391D01*
X155306814Y-119366392D01*
X155434108Y-119400500D01*
X155434110Y-119400500D01*
X155565890Y-119400500D01*
X155565892Y-119400500D01*
X155693186Y-119366392D01*
X155693188Y-119366390D01*
X155693190Y-119366390D01*
X155807309Y-119300503D01*
X155807309Y-119300502D01*
X155807314Y-119300500D01*
X155900500Y-119207314D01*
X155966392Y-119093186D01*
X156000500Y-118965892D01*
X156000500Y-118834108D01*
X155966392Y-118706814D01*
X155966390Y-118706811D01*
X155966390Y-118706809D01*
X155900503Y-118592690D01*
X155900501Y-118592688D01*
X155900500Y-118592686D01*
X155807314Y-118499500D01*
X155807311Y-118499498D01*
X155807309Y-118499496D01*
X155693189Y-118433609D01*
X155693191Y-118433609D01*
X155643799Y-118420375D01*
X155565892Y-118399500D01*
X155434108Y-118399500D01*
X155356200Y-118420375D01*
X155306809Y-118433609D01*
X155192690Y-118499496D01*
X155099496Y-118592690D01*
X155033609Y-118706809D01*
X155033608Y-118706814D01*
X154999500Y-118834108D01*
X154395619Y-118834108D01*
X154400500Y-118815892D01*
X154400500Y-118684108D01*
X154366392Y-118556814D01*
X154366390Y-118556811D01*
X154366390Y-118556809D01*
X154300503Y-118442690D01*
X154300501Y-118442688D01*
X154300500Y-118442686D01*
X154207314Y-118349500D01*
X154207311Y-118349498D01*
X154207309Y-118349496D01*
X154093189Y-118283609D01*
X154093191Y-118283609D01*
X154043799Y-118270375D01*
X153965892Y-118249500D01*
X153834108Y-118249500D01*
X153756200Y-118270375D01*
X153706809Y-118283609D01*
X153592690Y-118349496D01*
X153499496Y-118442690D01*
X153433609Y-118556809D01*
X153433608Y-118556814D01*
X153399500Y-118684108D01*
X113500500Y-118684108D01*
X113500500Y-117511532D01*
X119074500Y-117511532D01*
X119074500Y-117718467D01*
X119114869Y-117921418D01*
X119194058Y-118112597D01*
X119194059Y-118112598D01*
X119309023Y-118284655D01*
X119455345Y-118430977D01*
X119627402Y-118545941D01*
X119818580Y-118625130D01*
X120021535Y-118665500D01*
X120021536Y-118665500D01*
X120228464Y-118665500D01*
X120228465Y-118665500D01*
X120431420Y-118625130D01*
X120622598Y-118545941D01*
X120794655Y-118430977D01*
X120940977Y-118284655D01*
X121055941Y-118112598D01*
X121135130Y-117921420D01*
X121175500Y-117718465D01*
X121175500Y-117511535D01*
X121175499Y-117511532D01*
X121614500Y-117511532D01*
X121614500Y-117718467D01*
X121654869Y-117921418D01*
X121734058Y-118112597D01*
X121734059Y-118112598D01*
X121849023Y-118284655D01*
X121995345Y-118430977D01*
X122167402Y-118545941D01*
X122358580Y-118625130D01*
X122561535Y-118665500D01*
X122561536Y-118665500D01*
X122768464Y-118665500D01*
X122768465Y-118665500D01*
X122971420Y-118625130D01*
X123162598Y-118545941D01*
X123334655Y-118430977D01*
X123480977Y-118284655D01*
X123595941Y-118112598D01*
X123675130Y-117921420D01*
X123715500Y-117718465D01*
X123715500Y-117511535D01*
X123675130Y-117308580D01*
X123602861Y-117134108D01*
X161149500Y-117134108D01*
X161149500Y-117265892D01*
X161179579Y-117378151D01*
X161183609Y-117393190D01*
X161249496Y-117507309D01*
X161249498Y-117507311D01*
X161249500Y-117507314D01*
X161342686Y-117600500D01*
X161342688Y-117600501D01*
X161342690Y-117600503D01*
X161456810Y-117666390D01*
X161456808Y-117666390D01*
X161456812Y-117666391D01*
X161456814Y-117666392D01*
X161584108Y-117700500D01*
X161584110Y-117700500D01*
X161715890Y-117700500D01*
X161715892Y-117700500D01*
X161843186Y-117666392D01*
X161843188Y-117666390D01*
X161843190Y-117666390D01*
X161957309Y-117600503D01*
X161957309Y-117600502D01*
X161957314Y-117600500D01*
X162050500Y-117507314D01*
X162116392Y-117393186D01*
X162150500Y-117265892D01*
X162150500Y-117134108D01*
X162116392Y-117006814D01*
X162116390Y-117006811D01*
X162116390Y-117006809D01*
X162050503Y-116892690D01*
X162050501Y-116892688D01*
X162050500Y-116892686D01*
X161957314Y-116799500D01*
X161957311Y-116799498D01*
X161957309Y-116799496D01*
X161843189Y-116733609D01*
X161843191Y-116733609D01*
X161793799Y-116720375D01*
X161715892Y-116699500D01*
X161584108Y-116699500D01*
X161506200Y-116720375D01*
X161456809Y-116733609D01*
X161342690Y-116799496D01*
X161249496Y-116892690D01*
X161183609Y-117006809D01*
X161183608Y-117006814D01*
X161149500Y-117134108D01*
X123602861Y-117134108D01*
X123595941Y-117117402D01*
X123480977Y-116945345D01*
X123334655Y-116799023D01*
X123334651Y-116799020D01*
X123162597Y-116684058D01*
X122971418Y-116604869D01*
X122768467Y-116564500D01*
X122768465Y-116564500D01*
X122561535Y-116564500D01*
X122561532Y-116564500D01*
X122358581Y-116604869D01*
X122167402Y-116684058D01*
X121995348Y-116799020D01*
X121849020Y-116945348D01*
X121734058Y-117117402D01*
X121654869Y-117308581D01*
X121614500Y-117511532D01*
X121175499Y-117511532D01*
X121135130Y-117308580D01*
X121055941Y-117117402D01*
X120940977Y-116945345D01*
X120794655Y-116799023D01*
X120794651Y-116799020D01*
X120622597Y-116684058D01*
X120431418Y-116604869D01*
X120228467Y-116564500D01*
X120228465Y-116564500D01*
X120021535Y-116564500D01*
X120021532Y-116564500D01*
X119818581Y-116604869D01*
X119627402Y-116684058D01*
X119455348Y-116799020D01*
X119309020Y-116945348D01*
X119194058Y-117117402D01*
X119114869Y-117308581D01*
X119074500Y-117511532D01*
X113500500Y-117511532D01*
X113500500Y-114971532D01*
X119074500Y-114971532D01*
X119074500Y-115178467D01*
X119114869Y-115381418D01*
X119194058Y-115572597D01*
X119301976Y-115734109D01*
X119309023Y-115744655D01*
X119455345Y-115890977D01*
X119627402Y-116005941D01*
X119818580Y-116085130D01*
X120021535Y-116125500D01*
X120021536Y-116125500D01*
X120228464Y-116125500D01*
X120228465Y-116125500D01*
X120431420Y-116085130D01*
X120622598Y-116005941D01*
X120794655Y-115890977D01*
X120940977Y-115744655D01*
X121055941Y-115572598D01*
X121135130Y-115381420D01*
X121175500Y-115178465D01*
X121175500Y-114971535D01*
X121175499Y-114971532D01*
X121614500Y-114971532D01*
X121614500Y-115178467D01*
X121654869Y-115381418D01*
X121734058Y-115572597D01*
X121841976Y-115734109D01*
X121849023Y-115744655D01*
X121995345Y-115890977D01*
X122167402Y-116005941D01*
X122358580Y-116085130D01*
X122561535Y-116125500D01*
X122561536Y-116125500D01*
X122768464Y-116125500D01*
X122768465Y-116125500D01*
X122971420Y-116085130D01*
X123162598Y-116005941D01*
X123334655Y-115890977D01*
X123480977Y-115744655D01*
X123488024Y-115734108D01*
X128869500Y-115734108D01*
X128869500Y-115865892D01*
X128899579Y-115978151D01*
X128903609Y-115993190D01*
X128969496Y-116107309D01*
X128969498Y-116107311D01*
X128969500Y-116107314D01*
X129062686Y-116200500D01*
X129062688Y-116200501D01*
X129062690Y-116200503D01*
X129176810Y-116266390D01*
X129176808Y-116266390D01*
X129176812Y-116266391D01*
X129176814Y-116266392D01*
X129304108Y-116300500D01*
X129304110Y-116300500D01*
X129435890Y-116300500D01*
X129435892Y-116300500D01*
X129563186Y-116266392D01*
X129563188Y-116266390D01*
X129563190Y-116266390D01*
X129677309Y-116200503D01*
X129677309Y-116200502D01*
X129677314Y-116200500D01*
X129770500Y-116107314D01*
X129795445Y-116064108D01*
X139509500Y-116064108D01*
X139509500Y-116195892D01*
X139524132Y-116250500D01*
X139543609Y-116323190D01*
X139609496Y-116437309D01*
X139609498Y-116437311D01*
X139609500Y-116437314D01*
X139702686Y-116530500D01*
X139702688Y-116530501D01*
X139702690Y-116530503D01*
X139816810Y-116596390D01*
X139816808Y-116596390D01*
X139816812Y-116596391D01*
X139816814Y-116596392D01*
X139944108Y-116630500D01*
X139944110Y-116630500D01*
X140075890Y-116630500D01*
X140075892Y-116630500D01*
X140203186Y-116596392D01*
X140203188Y-116596390D01*
X140203190Y-116596390D01*
X140317309Y-116530503D01*
X140317309Y-116530502D01*
X140317314Y-116530500D01*
X140410500Y-116437314D01*
X140476392Y-116323186D01*
X140510500Y-116195892D01*
X140510500Y-116064108D01*
X140489064Y-115984108D01*
X141939500Y-115984108D01*
X141939500Y-116115892D01*
X141962171Y-116200503D01*
X141973609Y-116243190D01*
X142039496Y-116357309D01*
X142039498Y-116357311D01*
X142039500Y-116357314D01*
X142132686Y-116450500D01*
X142132688Y-116450501D01*
X142132690Y-116450503D01*
X142246810Y-116516390D01*
X142246808Y-116516390D01*
X142246812Y-116516391D01*
X142246814Y-116516392D01*
X142374108Y-116550500D01*
X142374110Y-116550500D01*
X142505890Y-116550500D01*
X142505892Y-116550500D01*
X142633186Y-116516392D01*
X142633188Y-116516390D01*
X142633190Y-116516390D01*
X142747309Y-116450503D01*
X142747309Y-116450502D01*
X142747314Y-116450500D01*
X142840500Y-116357314D01*
X142860204Y-116323186D01*
X142906390Y-116243190D01*
X142906390Y-116243188D01*
X142906392Y-116243186D01*
X142940500Y-116115892D01*
X142940500Y-115984108D01*
X142906392Y-115856814D01*
X142864415Y-115784108D01*
X151199500Y-115784108D01*
X151199500Y-115915892D01*
X151205105Y-115936809D01*
X151233609Y-116043190D01*
X151299496Y-116157309D01*
X151299498Y-116157311D01*
X151299500Y-116157314D01*
X151392686Y-116250500D01*
X151392688Y-116250501D01*
X151392690Y-116250503D01*
X151506810Y-116316390D01*
X151506808Y-116316390D01*
X151506812Y-116316391D01*
X151506814Y-116316392D01*
X151634108Y-116350500D01*
X151634110Y-116350500D01*
X151765890Y-116350500D01*
X151765892Y-116350500D01*
X151893186Y-116316392D01*
X151893188Y-116316390D01*
X151893190Y-116316390D01*
X152007309Y-116250503D01*
X152007309Y-116250502D01*
X152007314Y-116250500D01*
X152100500Y-116157314D01*
X152118868Y-116125500D01*
X152166390Y-116043190D01*
X152166390Y-116043188D01*
X152166392Y-116043186D01*
X152200500Y-115915892D01*
X152200500Y-115784108D01*
X152166392Y-115656814D01*
X152166390Y-115656811D01*
X152166390Y-115656809D01*
X152100503Y-115542690D01*
X152100501Y-115542688D01*
X152100500Y-115542686D01*
X152007314Y-115449500D01*
X152007311Y-115449498D01*
X152007309Y-115449496D01*
X151893189Y-115383609D01*
X151893191Y-115383609D01*
X151843799Y-115370375D01*
X151765892Y-115349500D01*
X151634108Y-115349500D01*
X151556200Y-115370375D01*
X151506809Y-115383609D01*
X151392690Y-115449496D01*
X151299496Y-115542690D01*
X151233609Y-115656809D01*
X151231787Y-115663609D01*
X151199500Y-115784108D01*
X142864415Y-115784108D01*
X142840500Y-115742686D01*
X142747314Y-115649500D01*
X142747311Y-115649498D01*
X142747309Y-115649496D01*
X142633189Y-115583609D01*
X142633191Y-115583609D01*
X142583799Y-115570375D01*
X142505892Y-115549500D01*
X142374108Y-115549500D01*
X142296200Y-115570375D01*
X142246809Y-115583609D01*
X142132690Y-115649496D01*
X142039496Y-115742690D01*
X141973609Y-115856809D01*
X141957779Y-115915890D01*
X141939500Y-115984108D01*
X140489064Y-115984108D01*
X140476392Y-115936814D01*
X140476390Y-115936811D01*
X140476390Y-115936809D01*
X140410503Y-115822690D01*
X140410501Y-115822688D01*
X140410500Y-115822686D01*
X140317314Y-115729500D01*
X140317311Y-115729498D01*
X140317309Y-115729496D01*
X140203189Y-115663609D01*
X140203191Y-115663609D01*
X140150519Y-115649496D01*
X140075892Y-115629500D01*
X139944108Y-115629500D01*
X139869481Y-115649496D01*
X139816809Y-115663609D01*
X139702690Y-115729496D01*
X139609496Y-115822690D01*
X139543609Y-115936809D01*
X139543608Y-115936814D01*
X139509500Y-116064108D01*
X129795445Y-116064108D01*
X129836392Y-115993186D01*
X129870500Y-115865892D01*
X129870500Y-115734108D01*
X129836392Y-115606814D01*
X129836390Y-115606811D01*
X129836390Y-115606809D01*
X129770503Y-115492690D01*
X129770501Y-115492688D01*
X129770500Y-115492686D01*
X129677314Y-115399500D01*
X129677311Y-115399498D01*
X129677309Y-115399496D01*
X129563189Y-115333609D01*
X129563191Y-115333609D01*
X129513799Y-115320375D01*
X129435892Y-115299500D01*
X129304108Y-115299500D01*
X129226200Y-115320375D01*
X129176809Y-115333609D01*
X129062690Y-115399496D01*
X128969496Y-115492690D01*
X128903609Y-115606809D01*
X128892170Y-115649500D01*
X128869500Y-115734108D01*
X123488024Y-115734108D01*
X123595941Y-115572598D01*
X123675130Y-115381420D01*
X123715500Y-115178465D01*
X123715500Y-114971535D01*
X123675130Y-114768580D01*
X123595941Y-114577402D01*
X123480977Y-114405345D01*
X123334655Y-114259023D01*
X123162598Y-114144059D01*
X123162599Y-114144059D01*
X123162597Y-114144058D01*
X123091735Y-114114706D01*
X122971420Y-114064870D01*
X122971418Y-114064869D01*
X122768467Y-114024500D01*
X122768465Y-114024500D01*
X122561535Y-114024500D01*
X122561532Y-114024500D01*
X122358581Y-114064869D01*
X122167402Y-114144058D01*
X121995348Y-114259020D01*
X121849020Y-114405348D01*
X121734058Y-114577402D01*
X121654869Y-114768581D01*
X121614500Y-114971532D01*
X121175499Y-114971532D01*
X121135130Y-114768580D01*
X121055941Y-114577402D01*
X120940977Y-114405345D01*
X120794655Y-114259023D01*
X120622598Y-114144059D01*
X120622599Y-114144059D01*
X120622597Y-114144058D01*
X120431418Y-114064869D01*
X120228467Y-114024500D01*
X120228465Y-114024500D01*
X120021535Y-114024500D01*
X120021532Y-114024500D01*
X119818581Y-114064869D01*
X119627402Y-114144058D01*
X119455348Y-114259020D01*
X119309020Y-114405348D01*
X119194058Y-114577402D01*
X119114869Y-114768581D01*
X119074500Y-114971532D01*
X113500500Y-114971532D01*
X113500500Y-114009108D01*
X145824500Y-114009108D01*
X145824500Y-114140892D01*
X145825349Y-114144059D01*
X145858609Y-114268190D01*
X145924496Y-114382309D01*
X145924498Y-114382311D01*
X145924500Y-114382314D01*
X146017686Y-114475500D01*
X146017688Y-114475501D01*
X146017690Y-114475503D01*
X146131810Y-114541390D01*
X146131808Y-114541390D01*
X146131812Y-114541391D01*
X146131814Y-114541392D01*
X146259108Y-114575500D01*
X146259110Y-114575500D01*
X146390890Y-114575500D01*
X146390892Y-114575500D01*
X146518186Y-114541392D01*
X146518188Y-114541390D01*
X146518190Y-114541390D01*
X146632309Y-114475503D01*
X146632309Y-114475502D01*
X146632314Y-114475500D01*
X146725500Y-114382314D01*
X146791392Y-114268186D01*
X146825500Y-114140892D01*
X146825500Y-114009108D01*
X146791392Y-113881814D01*
X146791390Y-113881811D01*
X146791390Y-113881809D01*
X146725503Y-113767690D01*
X146725501Y-113767688D01*
X146725500Y-113767686D01*
X146632314Y-113674500D01*
X146632311Y-113674498D01*
X146632309Y-113674496D01*
X146518189Y-113608609D01*
X146518191Y-113608609D01*
X146468799Y-113595375D01*
X146390892Y-113574500D01*
X146259108Y-113574500D01*
X146181200Y-113595375D01*
X146131809Y-113608609D01*
X146017690Y-113674496D01*
X145924496Y-113767690D01*
X145858609Y-113881809D01*
X145858608Y-113881814D01*
X145824500Y-114009108D01*
X113500500Y-114009108D01*
X113500500Y-112431532D01*
X119074500Y-112431532D01*
X119074500Y-112638467D01*
X119114869Y-112841418D01*
X119194058Y-113032597D01*
X119251249Y-113118190D01*
X119309023Y-113204655D01*
X119455345Y-113350977D01*
X119627402Y-113465941D01*
X119818580Y-113545130D01*
X120021535Y-113585500D01*
X120021536Y-113585500D01*
X120228464Y-113585500D01*
X120228465Y-113585500D01*
X120431420Y-113545130D01*
X120622598Y-113465941D01*
X120794655Y-113350977D01*
X120940977Y-113204655D01*
X121055941Y-113032598D01*
X121135130Y-112841420D01*
X121175500Y-112638465D01*
X121175500Y-112431535D01*
X121175499Y-112431532D01*
X121614500Y-112431532D01*
X121614500Y-112638467D01*
X121654869Y-112841418D01*
X121734058Y-113032597D01*
X121791249Y-113118190D01*
X121849023Y-113204655D01*
X121995345Y-113350977D01*
X122167402Y-113465941D01*
X122358580Y-113545130D01*
X122561535Y-113585500D01*
X122561536Y-113585500D01*
X122768464Y-113585500D01*
X122768465Y-113585500D01*
X122971420Y-113545130D01*
X123162598Y-113465941D01*
X123334655Y-113350977D01*
X123480977Y-113204655D01*
X123595941Y-113032598D01*
X123667803Y-112859108D01*
X128949500Y-112859108D01*
X128949500Y-112990892D01*
X128960675Y-113032597D01*
X128983609Y-113118190D01*
X129049496Y-113232309D01*
X129049498Y-113232311D01*
X129049500Y-113232314D01*
X129142686Y-113325500D01*
X129142688Y-113325501D01*
X129142690Y-113325503D01*
X129256810Y-113391390D01*
X129256808Y-113391390D01*
X129256812Y-113391391D01*
X129256814Y-113391392D01*
X129384108Y-113425500D01*
X129384110Y-113425500D01*
X129515890Y-113425500D01*
X129515892Y-113425500D01*
X129643186Y-113391392D01*
X129643188Y-113391390D01*
X129643190Y-113391390D01*
X129757309Y-113325503D01*
X129757309Y-113325502D01*
X129757314Y-113325500D01*
X129850500Y-113232314D01*
X129916392Y-113118186D01*
X129920164Y-113104108D01*
X155049500Y-113104108D01*
X155049500Y-113235892D01*
X155073510Y-113325500D01*
X155083609Y-113363190D01*
X155149496Y-113477309D01*
X155149498Y-113477311D01*
X155149500Y-113477314D01*
X155242686Y-113570500D01*
X155242688Y-113570501D01*
X155242690Y-113570503D01*
X155356810Y-113636390D01*
X155356808Y-113636390D01*
X155356812Y-113636391D01*
X155356814Y-113636392D01*
X155484108Y-113670500D01*
X155484110Y-113670500D01*
X155615890Y-113670500D01*
X155615892Y-113670500D01*
X155743186Y-113636392D01*
X155743188Y-113636390D01*
X155743190Y-113636390D01*
X155857309Y-113570503D01*
X155857309Y-113570502D01*
X155857314Y-113570500D01*
X155950500Y-113477314D01*
X156000107Y-113391392D01*
X156016390Y-113363190D01*
X156016390Y-113363188D01*
X156016392Y-113363186D01*
X156050500Y-113235892D01*
X156050500Y-113104108D01*
X156016392Y-112976814D01*
X156016390Y-112976811D01*
X156016390Y-112976809D01*
X155950503Y-112862690D01*
X155950501Y-112862688D01*
X155950500Y-112862686D01*
X155857314Y-112769500D01*
X155857311Y-112769498D01*
X155857309Y-112769496D01*
X155743189Y-112703609D01*
X155743191Y-112703609D01*
X155693799Y-112690375D01*
X155615892Y-112669500D01*
X155484108Y-112669500D01*
X155406200Y-112690375D01*
X155356809Y-112703609D01*
X155242690Y-112769496D01*
X155149496Y-112862690D01*
X155083609Y-112976809D01*
X155083608Y-112976814D01*
X155049500Y-113104108D01*
X129920164Y-113104108D01*
X129950500Y-112990892D01*
X129950500Y-112859108D01*
X129916392Y-112731814D01*
X129916390Y-112731811D01*
X129916390Y-112731809D01*
X129850503Y-112617690D01*
X129850501Y-112617688D01*
X129850500Y-112617686D01*
X129757314Y-112524500D01*
X129757311Y-112524498D01*
X129757309Y-112524496D01*
X129643189Y-112458609D01*
X129643191Y-112458609D01*
X129593799Y-112445375D01*
X129515892Y-112424500D01*
X129384108Y-112424500D01*
X129306200Y-112445375D01*
X129256809Y-112458609D01*
X129142690Y-112524496D01*
X129049496Y-112617690D01*
X128983609Y-112731809D01*
X128983608Y-112731814D01*
X128949500Y-112859108D01*
X123667803Y-112859108D01*
X123675130Y-112841420D01*
X123715500Y-112638465D01*
X123715500Y-112431535D01*
X123675130Y-112228580D01*
X123595941Y-112037402D01*
X123480977Y-111865345D01*
X123374740Y-111759108D01*
X140349500Y-111759108D01*
X140349500Y-111890892D01*
X140366550Y-111954524D01*
X140383609Y-112018190D01*
X140449496Y-112132309D01*
X140449498Y-112132311D01*
X140449500Y-112132314D01*
X140542686Y-112225500D01*
X140542688Y-112225501D01*
X140542690Y-112225503D01*
X140656810Y-112291390D01*
X140656808Y-112291390D01*
X140656812Y-112291391D01*
X140656814Y-112291392D01*
X140784108Y-112325500D01*
X140784110Y-112325500D01*
X140915890Y-112325500D01*
X140915892Y-112325500D01*
X141043186Y-112291392D01*
X141043188Y-112291390D01*
X141043190Y-112291390D01*
X141157309Y-112225503D01*
X141157309Y-112225502D01*
X141157314Y-112225500D01*
X141250500Y-112132314D01*
X141316392Y-112018186D01*
X141350500Y-111890892D01*
X141350500Y-111759108D01*
X141316392Y-111631814D01*
X141316390Y-111631811D01*
X141316390Y-111631809D01*
X141250503Y-111517690D01*
X141250501Y-111517688D01*
X141250500Y-111517686D01*
X141157314Y-111424500D01*
X141157311Y-111424498D01*
X141157309Y-111424496D01*
X141043189Y-111358609D01*
X141043191Y-111358609D01*
X140993799Y-111345375D01*
X140915892Y-111324500D01*
X140784108Y-111324500D01*
X140706200Y-111345375D01*
X140656809Y-111358609D01*
X140542690Y-111424496D01*
X140449496Y-111517690D01*
X140383609Y-111631809D01*
X140383608Y-111631814D01*
X140349500Y-111759108D01*
X123374740Y-111759108D01*
X123334655Y-111719023D01*
X123334651Y-111719020D01*
X123162597Y-111604058D01*
X122971418Y-111524869D01*
X122768467Y-111484500D01*
X122768465Y-111484500D01*
X122561535Y-111484500D01*
X122561532Y-111484500D01*
X122358581Y-111524869D01*
X122167402Y-111604058D01*
X121995348Y-111719020D01*
X121849020Y-111865348D01*
X121734058Y-112037402D01*
X121654869Y-112228581D01*
X121614500Y-112431532D01*
X121175499Y-112431532D01*
X121135130Y-112228580D01*
X121055941Y-112037402D01*
X120940977Y-111865345D01*
X120794655Y-111719023D01*
X120794651Y-111719020D01*
X120622597Y-111604058D01*
X120431418Y-111524869D01*
X120228467Y-111484500D01*
X120228465Y-111484500D01*
X120021535Y-111484500D01*
X120021532Y-111484500D01*
X119818581Y-111524869D01*
X119627402Y-111604058D01*
X119455348Y-111719020D01*
X119309020Y-111865348D01*
X119194058Y-112037402D01*
X119114869Y-112228581D01*
X119074500Y-112431532D01*
X113500500Y-112431532D01*
X113500500Y-109125299D01*
X119075000Y-109125299D01*
X119075000Y-109894999D01*
X119075001Y-109895000D01*
X119634157Y-109895000D01*
X119625000Y-109929174D01*
X119625000Y-110060826D01*
X119634157Y-110095000D01*
X119075001Y-110095000D01*
X119075000Y-110095001D01*
X119075000Y-110864700D01*
X119086603Y-110923036D01*
X119130806Y-110989189D01*
X119130810Y-110989193D01*
X119196963Y-111033396D01*
X119255299Y-111044999D01*
X119255303Y-111045000D01*
X120024999Y-111045000D01*
X120025000Y-111044999D01*
X120025000Y-110485842D01*
X120059174Y-110495000D01*
X120190826Y-110495000D01*
X120225000Y-110485842D01*
X120225000Y-111044999D01*
X120225001Y-111045000D01*
X120994697Y-111045000D01*
X120994700Y-111044999D01*
X121053036Y-111033396D01*
X121119189Y-110989193D01*
X121119193Y-110989189D01*
X121163396Y-110923036D01*
X121174999Y-110864700D01*
X121175000Y-110864697D01*
X121175000Y-110095001D01*
X121174999Y-110095000D01*
X120615843Y-110095000D01*
X120625000Y-110060826D01*
X120625000Y-109929174D01*
X120615843Y-109895000D01*
X121174999Y-109895000D01*
X121175000Y-109894999D01*
X121175000Y-109891581D01*
X121615000Y-109891581D01*
X121615000Y-110098418D01*
X121655349Y-110301272D01*
X121734501Y-110492360D01*
X121734508Y-110492374D01*
X121849405Y-110664329D01*
X121851826Y-110666750D01*
X122247210Y-110271365D01*
X122264901Y-110302007D01*
X122357993Y-110395099D01*
X122388632Y-110412788D01*
X121993249Y-110808173D01*
X121995670Y-110810594D01*
X122167625Y-110925491D01*
X122167639Y-110925498D01*
X122358727Y-111004650D01*
X122561581Y-111044999D01*
X122561586Y-111045000D01*
X122768414Y-111045000D01*
X122768418Y-111044999D01*
X122971272Y-111004650D01*
X123162360Y-110925498D01*
X123162366Y-110925495D01*
X123334333Y-110810591D01*
X123336750Y-110808173D01*
X122941366Y-110412789D01*
X122972007Y-110395099D01*
X123065099Y-110302007D01*
X123082789Y-110271366D01*
X123478173Y-110666750D01*
X123480591Y-110664333D01*
X123595495Y-110492366D01*
X123595498Y-110492360D01*
X123674650Y-110301271D01*
X123689999Y-110224108D01*
X138489500Y-110224108D01*
X138489500Y-110355892D01*
X138513468Y-110445343D01*
X138523609Y-110483190D01*
X138589496Y-110597309D01*
X138589498Y-110597311D01*
X138589500Y-110597314D01*
X138682686Y-110690500D01*
X138682688Y-110690501D01*
X138682690Y-110690503D01*
X138796810Y-110756390D01*
X138796808Y-110756390D01*
X138796812Y-110756391D01*
X138796814Y-110756392D01*
X138924108Y-110790500D01*
X138924110Y-110790500D01*
X139055890Y-110790500D01*
X139055892Y-110790500D01*
X139183186Y-110756392D01*
X139183188Y-110756390D01*
X139183190Y-110756390D01*
X139297309Y-110690503D01*
X139297309Y-110690502D01*
X139297314Y-110690500D01*
X139390500Y-110597314D01*
X139426992Y-110534108D01*
X153899500Y-110534108D01*
X153899500Y-110665892D01*
X153908773Y-110700500D01*
X153933609Y-110793190D01*
X153999496Y-110907309D01*
X153999498Y-110907311D01*
X153999500Y-110907314D01*
X154092686Y-111000500D01*
X154092688Y-111000501D01*
X154092690Y-111000503D01*
X154206810Y-111066390D01*
X154206808Y-111066390D01*
X154206812Y-111066391D01*
X154206814Y-111066392D01*
X154334108Y-111100500D01*
X154334110Y-111100500D01*
X154465890Y-111100500D01*
X154465892Y-111100500D01*
X154593186Y-111066392D01*
X154593188Y-111066390D01*
X154593190Y-111066390D01*
X154707309Y-111000503D01*
X154707309Y-111000502D01*
X154707314Y-111000500D01*
X154800500Y-110907314D01*
X154866392Y-110793186D01*
X154868162Y-110786579D01*
X156397000Y-110786579D01*
X156397000Y-110983420D01*
X156427789Y-111177821D01*
X156488616Y-111365025D01*
X156570060Y-111524870D01*
X156577976Y-111540405D01*
X156693672Y-111699646D01*
X156832854Y-111838828D01*
X156992095Y-111954524D01*
X157167475Y-112043884D01*
X157354674Y-112104709D01*
X157354675Y-112104709D01*
X157354678Y-112104710D01*
X157549080Y-112135500D01*
X157549083Y-112135500D01*
X157745920Y-112135500D01*
X157940321Y-112104710D01*
X157940322Y-112104709D01*
X157940326Y-112104709D01*
X158127525Y-112043884D01*
X158302905Y-111954524D01*
X158462146Y-111838828D01*
X158601328Y-111699646D01*
X158717024Y-111540405D01*
X158806384Y-111365025D01*
X158867209Y-111177826D01*
X158879456Y-111100500D01*
X158898000Y-110983420D01*
X158898000Y-110786579D01*
X158867210Y-110592178D01*
X158867209Y-110592174D01*
X158806384Y-110404975D01*
X158717024Y-110229595D01*
X158601328Y-110070354D01*
X158462146Y-109931172D01*
X158302905Y-109815476D01*
X158302904Y-109815475D01*
X158302902Y-109815474D01*
X158127525Y-109726116D01*
X157940321Y-109665289D01*
X157745920Y-109634500D01*
X157745917Y-109634500D01*
X157549083Y-109634500D01*
X157549080Y-109634500D01*
X157354678Y-109665289D01*
X157167474Y-109726116D01*
X156992097Y-109815474D01*
X156832855Y-109931171D01*
X156693671Y-110070355D01*
X156577974Y-110229597D01*
X156488616Y-110404974D01*
X156427789Y-110592178D01*
X156397000Y-110786579D01*
X154868162Y-110786579D01*
X154900500Y-110665892D01*
X154900500Y-110534108D01*
X154866392Y-110406814D01*
X154866390Y-110406811D01*
X154866390Y-110406809D01*
X154800503Y-110292690D01*
X154800501Y-110292688D01*
X154800500Y-110292686D01*
X154707314Y-110199500D01*
X154707311Y-110199498D01*
X154707309Y-110199496D01*
X154593189Y-110133609D01*
X154593191Y-110133609D01*
X154543799Y-110120375D01*
X154465892Y-110099500D01*
X154334108Y-110099500D01*
X154256200Y-110120375D01*
X154206809Y-110133609D01*
X154092690Y-110199496D01*
X153999496Y-110292690D01*
X153933609Y-110406809D01*
X153933608Y-110406814D01*
X153899500Y-110534108D01*
X139426992Y-110534108D01*
X139456392Y-110483186D01*
X139490500Y-110355892D01*
X139490500Y-110224108D01*
X139456392Y-110096814D01*
X139456390Y-110096811D01*
X139456390Y-110096809D01*
X139390503Y-109982690D01*
X139390501Y-109982688D01*
X139390500Y-109982686D01*
X139297314Y-109889500D01*
X139297311Y-109889498D01*
X139297309Y-109889496D01*
X139183189Y-109823609D01*
X139183191Y-109823609D01*
X139133799Y-109810375D01*
X139055892Y-109789500D01*
X138924108Y-109789500D01*
X138846200Y-109810375D01*
X138796809Y-109823609D01*
X138682690Y-109889496D01*
X138589496Y-109982690D01*
X138523609Y-110096809D01*
X138523178Y-110098418D01*
X138489500Y-110224108D01*
X123689999Y-110224108D01*
X123695131Y-110198306D01*
X123695131Y-110198305D01*
X123714999Y-110098418D01*
X123715000Y-110098413D01*
X123715000Y-109891586D01*
X123714999Y-109891581D01*
X123674650Y-109688727D01*
X123613190Y-109540352D01*
X159062000Y-109540352D01*
X159062000Y-109709647D01*
X159088480Y-109876842D01*
X159122873Y-109982690D01*
X159140795Y-110037849D01*
X159170837Y-110096809D01*
X159191020Y-110136422D01*
X159217650Y-110188685D01*
X159317154Y-110325641D01*
X159436859Y-110445346D01*
X159573815Y-110544850D01*
X159724651Y-110621705D01*
X159885653Y-110674018D01*
X159885654Y-110674018D01*
X159885657Y-110674019D01*
X160052853Y-110700500D01*
X160052856Y-110700500D01*
X160222147Y-110700500D01*
X160389342Y-110674019D01*
X160389343Y-110674018D01*
X160389347Y-110674018D01*
X160550349Y-110621705D01*
X160701185Y-110544850D01*
X160838141Y-110445346D01*
X160957846Y-110325641D01*
X161057350Y-110188685D01*
X161134205Y-110037849D01*
X161186518Y-109876847D01*
X161196238Y-109815476D01*
X161213000Y-109709647D01*
X161213000Y-109540352D01*
X161186519Y-109373157D01*
X161184321Y-109366390D01*
X161134205Y-109212151D01*
X161057350Y-109061315D01*
X160957846Y-108924359D01*
X160838141Y-108804654D01*
X160701185Y-108705150D01*
X160701184Y-108705149D01*
X160701182Y-108705148D01*
X160631403Y-108669594D01*
X160550349Y-108628295D01*
X160550346Y-108628294D01*
X160550344Y-108628293D01*
X160389342Y-108575980D01*
X160222147Y-108549500D01*
X160222144Y-108549500D01*
X160052856Y-108549500D01*
X160052853Y-108549500D01*
X159885657Y-108575980D01*
X159724655Y-108628293D01*
X159573817Y-108705148D01*
X159545801Y-108725503D01*
X159436859Y-108804654D01*
X159317154Y-108924359D01*
X159286980Y-108965890D01*
X159217648Y-109061317D01*
X159140793Y-109212155D01*
X159088480Y-109373157D01*
X159062000Y-109540352D01*
X123613190Y-109540352D01*
X123595498Y-109497639D01*
X123595491Y-109497625D01*
X123480594Y-109325670D01*
X123478173Y-109323249D01*
X123082788Y-109718632D01*
X123065099Y-109687993D01*
X122972007Y-109594901D01*
X122941365Y-109577210D01*
X123336750Y-109181826D01*
X123334329Y-109179405D01*
X123162374Y-109064508D01*
X123162360Y-109064501D01*
X122971272Y-108985349D01*
X122768418Y-108945000D01*
X122561581Y-108945000D01*
X122358727Y-108985349D01*
X122167639Y-109064501D01*
X122167630Y-109064505D01*
X121995665Y-109179410D01*
X121993248Y-109181825D01*
X122388633Y-109577210D01*
X122357993Y-109594901D01*
X122264901Y-109687993D01*
X122247210Y-109718633D01*
X121851825Y-109323248D01*
X121849410Y-109325665D01*
X121734505Y-109497630D01*
X121734501Y-109497639D01*
X121655349Y-109688727D01*
X121615000Y-109891581D01*
X121175000Y-109891581D01*
X121175000Y-109125302D01*
X121174999Y-109125299D01*
X121163396Y-109066963D01*
X121119193Y-109000810D01*
X121119189Y-109000806D01*
X121053036Y-108956603D01*
X120994700Y-108945000D01*
X120225001Y-108945000D01*
X120225000Y-108945001D01*
X120225000Y-109504157D01*
X120190826Y-109495000D01*
X120059174Y-109495000D01*
X120025000Y-109504157D01*
X120025000Y-108945001D01*
X120024999Y-108945000D01*
X119255299Y-108945000D01*
X119196963Y-108956603D01*
X119130810Y-109000806D01*
X119130806Y-109000810D01*
X119086603Y-109066963D01*
X119075000Y-109125299D01*
X113500500Y-109125299D01*
X113500500Y-107944108D01*
X128799500Y-107944108D01*
X128799500Y-108075892D01*
X128804001Y-108092690D01*
X128833609Y-108203190D01*
X128899496Y-108317309D01*
X128899498Y-108317311D01*
X128899500Y-108317314D01*
X128992686Y-108410500D01*
X128992688Y-108410501D01*
X128992690Y-108410503D01*
X129106810Y-108476390D01*
X129106808Y-108476390D01*
X129106812Y-108476391D01*
X129106814Y-108476392D01*
X129234108Y-108510500D01*
X129234110Y-108510500D01*
X129365890Y-108510500D01*
X129365892Y-108510500D01*
X129493186Y-108476392D01*
X129493188Y-108476390D01*
X129493190Y-108476390D01*
X129607309Y-108410503D01*
X129607309Y-108410502D01*
X129607314Y-108410500D01*
X129700500Y-108317314D01*
X129734105Y-108259109D01*
X129734106Y-108259108D01*
X141299500Y-108259108D01*
X141299500Y-108390892D01*
X141328600Y-108499496D01*
X141333609Y-108518190D01*
X141399496Y-108632309D01*
X141399498Y-108632311D01*
X141399500Y-108632314D01*
X141492686Y-108725500D01*
X141492688Y-108725501D01*
X141492690Y-108725503D01*
X141606810Y-108791390D01*
X141606808Y-108791390D01*
X141606812Y-108791391D01*
X141606814Y-108791392D01*
X141734108Y-108825500D01*
X141734110Y-108825500D01*
X141865890Y-108825500D01*
X141865892Y-108825500D01*
X141993186Y-108791392D01*
X141993188Y-108791390D01*
X141993190Y-108791390D01*
X142107309Y-108725503D01*
X142107309Y-108725502D01*
X142107314Y-108725500D01*
X142200500Y-108632314D01*
X142223379Y-108592686D01*
X142266390Y-108518190D01*
X142266390Y-108518188D01*
X142266392Y-108518186D01*
X142300500Y-108390892D01*
X142300500Y-108334108D01*
X144224500Y-108334108D01*
X144224500Y-108465892D01*
X144247171Y-108550503D01*
X144258609Y-108593190D01*
X144324496Y-108707309D01*
X144324498Y-108707311D01*
X144324500Y-108707314D01*
X144417686Y-108800500D01*
X144417688Y-108800501D01*
X144417690Y-108800503D01*
X144531810Y-108866390D01*
X144531808Y-108866390D01*
X144531812Y-108866391D01*
X144531814Y-108866392D01*
X144659108Y-108900500D01*
X144659110Y-108900500D01*
X144790890Y-108900500D01*
X144790892Y-108900500D01*
X144918186Y-108866392D01*
X144918188Y-108866390D01*
X144918190Y-108866390D01*
X144974104Y-108834108D01*
X146149500Y-108834108D01*
X146149500Y-108965892D01*
X146175068Y-109061315D01*
X146183609Y-109093190D01*
X146249496Y-109207309D01*
X146249498Y-109207311D01*
X146249500Y-109207314D01*
X146342686Y-109300500D01*
X146342688Y-109300501D01*
X146342690Y-109300503D01*
X146456810Y-109366390D01*
X146456808Y-109366390D01*
X146456812Y-109366391D01*
X146456814Y-109366392D01*
X146584108Y-109400500D01*
X146584110Y-109400500D01*
X146715890Y-109400500D01*
X146715892Y-109400500D01*
X146843186Y-109366392D01*
X146843188Y-109366390D01*
X146843190Y-109366390D01*
X146957309Y-109300503D01*
X146957309Y-109300502D01*
X146957314Y-109300500D01*
X147050500Y-109207314D01*
X147065216Y-109181825D01*
X147116390Y-109093190D01*
X147116390Y-109093188D01*
X147116392Y-109093186D01*
X147150500Y-108965892D01*
X147150500Y-108834108D01*
X147116392Y-108706814D01*
X147116390Y-108706811D01*
X147116390Y-108706809D01*
X147050503Y-108592690D01*
X147050501Y-108592688D01*
X147050500Y-108592686D01*
X146957314Y-108499500D01*
X146957311Y-108499498D01*
X146957309Y-108499496D01*
X146843189Y-108433609D01*
X146843191Y-108433609D01*
X146793799Y-108420375D01*
X146715892Y-108399500D01*
X146584108Y-108399500D01*
X146506200Y-108420375D01*
X146456809Y-108433609D01*
X146342690Y-108499496D01*
X146249496Y-108592690D01*
X146183609Y-108706809D01*
X146183608Y-108706814D01*
X146149500Y-108834108D01*
X144974104Y-108834108D01*
X145032309Y-108800503D01*
X145032309Y-108800502D01*
X145032314Y-108800500D01*
X145125500Y-108707314D01*
X145125792Y-108706809D01*
X145191390Y-108593190D01*
X145191390Y-108593188D01*
X145191392Y-108593186D01*
X145225500Y-108465892D01*
X145225500Y-108334108D01*
X145191392Y-108206814D01*
X145189297Y-108203186D01*
X145145380Y-108127119D01*
X145145379Y-108127117D01*
X145125501Y-108092688D01*
X145125500Y-108092686D01*
X145116922Y-108084108D01*
X150399500Y-108084108D01*
X150399500Y-108215892D01*
X150411080Y-108259108D01*
X150433609Y-108343190D01*
X150499496Y-108457309D01*
X150499498Y-108457311D01*
X150499500Y-108457314D01*
X150592686Y-108550500D01*
X150592688Y-108550501D01*
X150592690Y-108550503D01*
X150706810Y-108616390D01*
X150706808Y-108616390D01*
X150706812Y-108616391D01*
X150706814Y-108616392D01*
X150834108Y-108650500D01*
X150834110Y-108650500D01*
X150965890Y-108650500D01*
X150965892Y-108650500D01*
X151093186Y-108616392D01*
X151093188Y-108616390D01*
X151093190Y-108616390D01*
X151207309Y-108550503D01*
X151207309Y-108550502D01*
X151207314Y-108550500D01*
X151300500Y-108457314D01*
X151314187Y-108433608D01*
X151366390Y-108343190D01*
X151366390Y-108343188D01*
X151366392Y-108343186D01*
X151400500Y-108215892D01*
X151400500Y-108084108D01*
X151366392Y-107956814D01*
X151366390Y-107956811D01*
X151366390Y-107956809D01*
X151300503Y-107842690D01*
X151300501Y-107842688D01*
X151300500Y-107842686D01*
X151207314Y-107749500D01*
X151207311Y-107749498D01*
X151207309Y-107749496D01*
X151093189Y-107683609D01*
X151093191Y-107683609D01*
X151043799Y-107670375D01*
X150965892Y-107649500D01*
X150834108Y-107649500D01*
X150756200Y-107670375D01*
X150706809Y-107683609D01*
X150592690Y-107749496D01*
X150499496Y-107842690D01*
X150433609Y-107956809D01*
X150422170Y-107999500D01*
X150399500Y-108084108D01*
X145116922Y-108084108D01*
X145032314Y-107999500D01*
X145032311Y-107999498D01*
X145032309Y-107999496D01*
X144918189Y-107933609D01*
X144918191Y-107933609D01*
X144868799Y-107920375D01*
X144790892Y-107899500D01*
X144659108Y-107899500D01*
X144581200Y-107920375D01*
X144531809Y-107933609D01*
X144417690Y-107999496D01*
X144324496Y-108092690D01*
X144258609Y-108206809D01*
X144244596Y-108259108D01*
X144224500Y-108334108D01*
X142300500Y-108334108D01*
X142300500Y-108259108D01*
X142266392Y-108131814D01*
X142266390Y-108131811D01*
X142266390Y-108131809D01*
X142200503Y-108017690D01*
X142200501Y-108017688D01*
X142200500Y-108017686D01*
X142107314Y-107924500D01*
X142107311Y-107924498D01*
X142107309Y-107924496D01*
X141993189Y-107858609D01*
X141993191Y-107858609D01*
X141943799Y-107845375D01*
X141865892Y-107824500D01*
X141734108Y-107824500D01*
X141656200Y-107845375D01*
X141606809Y-107858609D01*
X141492690Y-107924496D01*
X141399496Y-108017690D01*
X141333609Y-108131809D01*
X141333608Y-108131814D01*
X141299500Y-108259108D01*
X129734106Y-108259108D01*
X129766389Y-108203192D01*
X129766390Y-108203191D01*
X129766390Y-108203188D01*
X129766392Y-108203186D01*
X129800500Y-108075892D01*
X129800500Y-107944108D01*
X129766392Y-107816814D01*
X129766390Y-107816811D01*
X129766390Y-107816809D01*
X129700503Y-107702690D01*
X129700501Y-107702688D01*
X129700500Y-107702686D01*
X129607314Y-107609500D01*
X129607311Y-107609498D01*
X129607309Y-107609496D01*
X129493189Y-107543609D01*
X129493191Y-107543609D01*
X129443799Y-107530375D01*
X129365892Y-107509500D01*
X129234108Y-107509500D01*
X129156200Y-107530375D01*
X129106809Y-107543609D01*
X128992690Y-107609496D01*
X128899496Y-107702690D01*
X128833609Y-107816809D01*
X128822409Y-107858608D01*
X128799500Y-107944108D01*
X113500500Y-107944108D01*
X113500500Y-107164108D01*
X114169500Y-107164108D01*
X114169500Y-107295892D01*
X114170735Y-107300500D01*
X114203609Y-107423190D01*
X114269496Y-107537309D01*
X114269498Y-107537311D01*
X114269500Y-107537314D01*
X114362686Y-107630500D01*
X114362688Y-107630501D01*
X114362690Y-107630503D01*
X114476810Y-107696390D01*
X114476808Y-107696390D01*
X114476812Y-107696391D01*
X114476814Y-107696392D01*
X114604108Y-107730500D01*
X114604110Y-107730500D01*
X114735890Y-107730500D01*
X114735892Y-107730500D01*
X114863186Y-107696392D01*
X114863188Y-107696390D01*
X114863190Y-107696390D01*
X114977309Y-107630503D01*
X114977309Y-107630502D01*
X114977314Y-107630500D01*
X115070500Y-107537314D01*
X115070503Y-107537309D01*
X115136390Y-107423190D01*
X115136390Y-107423188D01*
X115136392Y-107423186D01*
X115170500Y-107295892D01*
X115170500Y-107164108D01*
X115136392Y-107036814D01*
X115136390Y-107036811D01*
X115136390Y-107036809D01*
X115070503Y-106922690D01*
X115070501Y-106922688D01*
X115070500Y-106922686D01*
X114977314Y-106829500D01*
X114949350Y-106813355D01*
X114949349Y-106813353D01*
X114863189Y-106763609D01*
X114863191Y-106763609D01*
X114813799Y-106750375D01*
X114753089Y-106734108D01*
X117489500Y-106734108D01*
X117489500Y-106865892D01*
X117518249Y-106973186D01*
X117523609Y-106993190D01*
X117589496Y-107107309D01*
X117589498Y-107107311D01*
X117589500Y-107107314D01*
X117682686Y-107200500D01*
X117682688Y-107200501D01*
X117682690Y-107200503D01*
X117796810Y-107266390D01*
X117796808Y-107266390D01*
X117796812Y-107266391D01*
X117796814Y-107266392D01*
X117924108Y-107300500D01*
X117924110Y-107300500D01*
X118055890Y-107300500D01*
X118055892Y-107300500D01*
X118183186Y-107266392D01*
X118183188Y-107266390D01*
X118183190Y-107266390D01*
X118297309Y-107200503D01*
X118297309Y-107200502D01*
X118297314Y-107200500D01*
X118390500Y-107107314D01*
X118402050Y-107087309D01*
X118456390Y-106993190D01*
X118456390Y-106993188D01*
X118456392Y-106993186D01*
X118490500Y-106865892D01*
X118490500Y-106734108D01*
X118485141Y-106714108D01*
X124179500Y-106714108D01*
X124179500Y-106845892D01*
X124209579Y-106958151D01*
X124213609Y-106973190D01*
X124279496Y-107087309D01*
X124279498Y-107087311D01*
X124279500Y-107087314D01*
X124372686Y-107180500D01*
X124372688Y-107180501D01*
X124372690Y-107180503D01*
X124486810Y-107246390D01*
X124486808Y-107246390D01*
X124486812Y-107246391D01*
X124486814Y-107246392D01*
X124614108Y-107280500D01*
X124614110Y-107280500D01*
X124745890Y-107280500D01*
X124745892Y-107280500D01*
X124873186Y-107246392D01*
X124873188Y-107246390D01*
X124873190Y-107246390D01*
X124987309Y-107180503D01*
X124987309Y-107180502D01*
X124987314Y-107180500D01*
X125080500Y-107087314D01*
X125111219Y-107034108D01*
X154799500Y-107034108D01*
X154799500Y-107165892D01*
X154803415Y-107180503D01*
X154833609Y-107293190D01*
X154899496Y-107407309D01*
X154899498Y-107407311D01*
X154899500Y-107407314D01*
X154992686Y-107500500D01*
X154992688Y-107500501D01*
X154992690Y-107500503D01*
X155106810Y-107566390D01*
X155106808Y-107566390D01*
X155106812Y-107566391D01*
X155106814Y-107566392D01*
X155234108Y-107600500D01*
X155234110Y-107600500D01*
X155365890Y-107600500D01*
X155365892Y-107600500D01*
X155493186Y-107566392D01*
X155493188Y-107566390D01*
X155493190Y-107566390D01*
X155607309Y-107500503D01*
X155607309Y-107500502D01*
X155607314Y-107500500D01*
X155700500Y-107407314D01*
X155700503Y-107407309D01*
X155766390Y-107293190D01*
X155766390Y-107293188D01*
X155766392Y-107293186D01*
X155800500Y-107165892D01*
X155800500Y-107034108D01*
X155766392Y-106906814D01*
X155766390Y-106906811D01*
X155766390Y-106906809D01*
X155700503Y-106792690D01*
X155700501Y-106792688D01*
X155700500Y-106792686D01*
X155607314Y-106699500D01*
X155607311Y-106699498D01*
X155607309Y-106699496D01*
X155493189Y-106633609D01*
X155493191Y-106633609D01*
X155443799Y-106620375D01*
X155365892Y-106599500D01*
X155234108Y-106599500D01*
X155156200Y-106620375D01*
X155106809Y-106633609D01*
X154992690Y-106699496D01*
X154899496Y-106792690D01*
X154833609Y-106906809D01*
X154833608Y-106906814D01*
X154799500Y-107034108D01*
X125111219Y-107034108D01*
X125146392Y-106973186D01*
X125180500Y-106845892D01*
X125180500Y-106714108D01*
X125146392Y-106586814D01*
X125146390Y-106586811D01*
X125146390Y-106586809D01*
X125080503Y-106472690D01*
X125080501Y-106472688D01*
X125080500Y-106472686D01*
X124987314Y-106379500D01*
X124987311Y-106379498D01*
X124987309Y-106379496D01*
X124960656Y-106364108D01*
X148169500Y-106364108D01*
X148169500Y-106495892D01*
X148193861Y-106586809D01*
X148203609Y-106623190D01*
X148269496Y-106737309D01*
X148269498Y-106737311D01*
X148269500Y-106737314D01*
X148362686Y-106830500D01*
X148362688Y-106830501D01*
X148362690Y-106830503D01*
X148476810Y-106896390D01*
X148476808Y-106896390D01*
X148476812Y-106896391D01*
X148476814Y-106896392D01*
X148604108Y-106930500D01*
X148604110Y-106930500D01*
X148735890Y-106930500D01*
X148735892Y-106930500D01*
X148863186Y-106896392D01*
X148863188Y-106896390D01*
X148863190Y-106896390D01*
X148977309Y-106830503D01*
X148977309Y-106830502D01*
X148977314Y-106830500D01*
X149070500Y-106737314D01*
X149070503Y-106737309D01*
X149136390Y-106623190D01*
X149136390Y-106623188D01*
X149136392Y-106623186D01*
X149170500Y-106495892D01*
X149170500Y-106364108D01*
X149136392Y-106236814D01*
X149136390Y-106236811D01*
X149136390Y-106236809D01*
X149070503Y-106122690D01*
X149070501Y-106122688D01*
X149070500Y-106122686D01*
X148977314Y-106029500D01*
X148977311Y-106029498D01*
X148977309Y-106029496D01*
X148863189Y-105963609D01*
X148863191Y-105963609D01*
X148813799Y-105950375D01*
X148735892Y-105929500D01*
X148604108Y-105929500D01*
X148526200Y-105950375D01*
X148476809Y-105963609D01*
X148362690Y-106029496D01*
X148269496Y-106122690D01*
X148203609Y-106236809D01*
X148203608Y-106236814D01*
X148169500Y-106364108D01*
X124960656Y-106364108D01*
X124873189Y-106313609D01*
X124873191Y-106313609D01*
X124820534Y-106299500D01*
X124745892Y-106279500D01*
X124614108Y-106279500D01*
X124539466Y-106299500D01*
X124486809Y-106313609D01*
X124372690Y-106379496D01*
X124279496Y-106472690D01*
X124213609Y-106586809D01*
X124213608Y-106586814D01*
X124179500Y-106714108D01*
X118485141Y-106714108D01*
X118456392Y-106606814D01*
X118456390Y-106606811D01*
X118456390Y-106606809D01*
X118390503Y-106492690D01*
X118390501Y-106492688D01*
X118390500Y-106492686D01*
X118297314Y-106399500D01*
X118297311Y-106399498D01*
X118297309Y-106399496D01*
X118183189Y-106333609D01*
X118183191Y-106333609D01*
X118133799Y-106320375D01*
X118055892Y-106299500D01*
X117924108Y-106299500D01*
X117846200Y-106320375D01*
X117796809Y-106333609D01*
X117682690Y-106399496D01*
X117589496Y-106492690D01*
X117523609Y-106606809D01*
X117516428Y-106633609D01*
X117489500Y-106734108D01*
X114753089Y-106734108D01*
X114735892Y-106729500D01*
X114604108Y-106729500D01*
X114526200Y-106750375D01*
X114476809Y-106763609D01*
X114362690Y-106829496D01*
X114269496Y-106922690D01*
X114203609Y-107036809D01*
X114203608Y-107036814D01*
X114169500Y-107164108D01*
X113500500Y-107164108D01*
X113500500Y-104409108D01*
X134224500Y-104409108D01*
X134224500Y-104540892D01*
X134251294Y-104640890D01*
X134258609Y-104668190D01*
X134324496Y-104782309D01*
X134324498Y-104782311D01*
X134324500Y-104782314D01*
X134417686Y-104875500D01*
X134417688Y-104875501D01*
X134417690Y-104875503D01*
X134531810Y-104941390D01*
X134531808Y-104941390D01*
X134531812Y-104941391D01*
X134531814Y-104941392D01*
X134659108Y-104975500D01*
X134659110Y-104975500D01*
X134790890Y-104975500D01*
X134790892Y-104975500D01*
X134918186Y-104941392D01*
X134918188Y-104941390D01*
X134918190Y-104941390D01*
X135032309Y-104875503D01*
X135032309Y-104875502D01*
X135032314Y-104875500D01*
X135125500Y-104782314D01*
X135162522Y-104718190D01*
X135191390Y-104668190D01*
X135191390Y-104668188D01*
X135191392Y-104668186D01*
X135225500Y-104540892D01*
X135225500Y-104459108D01*
X135474500Y-104459108D01*
X135474500Y-104590892D01*
X135494596Y-104665892D01*
X135508609Y-104718190D01*
X135574496Y-104832309D01*
X135574498Y-104832311D01*
X135574500Y-104832314D01*
X135667686Y-104925500D01*
X135667688Y-104925501D01*
X135667690Y-104925503D01*
X135781810Y-104991390D01*
X135781808Y-104991390D01*
X135781812Y-104991391D01*
X135781814Y-104991392D01*
X135909108Y-105025500D01*
X135909110Y-105025500D01*
X136040890Y-105025500D01*
X136040892Y-105025500D01*
X136168186Y-104991392D01*
X136168188Y-104991390D01*
X136168190Y-104991390D01*
X136282309Y-104925503D01*
X136282309Y-104925502D01*
X136282314Y-104925500D01*
X136375500Y-104832314D01*
X136404368Y-104782314D01*
X136441390Y-104718190D01*
X136441390Y-104718188D01*
X136441392Y-104718186D01*
X136475500Y-104590892D01*
X136475500Y-104519108D01*
X136764500Y-104519108D01*
X136764500Y-104650892D01*
X136774884Y-104689646D01*
X136798609Y-104778190D01*
X136864496Y-104892309D01*
X136864498Y-104892311D01*
X136864500Y-104892314D01*
X136957686Y-104985500D01*
X136957688Y-104985501D01*
X136957690Y-104985503D01*
X137071810Y-105051390D01*
X137071808Y-105051390D01*
X137071812Y-105051391D01*
X137071814Y-105051392D01*
X137199108Y-105085500D01*
X137199110Y-105085500D01*
X137330890Y-105085500D01*
X137330892Y-105085500D01*
X137458186Y-105051392D01*
X137458188Y-105051390D01*
X137458190Y-105051390D01*
X137572309Y-104985503D01*
X137572309Y-104985502D01*
X137572314Y-104985500D01*
X137665500Y-104892314D01*
X137671274Y-104882314D01*
X137731390Y-104778190D01*
X137731390Y-104778188D01*
X137731392Y-104778186D01*
X137765500Y-104650892D01*
X137765500Y-104519108D01*
X137762821Y-104509108D01*
X138024500Y-104509108D01*
X138024500Y-104640892D01*
X138043594Y-104712151D01*
X138058609Y-104768190D01*
X138124496Y-104882309D01*
X138124498Y-104882311D01*
X138124500Y-104882314D01*
X138217686Y-104975500D01*
X138217688Y-104975501D01*
X138217690Y-104975503D01*
X138331810Y-105041390D01*
X138331808Y-105041390D01*
X138331812Y-105041391D01*
X138331814Y-105041392D01*
X138459108Y-105075500D01*
X138459110Y-105075500D01*
X138590890Y-105075500D01*
X138590892Y-105075500D01*
X138718186Y-105041392D01*
X138718188Y-105041390D01*
X138718190Y-105041390D01*
X138832309Y-104975503D01*
X138832309Y-104975502D01*
X138832314Y-104975500D01*
X138925500Y-104882314D01*
X138954368Y-104832314D01*
X138991390Y-104768190D01*
X138991390Y-104768188D01*
X138991392Y-104768186D01*
X139025500Y-104640892D01*
X139025500Y-104534108D01*
X139299500Y-104534108D01*
X139299500Y-104665892D01*
X139305865Y-104689646D01*
X139333609Y-104793190D01*
X139399496Y-104907309D01*
X139399498Y-104907311D01*
X139399500Y-104907314D01*
X139492686Y-105000500D01*
X139492688Y-105000501D01*
X139492690Y-105000503D01*
X139606810Y-105066390D01*
X139606808Y-105066390D01*
X139606812Y-105066391D01*
X139606814Y-105066392D01*
X139734108Y-105100500D01*
X139734110Y-105100500D01*
X139865890Y-105100500D01*
X139865892Y-105100500D01*
X139993186Y-105066392D01*
X139993188Y-105066390D01*
X139993190Y-105066390D01*
X140107309Y-105000503D01*
X140107309Y-105000502D01*
X140107314Y-105000500D01*
X140200500Y-104907314D01*
X140220223Y-104873153D01*
X140266390Y-104793190D01*
X140266390Y-104793188D01*
X140266392Y-104793186D01*
X140300500Y-104665892D01*
X140300500Y-104534108D01*
X140266392Y-104406814D01*
X140266390Y-104406811D01*
X140266390Y-104406809D01*
X140200503Y-104292690D01*
X140200501Y-104292688D01*
X140200500Y-104292686D01*
X140107314Y-104199500D01*
X140107311Y-104199498D01*
X140107309Y-104199496D01*
X139993189Y-104133609D01*
X139993191Y-104133609D01*
X139937205Y-104118608D01*
X139865892Y-104099500D01*
X139734108Y-104099500D01*
X139662795Y-104118608D01*
X139606809Y-104133609D01*
X139492690Y-104199496D01*
X139399496Y-104292690D01*
X139333609Y-104406809D01*
X139333608Y-104406814D01*
X139299500Y-104534108D01*
X139025500Y-104534108D01*
X139025500Y-104509108D01*
X138991392Y-104381814D01*
X138991390Y-104381811D01*
X138991390Y-104381809D01*
X138925503Y-104267690D01*
X138925501Y-104267688D01*
X138925500Y-104267686D01*
X138832314Y-104174500D01*
X138832311Y-104174498D01*
X138832309Y-104174496D01*
X138718189Y-104108609D01*
X138718191Y-104108609D01*
X138668799Y-104095375D01*
X138590892Y-104074500D01*
X138459108Y-104074500D01*
X138381200Y-104095375D01*
X138331809Y-104108609D01*
X138217690Y-104174496D01*
X138124496Y-104267690D01*
X138058609Y-104381809D01*
X138051294Y-104409109D01*
X138024500Y-104509108D01*
X137762821Y-104509108D01*
X137731392Y-104391814D01*
X137731390Y-104391811D01*
X137731390Y-104391809D01*
X137665503Y-104277690D01*
X137665501Y-104277688D01*
X137665500Y-104277686D01*
X137572314Y-104184500D01*
X137572311Y-104184498D01*
X137572309Y-104184496D01*
X137458189Y-104118609D01*
X137458191Y-104118609D01*
X137386873Y-104099500D01*
X137330892Y-104084500D01*
X137199108Y-104084500D01*
X137143127Y-104099500D01*
X137071809Y-104118609D01*
X136957690Y-104184496D01*
X136864496Y-104277690D01*
X136798609Y-104391809D01*
X136780577Y-104459108D01*
X136764500Y-104519108D01*
X136475500Y-104519108D01*
X136475500Y-104459108D01*
X136441392Y-104331814D01*
X136441390Y-104331811D01*
X136441390Y-104331809D01*
X136375503Y-104217690D01*
X136375501Y-104217688D01*
X136375500Y-104217686D01*
X136282314Y-104124500D01*
X136282311Y-104124498D01*
X136282309Y-104124496D01*
X136168189Y-104058609D01*
X136168191Y-104058609D01*
X136118799Y-104045375D01*
X136040892Y-104024500D01*
X135909108Y-104024500D01*
X135831200Y-104045375D01*
X135781809Y-104058609D01*
X135667690Y-104124496D01*
X135574496Y-104217690D01*
X135508609Y-104331809D01*
X135492531Y-104391814D01*
X135474500Y-104459108D01*
X135225500Y-104459108D01*
X135225500Y-104409108D01*
X135191392Y-104281814D01*
X135191390Y-104281811D01*
X135191390Y-104281809D01*
X135125503Y-104167690D01*
X135125501Y-104167688D01*
X135125500Y-104167686D01*
X135032314Y-104074500D01*
X135032311Y-104074498D01*
X135032309Y-104074496D01*
X134918189Y-104008609D01*
X134918191Y-104008609D01*
X134868799Y-103995375D01*
X134790892Y-103974500D01*
X134659108Y-103974500D01*
X134581200Y-103995375D01*
X134531809Y-104008609D01*
X134417690Y-104074496D01*
X134324496Y-104167690D01*
X134258609Y-104281809D01*
X134245563Y-104330500D01*
X134224500Y-104409108D01*
X113500500Y-104409108D01*
X113500500Y-103284108D01*
X115529500Y-103284108D01*
X115529500Y-103415892D01*
X115558115Y-103522686D01*
X115563609Y-103543190D01*
X115629496Y-103657309D01*
X115629498Y-103657311D01*
X115629500Y-103657314D01*
X115722686Y-103750500D01*
X115722688Y-103750501D01*
X115722690Y-103750503D01*
X115836810Y-103816390D01*
X115836808Y-103816390D01*
X115836812Y-103816391D01*
X115836814Y-103816392D01*
X115964108Y-103850500D01*
X115964110Y-103850500D01*
X116095890Y-103850500D01*
X116095892Y-103850500D01*
X116223186Y-103816392D01*
X116223188Y-103816390D01*
X116223190Y-103816390D01*
X116313745Y-103764108D01*
X147919500Y-103764108D01*
X147919500Y-103895892D01*
X147940563Y-103974500D01*
X147953609Y-104023190D01*
X148019496Y-104137309D01*
X148019498Y-104137311D01*
X148019500Y-104137314D01*
X148112686Y-104230500D01*
X148112688Y-104230501D01*
X148112690Y-104230503D01*
X148226810Y-104296390D01*
X148226808Y-104296390D01*
X148226812Y-104296391D01*
X148226814Y-104296392D01*
X148354108Y-104330500D01*
X148354110Y-104330500D01*
X148485890Y-104330500D01*
X148485892Y-104330500D01*
X148613186Y-104296392D01*
X148613188Y-104296390D01*
X148613190Y-104296390D01*
X148727309Y-104230503D01*
X148727309Y-104230502D01*
X148727314Y-104230500D01*
X148820500Y-104137314D01*
X148827898Y-104124500D01*
X148886390Y-104023190D01*
X148886390Y-104023188D01*
X148886392Y-104023186D01*
X148920500Y-103895892D01*
X148920500Y-103764108D01*
X148909782Y-103724108D01*
X153599500Y-103724108D01*
X153599500Y-103855892D01*
X153610218Y-103895892D01*
X153633609Y-103983190D01*
X153699496Y-104097309D01*
X153699498Y-104097311D01*
X153699500Y-104097314D01*
X153792686Y-104190500D01*
X153792688Y-104190501D01*
X153792690Y-104190503D01*
X153906810Y-104256390D01*
X153906808Y-104256390D01*
X153906812Y-104256391D01*
X153906814Y-104256392D01*
X154034108Y-104290500D01*
X154034110Y-104290500D01*
X154165890Y-104290500D01*
X154165892Y-104290500D01*
X154293186Y-104256392D01*
X154293188Y-104256390D01*
X154293190Y-104256390D01*
X154407309Y-104190503D01*
X154407309Y-104190502D01*
X154407314Y-104190500D01*
X154500500Y-104097314D01*
X154513674Y-104074496D01*
X154566390Y-103983190D01*
X154566390Y-103983188D01*
X154566392Y-103983186D01*
X154600500Y-103855892D01*
X154600500Y-103776579D01*
X156397000Y-103776579D01*
X156397000Y-103973420D01*
X156427789Y-104167821D01*
X156488616Y-104355025D01*
X156572219Y-104519108D01*
X156577976Y-104530405D01*
X156693672Y-104689646D01*
X156832854Y-104828828D01*
X156992095Y-104944524D01*
X157167475Y-105033884D01*
X157354674Y-105094709D01*
X157354675Y-105094709D01*
X157354678Y-105094710D01*
X157549080Y-105125500D01*
X157549083Y-105125500D01*
X157745920Y-105125500D01*
X157940321Y-105094710D01*
X157940322Y-105094709D01*
X157940326Y-105094709D01*
X158107619Y-105040352D01*
X159062000Y-105040352D01*
X159062000Y-105209647D01*
X159088480Y-105376842D01*
X159088482Y-105376847D01*
X159140795Y-105537849D01*
X159217650Y-105688685D01*
X159317154Y-105825641D01*
X159436859Y-105945346D01*
X159573815Y-106044850D01*
X159724651Y-106121705D01*
X159885653Y-106174018D01*
X159885654Y-106174018D01*
X159885657Y-106174019D01*
X160052853Y-106200500D01*
X160052856Y-106200500D01*
X160222147Y-106200500D01*
X160389342Y-106174019D01*
X160389343Y-106174018D01*
X160389347Y-106174018D01*
X160550349Y-106121705D01*
X160701185Y-106044850D01*
X160838141Y-105945346D01*
X160957846Y-105825641D01*
X161057350Y-105688685D01*
X161134205Y-105537849D01*
X161186518Y-105376847D01*
X161213000Y-105209644D01*
X161213000Y-105040356D01*
X161213000Y-105040352D01*
X161186519Y-104873157D01*
X161173249Y-104832314D01*
X161134205Y-104712151D01*
X161057350Y-104561315D01*
X160957846Y-104424359D01*
X160838141Y-104304654D01*
X160701185Y-104205150D01*
X160701184Y-104205149D01*
X160701182Y-104205148D01*
X160627658Y-104167686D01*
X160550349Y-104128295D01*
X160550346Y-104128294D01*
X160550344Y-104128293D01*
X160389342Y-104075980D01*
X160222147Y-104049500D01*
X160222144Y-104049500D01*
X160052856Y-104049500D01*
X160052853Y-104049500D01*
X159885657Y-104075980D01*
X159724655Y-104128293D01*
X159573817Y-104205148D01*
X159538919Y-104230503D01*
X159436859Y-104304654D01*
X159317154Y-104424359D01*
X159291907Y-104459109D01*
X159217648Y-104561317D01*
X159140793Y-104712155D01*
X159088480Y-104873157D01*
X159062000Y-105040352D01*
X158107619Y-105040352D01*
X158127525Y-105033884D01*
X158302905Y-104944524D01*
X158462146Y-104828828D01*
X158601328Y-104689646D01*
X158717024Y-104530405D01*
X158806384Y-104355025D01*
X158867209Y-104167826D01*
X158872042Y-104137314D01*
X158898000Y-103973420D01*
X158898000Y-103776579D01*
X158867210Y-103582178D01*
X158834883Y-103482686D01*
X158806384Y-103394975D01*
X158717024Y-103219595D01*
X158601328Y-103060354D01*
X158462146Y-102921172D01*
X158302905Y-102805476D01*
X158302904Y-102805475D01*
X158302902Y-102805474D01*
X158127525Y-102716116D01*
X157940321Y-102655289D01*
X157745920Y-102624500D01*
X157745917Y-102624500D01*
X157549083Y-102624500D01*
X157549080Y-102624500D01*
X157354678Y-102655289D01*
X157167474Y-102716116D01*
X156992097Y-102805474D01*
X156832855Y-102921171D01*
X156693671Y-103060355D01*
X156577974Y-103219597D01*
X156488616Y-103394974D01*
X156427789Y-103582178D01*
X156397000Y-103776579D01*
X154600500Y-103776579D01*
X154600500Y-103724108D01*
X154566392Y-103596814D01*
X154566390Y-103596811D01*
X154566390Y-103596809D01*
X154500503Y-103482690D01*
X154500501Y-103482688D01*
X154500500Y-103482686D01*
X154407314Y-103389500D01*
X154407311Y-103389498D01*
X154407309Y-103389496D01*
X154293189Y-103323609D01*
X154293191Y-103323609D01*
X154243799Y-103310375D01*
X154165892Y-103289500D01*
X154034108Y-103289500D01*
X153956200Y-103310375D01*
X153906809Y-103323609D01*
X153792690Y-103389496D01*
X153699496Y-103482690D01*
X153633609Y-103596809D01*
X153633608Y-103596814D01*
X153599500Y-103724108D01*
X148909782Y-103724108D01*
X148886392Y-103636814D01*
X148886390Y-103636811D01*
X148886390Y-103636809D01*
X148820503Y-103522690D01*
X148820501Y-103522688D01*
X148820500Y-103522686D01*
X148727314Y-103429500D01*
X148727311Y-103429498D01*
X148727309Y-103429496D01*
X148613189Y-103363609D01*
X148613191Y-103363609D01*
X148563799Y-103350375D01*
X148485892Y-103329500D01*
X148354108Y-103329500D01*
X148276200Y-103350375D01*
X148226809Y-103363609D01*
X148112690Y-103429496D01*
X148019496Y-103522690D01*
X147953609Y-103636809D01*
X147953608Y-103636814D01*
X147919500Y-103764108D01*
X116313745Y-103764108D01*
X116337309Y-103750503D01*
X116337309Y-103750502D01*
X116337314Y-103750500D01*
X116430500Y-103657314D01*
X116496392Y-103543186D01*
X116530500Y-103415892D01*
X116530500Y-103284108D01*
X116496392Y-103156814D01*
X116496390Y-103156811D01*
X116496390Y-103156809D01*
X116430503Y-103042690D01*
X116430501Y-103042688D01*
X116430500Y-103042686D01*
X116337314Y-102949500D01*
X116337311Y-102949498D01*
X116337309Y-102949496D01*
X116223189Y-102883609D01*
X116223191Y-102883609D01*
X116173799Y-102870375D01*
X116095892Y-102849500D01*
X115964108Y-102849500D01*
X115886200Y-102870375D01*
X115836809Y-102883609D01*
X115722690Y-102949496D01*
X115629496Y-103042690D01*
X115563609Y-103156809D01*
X115544539Y-103227978D01*
X115529500Y-103284108D01*
X113500500Y-103284108D01*
X113500500Y-102084108D01*
X121999500Y-102084108D01*
X121999500Y-102215892D01*
X122020211Y-102293186D01*
X122033609Y-102343190D01*
X122099496Y-102457309D01*
X122099498Y-102457311D01*
X122099500Y-102457314D01*
X122192686Y-102550500D01*
X122192688Y-102550501D01*
X122192690Y-102550503D01*
X122306810Y-102616390D01*
X122306808Y-102616390D01*
X122306812Y-102616391D01*
X122306814Y-102616392D01*
X122434108Y-102650500D01*
X122434110Y-102650500D01*
X122565890Y-102650500D01*
X122565892Y-102650500D01*
X122693186Y-102616392D01*
X122693188Y-102616390D01*
X122693190Y-102616390D01*
X122807309Y-102550503D01*
X122807309Y-102550502D01*
X122807314Y-102550500D01*
X122900500Y-102457314D01*
X122900503Y-102457309D01*
X122913898Y-102434108D01*
X125374500Y-102434108D01*
X125374500Y-102565892D01*
X125398454Y-102655289D01*
X125408609Y-102693190D01*
X125474496Y-102807309D01*
X125474498Y-102807311D01*
X125474500Y-102807314D01*
X125567686Y-102900500D01*
X125567688Y-102900501D01*
X125567690Y-102900503D01*
X125681810Y-102966390D01*
X125681808Y-102966390D01*
X125681812Y-102966391D01*
X125681814Y-102966392D01*
X125809108Y-103000500D01*
X125809110Y-103000500D01*
X125940890Y-103000500D01*
X125940892Y-103000500D01*
X126068186Y-102966392D01*
X126068188Y-102966390D01*
X126068190Y-102966390D01*
X126182309Y-102900503D01*
X126182309Y-102900502D01*
X126182314Y-102900500D01*
X126275500Y-102807314D01*
X126276562Y-102805474D01*
X126341390Y-102693190D01*
X126341390Y-102693188D01*
X126341392Y-102693186D01*
X126375500Y-102565892D01*
X126375500Y-102434108D01*
X126355404Y-102359108D01*
X132954500Y-102359108D01*
X132954500Y-102490892D01*
X132974730Y-102566392D01*
X132988609Y-102618190D01*
X133054496Y-102732309D01*
X133054498Y-102732311D01*
X133054500Y-102732314D01*
X133147686Y-102825500D01*
X133147688Y-102825501D01*
X133147690Y-102825503D01*
X133261810Y-102891390D01*
X133261808Y-102891390D01*
X133261812Y-102891391D01*
X133261814Y-102891392D01*
X133389108Y-102925500D01*
X133389110Y-102925500D01*
X133520890Y-102925500D01*
X133520892Y-102925500D01*
X133648186Y-102891392D01*
X133648188Y-102891390D01*
X133648190Y-102891390D01*
X133762309Y-102825503D01*
X133762309Y-102825502D01*
X133762314Y-102825500D01*
X133855500Y-102732314D01*
X133878091Y-102693186D01*
X133921390Y-102618190D01*
X133921390Y-102618188D01*
X133921392Y-102618186D01*
X133955500Y-102490892D01*
X133955500Y-102359108D01*
X133921392Y-102231814D01*
X133921390Y-102231811D01*
X133921390Y-102231809D01*
X133855503Y-102117690D01*
X133855501Y-102117688D01*
X133855500Y-102117686D01*
X133771922Y-102034108D01*
X149919500Y-102034108D01*
X149919500Y-102165892D01*
X149937162Y-102231809D01*
X149953609Y-102293190D01*
X150019496Y-102407309D01*
X150019498Y-102407311D01*
X150019500Y-102407314D01*
X150112686Y-102500500D01*
X150112688Y-102500501D01*
X150112690Y-102500503D01*
X150226810Y-102566390D01*
X150226808Y-102566390D01*
X150226812Y-102566391D01*
X150226814Y-102566392D01*
X150354108Y-102600500D01*
X150354110Y-102600500D01*
X150485890Y-102600500D01*
X150485892Y-102600500D01*
X150613186Y-102566392D01*
X150613188Y-102566390D01*
X150613190Y-102566390D01*
X150727309Y-102500503D01*
X150727309Y-102500502D01*
X150727314Y-102500500D01*
X150820500Y-102407314D01*
X150837285Y-102378242D01*
X150886390Y-102293190D01*
X150886390Y-102293188D01*
X150886392Y-102293186D01*
X150920500Y-102165892D01*
X150920500Y-102034108D01*
X150886392Y-101906814D01*
X150886390Y-101906811D01*
X150886390Y-101906809D01*
X150820503Y-101792690D01*
X150820501Y-101792688D01*
X150820500Y-101792686D01*
X150727314Y-101699500D01*
X150727311Y-101699498D01*
X150727309Y-101699496D01*
X150613189Y-101633609D01*
X150613191Y-101633609D01*
X150563799Y-101620375D01*
X150485892Y-101599500D01*
X150354108Y-101599500D01*
X150276200Y-101620375D01*
X150226809Y-101633609D01*
X150112690Y-101699496D01*
X150019496Y-101792690D01*
X149953609Y-101906809D01*
X149953608Y-101906814D01*
X149919500Y-102034108D01*
X133771922Y-102034108D01*
X133762314Y-102024500D01*
X133762311Y-102024498D01*
X133762309Y-102024496D01*
X133648189Y-101958609D01*
X133648191Y-101958609D01*
X133598799Y-101945375D01*
X133520892Y-101924500D01*
X133389108Y-101924500D01*
X133311200Y-101945375D01*
X133261809Y-101958609D01*
X133147690Y-102024496D01*
X133054496Y-102117690D01*
X132988609Y-102231809D01*
X132969539Y-102302978D01*
X132954500Y-102359108D01*
X126355404Y-102359108D01*
X126341392Y-102306814D01*
X126341389Y-102306809D01*
X126275503Y-102192690D01*
X126275501Y-102192688D01*
X126275500Y-102192686D01*
X126182314Y-102099500D01*
X126182311Y-102099498D01*
X126182309Y-102099496D01*
X126068189Y-102033609D01*
X126068191Y-102033609D01*
X126018799Y-102020375D01*
X125940892Y-101999500D01*
X125809108Y-101999500D01*
X125731200Y-102020375D01*
X125681809Y-102033609D01*
X125567690Y-102099496D01*
X125474496Y-102192690D01*
X125408609Y-102306809D01*
X125408608Y-102306814D01*
X125374500Y-102434108D01*
X122913898Y-102434108D01*
X122946224Y-102378119D01*
X122966390Y-102343190D01*
X122966390Y-102343188D01*
X122966392Y-102343186D01*
X123000500Y-102215892D01*
X123000500Y-102084108D01*
X122966392Y-101956814D01*
X122966390Y-101956811D01*
X122966390Y-101956809D01*
X122900503Y-101842690D01*
X122900501Y-101842688D01*
X122900500Y-101842686D01*
X122807314Y-101749500D01*
X122807311Y-101749498D01*
X122807309Y-101749496D01*
X122693189Y-101683609D01*
X122693191Y-101683609D01*
X122643799Y-101670375D01*
X122565892Y-101649500D01*
X122434108Y-101649500D01*
X122356200Y-101670375D01*
X122306809Y-101683609D01*
X122192690Y-101749496D01*
X122099496Y-101842690D01*
X122033609Y-101956809D01*
X122033608Y-101956814D01*
X121999500Y-102084108D01*
X113500500Y-102084108D01*
X113500500Y-101284108D01*
X126599500Y-101284108D01*
X126599500Y-101415892D01*
X126629579Y-101528151D01*
X126633609Y-101543190D01*
X126699496Y-101657309D01*
X126699498Y-101657311D01*
X126699500Y-101657314D01*
X126792686Y-101750500D01*
X126792688Y-101750501D01*
X126792690Y-101750503D01*
X126906810Y-101816390D01*
X126906808Y-101816390D01*
X126906812Y-101816391D01*
X126906814Y-101816392D01*
X127034108Y-101850500D01*
X127034110Y-101850500D01*
X127165890Y-101850500D01*
X127165892Y-101850500D01*
X127293186Y-101816392D01*
X127293188Y-101816390D01*
X127293190Y-101816390D01*
X127407309Y-101750503D01*
X127407309Y-101750502D01*
X127407314Y-101750500D01*
X127500500Y-101657314D01*
X127500503Y-101657309D01*
X127566390Y-101543190D01*
X127566390Y-101543188D01*
X127566392Y-101543186D01*
X127600500Y-101415892D01*
X127600500Y-101284108D01*
X127566392Y-101156814D01*
X127566390Y-101156811D01*
X127566390Y-101156809D01*
X127500503Y-101042690D01*
X127500501Y-101042688D01*
X127500500Y-101042686D01*
X127407314Y-100949500D01*
X127407311Y-100949498D01*
X127407309Y-100949496D01*
X127294053Y-100884108D01*
X133499500Y-100884108D01*
X133499500Y-101015892D01*
X133529579Y-101128151D01*
X133533609Y-101143190D01*
X133599496Y-101257309D01*
X133599498Y-101257311D01*
X133599500Y-101257314D01*
X133692686Y-101350500D01*
X133692688Y-101350501D01*
X133692690Y-101350503D01*
X133806810Y-101416390D01*
X133806808Y-101416390D01*
X133806812Y-101416391D01*
X133806814Y-101416392D01*
X133934108Y-101450500D01*
X133934110Y-101450500D01*
X134065890Y-101450500D01*
X134065892Y-101450500D01*
X134193186Y-101416392D01*
X134193188Y-101416390D01*
X134193190Y-101416390D01*
X134307309Y-101350503D01*
X134307309Y-101350502D01*
X134307314Y-101350500D01*
X134333706Y-101324108D01*
X135439500Y-101324108D01*
X135439500Y-101455892D01*
X135462890Y-101543186D01*
X135473609Y-101583190D01*
X135539496Y-101697309D01*
X135539498Y-101697311D01*
X135539500Y-101697314D01*
X135632686Y-101790500D01*
X135632688Y-101790501D01*
X135632690Y-101790503D01*
X135746810Y-101856390D01*
X135746808Y-101856390D01*
X135746812Y-101856391D01*
X135746814Y-101856392D01*
X135874108Y-101890500D01*
X135874110Y-101890500D01*
X136005890Y-101890500D01*
X136005892Y-101890500D01*
X136133186Y-101856392D01*
X136133188Y-101856390D01*
X136133190Y-101856390D01*
X136247309Y-101790503D01*
X136247309Y-101790502D01*
X136247314Y-101790500D01*
X136340500Y-101697314D01*
X136348413Y-101683608D01*
X136406390Y-101583190D01*
X136406390Y-101583188D01*
X136406392Y-101583186D01*
X136440500Y-101455892D01*
X136440500Y-101324108D01*
X136408346Y-101204108D01*
X159669500Y-101204108D01*
X159669500Y-101335892D01*
X159673415Y-101350503D01*
X159703609Y-101463190D01*
X159769496Y-101577309D01*
X159769498Y-101577311D01*
X159769500Y-101577314D01*
X159862686Y-101670500D01*
X159862688Y-101670501D01*
X159862690Y-101670503D01*
X159976810Y-101736390D01*
X159976808Y-101736390D01*
X159976812Y-101736391D01*
X159976814Y-101736392D01*
X160104108Y-101770500D01*
X160104110Y-101770500D01*
X160235890Y-101770500D01*
X160235892Y-101770500D01*
X160363186Y-101736392D01*
X160363188Y-101736390D01*
X160363190Y-101736390D01*
X160477309Y-101670503D01*
X160477309Y-101670502D01*
X160477314Y-101670500D01*
X160570500Y-101577314D01*
X160636392Y-101463186D01*
X160670500Y-101335892D01*
X160670500Y-101204108D01*
X160636392Y-101076814D01*
X160636390Y-101076811D01*
X160636390Y-101076809D01*
X160570503Y-100962690D01*
X160570501Y-100962688D01*
X160570500Y-100962686D01*
X160477314Y-100869500D01*
X160477311Y-100869498D01*
X160477309Y-100869496D01*
X160363189Y-100803609D01*
X160363191Y-100803609D01*
X160313799Y-100790375D01*
X160235892Y-100769500D01*
X160104108Y-100769500D01*
X160026200Y-100790375D01*
X159976809Y-100803609D01*
X159862690Y-100869496D01*
X159769496Y-100962690D01*
X159703609Y-101076809D01*
X159685824Y-101143186D01*
X159669500Y-101204108D01*
X136408346Y-101204108D01*
X136406392Y-101196814D01*
X136406390Y-101196811D01*
X136406390Y-101196809D01*
X136340503Y-101082690D01*
X136340501Y-101082688D01*
X136340500Y-101082686D01*
X136247314Y-100989500D01*
X136247311Y-100989498D01*
X136247309Y-100989496D01*
X136133189Y-100923609D01*
X136133191Y-100923609D01*
X136083799Y-100910375D01*
X136005892Y-100889500D01*
X135874108Y-100889500D01*
X135796200Y-100910375D01*
X135746809Y-100923609D01*
X135632690Y-100989496D01*
X135539496Y-101082690D01*
X135473609Y-101196809D01*
X135457399Y-101257309D01*
X135439500Y-101324108D01*
X134333706Y-101324108D01*
X134400500Y-101257314D01*
X134466392Y-101143186D01*
X134500500Y-101015892D01*
X134500500Y-100884108D01*
X134466392Y-100756814D01*
X134466390Y-100756811D01*
X134466390Y-100756809D01*
X134400503Y-100642690D01*
X134400501Y-100642688D01*
X134400500Y-100642686D01*
X134307314Y-100549500D01*
X134307311Y-100549498D01*
X134307309Y-100549496D01*
X134193189Y-100483609D01*
X134193191Y-100483609D01*
X134128927Y-100466390D01*
X134065892Y-100449500D01*
X133934108Y-100449500D01*
X133871073Y-100466390D01*
X133806809Y-100483609D01*
X133692690Y-100549496D01*
X133599496Y-100642690D01*
X133533609Y-100756809D01*
X133533608Y-100756814D01*
X133499500Y-100884108D01*
X127294053Y-100884108D01*
X127293189Y-100883609D01*
X127293191Y-100883609D01*
X127240519Y-100869496D01*
X127165892Y-100849500D01*
X127034108Y-100849500D01*
X126959481Y-100869496D01*
X126906809Y-100883609D01*
X126792690Y-100949496D01*
X126699496Y-101042690D01*
X126633609Y-101156809D01*
X126633608Y-101156814D01*
X126599500Y-101284108D01*
X113500500Y-101284108D01*
X113500500Y-99834108D01*
X116224500Y-99834108D01*
X116224500Y-99965892D01*
X116251294Y-100065890D01*
X116258609Y-100093190D01*
X116324496Y-100207309D01*
X116324498Y-100207311D01*
X116324500Y-100207314D01*
X116417686Y-100300500D01*
X116417688Y-100300501D01*
X116417690Y-100300503D01*
X116531810Y-100366390D01*
X116531808Y-100366390D01*
X116531812Y-100366391D01*
X116531814Y-100366392D01*
X116659108Y-100400500D01*
X116659110Y-100400500D01*
X116790890Y-100400500D01*
X116790892Y-100400500D01*
X116918186Y-100366392D01*
X116918188Y-100366390D01*
X116918190Y-100366390D01*
X117032309Y-100300503D01*
X117032309Y-100300502D01*
X117032314Y-100300500D01*
X117125500Y-100207314D01*
X117191392Y-100093186D01*
X117225500Y-99965892D01*
X117225500Y-99934108D01*
X130499500Y-99934108D01*
X130499500Y-100065892D01*
X130529579Y-100178151D01*
X130533609Y-100193190D01*
X130599496Y-100307309D01*
X130599498Y-100307311D01*
X130599500Y-100307314D01*
X130692686Y-100400500D01*
X130692688Y-100400501D01*
X130692690Y-100400503D01*
X130806810Y-100466390D01*
X130806808Y-100466390D01*
X130806812Y-100466391D01*
X130806814Y-100466392D01*
X130934108Y-100500500D01*
X130934110Y-100500500D01*
X131065890Y-100500500D01*
X131065892Y-100500500D01*
X131193186Y-100466392D01*
X131193188Y-100466390D01*
X131193190Y-100466390D01*
X131307309Y-100400503D01*
X131307309Y-100400502D01*
X131307314Y-100400500D01*
X131400500Y-100307314D01*
X131466392Y-100193186D01*
X131500500Y-100065892D01*
X131500500Y-99934108D01*
X131466392Y-99806814D01*
X131466390Y-99806811D01*
X131466390Y-99806809D01*
X131400503Y-99692690D01*
X131400501Y-99692688D01*
X131400500Y-99692686D01*
X131307314Y-99599500D01*
X131307311Y-99599498D01*
X131307309Y-99599496D01*
X131193189Y-99533609D01*
X131193191Y-99533609D01*
X131143799Y-99520375D01*
X131065892Y-99499500D01*
X130934108Y-99499500D01*
X130856200Y-99520375D01*
X130806809Y-99533609D01*
X130692690Y-99599496D01*
X130599496Y-99692690D01*
X130533609Y-99806809D01*
X130526294Y-99834109D01*
X130499500Y-99934108D01*
X117225500Y-99934108D01*
X117225500Y-99834108D01*
X117191392Y-99706814D01*
X117191390Y-99706811D01*
X117191390Y-99706809D01*
X117125503Y-99592690D01*
X117125501Y-99592688D01*
X117125500Y-99592686D01*
X117032314Y-99499500D01*
X117032311Y-99499498D01*
X117032309Y-99499496D01*
X116918189Y-99433609D01*
X116918191Y-99433609D01*
X116852393Y-99415979D01*
X116790892Y-99399500D01*
X116659108Y-99399500D01*
X116597607Y-99415979D01*
X116531809Y-99433609D01*
X116417690Y-99499496D01*
X116324496Y-99592690D01*
X116258609Y-99706809D01*
X116258608Y-99706814D01*
X116224500Y-99834108D01*
X113500500Y-99834108D01*
X113500500Y-99074108D01*
X126289500Y-99074108D01*
X126289500Y-99205892D01*
X126306584Y-99269651D01*
X126323609Y-99333190D01*
X126389496Y-99447309D01*
X126389498Y-99447311D01*
X126389500Y-99447314D01*
X126482686Y-99540500D01*
X126482688Y-99540501D01*
X126482690Y-99540503D01*
X126596810Y-99606390D01*
X126596808Y-99606390D01*
X126596812Y-99606391D01*
X126596814Y-99606392D01*
X126724108Y-99640500D01*
X126724110Y-99640500D01*
X126855890Y-99640500D01*
X126855892Y-99640500D01*
X126983186Y-99606392D01*
X126983188Y-99606390D01*
X126983190Y-99606390D01*
X127097309Y-99540503D01*
X127097309Y-99540502D01*
X127097314Y-99540500D01*
X127190500Y-99447314D01*
X127208591Y-99415979D01*
X127256390Y-99333190D01*
X127256390Y-99333188D01*
X127256392Y-99333186D01*
X127290500Y-99205892D01*
X127290500Y-99074108D01*
X127256392Y-98946814D01*
X127256390Y-98946811D01*
X127256390Y-98946809D01*
X127190503Y-98832690D01*
X127190501Y-98832688D01*
X127190500Y-98832686D01*
X127097314Y-98739500D01*
X127097311Y-98739498D01*
X127097309Y-98739496D01*
X127052031Y-98713355D01*
X126983189Y-98673609D01*
X126983191Y-98673609D01*
X126933799Y-98660375D01*
X126855892Y-98639500D01*
X126724108Y-98639500D01*
X126646200Y-98660375D01*
X126596809Y-98673609D01*
X126482690Y-98739496D01*
X126389496Y-98832690D01*
X126323609Y-98946809D01*
X126323608Y-98946814D01*
X126289500Y-99074108D01*
X113500500Y-99074108D01*
X113500500Y-98634108D01*
X144149500Y-98634108D01*
X144149500Y-98765892D01*
X144179579Y-98878151D01*
X144183609Y-98893190D01*
X144249496Y-99007309D01*
X144249498Y-99007311D01*
X144249500Y-99007314D01*
X144342686Y-99100500D01*
X144342688Y-99100501D01*
X144342690Y-99100503D01*
X144456810Y-99166390D01*
X144456808Y-99166390D01*
X144456812Y-99166391D01*
X144456814Y-99166392D01*
X144584108Y-99200500D01*
X144584110Y-99200500D01*
X144715890Y-99200500D01*
X144715892Y-99200500D01*
X144843186Y-99166392D01*
X144843188Y-99166390D01*
X144843190Y-99166390D01*
X144957309Y-99100503D01*
X144957309Y-99100502D01*
X144957314Y-99100500D01*
X145050500Y-99007314D01*
X145085433Y-98946809D01*
X145116390Y-98893190D01*
X145116390Y-98893188D01*
X145116392Y-98893186D01*
X145150500Y-98765892D01*
X145150500Y-98634108D01*
X145116392Y-98506814D01*
X145116390Y-98506811D01*
X145116390Y-98506809D01*
X145050503Y-98392690D01*
X145050501Y-98392688D01*
X145050500Y-98392686D01*
X144957314Y-98299500D01*
X144957311Y-98299498D01*
X144957309Y-98299496D01*
X144843189Y-98233609D01*
X144843191Y-98233609D01*
X144793799Y-98220375D01*
X144715892Y-98199500D01*
X144584108Y-98199500D01*
X144506200Y-98220375D01*
X144456809Y-98233609D01*
X144342690Y-98299496D01*
X144249496Y-98392690D01*
X144183609Y-98506809D01*
X144183608Y-98506814D01*
X144149500Y-98634108D01*
X113500500Y-98634108D01*
X113500500Y-96934108D01*
X119499500Y-96934108D01*
X119499500Y-97065892D01*
X119511453Y-97110500D01*
X119533609Y-97193190D01*
X119599496Y-97307309D01*
X119599498Y-97307311D01*
X119599500Y-97307314D01*
X119692686Y-97400500D01*
X119692688Y-97400501D01*
X119692690Y-97400503D01*
X119806810Y-97466390D01*
X119806808Y-97466390D01*
X119806812Y-97466391D01*
X119806814Y-97466392D01*
X119934108Y-97500500D01*
X119934110Y-97500500D01*
X120065890Y-97500500D01*
X120065892Y-97500500D01*
X120193186Y-97466392D01*
X120193188Y-97466390D01*
X120193190Y-97466390D01*
X120307309Y-97400503D01*
X120307309Y-97400502D01*
X120307314Y-97400500D01*
X120323706Y-97384108D01*
X127074500Y-97384108D01*
X127074500Y-97515892D01*
X127098496Y-97605448D01*
X127108609Y-97643190D01*
X127174496Y-97757309D01*
X127174498Y-97757311D01*
X127174500Y-97757314D01*
X127267686Y-97850500D01*
X127267688Y-97850501D01*
X127267690Y-97850503D01*
X127381810Y-97916390D01*
X127381808Y-97916390D01*
X127381812Y-97916391D01*
X127381814Y-97916392D01*
X127509108Y-97950500D01*
X127509110Y-97950500D01*
X127640890Y-97950500D01*
X127640892Y-97950500D01*
X127768186Y-97916392D01*
X127768188Y-97916390D01*
X127768190Y-97916390D01*
X127882309Y-97850503D01*
X127882309Y-97850502D01*
X127882314Y-97850500D01*
X127975500Y-97757314D01*
X127975503Y-97757309D01*
X128041390Y-97643190D01*
X128041390Y-97643188D01*
X128041392Y-97643186D01*
X128075500Y-97515892D01*
X128075500Y-97384108D01*
X128041392Y-97256814D01*
X128041390Y-97256811D01*
X128041390Y-97256809D01*
X127975503Y-97142690D01*
X127975501Y-97142688D01*
X127975500Y-97142686D01*
X127882314Y-97049500D01*
X127882311Y-97049498D01*
X127882309Y-97049496D01*
X127768189Y-96983609D01*
X127768191Y-96983609D01*
X127718799Y-96970375D01*
X127640892Y-96949500D01*
X127509108Y-96949500D01*
X127431200Y-96970375D01*
X127381809Y-96983609D01*
X127267690Y-97049496D01*
X127174496Y-97142690D01*
X127108609Y-97256809D01*
X127095078Y-97307309D01*
X127074500Y-97384108D01*
X120323706Y-97384108D01*
X120400500Y-97307314D01*
X120458527Y-97206809D01*
X120466390Y-97193190D01*
X120466390Y-97193188D01*
X120466392Y-97193186D01*
X120500500Y-97065892D01*
X120500500Y-96934108D01*
X120466392Y-96806814D01*
X120466390Y-96806811D01*
X120466390Y-96806809D01*
X120400503Y-96692690D01*
X120400501Y-96692688D01*
X120400500Y-96692686D01*
X120307314Y-96599500D01*
X120307311Y-96599498D01*
X120307309Y-96599496D01*
X120193189Y-96533609D01*
X120193191Y-96533609D01*
X120128927Y-96516390D01*
X120065892Y-96499500D01*
X119934108Y-96499500D01*
X119871073Y-96516390D01*
X119806809Y-96533609D01*
X119692690Y-96599496D01*
X119599496Y-96692690D01*
X119533609Y-96806809D01*
X119533608Y-96806814D01*
X119499500Y-96934108D01*
X113500500Y-96934108D01*
X113500500Y-95934108D01*
X114499500Y-95934108D01*
X114499500Y-96065892D01*
X114515559Y-96125826D01*
X114533609Y-96193190D01*
X114599496Y-96307309D01*
X114599498Y-96307311D01*
X114599500Y-96307314D01*
X114692686Y-96400500D01*
X114692688Y-96400501D01*
X114692690Y-96400503D01*
X114806810Y-96466390D01*
X114806808Y-96466390D01*
X114806812Y-96466391D01*
X114806814Y-96466392D01*
X114934108Y-96500500D01*
X114934110Y-96500500D01*
X115065890Y-96500500D01*
X115065892Y-96500500D01*
X115193186Y-96466392D01*
X115193188Y-96466390D01*
X115193190Y-96466390D01*
X115307309Y-96400503D01*
X115307309Y-96400502D01*
X115307314Y-96400500D01*
X115400500Y-96307314D01*
X115400503Y-96307309D01*
X115466390Y-96193190D01*
X115466390Y-96193188D01*
X115466392Y-96193186D01*
X115500500Y-96065892D01*
X115500500Y-95934108D01*
X126424500Y-95934108D01*
X126424500Y-96065892D01*
X126440559Y-96125826D01*
X126458609Y-96193190D01*
X126524496Y-96307309D01*
X126524498Y-96307311D01*
X126524500Y-96307314D01*
X126617686Y-96400500D01*
X126617688Y-96400501D01*
X126617690Y-96400503D01*
X126731810Y-96466390D01*
X126731808Y-96466390D01*
X126731812Y-96466391D01*
X126731814Y-96466392D01*
X126859108Y-96500500D01*
X126859110Y-96500500D01*
X126990890Y-96500500D01*
X126990892Y-96500500D01*
X127118186Y-96466392D01*
X127118188Y-96466390D01*
X127118190Y-96466390D01*
X127232309Y-96400503D01*
X127232309Y-96400502D01*
X127232314Y-96400500D01*
X127325500Y-96307314D01*
X127325503Y-96307309D01*
X127391390Y-96193190D01*
X127391390Y-96193188D01*
X127391392Y-96193186D01*
X127425500Y-96065892D01*
X127425500Y-95934108D01*
X127391392Y-95806814D01*
X127391390Y-95806811D01*
X127391390Y-95806809D01*
X127325503Y-95692690D01*
X127325501Y-95692688D01*
X127325500Y-95692686D01*
X127232314Y-95599500D01*
X127232311Y-95599498D01*
X127232309Y-95599496D01*
X127187031Y-95573355D01*
X127118189Y-95533609D01*
X127118191Y-95533609D01*
X127068799Y-95520375D01*
X126990892Y-95499500D01*
X126859108Y-95499500D01*
X126781200Y-95520375D01*
X126731809Y-95533609D01*
X126617690Y-95599496D01*
X126524496Y-95692690D01*
X126458609Y-95806809D01*
X126458608Y-95806814D01*
X126424500Y-95934108D01*
X115500500Y-95934108D01*
X115466392Y-95806814D01*
X115466390Y-95806811D01*
X115466390Y-95806809D01*
X115400503Y-95692690D01*
X115400501Y-95692688D01*
X115400500Y-95692686D01*
X115307314Y-95599500D01*
X115307311Y-95599498D01*
X115307309Y-95599496D01*
X115193189Y-95533609D01*
X115193191Y-95533609D01*
X115143799Y-95520375D01*
X115065892Y-95499500D01*
X114934108Y-95499500D01*
X114856200Y-95520375D01*
X114806809Y-95533609D01*
X114692690Y-95599496D01*
X114599496Y-95692690D01*
X114533609Y-95806809D01*
X114533608Y-95806814D01*
X114499500Y-95934108D01*
X113500500Y-95934108D01*
X113500500Y-95494108D01*
X134499500Y-95494108D01*
X134499500Y-95625892D01*
X134529579Y-95738151D01*
X134533609Y-95753190D01*
X134599496Y-95867309D01*
X134599498Y-95867311D01*
X134599500Y-95867314D01*
X134692686Y-95960500D01*
X134692688Y-95960501D01*
X134692690Y-95960503D01*
X134806810Y-96026390D01*
X134806808Y-96026390D01*
X134806812Y-96026391D01*
X134806814Y-96026392D01*
X134934108Y-96060500D01*
X134934110Y-96060500D01*
X135065890Y-96060500D01*
X135065892Y-96060500D01*
X135082775Y-96055976D01*
X135143876Y-96059179D01*
X135191425Y-96097684D01*
X135207261Y-96156784D01*
X135204024Y-96177221D01*
X135199747Y-96193186D01*
X135199500Y-96194109D01*
X135199500Y-96325896D01*
X135204023Y-96342776D01*
X135200819Y-96403877D01*
X135162313Y-96451426D01*
X135103212Y-96467260D01*
X135082776Y-96464023D01*
X135065896Y-96459500D01*
X135065892Y-96459500D01*
X134934108Y-96459500D01*
X134856200Y-96480375D01*
X134806809Y-96493609D01*
X134692690Y-96559496D01*
X134599496Y-96652690D01*
X134533609Y-96766809D01*
X134514539Y-96837978D01*
X134499500Y-96894108D01*
X134499500Y-97025892D01*
X134529579Y-97138151D01*
X134533609Y-97153190D01*
X134599496Y-97267309D01*
X134599498Y-97267311D01*
X134599500Y-97267314D01*
X134692686Y-97360500D01*
X134692688Y-97360501D01*
X134692690Y-97360503D01*
X134806810Y-97426390D01*
X134806808Y-97426390D01*
X134806812Y-97426391D01*
X134806814Y-97426392D01*
X134934108Y-97460500D01*
X134934110Y-97460500D01*
X135065890Y-97460500D01*
X135065892Y-97460500D01*
X135082775Y-97455976D01*
X135143876Y-97459179D01*
X135191425Y-97497684D01*
X135207261Y-97556784D01*
X135204024Y-97577221D01*
X135199500Y-97594108D01*
X135199500Y-97725892D01*
X135209740Y-97764108D01*
X135233609Y-97853190D01*
X135299496Y-97967309D01*
X135299498Y-97967311D01*
X135299500Y-97967314D01*
X135392686Y-98060500D01*
X135392688Y-98060501D01*
X135392690Y-98060503D01*
X135506810Y-98126390D01*
X135506808Y-98126390D01*
X135506812Y-98126391D01*
X135506814Y-98126392D01*
X135634108Y-98160500D01*
X135634110Y-98160500D01*
X135765890Y-98160500D01*
X135765892Y-98160500D01*
X135893186Y-98126392D01*
X135893188Y-98126390D01*
X135893190Y-98126390D01*
X136007309Y-98060503D01*
X136007309Y-98060502D01*
X136007314Y-98060500D01*
X136100500Y-97967314D01*
X136110208Y-97950500D01*
X136166390Y-97853190D01*
X136166390Y-97853188D01*
X136166392Y-97853186D01*
X136200500Y-97725892D01*
X136200500Y-97594108D01*
X136195976Y-97577224D01*
X136199179Y-97516124D01*
X136237684Y-97468575D01*
X136296784Y-97452739D01*
X136317221Y-97455975D01*
X136334108Y-97460500D01*
X136334110Y-97460500D01*
X136465890Y-97460500D01*
X136465892Y-97460500D01*
X136482775Y-97455976D01*
X136543876Y-97459179D01*
X136591425Y-97497684D01*
X136607261Y-97556784D01*
X136604024Y-97577221D01*
X136599500Y-97594108D01*
X136599500Y-97725892D01*
X136609740Y-97764108D01*
X136633609Y-97853190D01*
X136699496Y-97967309D01*
X136699498Y-97967311D01*
X136699500Y-97967314D01*
X136792686Y-98060500D01*
X136792688Y-98060501D01*
X136792690Y-98060503D01*
X136906810Y-98126390D01*
X136906808Y-98126390D01*
X136906812Y-98126391D01*
X136906814Y-98126392D01*
X137034108Y-98160500D01*
X137034110Y-98160500D01*
X137165890Y-98160500D01*
X137165892Y-98160500D01*
X137293186Y-98126392D01*
X137293188Y-98126390D01*
X137293190Y-98126390D01*
X137407309Y-98060503D01*
X137407309Y-98060502D01*
X137407314Y-98060500D01*
X137500500Y-97967314D01*
X137510208Y-97950500D01*
X137566390Y-97853190D01*
X137566390Y-97853188D01*
X137566392Y-97853186D01*
X137590260Y-97764108D01*
X140699500Y-97764108D01*
X140699500Y-97895892D01*
X140714132Y-97950500D01*
X140733609Y-98023190D01*
X140799496Y-98137309D01*
X140799498Y-98137311D01*
X140799500Y-98137314D01*
X140892686Y-98230500D01*
X140892688Y-98230501D01*
X140892690Y-98230503D01*
X141006810Y-98296390D01*
X141006808Y-98296390D01*
X141006812Y-98296391D01*
X141006814Y-98296392D01*
X141134108Y-98330500D01*
X141134110Y-98330500D01*
X141265890Y-98330500D01*
X141265892Y-98330500D01*
X141393186Y-98296392D01*
X141393188Y-98296390D01*
X141393190Y-98296390D01*
X141507309Y-98230503D01*
X141507309Y-98230502D01*
X141507314Y-98230500D01*
X141600500Y-98137314D01*
X141666392Y-98023186D01*
X141700500Y-97895892D01*
X141700500Y-97764108D01*
X141666392Y-97636814D01*
X141666390Y-97636811D01*
X141666390Y-97636809D01*
X141600503Y-97522690D01*
X141600501Y-97522688D01*
X141600500Y-97522686D01*
X141507314Y-97429500D01*
X141479350Y-97413355D01*
X141479349Y-97413353D01*
X141393189Y-97363609D01*
X141393191Y-97363609D01*
X141343799Y-97350375D01*
X141283089Y-97334108D01*
X143949500Y-97334108D01*
X143949500Y-97465892D01*
X143971903Y-97549501D01*
X143983609Y-97593190D01*
X144049496Y-97707309D01*
X144049498Y-97707311D01*
X144049500Y-97707314D01*
X144142686Y-97800500D01*
X144142688Y-97800501D01*
X144142690Y-97800503D01*
X144256810Y-97866390D01*
X144256808Y-97866390D01*
X144256812Y-97866391D01*
X144256814Y-97866392D01*
X144384108Y-97900500D01*
X144384110Y-97900500D01*
X144515890Y-97900500D01*
X144515892Y-97900500D01*
X144643186Y-97866392D01*
X144643188Y-97866390D01*
X144643190Y-97866390D01*
X144757309Y-97800503D01*
X144757309Y-97800502D01*
X144757314Y-97800500D01*
X144827561Y-97730253D01*
X151809500Y-97730253D01*
X151809500Y-99469746D01*
X151809501Y-99469758D01*
X151821132Y-99528227D01*
X151821134Y-99528233D01*
X151829331Y-99540500D01*
X151865448Y-99594552D01*
X151931769Y-99638867D01*
X151976231Y-99647711D01*
X151990241Y-99650498D01*
X151990246Y-99650498D01*
X151990252Y-99650500D01*
X151990253Y-99650500D01*
X153729747Y-99650500D01*
X153729748Y-99650500D01*
X153788231Y-99638867D01*
X153854552Y-99594552D01*
X153898867Y-99528231D01*
X153910500Y-99469748D01*
X153910500Y-98496532D01*
X154349500Y-98496532D01*
X154349500Y-98703467D01*
X154389869Y-98906418D01*
X154469058Y-99097597D01*
X154469059Y-99097598D01*
X154584023Y-99269655D01*
X154730345Y-99415977D01*
X154902402Y-99530941D01*
X155093580Y-99610130D01*
X155296535Y-99650500D01*
X155296536Y-99650500D01*
X155503464Y-99650500D01*
X155503465Y-99650500D01*
X155706420Y-99610130D01*
X155897598Y-99530941D01*
X156069655Y-99415977D01*
X156215977Y-99269655D01*
X156330941Y-99097598D01*
X156410130Y-98906420D01*
X156450500Y-98703465D01*
X156450500Y-98496535D01*
X156450499Y-98496532D01*
X156889500Y-98496532D01*
X156889500Y-98703467D01*
X156929869Y-98906418D01*
X157009058Y-99097597D01*
X157009059Y-99097598D01*
X157124023Y-99269655D01*
X157270345Y-99415977D01*
X157442402Y-99530941D01*
X157633580Y-99610130D01*
X157836535Y-99650500D01*
X157836536Y-99650500D01*
X158043464Y-99650500D01*
X158043465Y-99650500D01*
X158246420Y-99610130D01*
X158437598Y-99530941D01*
X158609655Y-99415977D01*
X158755977Y-99269655D01*
X158870941Y-99097598D01*
X158950130Y-98906420D01*
X158990500Y-98703465D01*
X158990500Y-98496535D01*
X158950130Y-98293580D01*
X158870941Y-98102402D01*
X158755977Y-97930345D01*
X158609655Y-97784023D01*
X158609651Y-97784020D01*
X158437597Y-97669058D01*
X158246418Y-97589869D01*
X158043467Y-97549500D01*
X158043465Y-97549500D01*
X157836535Y-97549500D01*
X157836532Y-97549500D01*
X157633581Y-97589869D01*
X157442402Y-97669058D01*
X157270348Y-97784020D01*
X157124020Y-97930348D01*
X157009058Y-98102402D01*
X156929869Y-98293581D01*
X156889500Y-98496532D01*
X156450499Y-98496532D01*
X156410130Y-98293580D01*
X156330941Y-98102402D01*
X156215977Y-97930345D01*
X156069655Y-97784023D01*
X156069651Y-97784020D01*
X155897597Y-97669058D01*
X155706418Y-97589869D01*
X155503467Y-97549500D01*
X155503465Y-97549500D01*
X155296535Y-97549500D01*
X155296532Y-97549500D01*
X155093581Y-97589869D01*
X154902402Y-97669058D01*
X154730348Y-97784020D01*
X154584020Y-97930348D01*
X154469058Y-98102402D01*
X154389869Y-98293581D01*
X154349500Y-98496532D01*
X153910500Y-98496532D01*
X153910500Y-97730252D01*
X153898867Y-97671769D01*
X153854552Y-97605448D01*
X153854548Y-97605445D01*
X153788233Y-97561134D01*
X153788231Y-97561133D01*
X153788228Y-97561132D01*
X153788227Y-97561132D01*
X153729758Y-97549501D01*
X153729748Y-97549500D01*
X151990252Y-97549500D01*
X151990251Y-97549500D01*
X151990241Y-97549501D01*
X151931772Y-97561132D01*
X151931766Y-97561134D01*
X151865451Y-97605445D01*
X151865445Y-97605451D01*
X151821134Y-97671766D01*
X151821132Y-97671772D01*
X151809501Y-97730241D01*
X151809500Y-97730253D01*
X144827561Y-97730253D01*
X144850500Y-97707314D01*
X144860728Y-97689598D01*
X144868645Y-97675887D01*
X144909311Y-97605451D01*
X144916392Y-97593186D01*
X144950500Y-97465892D01*
X144950500Y-97334108D01*
X144916392Y-97206814D01*
X144916390Y-97206811D01*
X144916390Y-97206809D01*
X144850503Y-97092690D01*
X144850501Y-97092688D01*
X144850500Y-97092686D01*
X144757314Y-96999500D01*
X144757311Y-96999498D01*
X144757309Y-96999496D01*
X144643189Y-96933609D01*
X144643191Y-96933609D01*
X144634551Y-96931294D01*
X144515892Y-96899500D01*
X144384108Y-96899500D01*
X144306200Y-96920375D01*
X144256809Y-96933609D01*
X144142690Y-96999496D01*
X144049496Y-97092690D01*
X143983609Y-97206809D01*
X143983608Y-97206814D01*
X143949500Y-97334108D01*
X141283089Y-97334108D01*
X141265892Y-97329500D01*
X141134108Y-97329500D01*
X141056200Y-97350375D01*
X141006809Y-97363609D01*
X140892690Y-97429496D01*
X140799496Y-97522690D01*
X140733609Y-97636809D01*
X140714719Y-97707309D01*
X140699500Y-97764108D01*
X137590260Y-97764108D01*
X137600500Y-97725892D01*
X137600500Y-97594108D01*
X137595976Y-97577224D01*
X137599179Y-97516124D01*
X137637684Y-97468575D01*
X137696784Y-97452739D01*
X137717221Y-97455975D01*
X137734108Y-97460500D01*
X137734110Y-97460500D01*
X137865890Y-97460500D01*
X137865892Y-97460500D01*
X137993186Y-97426392D01*
X137993188Y-97426390D01*
X137993190Y-97426390D01*
X138107309Y-97360503D01*
X138107309Y-97360502D01*
X138107314Y-97360500D01*
X138200500Y-97267314D01*
X138235433Y-97206809D01*
X138266390Y-97153190D01*
X138266390Y-97153188D01*
X138266392Y-97153186D01*
X138300500Y-97025892D01*
X138300500Y-96894108D01*
X138266392Y-96766814D01*
X138266390Y-96766811D01*
X138266390Y-96766809D01*
X138200503Y-96652690D01*
X138200501Y-96652688D01*
X138200500Y-96652686D01*
X138107314Y-96559500D01*
X138107311Y-96559498D01*
X138107309Y-96559496D01*
X137993189Y-96493609D01*
X137993191Y-96493609D01*
X137943799Y-96480375D01*
X137865892Y-96459500D01*
X137734108Y-96459500D01*
X137717224Y-96464023D01*
X137656124Y-96460821D01*
X137608575Y-96422316D01*
X137592739Y-96363216D01*
X137595976Y-96342776D01*
X137600500Y-96325892D01*
X137600500Y-96194108D01*
X137595976Y-96177224D01*
X137599179Y-96116124D01*
X137617007Y-96094108D01*
X143659500Y-96094108D01*
X143659500Y-96225892D01*
X143681317Y-96307314D01*
X143693609Y-96353190D01*
X143759496Y-96467309D01*
X143759498Y-96467311D01*
X143759500Y-96467314D01*
X143852686Y-96560500D01*
X143852688Y-96560501D01*
X143852690Y-96560503D01*
X143966810Y-96626390D01*
X143966808Y-96626390D01*
X143966812Y-96626391D01*
X143966814Y-96626392D01*
X144094108Y-96660500D01*
X144094110Y-96660500D01*
X144225890Y-96660500D01*
X144225892Y-96660500D01*
X144353186Y-96626392D01*
X144353188Y-96626390D01*
X144353190Y-96626390D01*
X144467309Y-96560503D01*
X144467309Y-96560502D01*
X144467314Y-96560500D01*
X144560500Y-96467314D01*
X144561032Y-96466392D01*
X144626390Y-96353190D01*
X144626390Y-96353188D01*
X144626392Y-96353186D01*
X144660500Y-96225892D01*
X144660500Y-96094108D01*
X144626392Y-95966814D01*
X144626390Y-95966811D01*
X144626390Y-95966809D01*
X144620485Y-95956581D01*
X151810000Y-95956581D01*
X151810000Y-96163418D01*
X151850349Y-96366272D01*
X151929501Y-96557360D01*
X151929508Y-96557374D01*
X152044405Y-96729329D01*
X152046826Y-96731750D01*
X152442210Y-96336365D01*
X152459901Y-96367007D01*
X152552993Y-96460099D01*
X152583632Y-96477788D01*
X152188249Y-96873173D01*
X152190670Y-96875594D01*
X152362625Y-96990491D01*
X152362639Y-96990498D01*
X152553727Y-97069650D01*
X152756581Y-97109999D01*
X152756586Y-97110000D01*
X152963414Y-97110000D01*
X152963418Y-97109999D01*
X153166272Y-97069650D01*
X153357360Y-96990498D01*
X153357366Y-96990495D01*
X153529333Y-96875591D01*
X153531750Y-96873173D01*
X153136366Y-96477789D01*
X153167007Y-96460099D01*
X153260099Y-96367007D01*
X153277789Y-96336366D01*
X153673173Y-96731750D01*
X153675591Y-96729333D01*
X153790495Y-96557366D01*
X153790498Y-96557360D01*
X153869650Y-96366272D01*
X153909999Y-96163418D01*
X153910000Y-96163413D01*
X153910000Y-95956585D01*
X153909999Y-95956582D01*
X153909989Y-95956532D01*
X154349500Y-95956532D01*
X154349500Y-96163467D01*
X154389869Y-96366418D01*
X154469058Y-96557597D01*
X154583805Y-96729329D01*
X154584023Y-96729655D01*
X154730345Y-96875977D01*
X154902402Y-96990941D01*
X155093580Y-97070130D01*
X155296535Y-97110500D01*
X155296536Y-97110500D01*
X155503464Y-97110500D01*
X155503465Y-97110500D01*
X155706420Y-97070130D01*
X155897598Y-96990941D01*
X156069655Y-96875977D01*
X156215977Y-96729655D01*
X156330941Y-96557598D01*
X156410130Y-96366420D01*
X156450500Y-96163465D01*
X156450500Y-95956535D01*
X156450499Y-95956532D01*
X156889500Y-95956532D01*
X156889500Y-96163467D01*
X156929869Y-96366418D01*
X157009058Y-96557597D01*
X157123805Y-96729329D01*
X157124023Y-96729655D01*
X157270345Y-96875977D01*
X157442402Y-96990941D01*
X157633580Y-97070130D01*
X157836535Y-97110500D01*
X157836536Y-97110500D01*
X158043464Y-97110500D01*
X158043465Y-97110500D01*
X158246420Y-97070130D01*
X158437598Y-96990941D01*
X158609655Y-96875977D01*
X158755977Y-96729655D01*
X158870941Y-96557598D01*
X158950130Y-96366420D01*
X158990500Y-96163465D01*
X158990500Y-95984108D01*
X160749500Y-95984108D01*
X160749500Y-96115892D01*
X160778974Y-96225890D01*
X160783609Y-96243190D01*
X160849496Y-96357309D01*
X160849498Y-96357311D01*
X160849500Y-96357314D01*
X160942686Y-96450500D01*
X160942688Y-96450501D01*
X160942690Y-96450503D01*
X161056810Y-96516390D01*
X161056808Y-96516390D01*
X161056812Y-96516391D01*
X161056814Y-96516392D01*
X161184108Y-96550500D01*
X161184110Y-96550500D01*
X161315890Y-96550500D01*
X161315892Y-96550500D01*
X161443186Y-96516392D01*
X161443188Y-96516390D01*
X161443190Y-96516390D01*
X161557309Y-96450503D01*
X161557309Y-96450502D01*
X161557314Y-96450500D01*
X161650500Y-96357314D01*
X161679368Y-96307314D01*
X161716390Y-96243190D01*
X161716390Y-96243188D01*
X161716392Y-96243186D01*
X161750500Y-96115892D01*
X161750500Y-95984108D01*
X161716392Y-95856814D01*
X161716390Y-95856811D01*
X161716390Y-95856809D01*
X161650503Y-95742690D01*
X161650501Y-95742688D01*
X161650500Y-95742686D01*
X161557314Y-95649500D01*
X161557311Y-95649498D01*
X161557309Y-95649496D01*
X161443189Y-95583609D01*
X161443191Y-95583609D01*
X161393799Y-95570375D01*
X161315892Y-95549500D01*
X161184108Y-95549500D01*
X161106200Y-95570375D01*
X161056809Y-95583609D01*
X160942690Y-95649496D01*
X160849496Y-95742690D01*
X160783609Y-95856809D01*
X160767059Y-95918576D01*
X160749500Y-95984108D01*
X158990500Y-95984108D01*
X158990500Y-95956535D01*
X158950130Y-95753580D01*
X158870941Y-95562402D01*
X158755977Y-95390345D01*
X158609655Y-95244023D01*
X158609651Y-95244020D01*
X158437597Y-95129058D01*
X158246418Y-95049869D01*
X158043467Y-95009500D01*
X158043465Y-95009500D01*
X157836535Y-95009500D01*
X157836532Y-95009500D01*
X157633581Y-95049869D01*
X157442402Y-95129058D01*
X157270348Y-95244020D01*
X157124020Y-95390348D01*
X157009058Y-95562402D01*
X156929869Y-95753581D01*
X156889500Y-95956532D01*
X156450499Y-95956532D01*
X156410130Y-95753580D01*
X156330941Y-95562402D01*
X156215977Y-95390345D01*
X156069655Y-95244023D01*
X156069651Y-95244020D01*
X155897597Y-95129058D01*
X155706418Y-95049869D01*
X155503467Y-95009500D01*
X155503465Y-95009500D01*
X155296535Y-95009500D01*
X155296532Y-95009500D01*
X155093581Y-95049869D01*
X154902402Y-95129058D01*
X154730348Y-95244020D01*
X154584020Y-95390348D01*
X154469058Y-95562402D01*
X154389869Y-95753581D01*
X154349500Y-95956532D01*
X153909989Y-95956532D01*
X153869650Y-95753727D01*
X153790498Y-95562639D01*
X153790491Y-95562625D01*
X153675594Y-95390670D01*
X153673173Y-95388249D01*
X153277788Y-95783632D01*
X153260099Y-95752993D01*
X153167007Y-95659901D01*
X153136365Y-95642210D01*
X153531750Y-95246826D01*
X153529329Y-95244405D01*
X153357374Y-95129508D01*
X153357360Y-95129501D01*
X153166272Y-95050349D01*
X152963418Y-95010000D01*
X152756581Y-95010000D01*
X152553727Y-95050349D01*
X152362639Y-95129501D01*
X152362630Y-95129505D01*
X152190665Y-95244410D01*
X152188248Y-95246825D01*
X152583633Y-95642210D01*
X152552993Y-95659901D01*
X152459901Y-95752993D01*
X152442210Y-95783633D01*
X152046825Y-95388248D01*
X152044410Y-95390665D01*
X151929505Y-95562630D01*
X151929501Y-95562639D01*
X151850349Y-95753727D01*
X151810000Y-95956581D01*
X144620485Y-95956581D01*
X144560503Y-95852690D01*
X144560501Y-95852688D01*
X144560500Y-95852686D01*
X144467314Y-95759500D01*
X144467311Y-95759498D01*
X144467309Y-95759496D01*
X144353189Y-95693609D01*
X144353191Y-95693609D01*
X144303799Y-95680375D01*
X144225892Y-95659500D01*
X144094108Y-95659500D01*
X144016200Y-95680375D01*
X143966809Y-95693609D01*
X143852690Y-95759496D01*
X143759496Y-95852690D01*
X143693609Y-95966809D01*
X143688974Y-95984108D01*
X143659500Y-96094108D01*
X137617007Y-96094108D01*
X137637684Y-96068575D01*
X137696784Y-96052739D01*
X137717221Y-96055975D01*
X137734108Y-96060500D01*
X137734110Y-96060500D01*
X137865890Y-96060500D01*
X137865892Y-96060500D01*
X137993186Y-96026392D01*
X137993188Y-96026390D01*
X137993190Y-96026390D01*
X138035638Y-96001883D01*
X138107309Y-95960503D01*
X138107309Y-95960502D01*
X138107314Y-95960500D01*
X138200500Y-95867314D01*
X138235433Y-95806809D01*
X138266390Y-95753190D01*
X138266390Y-95753188D01*
X138266392Y-95753186D01*
X138300500Y-95625892D01*
X138300500Y-95494108D01*
X138266392Y-95366814D01*
X138258266Y-95352739D01*
X138249369Y-95337328D01*
X138249368Y-95337326D01*
X138200503Y-95252690D01*
X138200501Y-95252688D01*
X138200500Y-95252686D01*
X138107314Y-95159500D01*
X138107311Y-95159498D01*
X138107309Y-95159496D01*
X137993189Y-95093609D01*
X137993191Y-95093609D01*
X137943799Y-95080375D01*
X137865892Y-95059500D01*
X137734108Y-95059500D01*
X137717224Y-95064023D01*
X137656124Y-95060821D01*
X137608575Y-95022316D01*
X137592739Y-94963216D01*
X137595976Y-94942776D01*
X137600500Y-94925892D01*
X137600500Y-94794108D01*
X137566392Y-94666814D01*
X137566390Y-94666811D01*
X137566390Y-94666809D01*
X137500503Y-94552690D01*
X137500501Y-94552688D01*
X137500500Y-94552686D01*
X137407314Y-94459500D01*
X137407311Y-94459498D01*
X137407309Y-94459496D01*
X137293189Y-94393609D01*
X137293191Y-94393609D01*
X137243799Y-94380375D01*
X137165892Y-94359500D01*
X137034108Y-94359500D01*
X136956200Y-94380375D01*
X136906809Y-94393609D01*
X136792690Y-94459496D01*
X136699496Y-94552690D01*
X136633609Y-94666809D01*
X136599500Y-94794109D01*
X136599500Y-94925896D01*
X136604023Y-94942776D01*
X136600819Y-95003877D01*
X136562313Y-95051426D01*
X136503212Y-95067260D01*
X136482776Y-95064023D01*
X136465896Y-95059500D01*
X136465892Y-95059500D01*
X136334108Y-95059500D01*
X136317224Y-95064023D01*
X136256124Y-95060821D01*
X136208575Y-95022316D01*
X136192739Y-94963216D01*
X136195976Y-94942776D01*
X136200500Y-94925892D01*
X136200500Y-94794108D01*
X136166392Y-94666814D01*
X136166390Y-94666811D01*
X136166390Y-94666809D01*
X136100503Y-94552690D01*
X136100501Y-94552688D01*
X136100500Y-94552686D01*
X136007314Y-94459500D01*
X136007311Y-94459498D01*
X136007309Y-94459496D01*
X135893189Y-94393609D01*
X135893191Y-94393609D01*
X135843799Y-94380375D01*
X135765892Y-94359500D01*
X135634108Y-94359500D01*
X135556200Y-94380375D01*
X135506809Y-94393609D01*
X135392690Y-94459496D01*
X135299496Y-94552690D01*
X135233609Y-94666809D01*
X135199500Y-94794109D01*
X135199500Y-94925896D01*
X135204023Y-94942776D01*
X135200819Y-95003877D01*
X135162313Y-95051426D01*
X135103212Y-95067260D01*
X135082776Y-95064023D01*
X135065896Y-95059500D01*
X135065892Y-95059500D01*
X134934108Y-95059500D01*
X134856200Y-95080375D01*
X134806809Y-95093609D01*
X134692690Y-95159496D01*
X134599496Y-95252690D01*
X134533609Y-95366809D01*
X134514539Y-95437978D01*
X134499500Y-95494108D01*
X113500500Y-95494108D01*
X113500500Y-93934108D01*
X141799500Y-93934108D01*
X141799500Y-94065892D01*
X141808773Y-94100500D01*
X141833609Y-94193190D01*
X141899496Y-94307309D01*
X141899498Y-94307311D01*
X141899500Y-94307314D01*
X141992686Y-94400500D01*
X141992688Y-94400501D01*
X141992690Y-94400503D01*
X142106810Y-94466390D01*
X142106808Y-94466390D01*
X142106812Y-94466391D01*
X142106814Y-94466392D01*
X142234108Y-94500500D01*
X142234110Y-94500500D01*
X142365890Y-94500500D01*
X142365892Y-94500500D01*
X142493186Y-94466392D01*
X142493188Y-94466390D01*
X142493190Y-94466390D01*
X142607309Y-94400503D01*
X142607309Y-94400502D01*
X142607314Y-94400500D01*
X142700500Y-94307314D01*
X142766392Y-94193186D01*
X142800500Y-94065892D01*
X142800500Y-93934108D01*
X142766392Y-93806814D01*
X142766390Y-93806811D01*
X142766390Y-93806809D01*
X142700503Y-93692690D01*
X142700501Y-93692688D01*
X142700500Y-93692686D01*
X142607314Y-93599500D01*
X142607311Y-93599498D01*
X142607309Y-93599496D01*
X142494053Y-93534108D01*
X151699500Y-93534108D01*
X151699500Y-93665892D01*
X151729579Y-93778151D01*
X151733609Y-93793190D01*
X151799496Y-93907309D01*
X151799498Y-93907311D01*
X151799500Y-93907314D01*
X151892686Y-94000500D01*
X151892688Y-94000501D01*
X151892690Y-94000503D01*
X152006810Y-94066390D01*
X152006808Y-94066390D01*
X152006812Y-94066391D01*
X152006814Y-94066392D01*
X152134108Y-94100500D01*
X152134110Y-94100500D01*
X152265890Y-94100500D01*
X152265892Y-94100500D01*
X152393186Y-94066392D01*
X152393188Y-94066390D01*
X152393190Y-94066390D01*
X152507309Y-94000503D01*
X152507309Y-94000502D01*
X152507314Y-94000500D01*
X152600500Y-93907314D01*
X152666392Y-93793186D01*
X152700500Y-93665892D01*
X152700500Y-93534108D01*
X152666392Y-93406814D01*
X152666390Y-93406811D01*
X152666390Y-93406809D01*
X152600503Y-93292690D01*
X152600501Y-93292688D01*
X152600500Y-93292686D01*
X152507314Y-93199500D01*
X152507311Y-93199498D01*
X152507309Y-93199496D01*
X152393189Y-93133609D01*
X152393191Y-93133609D01*
X152343799Y-93120375D01*
X152265892Y-93099500D01*
X152134108Y-93099500D01*
X152056200Y-93120375D01*
X152006809Y-93133609D01*
X151892690Y-93199496D01*
X151799496Y-93292690D01*
X151733609Y-93406809D01*
X151733608Y-93406814D01*
X151699500Y-93534108D01*
X142494053Y-93534108D01*
X142493189Y-93533609D01*
X142493191Y-93533609D01*
X142443799Y-93520375D01*
X142365892Y-93499500D01*
X142234108Y-93499500D01*
X142156200Y-93520375D01*
X142106809Y-93533609D01*
X141992690Y-93599496D01*
X141899496Y-93692690D01*
X141833609Y-93806809D01*
X141833608Y-93806814D01*
X141799500Y-93934108D01*
X113500500Y-93934108D01*
X113500500Y-92934108D01*
X130499500Y-92934108D01*
X130499500Y-93065892D01*
X130517644Y-93133608D01*
X130533609Y-93193190D01*
X130599496Y-93307309D01*
X130599498Y-93307311D01*
X130599500Y-93307314D01*
X130692686Y-93400500D01*
X130692688Y-93400501D01*
X130692690Y-93400503D01*
X130806810Y-93466390D01*
X130806808Y-93466390D01*
X130806812Y-93466391D01*
X130806814Y-93466392D01*
X130934108Y-93500500D01*
X130934110Y-93500500D01*
X131065890Y-93500500D01*
X131065892Y-93500500D01*
X131193186Y-93466392D01*
X131193188Y-93466390D01*
X131193190Y-93466390D01*
X131307309Y-93400503D01*
X131307309Y-93400502D01*
X131307314Y-93400500D01*
X131400500Y-93307314D01*
X131466392Y-93193186D01*
X131500500Y-93065892D01*
X131500500Y-92934108D01*
X131466392Y-92806814D01*
X131466390Y-92806811D01*
X131466390Y-92806809D01*
X131400503Y-92692690D01*
X131400501Y-92692688D01*
X131400500Y-92692686D01*
X131307314Y-92599500D01*
X131307311Y-92599498D01*
X131307309Y-92599496D01*
X131193189Y-92533609D01*
X131193191Y-92533609D01*
X131143799Y-92520375D01*
X131065892Y-92499500D01*
X130934108Y-92499500D01*
X130856200Y-92520375D01*
X130806809Y-92533609D01*
X130692690Y-92599496D01*
X130599496Y-92692690D01*
X130533609Y-92806809D01*
X130533608Y-92806814D01*
X130499500Y-92934108D01*
X113500500Y-92934108D01*
X113500500Y-91002434D01*
X113500619Y-90997577D01*
X113503088Y-90947314D01*
X113506458Y-90878710D01*
X115149500Y-90878710D01*
X115149500Y-91121289D01*
X115181161Y-91361781D01*
X115181161Y-91361786D01*
X115243944Y-91596092D01*
X115243948Y-91596105D01*
X115336772Y-91820204D01*
X115336774Y-91820208D01*
X115336776Y-91820212D01*
X115458064Y-92030289D01*
X115458066Y-92030292D01*
X115605729Y-92222731D01*
X115605731Y-92222733D01*
X115605735Y-92222738D01*
X115777262Y-92394265D01*
X115777266Y-92394268D01*
X115777268Y-92394270D01*
X115811452Y-92420500D01*
X115969711Y-92541936D01*
X116179788Y-92663224D01*
X116403900Y-92756054D01*
X116638211Y-92818838D01*
X116878712Y-92850500D01*
X116878713Y-92850500D01*
X117121287Y-92850500D01*
X117121288Y-92850500D01*
X117361789Y-92818838D01*
X117596100Y-92756054D01*
X117820212Y-92663224D01*
X118030289Y-92541936D01*
X118222738Y-92394265D01*
X118394265Y-92222738D01*
X118541936Y-92030289D01*
X118597466Y-91934108D01*
X121499500Y-91934108D01*
X121499500Y-92065892D01*
X121529579Y-92178151D01*
X121533609Y-92193190D01*
X121599496Y-92307309D01*
X121599498Y-92307311D01*
X121599500Y-92307314D01*
X121692686Y-92400500D01*
X121692688Y-92400501D01*
X121692690Y-92400503D01*
X121806810Y-92466390D01*
X121806808Y-92466390D01*
X121806812Y-92466391D01*
X121806814Y-92466392D01*
X121934108Y-92500500D01*
X121934110Y-92500500D01*
X122065890Y-92500500D01*
X122065892Y-92500500D01*
X122193186Y-92466392D01*
X122193188Y-92466390D01*
X122193190Y-92466390D01*
X122307309Y-92400503D01*
X122307309Y-92400502D01*
X122307314Y-92400500D01*
X122400500Y-92307314D01*
X122466392Y-92193186D01*
X122500500Y-92065892D01*
X122500500Y-91934108D01*
X122479064Y-91854108D01*
X143379500Y-91854108D01*
X143379500Y-91985892D01*
X143391396Y-92030289D01*
X143413609Y-92113190D01*
X143479496Y-92227309D01*
X143479498Y-92227311D01*
X143479500Y-92227314D01*
X143572686Y-92320500D01*
X143572688Y-92320501D01*
X143572690Y-92320503D01*
X143686810Y-92386390D01*
X143686808Y-92386390D01*
X143686812Y-92386391D01*
X143686814Y-92386392D01*
X143814108Y-92420500D01*
X143814110Y-92420500D01*
X143945890Y-92420500D01*
X143945892Y-92420500D01*
X144073186Y-92386392D01*
X144073188Y-92386390D01*
X144073190Y-92386390D01*
X144187309Y-92320503D01*
X144187309Y-92320502D01*
X144187314Y-92320500D01*
X144280500Y-92227314D01*
X144346392Y-92113186D01*
X144380500Y-91985892D01*
X144380500Y-91854108D01*
X144346392Y-91726814D01*
X144346390Y-91726811D01*
X144346390Y-91726809D01*
X144280503Y-91612690D01*
X144280501Y-91612688D01*
X144280500Y-91612686D01*
X144187314Y-91519500D01*
X144187311Y-91519498D01*
X144187309Y-91519496D01*
X144073189Y-91453609D01*
X144073191Y-91453609D01*
X144023799Y-91440375D01*
X143945892Y-91419500D01*
X143814108Y-91419500D01*
X143736200Y-91440375D01*
X143686809Y-91453609D01*
X143572690Y-91519496D01*
X143479496Y-91612690D01*
X143413609Y-91726809D01*
X143413608Y-91726814D01*
X143379500Y-91854108D01*
X122479064Y-91854108D01*
X122466392Y-91806814D01*
X122466390Y-91806811D01*
X122466390Y-91806809D01*
X122400503Y-91692690D01*
X122400501Y-91692688D01*
X122400500Y-91692686D01*
X122307314Y-91599500D01*
X122307311Y-91599498D01*
X122307309Y-91599496D01*
X122193189Y-91533609D01*
X122193191Y-91533609D01*
X122140519Y-91519496D01*
X122065892Y-91499500D01*
X121934108Y-91499500D01*
X121859481Y-91519496D01*
X121806809Y-91533609D01*
X121692690Y-91599496D01*
X121599496Y-91692690D01*
X121533609Y-91806809D01*
X121533608Y-91806814D01*
X121499500Y-91934108D01*
X118597466Y-91934108D01*
X118663224Y-91820212D01*
X118756054Y-91596100D01*
X118818838Y-91361789D01*
X118850500Y-91121288D01*
X118850500Y-90878712D01*
X118818838Y-90638211D01*
X118801662Y-90574108D01*
X150629500Y-90574108D01*
X150629500Y-90705892D01*
X150655655Y-90803504D01*
X150663609Y-90833190D01*
X150729496Y-90947309D01*
X150729498Y-90947311D01*
X150729500Y-90947314D01*
X150822686Y-91040500D01*
X150822688Y-91040501D01*
X150822690Y-91040503D01*
X150936810Y-91106390D01*
X150936808Y-91106390D01*
X150936812Y-91106391D01*
X150936814Y-91106392D01*
X151064108Y-91140500D01*
X151064110Y-91140500D01*
X151195890Y-91140500D01*
X151195892Y-91140500D01*
X151323186Y-91106392D01*
X151323188Y-91106390D01*
X151323190Y-91106390D01*
X151437309Y-91040503D01*
X151437309Y-91040502D01*
X151437314Y-91040500D01*
X151530500Y-90947314D01*
X151570107Y-90878713D01*
X151570109Y-90878710D01*
X157149500Y-90878710D01*
X157149500Y-91121289D01*
X157181161Y-91361781D01*
X157181161Y-91361786D01*
X157243944Y-91596092D01*
X157243948Y-91596105D01*
X157336772Y-91820204D01*
X157336774Y-91820208D01*
X157336776Y-91820212D01*
X157458064Y-92030289D01*
X157458066Y-92030292D01*
X157605729Y-92222731D01*
X157605731Y-92222733D01*
X157605735Y-92222738D01*
X157777262Y-92394265D01*
X157777266Y-92394268D01*
X157777268Y-92394270D01*
X157811452Y-92420500D01*
X157969711Y-92541936D01*
X158179788Y-92663224D01*
X158403900Y-92756054D01*
X158638211Y-92818838D01*
X158878712Y-92850500D01*
X158878713Y-92850500D01*
X159121287Y-92850500D01*
X159121288Y-92850500D01*
X159361789Y-92818838D01*
X159596100Y-92756054D01*
X159820212Y-92663224D01*
X160030289Y-92541936D01*
X160222738Y-92394265D01*
X160394265Y-92222738D01*
X160541936Y-92030289D01*
X160663224Y-91820212D01*
X160756054Y-91596100D01*
X160818838Y-91361789D01*
X160850500Y-91121288D01*
X160850500Y-90878712D01*
X160818838Y-90638211D01*
X160756054Y-90403900D01*
X160663224Y-90179788D01*
X160541936Y-89969711D01*
X160394265Y-89777262D01*
X160222738Y-89605735D01*
X160222733Y-89605731D01*
X160222731Y-89605729D01*
X160030292Y-89458066D01*
X160030289Y-89458064D01*
X159820212Y-89336776D01*
X159820208Y-89336774D01*
X159820204Y-89336772D01*
X159596105Y-89243948D01*
X159596104Y-89243947D01*
X159596100Y-89243946D01*
X159361789Y-89181162D01*
X159361786Y-89181161D01*
X159361784Y-89181161D01*
X159121289Y-89149500D01*
X159121288Y-89149500D01*
X158878712Y-89149500D01*
X158878710Y-89149500D01*
X158638218Y-89181161D01*
X158638213Y-89181161D01*
X158403907Y-89243944D01*
X158403894Y-89243948D01*
X158179795Y-89336772D01*
X157969707Y-89458066D01*
X157777268Y-89605729D01*
X157605729Y-89777268D01*
X157458066Y-89969707D01*
X157336772Y-90179795D01*
X157243948Y-90403894D01*
X157243944Y-90403907D01*
X157181161Y-90638213D01*
X157181161Y-90638218D01*
X157149500Y-90878710D01*
X151570109Y-90878710D01*
X151596390Y-90833190D01*
X151596390Y-90833188D01*
X151596392Y-90833186D01*
X151630500Y-90705892D01*
X151630500Y-90574108D01*
X151596392Y-90446814D01*
X151596390Y-90446811D01*
X151596390Y-90446809D01*
X151530503Y-90332690D01*
X151530501Y-90332688D01*
X151530500Y-90332686D01*
X151437314Y-90239500D01*
X151437311Y-90239498D01*
X151437309Y-90239496D01*
X151323189Y-90173609D01*
X151323191Y-90173609D01*
X151273799Y-90160375D01*
X151195892Y-90139500D01*
X151064108Y-90139500D01*
X150986200Y-90160375D01*
X150936809Y-90173609D01*
X150822690Y-90239496D01*
X150729496Y-90332690D01*
X150663609Y-90446809D01*
X150663608Y-90446814D01*
X150629500Y-90574108D01*
X118801662Y-90574108D01*
X118756054Y-90403900D01*
X118663224Y-90179788D01*
X118541936Y-89969711D01*
X118394265Y-89777262D01*
X118222738Y-89605735D01*
X118222733Y-89605731D01*
X118222731Y-89605729D01*
X118030292Y-89458066D01*
X118030289Y-89458064D01*
X117820212Y-89336776D01*
X117820208Y-89336774D01*
X117820204Y-89336772D01*
X117596105Y-89243948D01*
X117596104Y-89243947D01*
X117596100Y-89243946D01*
X117361789Y-89181162D01*
X117361786Y-89181161D01*
X117361784Y-89181161D01*
X117121289Y-89149500D01*
X117121288Y-89149500D01*
X116878712Y-89149500D01*
X116878710Y-89149500D01*
X116638218Y-89181161D01*
X116638213Y-89181161D01*
X116403907Y-89243944D01*
X116403894Y-89243948D01*
X116179795Y-89336772D01*
X115969707Y-89458066D01*
X115777268Y-89605729D01*
X115605729Y-89777268D01*
X115458066Y-89969707D01*
X115336772Y-90179795D01*
X115243948Y-90403894D01*
X115243944Y-90403907D01*
X115181161Y-90638213D01*
X115181161Y-90638218D01*
X115149500Y-90878710D01*
X113506458Y-90878710D01*
X113517113Y-90661824D01*
X113518063Y-90652186D01*
X113567029Y-90322080D01*
X113568918Y-90312582D01*
X113650009Y-89988849D01*
X113652818Y-89979590D01*
X113765249Y-89665367D01*
X113768958Y-89656412D01*
X113911644Y-89354728D01*
X113916211Y-89346185D01*
X114087780Y-89059938D01*
X114093163Y-89051883D01*
X114291957Y-88783841D01*
X114298107Y-88776346D01*
X114522228Y-88529067D01*
X114529067Y-88522228D01*
X114776346Y-88298107D01*
X114783841Y-88291957D01*
X115051883Y-88093163D01*
X115059938Y-88087780D01*
X115346185Y-87916211D01*
X115354728Y-87911644D01*
X115656412Y-87768958D01*
X115665367Y-87765249D01*
X115979590Y-87652818D01*
X115988849Y-87650009D01*
X116312582Y-87568918D01*
X116322080Y-87567029D01*
X116652186Y-87518063D01*
X116661824Y-87517113D01*
X116970606Y-87501944D01*
X116997579Y-87500619D01*
X117002436Y-87500500D01*
X117065892Y-87500500D01*
X119552679Y-87500500D01*
X119610870Y-87519407D01*
G37*
%TD.AperFunction*%
%TD*%
M02*
