%TF.GenerationSoftware,KiCad,Pcbnew,9.0.2*%
%TF.CreationDate,2025-06-28T03:21:36+09:00*%
%TF.ProjectId,ESP32-S3-TESTBOARD,45535033-322d-4533-932d-54455354424f,rev?*%
%TF.SameCoordinates,Original*%
%TF.FileFunction,Legend,Bot*%
%TF.FilePolarity,Positive*%
%FSLAX46Y46*%
G04 Gerber Fmt 4.6, Leading zero omitted, Abs format (unit mm)*
G04 Created by KiCad (PCBNEW 9.0.2) date 2025-06-28 03:21:36*
%MOMM*%
%LPD*%
G01*
G04 APERTURE LIST*
%ADD10C,0.300000*%
%ADD11C,0.200000*%
%ADD12C,0.010000*%
G04 APERTURE END LIST*
D10*
X149995489Y-108870996D02*
X149995489Y-107370996D01*
X149995489Y-107370996D02*
X149424060Y-107370996D01*
X149424060Y-107370996D02*
X149281203Y-107442425D01*
X149281203Y-107442425D02*
X149209774Y-107513853D01*
X149209774Y-107513853D02*
X149138346Y-107656710D01*
X149138346Y-107656710D02*
X149138346Y-107870996D01*
X149138346Y-107870996D02*
X149209774Y-108013853D01*
X149209774Y-108013853D02*
X149281203Y-108085282D01*
X149281203Y-108085282D02*
X149424060Y-108156710D01*
X149424060Y-108156710D02*
X149995489Y-108156710D01*
X148209774Y-107370996D02*
X147924060Y-107370996D01*
X147924060Y-107370996D02*
X147781203Y-107442425D01*
X147781203Y-107442425D02*
X147638346Y-107585282D01*
X147638346Y-107585282D02*
X147566917Y-107870996D01*
X147566917Y-107870996D02*
X147566917Y-108370996D01*
X147566917Y-108370996D02*
X147638346Y-108656710D01*
X147638346Y-108656710D02*
X147781203Y-108799568D01*
X147781203Y-108799568D02*
X147924060Y-108870996D01*
X147924060Y-108870996D02*
X148209774Y-108870996D01*
X148209774Y-108870996D02*
X148352632Y-108799568D01*
X148352632Y-108799568D02*
X148495489Y-108656710D01*
X148495489Y-108656710D02*
X148566917Y-108370996D01*
X148566917Y-108370996D02*
X148566917Y-107870996D01*
X148566917Y-107870996D02*
X148495489Y-107585282D01*
X148495489Y-107585282D02*
X148352632Y-107442425D01*
X148352632Y-107442425D02*
X148209774Y-107370996D01*
X147066917Y-107370996D02*
X146709774Y-108870996D01*
X146709774Y-108870996D02*
X146424060Y-107799568D01*
X146424060Y-107799568D02*
X146138345Y-108870996D01*
X146138345Y-108870996D02*
X145781203Y-107370996D01*
X145209774Y-108085282D02*
X144709774Y-108085282D01*
X144495488Y-108870996D02*
X145209774Y-108870996D01*
X145209774Y-108870996D02*
X145209774Y-107370996D01*
X145209774Y-107370996D02*
X144495488Y-107370996D01*
X142995488Y-108870996D02*
X143495488Y-108156710D01*
X143852631Y-108870996D02*
X143852631Y-107370996D01*
X143852631Y-107370996D02*
X143281202Y-107370996D01*
X143281202Y-107370996D02*
X143138345Y-107442425D01*
X143138345Y-107442425D02*
X143066916Y-107513853D01*
X143066916Y-107513853D02*
X142995488Y-107656710D01*
X142995488Y-107656710D02*
X142995488Y-107870996D01*
X142995488Y-107870996D02*
X143066916Y-108013853D01*
X143066916Y-108013853D02*
X143138345Y-108085282D01*
X143138345Y-108085282D02*
X143281202Y-108156710D01*
X143281202Y-108156710D02*
X143852631Y-108156710D01*
X142352631Y-108085282D02*
X141852631Y-108085282D01*
X141638345Y-108870996D02*
X142352631Y-108870996D01*
X142352631Y-108870996D02*
X142352631Y-107370996D01*
X142352631Y-107370996D02*
X141638345Y-107370996D01*
X140995488Y-108870996D02*
X140995488Y-107370996D01*
X140995488Y-107370996D02*
X140638345Y-107370996D01*
X140638345Y-107370996D02*
X140424059Y-107442425D01*
X140424059Y-107442425D02*
X140281202Y-107585282D01*
X140281202Y-107585282D02*
X140209773Y-107728139D01*
X140209773Y-107728139D02*
X140138345Y-108013853D01*
X140138345Y-108013853D02*
X140138345Y-108228139D01*
X140138345Y-108228139D02*
X140209773Y-108513853D01*
X140209773Y-108513853D02*
X140281202Y-108656710D01*
X140281202Y-108656710D02*
X140424059Y-108799568D01*
X140424059Y-108799568D02*
X140638345Y-108870996D01*
X140638345Y-108870996D02*
X140995488Y-108870996D01*
X137852631Y-108085282D02*
X137638345Y-108156710D01*
X137638345Y-108156710D02*
X137566916Y-108228139D01*
X137566916Y-108228139D02*
X137495488Y-108370996D01*
X137495488Y-108370996D02*
X137495488Y-108585282D01*
X137495488Y-108585282D02*
X137566916Y-108728139D01*
X137566916Y-108728139D02*
X137638345Y-108799568D01*
X137638345Y-108799568D02*
X137781202Y-108870996D01*
X137781202Y-108870996D02*
X138352631Y-108870996D01*
X138352631Y-108870996D02*
X138352631Y-107370996D01*
X138352631Y-107370996D02*
X137852631Y-107370996D01*
X137852631Y-107370996D02*
X137709774Y-107442425D01*
X137709774Y-107442425D02*
X137638345Y-107513853D01*
X137638345Y-107513853D02*
X137566916Y-107656710D01*
X137566916Y-107656710D02*
X137566916Y-107799568D01*
X137566916Y-107799568D02*
X137638345Y-107942425D01*
X137638345Y-107942425D02*
X137709774Y-108013853D01*
X137709774Y-108013853D02*
X137852631Y-108085282D01*
X137852631Y-108085282D02*
X138352631Y-108085282D01*
X136566916Y-108156710D02*
X136566916Y-108870996D01*
X137066916Y-107370996D02*
X136566916Y-108156710D01*
X136566916Y-108156710D02*
X136066916Y-107370996D01*
X135566917Y-108728139D02*
X135495488Y-108799568D01*
X135495488Y-108799568D02*
X135566917Y-108870996D01*
X135566917Y-108870996D02*
X135638345Y-108799568D01*
X135638345Y-108799568D02*
X135566917Y-108728139D01*
X135566917Y-108728139D02*
X135566917Y-108870996D01*
X135566917Y-107942425D02*
X135495488Y-108013853D01*
X135495488Y-108013853D02*
X135566917Y-108085282D01*
X135566917Y-108085282D02*
X135638345Y-108013853D01*
X135638345Y-108013853D02*
X135566917Y-107942425D01*
X135566917Y-107942425D02*
X135566917Y-108085282D01*
X150066917Y-109785912D02*
X150066917Y-110071626D01*
X149495489Y-109785912D02*
X149495489Y-110071626D01*
X148852632Y-111285912D02*
X148852632Y-109785912D01*
X148852632Y-109785912D02*
X148352632Y-110857341D01*
X148352632Y-110857341D02*
X147852632Y-109785912D01*
X147852632Y-109785912D02*
X147852632Y-111285912D01*
X147209774Y-110857341D02*
X146495489Y-110857341D01*
X147352631Y-111285912D02*
X146852631Y-109785912D01*
X146852631Y-109785912D02*
X146352631Y-111285912D01*
X145852632Y-111285912D02*
X145852632Y-109785912D01*
X145852632Y-109785912D02*
X145495489Y-109785912D01*
X145495489Y-109785912D02*
X145281203Y-109857341D01*
X145281203Y-109857341D02*
X145138346Y-110000198D01*
X145138346Y-110000198D02*
X145066917Y-110143055D01*
X145066917Y-110143055D02*
X144995489Y-110428769D01*
X144995489Y-110428769D02*
X144995489Y-110643055D01*
X144995489Y-110643055D02*
X145066917Y-110928769D01*
X145066917Y-110928769D02*
X145138346Y-111071626D01*
X145138346Y-111071626D02*
X145281203Y-111214484D01*
X145281203Y-111214484D02*
X145495489Y-111285912D01*
X145495489Y-111285912D02*
X145852632Y-111285912D01*
X144352632Y-110500198D02*
X143852632Y-110500198D01*
X143638346Y-111285912D02*
X144352632Y-111285912D01*
X144352632Y-111285912D02*
X144352632Y-109785912D01*
X144352632Y-109785912D02*
X143638346Y-109785912D01*
X141352632Y-110500198D02*
X141138346Y-110571626D01*
X141138346Y-110571626D02*
X141066917Y-110643055D01*
X141066917Y-110643055D02*
X140995489Y-110785912D01*
X140995489Y-110785912D02*
X140995489Y-111000198D01*
X140995489Y-111000198D02*
X141066917Y-111143055D01*
X141066917Y-111143055D02*
X141138346Y-111214484D01*
X141138346Y-111214484D02*
X141281203Y-111285912D01*
X141281203Y-111285912D02*
X141852632Y-111285912D01*
X141852632Y-111285912D02*
X141852632Y-109785912D01*
X141852632Y-109785912D02*
X141352632Y-109785912D01*
X141352632Y-109785912D02*
X141209775Y-109857341D01*
X141209775Y-109857341D02*
X141138346Y-109928769D01*
X141138346Y-109928769D02*
X141066917Y-110071626D01*
X141066917Y-110071626D02*
X141066917Y-110214484D01*
X141066917Y-110214484D02*
X141138346Y-110357341D01*
X141138346Y-110357341D02*
X141209775Y-110428769D01*
X141209775Y-110428769D02*
X141352632Y-110500198D01*
X141352632Y-110500198D02*
X141852632Y-110500198D01*
X140066917Y-110571626D02*
X140066917Y-111285912D01*
X140566917Y-109785912D02*
X140066917Y-110571626D01*
X140066917Y-110571626D02*
X139566917Y-109785912D01*
X137924061Y-111285912D02*
X137924061Y-109785912D01*
X137924061Y-109785912D02*
X137424061Y-110857341D01*
X137424061Y-110857341D02*
X136924061Y-109785912D01*
X136924061Y-109785912D02*
X136924061Y-111285912D01*
X135924060Y-109785912D02*
X135638346Y-109785912D01*
X135638346Y-109785912D02*
X135495489Y-109857341D01*
X135495489Y-109857341D02*
X135352632Y-110000198D01*
X135352632Y-110000198D02*
X135281203Y-110285912D01*
X135281203Y-110285912D02*
X135281203Y-110785912D01*
X135281203Y-110785912D02*
X135352632Y-111071626D01*
X135352632Y-111071626D02*
X135495489Y-111214484D01*
X135495489Y-111214484D02*
X135638346Y-111285912D01*
X135638346Y-111285912D02*
X135924060Y-111285912D01*
X135924060Y-111285912D02*
X136066918Y-111214484D01*
X136066918Y-111214484D02*
X136209775Y-111071626D01*
X136209775Y-111071626D02*
X136281203Y-110785912D01*
X136281203Y-110785912D02*
X136281203Y-110285912D01*
X136281203Y-110285912D02*
X136209775Y-110000198D01*
X136209775Y-110000198D02*
X136066918Y-109857341D01*
X136066918Y-109857341D02*
X135924060Y-109785912D01*
X133781203Y-111285912D02*
X134281203Y-110571626D01*
X134638346Y-111285912D02*
X134638346Y-109785912D01*
X134638346Y-109785912D02*
X134066917Y-109785912D01*
X134066917Y-109785912D02*
X133924060Y-109857341D01*
X133924060Y-109857341D02*
X133852631Y-109928769D01*
X133852631Y-109928769D02*
X133781203Y-110071626D01*
X133781203Y-110071626D02*
X133781203Y-110285912D01*
X133781203Y-110285912D02*
X133852631Y-110428769D01*
X133852631Y-110428769D02*
X133924060Y-110500198D01*
X133924060Y-110500198D02*
X134066917Y-110571626D01*
X134066917Y-110571626D02*
X134638346Y-110571626D01*
X133352631Y-109785912D02*
X132495489Y-109785912D01*
X132924060Y-111285912D02*
X132924060Y-109785912D01*
X131995489Y-110500198D02*
X131495489Y-110500198D01*
X131281203Y-111285912D02*
X131995489Y-111285912D01*
X131995489Y-111285912D02*
X131995489Y-109785912D01*
X131995489Y-109785912D02*
X131281203Y-109785912D01*
X130638346Y-111285912D02*
X130638346Y-109785912D01*
X130638346Y-109785912D02*
X129781203Y-111285912D01*
X129781203Y-111285912D02*
X129781203Y-109785912D01*
X129138345Y-109785912D02*
X129138345Y-110071626D01*
X128566917Y-109785912D02*
X128566917Y-110071626D01*
X150138346Y-112200828D02*
X149781203Y-113700828D01*
X149781203Y-113700828D02*
X149495489Y-112629400D01*
X149495489Y-112629400D02*
X149209774Y-113700828D01*
X149209774Y-113700828D02*
X148852632Y-112200828D01*
X148424060Y-112200828D02*
X148066917Y-113700828D01*
X148066917Y-113700828D02*
X147781203Y-112629400D01*
X147781203Y-112629400D02*
X147495488Y-113700828D01*
X147495488Y-113700828D02*
X147138346Y-112200828D01*
X146709774Y-112200828D02*
X146352631Y-113700828D01*
X146352631Y-113700828D02*
X146066917Y-112629400D01*
X146066917Y-112629400D02*
X145781202Y-113700828D01*
X145781202Y-113700828D02*
X145424060Y-112200828D01*
X144852631Y-113557971D02*
X144781202Y-113629400D01*
X144781202Y-113629400D02*
X144852631Y-113700828D01*
X144852631Y-113700828D02*
X144924059Y-113629400D01*
X144924059Y-113629400D02*
X144852631Y-113557971D01*
X144852631Y-113557971D02*
X144852631Y-113700828D01*
X144138345Y-113700828D02*
X144138345Y-112200828D01*
X144138345Y-112200828D02*
X143566916Y-112200828D01*
X143566916Y-112200828D02*
X143424059Y-112272257D01*
X143424059Y-112272257D02*
X143352630Y-112343685D01*
X143352630Y-112343685D02*
X143281202Y-112486542D01*
X143281202Y-112486542D02*
X143281202Y-112700828D01*
X143281202Y-112700828D02*
X143352630Y-112843685D01*
X143352630Y-112843685D02*
X143424059Y-112915114D01*
X143424059Y-112915114D02*
X143566916Y-112986542D01*
X143566916Y-112986542D02*
X144138345Y-112986542D01*
X141781202Y-113557971D02*
X141852630Y-113629400D01*
X141852630Y-113629400D02*
X142066916Y-113700828D01*
X142066916Y-113700828D02*
X142209773Y-113700828D01*
X142209773Y-113700828D02*
X142424059Y-113629400D01*
X142424059Y-113629400D02*
X142566916Y-113486542D01*
X142566916Y-113486542D02*
X142638345Y-113343685D01*
X142638345Y-113343685D02*
X142709773Y-113057971D01*
X142709773Y-113057971D02*
X142709773Y-112843685D01*
X142709773Y-112843685D02*
X142638345Y-112557971D01*
X142638345Y-112557971D02*
X142566916Y-112415114D01*
X142566916Y-112415114D02*
X142424059Y-112272257D01*
X142424059Y-112272257D02*
X142209773Y-112200828D01*
X142209773Y-112200828D02*
X142066916Y-112200828D01*
X142066916Y-112200828D02*
X141852630Y-112272257D01*
X141852630Y-112272257D02*
X141781202Y-112343685D01*
X140638345Y-112915114D02*
X140424059Y-112986542D01*
X140424059Y-112986542D02*
X140352630Y-113057971D01*
X140352630Y-113057971D02*
X140281202Y-113200828D01*
X140281202Y-113200828D02*
X140281202Y-113415114D01*
X140281202Y-113415114D02*
X140352630Y-113557971D01*
X140352630Y-113557971D02*
X140424059Y-113629400D01*
X140424059Y-113629400D02*
X140566916Y-113700828D01*
X140566916Y-113700828D02*
X141138345Y-113700828D01*
X141138345Y-113700828D02*
X141138345Y-112200828D01*
X141138345Y-112200828D02*
X140638345Y-112200828D01*
X140638345Y-112200828D02*
X140495488Y-112272257D01*
X140495488Y-112272257D02*
X140424059Y-112343685D01*
X140424059Y-112343685D02*
X140352630Y-112486542D01*
X140352630Y-112486542D02*
X140352630Y-112629400D01*
X140352630Y-112629400D02*
X140424059Y-112772257D01*
X140424059Y-112772257D02*
X140495488Y-112843685D01*
X140495488Y-112843685D02*
X140638345Y-112915114D01*
X140638345Y-112915114D02*
X141138345Y-112915114D01*
X139781202Y-112200828D02*
X139424059Y-113700828D01*
X139424059Y-113700828D02*
X139138345Y-112629400D01*
X139138345Y-112629400D02*
X138852630Y-113700828D01*
X138852630Y-113700828D02*
X138495488Y-112200828D01*
X137995487Y-113272257D02*
X137281202Y-113272257D01*
X138138344Y-113700828D02*
X137638344Y-112200828D01*
X137638344Y-112200828D02*
X137138344Y-113700828D01*
X136352630Y-112986542D02*
X136352630Y-113700828D01*
X136852630Y-112200828D02*
X136352630Y-112986542D01*
X136352630Y-112986542D02*
X135852630Y-112200828D01*
X135352631Y-113557971D02*
X135281202Y-113629400D01*
X135281202Y-113629400D02*
X135352631Y-113700828D01*
X135352631Y-113700828D02*
X135424059Y-113629400D01*
X135424059Y-113629400D02*
X135352631Y-113557971D01*
X135352631Y-113557971D02*
X135352631Y-113700828D01*
X133781202Y-113557971D02*
X133852630Y-113629400D01*
X133852630Y-113629400D02*
X134066916Y-113700828D01*
X134066916Y-113700828D02*
X134209773Y-113700828D01*
X134209773Y-113700828D02*
X134424059Y-113629400D01*
X134424059Y-113629400D02*
X134566916Y-113486542D01*
X134566916Y-113486542D02*
X134638345Y-113343685D01*
X134638345Y-113343685D02*
X134709773Y-113057971D01*
X134709773Y-113057971D02*
X134709773Y-112843685D01*
X134709773Y-112843685D02*
X134638345Y-112557971D01*
X134638345Y-112557971D02*
X134566916Y-112415114D01*
X134566916Y-112415114D02*
X134424059Y-112272257D01*
X134424059Y-112272257D02*
X134209773Y-112200828D01*
X134209773Y-112200828D02*
X134066916Y-112200828D01*
X134066916Y-112200828D02*
X133852630Y-112272257D01*
X133852630Y-112272257D02*
X133781202Y-112343685D01*
X132852630Y-112200828D02*
X132566916Y-112200828D01*
X132566916Y-112200828D02*
X132424059Y-112272257D01*
X132424059Y-112272257D02*
X132281202Y-112415114D01*
X132281202Y-112415114D02*
X132209773Y-112700828D01*
X132209773Y-112700828D02*
X132209773Y-113200828D01*
X132209773Y-113200828D02*
X132281202Y-113486542D01*
X132281202Y-113486542D02*
X132424059Y-113629400D01*
X132424059Y-113629400D02*
X132566916Y-113700828D01*
X132566916Y-113700828D02*
X132852630Y-113700828D01*
X132852630Y-113700828D02*
X132995488Y-113629400D01*
X132995488Y-113629400D02*
X133138345Y-113486542D01*
X133138345Y-113486542D02*
X133209773Y-113200828D01*
X133209773Y-113200828D02*
X133209773Y-112700828D01*
X133209773Y-112700828D02*
X133138345Y-112415114D01*
X133138345Y-112415114D02*
X132995488Y-112272257D01*
X132995488Y-112272257D02*
X132852630Y-112200828D01*
X131566916Y-113700828D02*
X131566916Y-112200828D01*
X131566916Y-112200828D02*
X131066916Y-113272257D01*
X131066916Y-113272257D02*
X130566916Y-112200828D01*
X130566916Y-112200828D02*
X130566916Y-113700828D01*
D11*
X154689850Y-131228430D02*
X154392231Y-132061763D01*
X154392231Y-132061763D02*
X154094612Y-131228430D01*
X152963660Y-132061763D02*
X153677945Y-132061763D01*
X153320802Y-132061763D02*
X153320802Y-130811763D01*
X153320802Y-130811763D02*
X153439850Y-130990335D01*
X153439850Y-130990335D02*
X153558898Y-131109382D01*
X153558898Y-131109382D02*
X153677945Y-131168906D01*
X152427945Y-131942716D02*
X152368422Y-132002240D01*
X152368422Y-132002240D02*
X152427945Y-132061763D01*
X152427945Y-132061763D02*
X152487469Y-132002240D01*
X152487469Y-132002240D02*
X152427945Y-131942716D01*
X152427945Y-131942716D02*
X152427945Y-132061763D01*
X151594612Y-130811763D02*
X151475565Y-130811763D01*
X151475565Y-130811763D02*
X151356517Y-130871287D01*
X151356517Y-130871287D02*
X151296993Y-130930811D01*
X151296993Y-130930811D02*
X151237469Y-131049859D01*
X151237469Y-131049859D02*
X151177946Y-131287954D01*
X151177946Y-131287954D02*
X151177946Y-131585573D01*
X151177946Y-131585573D02*
X151237469Y-131823668D01*
X151237469Y-131823668D02*
X151296993Y-131942716D01*
X151296993Y-131942716D02*
X151356517Y-132002240D01*
X151356517Y-132002240D02*
X151475565Y-132061763D01*
X151475565Y-132061763D02*
X151594612Y-132061763D01*
X151594612Y-132061763D02*
X151713660Y-132002240D01*
X151713660Y-132002240D02*
X151773184Y-131942716D01*
X151773184Y-131942716D02*
X151832707Y-131823668D01*
X151832707Y-131823668D02*
X151892231Y-131585573D01*
X151892231Y-131585573D02*
X151892231Y-131287954D01*
X151892231Y-131287954D02*
X151832707Y-131049859D01*
X151832707Y-131049859D02*
X151773184Y-130930811D01*
X151773184Y-130930811D02*
X151713660Y-130871287D01*
X151713660Y-130871287D02*
X151594612Y-130811763D01*
X154570802Y-133419431D02*
X154154136Y-133419431D01*
X153975564Y-134074193D02*
X154570802Y-134074193D01*
X154570802Y-134074193D02*
X154570802Y-132824193D01*
X154570802Y-132824193D02*
X153975564Y-132824193D01*
X153499374Y-134014670D02*
X153320803Y-134074193D01*
X153320803Y-134074193D02*
X153023184Y-134074193D01*
X153023184Y-134074193D02*
X152904136Y-134014670D01*
X152904136Y-134014670D02*
X152844612Y-133955146D01*
X152844612Y-133955146D02*
X152785089Y-133836098D01*
X152785089Y-133836098D02*
X152785089Y-133717050D01*
X152785089Y-133717050D02*
X152844612Y-133598003D01*
X152844612Y-133598003D02*
X152904136Y-133538479D01*
X152904136Y-133538479D02*
X153023184Y-133478955D01*
X153023184Y-133478955D02*
X153261279Y-133419431D01*
X153261279Y-133419431D02*
X153380327Y-133359908D01*
X153380327Y-133359908D02*
X153439850Y-133300384D01*
X153439850Y-133300384D02*
X153499374Y-133181336D01*
X153499374Y-133181336D02*
X153499374Y-133062289D01*
X153499374Y-133062289D02*
X153439850Y-132943241D01*
X153439850Y-132943241D02*
X153380327Y-132883717D01*
X153380327Y-132883717D02*
X153261279Y-132824193D01*
X153261279Y-132824193D02*
X152963660Y-132824193D01*
X152963660Y-132824193D02*
X152785089Y-132883717D01*
X152249374Y-134074193D02*
X152249374Y-132824193D01*
X152249374Y-132824193D02*
X151773184Y-132824193D01*
X151773184Y-132824193D02*
X151654136Y-132883717D01*
X151654136Y-132883717D02*
X151594613Y-132943241D01*
X151594613Y-132943241D02*
X151535089Y-133062289D01*
X151535089Y-133062289D02*
X151535089Y-133240860D01*
X151535089Y-133240860D02*
X151594613Y-133359908D01*
X151594613Y-133359908D02*
X151654136Y-133419431D01*
X151654136Y-133419431D02*
X151773184Y-133478955D01*
X151773184Y-133478955D02*
X152249374Y-133478955D01*
X151118422Y-132824193D02*
X150344613Y-132824193D01*
X150344613Y-132824193D02*
X150761279Y-133300384D01*
X150761279Y-133300384D02*
X150582708Y-133300384D01*
X150582708Y-133300384D02*
X150463660Y-133359908D01*
X150463660Y-133359908D02*
X150404136Y-133419431D01*
X150404136Y-133419431D02*
X150344613Y-133538479D01*
X150344613Y-133538479D02*
X150344613Y-133836098D01*
X150344613Y-133836098D02*
X150404136Y-133955146D01*
X150404136Y-133955146D02*
X150463660Y-134014670D01*
X150463660Y-134014670D02*
X150582708Y-134074193D01*
X150582708Y-134074193D02*
X150939851Y-134074193D01*
X150939851Y-134074193D02*
X151058898Y-134014670D01*
X151058898Y-134014670D02*
X151118422Y-133955146D01*
X149868422Y-132943241D02*
X149808898Y-132883717D01*
X149808898Y-132883717D02*
X149689851Y-132824193D01*
X149689851Y-132824193D02*
X149392232Y-132824193D01*
X149392232Y-132824193D02*
X149273184Y-132883717D01*
X149273184Y-132883717D02*
X149213660Y-132943241D01*
X149213660Y-132943241D02*
X149154137Y-133062289D01*
X149154137Y-133062289D02*
X149154137Y-133181336D01*
X149154137Y-133181336D02*
X149213660Y-133359908D01*
X149213660Y-133359908D02*
X149927946Y-134074193D01*
X149927946Y-134074193D02*
X149154137Y-134074193D01*
X148618422Y-133598003D02*
X147666042Y-133598003D01*
X147130327Y-134014670D02*
X146951756Y-134074193D01*
X146951756Y-134074193D02*
X146654137Y-134074193D01*
X146654137Y-134074193D02*
X146535089Y-134014670D01*
X146535089Y-134014670D02*
X146475565Y-133955146D01*
X146475565Y-133955146D02*
X146416042Y-133836098D01*
X146416042Y-133836098D02*
X146416042Y-133717050D01*
X146416042Y-133717050D02*
X146475565Y-133598003D01*
X146475565Y-133598003D02*
X146535089Y-133538479D01*
X146535089Y-133538479D02*
X146654137Y-133478955D01*
X146654137Y-133478955D02*
X146892232Y-133419431D01*
X146892232Y-133419431D02*
X147011280Y-133359908D01*
X147011280Y-133359908D02*
X147070803Y-133300384D01*
X147070803Y-133300384D02*
X147130327Y-133181336D01*
X147130327Y-133181336D02*
X147130327Y-133062289D01*
X147130327Y-133062289D02*
X147070803Y-132943241D01*
X147070803Y-132943241D02*
X147011280Y-132883717D01*
X147011280Y-132883717D02*
X146892232Y-132824193D01*
X146892232Y-132824193D02*
X146594613Y-132824193D01*
X146594613Y-132824193D02*
X146416042Y-132883717D01*
X145999375Y-132824193D02*
X145225566Y-132824193D01*
X145225566Y-132824193D02*
X145642232Y-133300384D01*
X145642232Y-133300384D02*
X145463661Y-133300384D01*
X145463661Y-133300384D02*
X145344613Y-133359908D01*
X145344613Y-133359908D02*
X145285089Y-133419431D01*
X145285089Y-133419431D02*
X145225566Y-133538479D01*
X145225566Y-133538479D02*
X145225566Y-133836098D01*
X145225566Y-133836098D02*
X145285089Y-133955146D01*
X145285089Y-133955146D02*
X145344613Y-134014670D01*
X145344613Y-134014670D02*
X145463661Y-134074193D01*
X145463661Y-134074193D02*
X145820804Y-134074193D01*
X145820804Y-134074193D02*
X145939851Y-134014670D01*
X145939851Y-134014670D02*
X145999375Y-133955146D01*
X154749374Y-134836623D02*
X154035088Y-134836623D01*
X154392231Y-136086623D02*
X154392231Y-134836623D01*
X153618421Y-135431861D02*
X153201755Y-135431861D01*
X153023183Y-136086623D02*
X153618421Y-136086623D01*
X153618421Y-136086623D02*
X153618421Y-134836623D01*
X153618421Y-134836623D02*
X153023183Y-134836623D01*
X152546993Y-136027100D02*
X152368422Y-136086623D01*
X152368422Y-136086623D02*
X152070803Y-136086623D01*
X152070803Y-136086623D02*
X151951755Y-136027100D01*
X151951755Y-136027100D02*
X151892231Y-135967576D01*
X151892231Y-135967576D02*
X151832708Y-135848528D01*
X151832708Y-135848528D02*
X151832708Y-135729480D01*
X151832708Y-135729480D02*
X151892231Y-135610433D01*
X151892231Y-135610433D02*
X151951755Y-135550909D01*
X151951755Y-135550909D02*
X152070803Y-135491385D01*
X152070803Y-135491385D02*
X152308898Y-135431861D01*
X152308898Y-135431861D02*
X152427946Y-135372338D01*
X152427946Y-135372338D02*
X152487469Y-135312814D01*
X152487469Y-135312814D02*
X152546993Y-135193766D01*
X152546993Y-135193766D02*
X152546993Y-135074719D01*
X152546993Y-135074719D02*
X152487469Y-134955671D01*
X152487469Y-134955671D02*
X152427946Y-134896147D01*
X152427946Y-134896147D02*
X152308898Y-134836623D01*
X152308898Y-134836623D02*
X152011279Y-134836623D01*
X152011279Y-134836623D02*
X151832708Y-134896147D01*
X151475565Y-134836623D02*
X150761279Y-134836623D01*
X151118422Y-136086623D02*
X151118422Y-134836623D01*
X149927946Y-135431861D02*
X149749374Y-135491385D01*
X149749374Y-135491385D02*
X149689851Y-135550909D01*
X149689851Y-135550909D02*
X149630327Y-135669957D01*
X149630327Y-135669957D02*
X149630327Y-135848528D01*
X149630327Y-135848528D02*
X149689851Y-135967576D01*
X149689851Y-135967576D02*
X149749374Y-136027100D01*
X149749374Y-136027100D02*
X149868422Y-136086623D01*
X149868422Y-136086623D02*
X150344612Y-136086623D01*
X150344612Y-136086623D02*
X150344612Y-134836623D01*
X150344612Y-134836623D02*
X149927946Y-134836623D01*
X149927946Y-134836623D02*
X149808898Y-134896147D01*
X149808898Y-134896147D02*
X149749374Y-134955671D01*
X149749374Y-134955671D02*
X149689851Y-135074719D01*
X149689851Y-135074719D02*
X149689851Y-135193766D01*
X149689851Y-135193766D02*
X149749374Y-135312814D01*
X149749374Y-135312814D02*
X149808898Y-135372338D01*
X149808898Y-135372338D02*
X149927946Y-135431861D01*
X149927946Y-135431861D02*
X150344612Y-135431861D01*
X148856517Y-134836623D02*
X148618422Y-134836623D01*
X148618422Y-134836623D02*
X148499374Y-134896147D01*
X148499374Y-134896147D02*
X148380327Y-135015195D01*
X148380327Y-135015195D02*
X148320803Y-135253290D01*
X148320803Y-135253290D02*
X148320803Y-135669957D01*
X148320803Y-135669957D02*
X148380327Y-135908052D01*
X148380327Y-135908052D02*
X148499374Y-136027100D01*
X148499374Y-136027100D02*
X148618422Y-136086623D01*
X148618422Y-136086623D02*
X148856517Y-136086623D01*
X148856517Y-136086623D02*
X148975565Y-136027100D01*
X148975565Y-136027100D02*
X149094612Y-135908052D01*
X149094612Y-135908052D02*
X149154136Y-135669957D01*
X149154136Y-135669957D02*
X149154136Y-135253290D01*
X149154136Y-135253290D02*
X149094612Y-135015195D01*
X149094612Y-135015195D02*
X148975565Y-134896147D01*
X148975565Y-134896147D02*
X148856517Y-134836623D01*
X147844612Y-135729480D02*
X147249374Y-135729480D01*
X147963660Y-136086623D02*
X147546993Y-134836623D01*
X147546993Y-134836623D02*
X147130327Y-136086623D01*
X145999374Y-136086623D02*
X146416040Y-135491385D01*
X146713659Y-136086623D02*
X146713659Y-134836623D01*
X146713659Y-134836623D02*
X146237469Y-134836623D01*
X146237469Y-134836623D02*
X146118421Y-134896147D01*
X146118421Y-134896147D02*
X146058898Y-134955671D01*
X146058898Y-134955671D02*
X145999374Y-135074719D01*
X145999374Y-135074719D02*
X145999374Y-135253290D01*
X145999374Y-135253290D02*
X146058898Y-135372338D01*
X146058898Y-135372338D02*
X146118421Y-135431861D01*
X146118421Y-135431861D02*
X146237469Y-135491385D01*
X146237469Y-135491385D02*
X146713659Y-135491385D01*
X145463659Y-136086623D02*
X145463659Y-134836623D01*
X145463659Y-134836623D02*
X145166040Y-134836623D01*
X145166040Y-134836623D02*
X144987469Y-134896147D01*
X144987469Y-134896147D02*
X144868421Y-135015195D01*
X144868421Y-135015195D02*
X144808898Y-135134242D01*
X144808898Y-135134242D02*
X144749374Y-135372338D01*
X144749374Y-135372338D02*
X144749374Y-135550909D01*
X144749374Y-135550909D02*
X144808898Y-135789004D01*
X144808898Y-135789004D02*
X144868421Y-135908052D01*
X144868421Y-135908052D02*
X144987469Y-136027100D01*
X144987469Y-136027100D02*
X145166040Y-136086623D01*
X145166040Y-136086623D02*
X145463659Y-136086623D01*
D12*
%TO.C,REF\u002A\u002A*%
X131983678Y-127696039D02*
X132035351Y-127727575D01*
X132088891Y-127770929D01*
X132088891Y-129071622D01*
X132035351Y-129114976D01*
X131972350Y-129150081D01*
X131900430Y-129151760D01*
X131837272Y-129110591D01*
X131829485Y-129101219D01*
X131818504Y-129082199D01*
X131810052Y-129054714D01*
X131803801Y-129013492D01*
X131799422Y-128953265D01*
X131796588Y-128868761D01*
X131794970Y-128754710D01*
X131794240Y-128605844D01*
X131794069Y-128416891D01*
X131794069Y-127770929D01*
X131847608Y-127727575D01*
X131895246Y-127697903D01*
X131941480Y-127684222D01*
X131983678Y-127696039D01*
G36*
X131983678Y-127696039D02*
G01*
X132035351Y-127727575D01*
X132088891Y-127770929D01*
X132088891Y-129071622D01*
X132035351Y-129114976D01*
X131972350Y-129150081D01*
X131900430Y-129151760D01*
X131837272Y-129110591D01*
X131829485Y-129101219D01*
X131818504Y-129082199D01*
X131810052Y-129054714D01*
X131803801Y-129013492D01*
X131799422Y-128953265D01*
X131796588Y-128868761D01*
X131794970Y-128754710D01*
X131794240Y-128605844D01*
X131794069Y-128416891D01*
X131794069Y-127770929D01*
X131847608Y-127727575D01*
X131895246Y-127697903D01*
X131941480Y-127684222D01*
X131983678Y-127696039D01*
G37*
X146308807Y-127693054D02*
X146377421Y-127739887D01*
X146433087Y-127795553D01*
X146433087Y-128424452D01*
X146433005Y-128593263D01*
X146432485Y-128742369D01*
X146431138Y-128856380D01*
X146428571Y-128940697D01*
X146424395Y-129000718D01*
X146418218Y-129041844D01*
X146409650Y-129069473D01*
X146398300Y-129089006D01*
X146383777Y-129105840D01*
X146320569Y-129148960D01*
X146249924Y-129152509D01*
X146183623Y-129112972D01*
X146172962Y-129101182D01*
X146162014Y-129082933D01*
X146153645Y-129056131D01*
X146147509Y-129015519D01*
X146143262Y-128955838D01*
X146140559Y-128871830D01*
X146139055Y-128758239D01*
X146138406Y-128609807D01*
X146138266Y-128421275D01*
X146138345Y-128269277D01*
X146138857Y-128112763D01*
X146140151Y-127992207D01*
X146142570Y-127902353D01*
X146146460Y-127837942D01*
X146152166Y-127793717D01*
X146160032Y-127764420D01*
X146170402Y-127744793D01*
X146183623Y-127729579D01*
X146242250Y-127691367D01*
X146308807Y-127693054D01*
G36*
X146308807Y-127693054D02*
G01*
X146377421Y-127739887D01*
X146433087Y-127795553D01*
X146433087Y-128424452D01*
X146433005Y-128593263D01*
X146432485Y-128742369D01*
X146431138Y-128856380D01*
X146428571Y-128940697D01*
X146424395Y-129000718D01*
X146418218Y-129041844D01*
X146409650Y-129069473D01*
X146398300Y-129089006D01*
X146383777Y-129105840D01*
X146320569Y-129148960D01*
X146249924Y-129152509D01*
X146183623Y-129112972D01*
X146172962Y-129101182D01*
X146162014Y-129082933D01*
X146153645Y-129056131D01*
X146147509Y-129015519D01*
X146143262Y-128955838D01*
X146140559Y-128871830D01*
X146139055Y-128758239D01*
X146138406Y-128609807D01*
X146138266Y-128421275D01*
X146138345Y-128269277D01*
X146138857Y-128112763D01*
X146140151Y-127992207D01*
X146142570Y-127902353D01*
X146146460Y-127837942D01*
X146152166Y-127793717D01*
X146160032Y-127764420D01*
X146170402Y-127744793D01*
X146183623Y-127729579D01*
X146242250Y-127691367D01*
X146308807Y-127693054D01*
G37*
X146365293Y-114852240D02*
X146575206Y-114903672D01*
X146774180Y-114995982D01*
X146955945Y-115129186D01*
X147114231Y-115303296D01*
X147242766Y-115518329D01*
X147277226Y-115594080D01*
X147305143Y-115670859D01*
X147320807Y-115747615D01*
X147327673Y-115842554D01*
X147329195Y-115973880D01*
X147328275Y-116083186D01*
X147322732Y-116183641D01*
X147309142Y-116262016D01*
X147284110Y-116336311D01*
X147244245Y-116424525D01*
X147232713Y-116448033D01*
X147096408Y-116663289D01*
X146924974Y-116840396D01*
X146723278Y-116975197D01*
X146496184Y-117063536D01*
X146379660Y-117088188D01*
X146143268Y-117099723D01*
X145914307Y-117062398D01*
X145699491Y-116980039D01*
X145505535Y-116856473D01*
X145339151Y-116695528D01*
X145207055Y-116501030D01*
X145115960Y-116276805D01*
X145082631Y-116093311D01*
X145079628Y-115890817D01*
X145106735Y-115693849D01*
X145162661Y-115523235D01*
X145227280Y-115401257D01*
X145371136Y-115207731D01*
X145541678Y-115054995D01*
X145732635Y-114943063D01*
X145937737Y-114871950D01*
X146150714Y-114841671D01*
X146365293Y-114852240D01*
G36*
X146365293Y-114852240D02*
G01*
X146575206Y-114903672D01*
X146774180Y-114995982D01*
X146955945Y-115129186D01*
X147114231Y-115303296D01*
X147242766Y-115518329D01*
X147277226Y-115594080D01*
X147305143Y-115670859D01*
X147320807Y-115747615D01*
X147327673Y-115842554D01*
X147329195Y-115973880D01*
X147328275Y-116083186D01*
X147322732Y-116183641D01*
X147309142Y-116262016D01*
X147284110Y-116336311D01*
X147244245Y-116424525D01*
X147232713Y-116448033D01*
X147096408Y-116663289D01*
X146924974Y-116840396D01*
X146723278Y-116975197D01*
X146496184Y-117063536D01*
X146379660Y-117088188D01*
X146143268Y-117099723D01*
X145914307Y-117062398D01*
X145699491Y-116980039D01*
X145505535Y-116856473D01*
X145339151Y-116695528D01*
X145207055Y-116501030D01*
X145115960Y-116276805D01*
X145082631Y-116093311D01*
X145079628Y-115890817D01*
X145106735Y-115693849D01*
X145162661Y-115523235D01*
X145227280Y-115401257D01*
X145371136Y-115207731D01*
X145541678Y-115054995D01*
X145732635Y-114943063D01*
X145937737Y-114871950D01*
X146150714Y-114841671D01*
X146365293Y-114852240D01*
G37*
X130578155Y-127684225D02*
X130767241Y-127684405D01*
X130916935Y-127685088D01*
X131032261Y-127686578D01*
X131118243Y-127689180D01*
X131179903Y-127693201D01*
X131222265Y-127698946D01*
X131250353Y-127706721D01*
X131269191Y-127716830D01*
X131283801Y-127729579D01*
X131321581Y-127795306D01*
X131324487Y-127870796D01*
X131291626Y-127937570D01*
X131288893Y-127940490D01*
X131266387Y-127957285D01*
X131232030Y-127968445D01*
X131177448Y-127975062D01*
X131094271Y-127978230D01*
X130974126Y-127979043D01*
X130694158Y-127979043D01*
X130694158Y-128508931D01*
X130694007Y-128661264D01*
X130693187Y-128795192D01*
X130691214Y-128895204D01*
X130687606Y-128967359D01*
X130681879Y-129017715D01*
X130673550Y-129052331D01*
X130662136Y-129077264D01*
X130647155Y-129098574D01*
X130642553Y-129104211D01*
X130579919Y-129149698D01*
X130510854Y-129152840D01*
X130444694Y-129112972D01*
X130430675Y-129096748D01*
X130419682Y-129075457D01*
X130411606Y-129043629D01*
X130405999Y-128995462D01*
X130402415Y-128925151D01*
X130400407Y-128826895D01*
X130399530Y-128694888D01*
X130399337Y-128523329D01*
X130399337Y-127979043D01*
X130106162Y-127979043D01*
X130083863Y-127979041D01*
X129970323Y-127978589D01*
X129892287Y-127976301D01*
X129841276Y-127970676D01*
X129808808Y-127960216D01*
X129786405Y-127943418D01*
X129765586Y-127918783D01*
X129733750Y-127857134D01*
X129739982Y-127789271D01*
X129791499Y-127723909D01*
X129801425Y-127716441D01*
X129821936Y-127706726D01*
X129852925Y-127699166D01*
X129899374Y-127693496D01*
X129966267Y-127689451D01*
X130058585Y-127686766D01*
X130181312Y-127685176D01*
X130339430Y-127684416D01*
X130537921Y-127684222D01*
X130578155Y-127684225D01*
G36*
X130578155Y-127684225D02*
G01*
X130767241Y-127684405D01*
X130916935Y-127685088D01*
X131032261Y-127686578D01*
X131118243Y-127689180D01*
X131179903Y-127693201D01*
X131222265Y-127698946D01*
X131250353Y-127706721D01*
X131269191Y-127716830D01*
X131283801Y-127729579D01*
X131321581Y-127795306D01*
X131324487Y-127870796D01*
X131291626Y-127937570D01*
X131288893Y-127940490D01*
X131266387Y-127957285D01*
X131232030Y-127968445D01*
X131177448Y-127975062D01*
X131094271Y-127978230D01*
X130974126Y-127979043D01*
X130694158Y-127979043D01*
X130694158Y-128508931D01*
X130694007Y-128661264D01*
X130693187Y-128795192D01*
X130691214Y-128895204D01*
X130687606Y-128967359D01*
X130681879Y-129017715D01*
X130673550Y-129052331D01*
X130662136Y-129077264D01*
X130647155Y-129098574D01*
X130642553Y-129104211D01*
X130579919Y-129149698D01*
X130510854Y-129152840D01*
X130444694Y-129112972D01*
X130430675Y-129096748D01*
X130419682Y-129075457D01*
X130411606Y-129043629D01*
X130405999Y-128995462D01*
X130402415Y-128925151D01*
X130400407Y-128826895D01*
X130399530Y-128694888D01*
X130399337Y-128523329D01*
X130399337Y-127979043D01*
X130106162Y-127979043D01*
X130083863Y-127979041D01*
X129970323Y-127978589D01*
X129892287Y-127976301D01*
X129841276Y-127970676D01*
X129808808Y-127960216D01*
X129786405Y-127943418D01*
X129765586Y-127918783D01*
X129733750Y-127857134D01*
X129739982Y-127789271D01*
X129791499Y-127723909D01*
X129801425Y-127716441D01*
X129821936Y-127706726D01*
X129852925Y-127699166D01*
X129899374Y-127693496D01*
X129966267Y-127689451D01*
X130058585Y-127686766D01*
X130181312Y-127685176D01*
X130339430Y-127684416D01*
X130537921Y-127684222D01*
X130578155Y-127684225D01*
G37*
X129220051Y-127729579D02*
X129231366Y-127742015D01*
X129241593Y-127758499D01*
X129249802Y-127782158D01*
X129256186Y-127817232D01*
X129260940Y-127867965D01*
X129264256Y-127938599D01*
X129266328Y-128033377D01*
X129267349Y-128156541D01*
X129267512Y-128312334D01*
X129267011Y-128504998D01*
X129266039Y-128738775D01*
X129265902Y-128767252D01*
X129264724Y-128891328D01*
X129262068Y-128979084D01*
X129256954Y-129038107D01*
X129248405Y-129075983D01*
X129235445Y-129100299D01*
X129217094Y-129118641D01*
X129149881Y-129153631D01*
X129079672Y-129147802D01*
X129017590Y-129098574D01*
X128999491Y-129072050D01*
X128984522Y-129034814D01*
X128975747Y-128982524D01*
X128971619Y-128905088D01*
X128970587Y-128792413D01*
X128970587Y-128546008D01*
X127972730Y-128546008D01*
X127972730Y-128816864D01*
X127972583Y-128888766D01*
X127971051Y-128981839D01*
X127966679Y-129043181D01*
X127958047Y-129081411D01*
X127943736Y-129105152D01*
X127922327Y-129123025D01*
X127857536Y-129153299D01*
X127786648Y-129147941D01*
X127724912Y-129098574D01*
X127715559Y-129086009D01*
X127703635Y-129064866D01*
X127694532Y-129036883D01*
X127687871Y-128996555D01*
X127683273Y-128938382D01*
X127680356Y-128856861D01*
X127678743Y-128746489D01*
X127678054Y-128601765D01*
X127677908Y-128417186D01*
X127677908Y-127795553D01*
X127733574Y-127739887D01*
X127796611Y-127695203D01*
X127863366Y-127689800D01*
X127927373Y-127729579D01*
X127944018Y-127749207D01*
X127958908Y-127781133D01*
X127967622Y-127829282D01*
X127971712Y-127903357D01*
X127972730Y-128013061D01*
X127972730Y-128251186D01*
X128970587Y-128251186D01*
X128970587Y-128023370D01*
X128970588Y-128019128D01*
X128971467Y-127915272D01*
X128975412Y-127845914D01*
X128984484Y-127800561D01*
X129000744Y-127768716D01*
X129026253Y-127739887D01*
X129089290Y-127695203D01*
X129156044Y-127689800D01*
X129220051Y-127729579D01*
G36*
X129220051Y-127729579D02*
G01*
X129231366Y-127742015D01*
X129241593Y-127758499D01*
X129249802Y-127782158D01*
X129256186Y-127817232D01*
X129260940Y-127867965D01*
X129264256Y-127938599D01*
X129266328Y-128033377D01*
X129267349Y-128156541D01*
X129267512Y-128312334D01*
X129267011Y-128504998D01*
X129266039Y-128738775D01*
X129265902Y-128767252D01*
X129264724Y-128891328D01*
X129262068Y-128979084D01*
X129256954Y-129038107D01*
X129248405Y-129075983D01*
X129235445Y-129100299D01*
X129217094Y-129118641D01*
X129149881Y-129153631D01*
X129079672Y-129147802D01*
X129017590Y-129098574D01*
X128999491Y-129072050D01*
X128984522Y-129034814D01*
X128975747Y-128982524D01*
X128971619Y-128905088D01*
X128970587Y-128792413D01*
X128970587Y-128546008D01*
X127972730Y-128546008D01*
X127972730Y-128816864D01*
X127972583Y-128888766D01*
X127971051Y-128981839D01*
X127966679Y-129043181D01*
X127958047Y-129081411D01*
X127943736Y-129105152D01*
X127922327Y-129123025D01*
X127857536Y-129153299D01*
X127786648Y-129147941D01*
X127724912Y-129098574D01*
X127715559Y-129086009D01*
X127703635Y-129064866D01*
X127694532Y-129036883D01*
X127687871Y-128996555D01*
X127683273Y-128938382D01*
X127680356Y-128856861D01*
X127678743Y-128746489D01*
X127678054Y-128601765D01*
X127677908Y-128417186D01*
X127677908Y-127795553D01*
X127733574Y-127739887D01*
X127796611Y-127695203D01*
X127863366Y-127689800D01*
X127927373Y-127729579D01*
X127944018Y-127749207D01*
X127958908Y-127781133D01*
X127967622Y-127829282D01*
X127971712Y-127903357D01*
X127972730Y-128013061D01*
X127972730Y-128251186D01*
X128970587Y-128251186D01*
X128970587Y-128023370D01*
X128970588Y-128019128D01*
X128971467Y-127915272D01*
X128975412Y-127845914D01*
X128984484Y-127800561D01*
X129000744Y-127768716D01*
X129026253Y-127739887D01*
X129089290Y-127695203D01*
X129156044Y-127689800D01*
X129220051Y-127729579D01*
G37*
X138672862Y-128912339D02*
X138668906Y-128978188D01*
X138663022Y-129024235D01*
X138654832Y-129055979D01*
X138643955Y-129078925D01*
X138630012Y-129098574D01*
X138583009Y-129158329D01*
X138250146Y-129157136D01*
X138180244Y-129156537D01*
X137982398Y-129149645D01*
X137819752Y-129134212D01*
X137684964Y-129108985D01*
X137570689Y-129072714D01*
X137469586Y-129024148D01*
X137462839Y-129020297D01*
X137346699Y-128946533D01*
X137261613Y-128872271D01*
X137195687Y-128784912D01*
X137137027Y-128671855D01*
X137128425Y-128652539D01*
X137083068Y-128525603D01*
X137071548Y-128434086D01*
X137371371Y-128434086D01*
X137382646Y-128483764D01*
X137394150Y-128515661D01*
X137460303Y-128636013D01*
X137555403Y-128727928D01*
X137683503Y-128794494D01*
X137848655Y-128838800D01*
X137854268Y-128839809D01*
X137947252Y-128851787D01*
X138060548Y-128860280D01*
X138170913Y-128863508D01*
X138359516Y-128863508D01*
X138359516Y-127979043D01*
X138183757Y-127979943D01*
X138049320Y-127984918D01*
X137863699Y-128007521D01*
X137704361Y-128046774D01*
X137579858Y-128100963D01*
X137517702Y-128142605D01*
X137461211Y-128202403D01*
X137414324Y-128287638D01*
X137400006Y-128319713D01*
X137376253Y-128385006D01*
X137371371Y-128434086D01*
X137071548Y-128434086D01*
X137069064Y-128414352D01*
X137086344Y-128303808D01*
X137134843Y-128178989D01*
X137136442Y-128175588D01*
X137217706Y-128036125D01*
X137319527Y-127922422D01*
X137445538Y-127832889D01*
X137599374Y-127765934D01*
X137784667Y-127719969D01*
X138005052Y-127693401D01*
X138264163Y-127684640D01*
X138271338Y-127684630D01*
X138391915Y-127684911D01*
X138476150Y-127686993D01*
X138532629Y-127692204D01*
X138569932Y-127701872D01*
X138596645Y-127717324D01*
X138621350Y-127739887D01*
X138677016Y-127795553D01*
X138677016Y-128417186D01*
X138676965Y-128540947D01*
X138676512Y-128699221D01*
X138675271Y-128821184D01*
X138674152Y-128863508D01*
X138672862Y-128912339D01*
G36*
X138672862Y-128912339D02*
G01*
X138668906Y-128978188D01*
X138663022Y-129024235D01*
X138654832Y-129055979D01*
X138643955Y-129078925D01*
X138630012Y-129098574D01*
X138583009Y-129158329D01*
X138250146Y-129157136D01*
X138180244Y-129156537D01*
X137982398Y-129149645D01*
X137819752Y-129134212D01*
X137684964Y-129108985D01*
X137570689Y-129072714D01*
X137469586Y-129024148D01*
X137462839Y-129020297D01*
X137346699Y-128946533D01*
X137261613Y-128872271D01*
X137195687Y-128784912D01*
X137137027Y-128671855D01*
X137128425Y-128652539D01*
X137083068Y-128525603D01*
X137071548Y-128434086D01*
X137371371Y-128434086D01*
X137382646Y-128483764D01*
X137394150Y-128515661D01*
X137460303Y-128636013D01*
X137555403Y-128727928D01*
X137683503Y-128794494D01*
X137848655Y-128838800D01*
X137854268Y-128839809D01*
X137947252Y-128851787D01*
X138060548Y-128860280D01*
X138170913Y-128863508D01*
X138359516Y-128863508D01*
X138359516Y-127979043D01*
X138183757Y-127979943D01*
X138049320Y-127984918D01*
X137863699Y-128007521D01*
X137704361Y-128046774D01*
X137579858Y-128100963D01*
X137517702Y-128142605D01*
X137461211Y-128202403D01*
X137414324Y-128287638D01*
X137400006Y-128319713D01*
X137376253Y-128385006D01*
X137371371Y-128434086D01*
X137071548Y-128434086D01*
X137069064Y-128414352D01*
X137086344Y-128303808D01*
X137134843Y-128178989D01*
X137136442Y-128175588D01*
X137217706Y-128036125D01*
X137319527Y-127922422D01*
X137445538Y-127832889D01*
X137599374Y-127765934D01*
X137784667Y-127719969D01*
X138005052Y-127693401D01*
X138264163Y-127684640D01*
X138271338Y-127684630D01*
X138391915Y-127684911D01*
X138476150Y-127686993D01*
X138532629Y-127692204D01*
X138569932Y-127701872D01*
X138596645Y-127717324D01*
X138621350Y-127739887D01*
X138677016Y-127795553D01*
X138677016Y-128417186D01*
X138676965Y-128540947D01*
X138676512Y-128699221D01*
X138675271Y-128821184D01*
X138674152Y-128863508D01*
X138672862Y-128912339D01*
G37*
X152919550Y-128056597D02*
X152919658Y-128218546D01*
X152919158Y-128421275D01*
X152919079Y-128573273D01*
X152918567Y-128729788D01*
X152917273Y-128850343D01*
X152914854Y-128940198D01*
X152910964Y-129004609D01*
X152905258Y-129048834D01*
X152897393Y-129078131D01*
X152887022Y-129097758D01*
X152873801Y-129112972D01*
X152859805Y-129125495D01*
X152833693Y-129140161D01*
X152795226Y-129149710D01*
X152736155Y-129155210D01*
X152648233Y-129157727D01*
X152523210Y-129158329D01*
X152424880Y-129157575D01*
X152210207Y-129148678D01*
X152030955Y-129128413D01*
X151880691Y-129095089D01*
X151752981Y-129047015D01*
X151641392Y-128982500D01*
X151539490Y-128899856D01*
X151527460Y-128888098D01*
X151453397Y-128790648D01*
X151390920Y-128668488D01*
X151347763Y-128539428D01*
X151337154Y-128461595D01*
X151632903Y-128461595D01*
X151669630Y-128563920D01*
X151729236Y-128656164D01*
X151823047Y-128741362D01*
X151946373Y-128801233D01*
X152105373Y-128839675D01*
X152108366Y-128840154D01*
X152206745Y-128851789D01*
X152324657Y-128860107D01*
X152437239Y-128863336D01*
X152624337Y-128863508D01*
X152624337Y-127979043D01*
X152471257Y-127979014D01*
X152465174Y-127979033D01*
X152362478Y-127982979D01*
X152241736Y-127992472D01*
X152127812Y-128005587D01*
X152027450Y-128024262D01*
X151877279Y-128077033D01*
X151761747Y-128155982D01*
X151678375Y-128262525D01*
X151635751Y-128365515D01*
X151632903Y-128461595D01*
X151337154Y-128461595D01*
X151331658Y-128421275D01*
X151334228Y-128378653D01*
X151358962Y-128263309D01*
X151404221Y-128142952D01*
X151462942Y-128034371D01*
X151528064Y-127954354D01*
X151567322Y-127920156D01*
X151677234Y-127841431D01*
X151798379Y-127780903D01*
X151937389Y-127736786D01*
X152100899Y-127707291D01*
X152295542Y-127690634D01*
X152527953Y-127685026D01*
X152607270Y-127684220D01*
X152699100Y-127683390D01*
X152771021Y-127687015D01*
X152825444Y-127699635D01*
X152864783Y-127725792D01*
X152891451Y-127770026D01*
X152907859Y-127836877D01*
X152916422Y-127930888D01*
X152917621Y-127979043D01*
X152919550Y-128056597D01*
G36*
X152919550Y-128056597D02*
G01*
X152919658Y-128218546D01*
X152919158Y-128421275D01*
X152919079Y-128573273D01*
X152918567Y-128729788D01*
X152917273Y-128850343D01*
X152914854Y-128940198D01*
X152910964Y-129004609D01*
X152905258Y-129048834D01*
X152897393Y-129078131D01*
X152887022Y-129097758D01*
X152873801Y-129112972D01*
X152859805Y-129125495D01*
X152833693Y-129140161D01*
X152795226Y-129149710D01*
X152736155Y-129155210D01*
X152648233Y-129157727D01*
X152523210Y-129158329D01*
X152424880Y-129157575D01*
X152210207Y-129148678D01*
X152030955Y-129128413D01*
X151880691Y-129095089D01*
X151752981Y-129047015D01*
X151641392Y-128982500D01*
X151539490Y-128899856D01*
X151527460Y-128888098D01*
X151453397Y-128790648D01*
X151390920Y-128668488D01*
X151347763Y-128539428D01*
X151337154Y-128461595D01*
X151632903Y-128461595D01*
X151669630Y-128563920D01*
X151729236Y-128656164D01*
X151823047Y-128741362D01*
X151946373Y-128801233D01*
X152105373Y-128839675D01*
X152108366Y-128840154D01*
X152206745Y-128851789D01*
X152324657Y-128860107D01*
X152437239Y-128863336D01*
X152624337Y-128863508D01*
X152624337Y-127979043D01*
X152471257Y-127979014D01*
X152465174Y-127979033D01*
X152362478Y-127982979D01*
X152241736Y-127992472D01*
X152127812Y-128005587D01*
X152027450Y-128024262D01*
X151877279Y-128077033D01*
X151761747Y-128155982D01*
X151678375Y-128262525D01*
X151635751Y-128365515D01*
X151632903Y-128461595D01*
X151337154Y-128461595D01*
X151331658Y-128421275D01*
X151334228Y-128378653D01*
X151358962Y-128263309D01*
X151404221Y-128142952D01*
X151462942Y-128034371D01*
X151528064Y-127954354D01*
X151567322Y-127920156D01*
X151677234Y-127841431D01*
X151798379Y-127780903D01*
X151937389Y-127736786D01*
X152100899Y-127707291D01*
X152295542Y-127690634D01*
X152527953Y-127685026D01*
X152607270Y-127684220D01*
X152699100Y-127683390D01*
X152771021Y-127687015D01*
X152825444Y-127699635D01*
X152864783Y-127725792D01*
X152891451Y-127770026D01*
X152907859Y-127836877D01*
X152916422Y-127930888D01*
X152917621Y-127979043D01*
X152919550Y-128056597D01*
G37*
X142985551Y-127681861D02*
X143008468Y-127694191D01*
X143029659Y-127715609D01*
X143052334Y-127743977D01*
X143061279Y-127755952D01*
X143073330Y-127777036D01*
X143082530Y-127804810D01*
X143089262Y-127844797D01*
X143093912Y-127902522D01*
X143096860Y-127983509D01*
X143098492Y-128093281D01*
X143099190Y-128237362D01*
X143099337Y-128421275D01*
X143099291Y-128538858D01*
X143098852Y-128697740D01*
X143097629Y-128820168D01*
X143095237Y-128911669D01*
X143091293Y-128977764D01*
X143085414Y-129023978D01*
X143077217Y-129055835D01*
X143066318Y-129078859D01*
X143052334Y-129098574D01*
X142991205Y-129147578D01*
X142921007Y-129153363D01*
X142846716Y-129115012D01*
X142838310Y-129108030D01*
X142821885Y-129090899D01*
X142809710Y-129067694D01*
X142800906Y-129031870D01*
X142794594Y-128976881D01*
X142789898Y-128896183D01*
X142785938Y-128783230D01*
X142781837Y-128631476D01*
X142770498Y-128191258D01*
X142237551Y-128674688D01*
X142089224Y-128808837D01*
X141958283Y-128925588D01*
X141853428Y-129015905D01*
X141770913Y-129082043D01*
X141706991Y-129126255D01*
X141657916Y-129150794D01*
X141619943Y-129157917D01*
X141589326Y-129149875D01*
X141562317Y-129128924D01*
X141535173Y-129097317D01*
X141522626Y-129080274D01*
X141511313Y-129059025D01*
X141502853Y-129030582D01*
X141496923Y-128989495D01*
X141493196Y-128930311D01*
X141491350Y-128847580D01*
X141491058Y-128735850D01*
X141491996Y-128589670D01*
X141493839Y-128403588D01*
X141500498Y-127770871D01*
X141554037Y-127727546D01*
X141606400Y-127695019D01*
X141672410Y-127689452D01*
X141741780Y-127727527D01*
X141750442Y-127734728D01*
X141766779Y-127751864D01*
X141778891Y-127775151D01*
X141787652Y-127811122D01*
X141793935Y-127866309D01*
X141798615Y-127947246D01*
X141802564Y-128060463D01*
X141806658Y-128212494D01*
X141817998Y-128654156D01*
X142180855Y-128325105D01*
X142355105Y-128167136D01*
X142507325Y-128029739D01*
X142632153Y-127918546D01*
X142732796Y-127831418D01*
X142812465Y-127766214D01*
X142874366Y-127720796D01*
X142921708Y-127693024D01*
X142957701Y-127680759D01*
X142985551Y-127681861D01*
G36*
X142985551Y-127681861D02*
G01*
X143008468Y-127694191D01*
X143029659Y-127715609D01*
X143052334Y-127743977D01*
X143061279Y-127755952D01*
X143073330Y-127777036D01*
X143082530Y-127804810D01*
X143089262Y-127844797D01*
X143093912Y-127902522D01*
X143096860Y-127983509D01*
X143098492Y-128093281D01*
X143099190Y-128237362D01*
X143099337Y-128421275D01*
X143099291Y-128538858D01*
X143098852Y-128697740D01*
X143097629Y-128820168D01*
X143095237Y-128911669D01*
X143091293Y-128977764D01*
X143085414Y-129023978D01*
X143077217Y-129055835D01*
X143066318Y-129078859D01*
X143052334Y-129098574D01*
X142991205Y-129147578D01*
X142921007Y-129153363D01*
X142846716Y-129115012D01*
X142838310Y-129108030D01*
X142821885Y-129090899D01*
X142809710Y-129067694D01*
X142800906Y-129031870D01*
X142794594Y-128976881D01*
X142789898Y-128896183D01*
X142785938Y-128783230D01*
X142781837Y-128631476D01*
X142770498Y-128191258D01*
X142237551Y-128674688D01*
X142089224Y-128808837D01*
X141958283Y-128925588D01*
X141853428Y-129015905D01*
X141770913Y-129082043D01*
X141706991Y-129126255D01*
X141657916Y-129150794D01*
X141619943Y-129157917D01*
X141589326Y-129149875D01*
X141562317Y-129128924D01*
X141535173Y-129097317D01*
X141522626Y-129080274D01*
X141511313Y-129059025D01*
X141502853Y-129030582D01*
X141496923Y-128989495D01*
X141493196Y-128930311D01*
X141491350Y-128847580D01*
X141491058Y-128735850D01*
X141491996Y-128589670D01*
X141493839Y-128403588D01*
X141500498Y-127770871D01*
X141554037Y-127727546D01*
X141606400Y-127695019D01*
X141672410Y-127689452D01*
X141741780Y-127727527D01*
X141750442Y-127734728D01*
X141766779Y-127751864D01*
X141778891Y-127775151D01*
X141787652Y-127811122D01*
X141793935Y-127866309D01*
X141798615Y-127947246D01*
X141802564Y-128060463D01*
X141806658Y-128212494D01*
X141817998Y-128654156D01*
X142180855Y-128325105D01*
X142355105Y-128167136D01*
X142507325Y-128029739D01*
X142632153Y-127918546D01*
X142732796Y-127831418D01*
X142812465Y-127766214D01*
X142874366Y-127720796D01*
X142921708Y-127693024D01*
X142957701Y-127680759D01*
X142985551Y-127681861D01*
G37*
X144587183Y-127694492D02*
X144800142Y-127727268D01*
X144988605Y-127783621D01*
X145146899Y-127861781D01*
X145269352Y-127959981D01*
X145321725Y-128025998D01*
X145381004Y-128124835D01*
X145431773Y-128233032D01*
X145467229Y-128335823D01*
X145480569Y-128418440D01*
X145477436Y-128458046D01*
X145451437Y-128561169D01*
X145404904Y-128674727D01*
X145344854Y-128783042D01*
X145278301Y-128870438D01*
X145257817Y-128891227D01*
X145123047Y-128995239D01*
X144962081Y-129075380D01*
X144788891Y-129124401D01*
X144678471Y-129140698D01*
X144490731Y-129153966D01*
X144310369Y-129149773D01*
X144144653Y-129129191D01*
X144000848Y-129093291D01*
X143886223Y-129043145D01*
X143808042Y-128979822D01*
X143805279Y-128975853D01*
X143791040Y-128925176D01*
X143782525Y-128830252D01*
X143779694Y-128690704D01*
X143781422Y-128565683D01*
X143790903Y-128470495D01*
X143814387Y-128406002D01*
X143858120Y-128366722D01*
X143928350Y-128347175D01*
X144031324Y-128341877D01*
X144173288Y-128345349D01*
X144270963Y-128351400D01*
X144371803Y-128367858D01*
X144437081Y-128396090D01*
X144472154Y-128438751D01*
X144482383Y-128498496D01*
X144482169Y-128507619D01*
X144464687Y-128577518D01*
X144416454Y-128624561D01*
X144333555Y-128651079D01*
X144212078Y-128659400D01*
X144074516Y-128659400D01*
X144074516Y-128736447D01*
X144074617Y-128754799D01*
X144079078Y-128789455D01*
X144097695Y-128810135D01*
X144140647Y-128824072D01*
X144218114Y-128838501D01*
X144229111Y-128840377D01*
X144423878Y-128860272D01*
X144604664Y-128854408D01*
X144767202Y-128824816D01*
X144907222Y-128773527D01*
X145020455Y-128702571D01*
X145102632Y-128613979D01*
X145149484Y-128509782D01*
X145156741Y-128392011D01*
X145145654Y-128333963D01*
X145092049Y-128221685D01*
X144999259Y-128129958D01*
X144868716Y-128059975D01*
X144701851Y-128012929D01*
X144652282Y-128003992D01*
X144472827Y-127982899D01*
X144312499Y-127985369D01*
X144155617Y-128011355D01*
X144085016Y-128024994D01*
X143993735Y-128027039D01*
X143930826Y-128001864D01*
X143890339Y-127948051D01*
X143877514Y-127891304D01*
X143896572Y-127828577D01*
X143915313Y-127801607D01*
X143984087Y-127754334D01*
X144089801Y-127718431D01*
X144227446Y-127695335D01*
X144392016Y-127686483D01*
X144587183Y-127694492D01*
G36*
X144587183Y-127694492D02*
G01*
X144800142Y-127727268D01*
X144988605Y-127783621D01*
X145146899Y-127861781D01*
X145269352Y-127959981D01*
X145321725Y-128025998D01*
X145381004Y-128124835D01*
X145431773Y-128233032D01*
X145467229Y-128335823D01*
X145480569Y-128418440D01*
X145477436Y-128458046D01*
X145451437Y-128561169D01*
X145404904Y-128674727D01*
X145344854Y-128783042D01*
X145278301Y-128870438D01*
X145257817Y-128891227D01*
X145123047Y-128995239D01*
X144962081Y-129075380D01*
X144788891Y-129124401D01*
X144678471Y-129140698D01*
X144490731Y-129153966D01*
X144310369Y-129149773D01*
X144144653Y-129129191D01*
X144000848Y-129093291D01*
X143886223Y-129043145D01*
X143808042Y-128979822D01*
X143805279Y-128975853D01*
X143791040Y-128925176D01*
X143782525Y-128830252D01*
X143779694Y-128690704D01*
X143781422Y-128565683D01*
X143790903Y-128470495D01*
X143814387Y-128406002D01*
X143858120Y-128366722D01*
X143928350Y-128347175D01*
X144031324Y-128341877D01*
X144173288Y-128345349D01*
X144270963Y-128351400D01*
X144371803Y-128367858D01*
X144437081Y-128396090D01*
X144472154Y-128438751D01*
X144482383Y-128498496D01*
X144482169Y-128507619D01*
X144464687Y-128577518D01*
X144416454Y-128624561D01*
X144333555Y-128651079D01*
X144212078Y-128659400D01*
X144074516Y-128659400D01*
X144074516Y-128736447D01*
X144074617Y-128754799D01*
X144079078Y-128789455D01*
X144097695Y-128810135D01*
X144140647Y-128824072D01*
X144218114Y-128838501D01*
X144229111Y-128840377D01*
X144423878Y-128860272D01*
X144604664Y-128854408D01*
X144767202Y-128824816D01*
X144907222Y-128773527D01*
X145020455Y-128702571D01*
X145102632Y-128613979D01*
X145149484Y-128509782D01*
X145156741Y-128392011D01*
X145145654Y-128333963D01*
X145092049Y-128221685D01*
X144999259Y-128129958D01*
X144868716Y-128059975D01*
X144701851Y-128012929D01*
X144652282Y-128003992D01*
X144472827Y-127982899D01*
X144312499Y-127985369D01*
X144155617Y-128011355D01*
X144085016Y-128024994D01*
X143993735Y-128027039D01*
X143930826Y-128001864D01*
X143890339Y-127948051D01*
X143877514Y-127891304D01*
X143896572Y-127828577D01*
X143915313Y-127801607D01*
X143984087Y-127754334D01*
X144089801Y-127718431D01*
X144227446Y-127695335D01*
X144392016Y-127686483D01*
X144587183Y-127694492D01*
G37*
X140671084Y-127743977D02*
X140681026Y-127757404D01*
X140692767Y-127778641D01*
X140701729Y-127806940D01*
X140708286Y-127847772D01*
X140712812Y-127906607D01*
X140715681Y-127988917D01*
X140717267Y-128100171D01*
X140717944Y-128245841D01*
X140718087Y-128431397D01*
X140718029Y-128563819D01*
X140717563Y-128721153D01*
X140716316Y-128842226D01*
X140713920Y-128932423D01*
X140710009Y-128997127D01*
X140704213Y-129041722D01*
X140696165Y-129071593D01*
X140685499Y-129092123D01*
X140671846Y-129108695D01*
X140662776Y-129118052D01*
X140646243Y-129131083D01*
X140623422Y-129140950D01*
X140588732Y-129148092D01*
X140536590Y-129152950D01*
X140461417Y-129155963D01*
X140357631Y-129157571D01*
X140219649Y-129158213D01*
X140041893Y-129158329D01*
X140002368Y-129158316D01*
X139827540Y-129157781D01*
X139691632Y-129156242D01*
X139589268Y-129153401D01*
X139515075Y-129148958D01*
X139463678Y-129142614D01*
X139429703Y-129134069D01*
X139407776Y-129123025D01*
X139386698Y-129102964D01*
X139360057Y-129040453D01*
X139362433Y-128968355D01*
X139394906Y-128904981D01*
X139399304Y-128900408D01*
X139416757Y-128887816D01*
X139443560Y-128878443D01*
X139485713Y-128871821D01*
X139549218Y-128867483D01*
X139640076Y-128864963D01*
X139764287Y-128863794D01*
X139927852Y-128863508D01*
X140423266Y-128863508D01*
X140423266Y-128546008D01*
X140096939Y-128546008D01*
X140025283Y-128545846D01*
X139913245Y-128544244D01*
X139834620Y-128540217D01*
X139781476Y-128532902D01*
X139745883Y-128521434D01*
X139719908Y-128504950D01*
X139712589Y-128498554D01*
X139675610Y-128436327D01*
X139674336Y-128363330D01*
X139709571Y-128295792D01*
X139709695Y-128295654D01*
X139729123Y-128278324D01*
X139755829Y-128266159D01*
X139797428Y-128258261D01*
X139861536Y-128253732D01*
X139955766Y-128251673D01*
X140087734Y-128251186D01*
X140425529Y-128251186D01*
X140418728Y-128120784D01*
X140411926Y-127990383D01*
X139925610Y-127984249D01*
X139875354Y-127983590D01*
X139711386Y-127980618D01*
X139586191Y-127975828D01*
X139494557Y-127967802D01*
X139431271Y-127955118D01*
X139391122Y-127936357D01*
X139368898Y-127910098D01*
X139359385Y-127874920D01*
X139357373Y-127829404D01*
X139357385Y-127824652D01*
X139359703Y-127784411D01*
X139369341Y-127752685D01*
X139391053Y-127728464D01*
X139429593Y-127710739D01*
X139489717Y-127698501D01*
X139576178Y-127690740D01*
X139693731Y-127686446D01*
X139847130Y-127684609D01*
X140041130Y-127684222D01*
X140624081Y-127684222D01*
X140671084Y-127743977D01*
G36*
X140671084Y-127743977D02*
G01*
X140681026Y-127757404D01*
X140692767Y-127778641D01*
X140701729Y-127806940D01*
X140708286Y-127847772D01*
X140712812Y-127906607D01*
X140715681Y-127988917D01*
X140717267Y-128100171D01*
X140717944Y-128245841D01*
X140718087Y-128431397D01*
X140718029Y-128563819D01*
X140717563Y-128721153D01*
X140716316Y-128842226D01*
X140713920Y-128932423D01*
X140710009Y-128997127D01*
X140704213Y-129041722D01*
X140696165Y-129071593D01*
X140685499Y-129092123D01*
X140671846Y-129108695D01*
X140662776Y-129118052D01*
X140646243Y-129131083D01*
X140623422Y-129140950D01*
X140588732Y-129148092D01*
X140536590Y-129152950D01*
X140461417Y-129155963D01*
X140357631Y-129157571D01*
X140219649Y-129158213D01*
X140041893Y-129158329D01*
X140002368Y-129158316D01*
X139827540Y-129157781D01*
X139691632Y-129156242D01*
X139589268Y-129153401D01*
X139515075Y-129148958D01*
X139463678Y-129142614D01*
X139429703Y-129134069D01*
X139407776Y-129123025D01*
X139386698Y-129102964D01*
X139360057Y-129040453D01*
X139362433Y-128968355D01*
X139394906Y-128904981D01*
X139399304Y-128900408D01*
X139416757Y-128887816D01*
X139443560Y-128878443D01*
X139485713Y-128871821D01*
X139549218Y-128867483D01*
X139640076Y-128864963D01*
X139764287Y-128863794D01*
X139927852Y-128863508D01*
X140423266Y-128863508D01*
X140423266Y-128546008D01*
X140096939Y-128546008D01*
X140025283Y-128545846D01*
X139913245Y-128544244D01*
X139834620Y-128540217D01*
X139781476Y-128532902D01*
X139745883Y-128521434D01*
X139719908Y-128504950D01*
X139712589Y-128498554D01*
X139675610Y-128436327D01*
X139674336Y-128363330D01*
X139709571Y-128295792D01*
X139709695Y-128295654D01*
X139729123Y-128278324D01*
X139755829Y-128266159D01*
X139797428Y-128258261D01*
X139861536Y-128253732D01*
X139955766Y-128251673D01*
X140087734Y-128251186D01*
X140425529Y-128251186D01*
X140418728Y-128120784D01*
X140411926Y-127990383D01*
X139925610Y-127984249D01*
X139875354Y-127983590D01*
X139711386Y-127980618D01*
X139586191Y-127975828D01*
X139494557Y-127967802D01*
X139431271Y-127955118D01*
X139391122Y-127936357D01*
X139368898Y-127910098D01*
X139359385Y-127874920D01*
X139357373Y-127829404D01*
X139357385Y-127824652D01*
X139359703Y-127784411D01*
X139369341Y-127752685D01*
X139391053Y-127728464D01*
X139429593Y-127710739D01*
X139489717Y-127698501D01*
X139576178Y-127690740D01*
X139693731Y-127686446D01*
X139847130Y-127684609D01*
X140041130Y-127684222D01*
X140624081Y-127684222D01*
X140671084Y-127743977D01*
G37*
X150066704Y-127684254D02*
X150221586Y-127684640D01*
X150340005Y-127685815D01*
X150427568Y-127688208D01*
X150489882Y-127692251D01*
X150532557Y-127698374D01*
X150561198Y-127707009D01*
X150581414Y-127718584D01*
X150598813Y-127733532D01*
X150602398Y-127736909D01*
X150616951Y-127752054D01*
X150628285Y-127770170D01*
X150636804Y-127796556D01*
X150642909Y-127836509D01*
X150647002Y-127895328D01*
X150649486Y-127978311D01*
X150650763Y-128090757D01*
X150651234Y-128237963D01*
X150651301Y-128425229D01*
X150651228Y-128571457D01*
X150650729Y-128728507D01*
X150649450Y-128849473D01*
X150647045Y-128939632D01*
X150643166Y-129004259D01*
X150637464Y-129048630D01*
X150629592Y-129078022D01*
X150619201Y-129097711D01*
X150605944Y-129112972D01*
X150599246Y-129119354D01*
X150582126Y-129131630D01*
X150558015Y-129141021D01*
X150521432Y-129147912D01*
X150466895Y-129152688D01*
X150388925Y-129155733D01*
X150282041Y-129157431D01*
X150140761Y-129158169D01*
X149959605Y-129158329D01*
X149875011Y-129158305D01*
X149711993Y-129157940D01*
X149586451Y-129156829D01*
X149492903Y-129154588D01*
X149425870Y-129150832D01*
X149379871Y-129145177D01*
X149349424Y-129137239D01*
X149329049Y-129126632D01*
X149313266Y-129112972D01*
X149283682Y-129069580D01*
X149267908Y-129010918D01*
X149278955Y-128962892D01*
X149313266Y-128908865D01*
X149323268Y-128899608D01*
X149342906Y-128886977D01*
X149371263Y-128877686D01*
X149414445Y-128871224D01*
X149478559Y-128867085D01*
X149569710Y-128864758D01*
X149694006Y-128863735D01*
X149857551Y-128863508D01*
X150356480Y-128863508D01*
X150356480Y-128546008D01*
X150032687Y-128546008D01*
X149960731Y-128545716D01*
X149828897Y-128542255D01*
X149733993Y-128533345D01*
X149670240Y-128517064D01*
X149631857Y-128491489D01*
X149613066Y-128454697D01*
X149608087Y-128404766D01*
X149609689Y-128364073D01*
X149620240Y-128320227D01*
X149645942Y-128289387D01*
X149692830Y-128269307D01*
X149766937Y-128257743D01*
X149874299Y-128252451D01*
X150020948Y-128251186D01*
X150358743Y-128251186D01*
X150351942Y-128120784D01*
X150345141Y-127990383D01*
X149847496Y-127984258D01*
X149721755Y-127982493D01*
X149584222Y-127979591D01*
X149481959Y-127975712D01*
X149409129Y-127970388D01*
X149359896Y-127963149D01*
X149328425Y-127953527D01*
X149308880Y-127941056D01*
X149296796Y-127928193D01*
X149270662Y-127864547D01*
X149277815Y-127792856D01*
X149317542Y-127730462D01*
X149324074Y-127724590D01*
X149342114Y-127711830D01*
X149366430Y-127702082D01*
X149402603Y-127694942D01*
X149456217Y-127690006D01*
X149532856Y-127686869D01*
X149638103Y-127685129D01*
X149777539Y-127684381D01*
X149956750Y-127684222D01*
X150066704Y-127684254D01*
G36*
X150066704Y-127684254D02*
G01*
X150221586Y-127684640D01*
X150340005Y-127685815D01*
X150427568Y-127688208D01*
X150489882Y-127692251D01*
X150532557Y-127698374D01*
X150561198Y-127707009D01*
X150581414Y-127718584D01*
X150598813Y-127733532D01*
X150602398Y-127736909D01*
X150616951Y-127752054D01*
X150628285Y-127770170D01*
X150636804Y-127796556D01*
X150642909Y-127836509D01*
X150647002Y-127895328D01*
X150649486Y-127978311D01*
X150650763Y-128090757D01*
X150651234Y-128237963D01*
X150651301Y-128425229D01*
X150651228Y-128571457D01*
X150650729Y-128728507D01*
X150649450Y-128849473D01*
X150647045Y-128939632D01*
X150643166Y-129004259D01*
X150637464Y-129048630D01*
X150629592Y-129078022D01*
X150619201Y-129097711D01*
X150605944Y-129112972D01*
X150599246Y-129119354D01*
X150582126Y-129131630D01*
X150558015Y-129141021D01*
X150521432Y-129147912D01*
X150466895Y-129152688D01*
X150388925Y-129155733D01*
X150282041Y-129157431D01*
X150140761Y-129158169D01*
X149959605Y-129158329D01*
X149875011Y-129158305D01*
X149711993Y-129157940D01*
X149586451Y-129156829D01*
X149492903Y-129154588D01*
X149425870Y-129150832D01*
X149379871Y-129145177D01*
X149349424Y-129137239D01*
X149329049Y-129126632D01*
X149313266Y-129112972D01*
X149283682Y-129069580D01*
X149267908Y-129010918D01*
X149278955Y-128962892D01*
X149313266Y-128908865D01*
X149323268Y-128899608D01*
X149342906Y-128886977D01*
X149371263Y-128877686D01*
X149414445Y-128871224D01*
X149478559Y-128867085D01*
X149569710Y-128864758D01*
X149694006Y-128863735D01*
X149857551Y-128863508D01*
X150356480Y-128863508D01*
X150356480Y-128546008D01*
X150032687Y-128546008D01*
X149960731Y-128545716D01*
X149828897Y-128542255D01*
X149733993Y-128533345D01*
X149670240Y-128517064D01*
X149631857Y-128491489D01*
X149613066Y-128454697D01*
X149608087Y-128404766D01*
X149609689Y-128364073D01*
X149620240Y-128320227D01*
X149645942Y-128289387D01*
X149692830Y-128269307D01*
X149766937Y-128257743D01*
X149874299Y-128252451D01*
X150020948Y-128251186D01*
X150358743Y-128251186D01*
X150351942Y-128120784D01*
X150345141Y-127990383D01*
X149847496Y-127984258D01*
X149721755Y-127982493D01*
X149584222Y-127979591D01*
X149481959Y-127975712D01*
X149409129Y-127970388D01*
X149359896Y-127963149D01*
X149328425Y-127953527D01*
X149308880Y-127941056D01*
X149296796Y-127928193D01*
X149270662Y-127864547D01*
X149277815Y-127792856D01*
X149317542Y-127730462D01*
X149324074Y-127724590D01*
X149342114Y-127711830D01*
X149366430Y-127702082D01*
X149402603Y-127694942D01*
X149456217Y-127690006D01*
X149532856Y-127686869D01*
X149638103Y-127685129D01*
X149777539Y-127684381D01*
X149956750Y-127684222D01*
X150066704Y-127684254D01*
G37*
X132856149Y-127703129D02*
X132892230Y-127740316D01*
X132933615Y-127802757D01*
X132983501Y-127894535D01*
X133045085Y-128019736D01*
X133121564Y-128182445D01*
X133150962Y-128245492D01*
X133210725Y-128372422D01*
X133263148Y-128482122D01*
X133305324Y-128568599D01*
X133334347Y-128625860D01*
X133347310Y-128647912D01*
X133350040Y-128646745D01*
X133370113Y-128618726D01*
X133404849Y-128559386D01*
X133450245Y-128475781D01*
X133502293Y-128374964D01*
X133534381Y-128311706D01*
X133592539Y-128200504D01*
X133637717Y-128122122D01*
X133674311Y-128070940D01*
X133706717Y-128041338D01*
X133739331Y-128027698D01*
X133776549Y-128024400D01*
X133797648Y-128025355D01*
X133830024Y-128033807D01*
X133860789Y-128055631D01*
X133894133Y-128096358D01*
X133934249Y-128161517D01*
X133985328Y-128256641D01*
X134051562Y-128387258D01*
X134071114Y-128425940D01*
X134120248Y-128519694D01*
X134160900Y-128592342D01*
X134189291Y-128637319D01*
X134201644Y-128648061D01*
X134204391Y-128641490D01*
X134223223Y-128599484D01*
X134257096Y-128525277D01*
X134303133Y-128425129D01*
X134358461Y-128305301D01*
X134420206Y-128172052D01*
X134473874Y-128057100D01*
X134533385Y-127932569D01*
X134579733Y-127840681D01*
X134615851Y-127776313D01*
X134644673Y-127734340D01*
X134669134Y-127709636D01*
X134692169Y-127697078D01*
X134711072Y-127691267D01*
X134761507Y-127690969D01*
X134816034Y-127721791D01*
X134818647Y-127723769D01*
X134863012Y-127769243D01*
X134885208Y-127813891D01*
X134885301Y-127815176D01*
X134876178Y-127850658D01*
X134850335Y-127920098D01*
X134810641Y-128017220D01*
X134759967Y-128135746D01*
X134701183Y-128269399D01*
X134637159Y-128411903D01*
X134570766Y-128556981D01*
X134504874Y-128698355D01*
X134442353Y-128829749D01*
X134386074Y-128944885D01*
X134338907Y-129037487D01*
X134303722Y-129101278D01*
X134283389Y-129129981D01*
X134214267Y-129156838D01*
X134130500Y-129144058D01*
X134119723Y-129134622D01*
X134087924Y-129090122D01*
X134043322Y-129016273D01*
X133990252Y-128920412D01*
X133933050Y-128809878D01*
X133772791Y-128489969D01*
X133625763Y-128784462D01*
X133606285Y-128823215D01*
X133552087Y-128928378D01*
X133503815Y-129018357D01*
X133466119Y-129084621D01*
X133443647Y-129118641D01*
X133441345Y-129121139D01*
X133384853Y-129151849D01*
X133314415Y-129155231D01*
X133252056Y-129129981D01*
X133247182Y-129124257D01*
X133222552Y-129082822D01*
X133182902Y-129007385D01*
X133130861Y-128903266D01*
X133069062Y-128775786D01*
X133000134Y-128630264D01*
X132926709Y-128472022D01*
X132886047Y-128383381D01*
X132812173Y-128221205D01*
X132755006Y-128093280D01*
X132712769Y-127994974D01*
X132683685Y-127921657D01*
X132665978Y-127868697D01*
X132657871Y-127831466D01*
X132657586Y-127805330D01*
X132663348Y-127785661D01*
X132692793Y-127743710D01*
X132746235Y-127702926D01*
X132747754Y-127702238D01*
X132787108Y-127688174D01*
X132822174Y-127687110D01*
X132856149Y-127703129D01*
G36*
X132856149Y-127703129D02*
G01*
X132892230Y-127740316D01*
X132933615Y-127802757D01*
X132983501Y-127894535D01*
X133045085Y-128019736D01*
X133121564Y-128182445D01*
X133150962Y-128245492D01*
X133210725Y-128372422D01*
X133263148Y-128482122D01*
X133305324Y-128568599D01*
X133334347Y-128625860D01*
X133347310Y-128647912D01*
X133350040Y-128646745D01*
X133370113Y-128618726D01*
X133404849Y-128559386D01*
X133450245Y-128475781D01*
X133502293Y-128374964D01*
X133534381Y-128311706D01*
X133592539Y-128200504D01*
X133637717Y-128122122D01*
X133674311Y-128070940D01*
X133706717Y-128041338D01*
X133739331Y-128027698D01*
X133776549Y-128024400D01*
X133797648Y-128025355D01*
X133830024Y-128033807D01*
X133860789Y-128055631D01*
X133894133Y-128096358D01*
X133934249Y-128161517D01*
X133985328Y-128256641D01*
X134051562Y-128387258D01*
X134071114Y-128425940D01*
X134120248Y-128519694D01*
X134160900Y-128592342D01*
X134189291Y-128637319D01*
X134201644Y-128648061D01*
X134204391Y-128641490D01*
X134223223Y-128599484D01*
X134257096Y-128525277D01*
X134303133Y-128425129D01*
X134358461Y-128305301D01*
X134420206Y-128172052D01*
X134473874Y-128057100D01*
X134533385Y-127932569D01*
X134579733Y-127840681D01*
X134615851Y-127776313D01*
X134644673Y-127734340D01*
X134669134Y-127709636D01*
X134692169Y-127697078D01*
X134711072Y-127691267D01*
X134761507Y-127690969D01*
X134816034Y-127721791D01*
X134818647Y-127723769D01*
X134863012Y-127769243D01*
X134885208Y-127813891D01*
X134885301Y-127815176D01*
X134876178Y-127850658D01*
X134850335Y-127920098D01*
X134810641Y-128017220D01*
X134759967Y-128135746D01*
X134701183Y-128269399D01*
X134637159Y-128411903D01*
X134570766Y-128556981D01*
X134504874Y-128698355D01*
X134442353Y-128829749D01*
X134386074Y-128944885D01*
X134338907Y-129037487D01*
X134303722Y-129101278D01*
X134283389Y-129129981D01*
X134214267Y-129156838D01*
X134130500Y-129144058D01*
X134119723Y-129134622D01*
X134087924Y-129090122D01*
X134043322Y-129016273D01*
X133990252Y-128920412D01*
X133933050Y-128809878D01*
X133772791Y-128489969D01*
X133625763Y-128784462D01*
X133606285Y-128823215D01*
X133552087Y-128928378D01*
X133503815Y-129018357D01*
X133466119Y-129084621D01*
X133443647Y-129118641D01*
X133441345Y-129121139D01*
X133384853Y-129151849D01*
X133314415Y-129155231D01*
X133252056Y-129129981D01*
X133247182Y-129124257D01*
X133222552Y-129082822D01*
X133182902Y-129007385D01*
X133130861Y-128903266D01*
X133069062Y-128775786D01*
X133000134Y-128630264D01*
X132926709Y-128472022D01*
X132886047Y-128383381D01*
X132812173Y-128221205D01*
X132755006Y-128093280D01*
X132712769Y-127994974D01*
X132683685Y-127921657D01*
X132665978Y-127868697D01*
X132657871Y-127831466D01*
X132657586Y-127805330D01*
X132663348Y-127785661D01*
X132692793Y-127743710D01*
X132746235Y-127702926D01*
X132747754Y-127702238D01*
X132787108Y-127688174D01*
X132822174Y-127687110D01*
X132856149Y-127703129D01*
G37*
X148025872Y-127685968D02*
X148158956Y-127696876D01*
X148270051Y-127716158D01*
X148372271Y-127746013D01*
X148515532Y-127812574D01*
X148618302Y-127898320D01*
X148680224Y-128002914D01*
X148700944Y-128126018D01*
X148699062Y-128188794D01*
X148687425Y-128238610D01*
X148657679Y-128282143D01*
X148601484Y-128337088D01*
X148585456Y-128351811D01*
X148537826Y-128393804D01*
X148492838Y-128427897D01*
X148444556Y-128455928D01*
X148387044Y-128479736D01*
X148314368Y-128501159D01*
X148220590Y-128522035D01*
X148099777Y-128544202D01*
X147945991Y-128569499D01*
X147753297Y-128599765D01*
X147716405Y-128605860D01*
X147591189Y-128633223D01*
X147500350Y-128664830D01*
X147447548Y-128699125D01*
X147436441Y-128734551D01*
X147441706Y-128743130D01*
X147477730Y-128773394D01*
X147534233Y-128806811D01*
X147559946Y-128818846D01*
X147602733Y-128833295D01*
X147655741Y-128842892D01*
X147727749Y-128848555D01*
X147827539Y-128851202D01*
X147963891Y-128851752D01*
X147999619Y-128851605D01*
X148135465Y-128849373D01*
X148265922Y-128844903D01*
X148377670Y-128838743D01*
X148457385Y-128831442D01*
X148528725Y-128823269D01*
X148587491Y-128821696D01*
X148625461Y-128830936D01*
X148655823Y-128852382D01*
X148663168Y-128859600D01*
X148695998Y-128923431D01*
X148693347Y-128995058D01*
X148655263Y-129056568D01*
X148614340Y-129079884D01*
X148542052Y-129105387D01*
X148456826Y-129125576D01*
X148449893Y-129126779D01*
X148364174Y-129137259D01*
X148248888Y-129146045D01*
X148118274Y-129152248D01*
X147986569Y-129154978D01*
X147953959Y-129155062D01*
X147756457Y-129150085D01*
X147595638Y-129134001D01*
X147464697Y-129104808D01*
X147356825Y-129060503D01*
X147265217Y-128999083D01*
X147183066Y-128918545D01*
X147142644Y-128865859D01*
X147119288Y-128806500D01*
X147113444Y-128726712D01*
X147113727Y-128702668D01*
X147121508Y-128637013D01*
X147146387Y-128583724D01*
X147196942Y-128521752D01*
X147239555Y-128477274D01*
X147292583Y-128431981D01*
X147352283Y-128395082D01*
X147425064Y-128364434D01*
X147517339Y-128337892D01*
X147635518Y-128313313D01*
X147786011Y-128288552D01*
X147975230Y-128261465D01*
X148066258Y-128247383D01*
X148202774Y-128218135D01*
X148301484Y-128184989D01*
X148360883Y-128149033D01*
X148379466Y-128111356D01*
X148355728Y-128073046D01*
X148288164Y-128035191D01*
X148282045Y-128032752D01*
X148188913Y-128008488D01*
X148063053Y-127992014D01*
X147915529Y-127983656D01*
X147757407Y-127983742D01*
X147599750Y-127992598D01*
X147453623Y-128010550D01*
X147445734Y-128011853D01*
X147347665Y-128027336D01*
X147282874Y-128034592D01*
X147240692Y-128033391D01*
X147210450Y-128023505D01*
X147181480Y-128004704D01*
X147179130Y-128002956D01*
X147129877Y-127941937D01*
X147120248Y-127870617D01*
X147152002Y-127801146D01*
X147161134Y-127792193D01*
X147220627Y-127761779D01*
X147315010Y-127735416D01*
X147436156Y-127713720D01*
X147575941Y-127697309D01*
X147726239Y-127686802D01*
X147878925Y-127682816D01*
X148025872Y-127685968D01*
G36*
X148025872Y-127685968D02*
G01*
X148158956Y-127696876D01*
X148270051Y-127716158D01*
X148372271Y-127746013D01*
X148515532Y-127812574D01*
X148618302Y-127898320D01*
X148680224Y-128002914D01*
X148700944Y-128126018D01*
X148699062Y-128188794D01*
X148687425Y-128238610D01*
X148657679Y-128282143D01*
X148601484Y-128337088D01*
X148585456Y-128351811D01*
X148537826Y-128393804D01*
X148492838Y-128427897D01*
X148444556Y-128455928D01*
X148387044Y-128479736D01*
X148314368Y-128501159D01*
X148220590Y-128522035D01*
X148099777Y-128544202D01*
X147945991Y-128569499D01*
X147753297Y-128599765D01*
X147716405Y-128605860D01*
X147591189Y-128633223D01*
X147500350Y-128664830D01*
X147447548Y-128699125D01*
X147436441Y-128734551D01*
X147441706Y-128743130D01*
X147477730Y-128773394D01*
X147534233Y-128806811D01*
X147559946Y-128818846D01*
X147602733Y-128833295D01*
X147655741Y-128842892D01*
X147727749Y-128848555D01*
X147827539Y-128851202D01*
X147963891Y-128851752D01*
X147999619Y-128851605D01*
X148135465Y-128849373D01*
X148265922Y-128844903D01*
X148377670Y-128838743D01*
X148457385Y-128831442D01*
X148528725Y-128823269D01*
X148587491Y-128821696D01*
X148625461Y-128830936D01*
X148655823Y-128852382D01*
X148663168Y-128859600D01*
X148695998Y-128923431D01*
X148693347Y-128995058D01*
X148655263Y-129056568D01*
X148614340Y-129079884D01*
X148542052Y-129105387D01*
X148456826Y-129125576D01*
X148449893Y-129126779D01*
X148364174Y-129137259D01*
X148248888Y-129146045D01*
X148118274Y-129152248D01*
X147986569Y-129154978D01*
X147953959Y-129155062D01*
X147756457Y-129150085D01*
X147595638Y-129134001D01*
X147464697Y-129104808D01*
X147356825Y-129060503D01*
X147265217Y-128999083D01*
X147183066Y-128918545D01*
X147142644Y-128865859D01*
X147119288Y-128806500D01*
X147113444Y-128726712D01*
X147113727Y-128702668D01*
X147121508Y-128637013D01*
X147146387Y-128583724D01*
X147196942Y-128521752D01*
X147239555Y-128477274D01*
X147292583Y-128431981D01*
X147352283Y-128395082D01*
X147425064Y-128364434D01*
X147517339Y-128337892D01*
X147635518Y-128313313D01*
X147786011Y-128288552D01*
X147975230Y-128261465D01*
X148066258Y-128247383D01*
X148202774Y-128218135D01*
X148301484Y-128184989D01*
X148360883Y-128149033D01*
X148379466Y-128111356D01*
X148355728Y-128073046D01*
X148288164Y-128035191D01*
X148282045Y-128032752D01*
X148188913Y-128008488D01*
X148063053Y-127992014D01*
X147915529Y-127983656D01*
X147757407Y-127983742D01*
X147599750Y-127992598D01*
X147453623Y-128010550D01*
X147445734Y-128011853D01*
X147347665Y-128027336D01*
X147282874Y-128034592D01*
X147240692Y-128033391D01*
X147210450Y-128023505D01*
X147181480Y-128004704D01*
X147179130Y-128002956D01*
X147129877Y-127941937D01*
X147120248Y-127870617D01*
X147152002Y-127801146D01*
X147161134Y-127792193D01*
X147220627Y-127761779D01*
X147315010Y-127735416D01*
X147436156Y-127713720D01*
X147575941Y-127697309D01*
X147726239Y-127686802D01*
X147878925Y-127682816D01*
X148025872Y-127685968D01*
G37*
X140174428Y-117103066D02*
X140541445Y-117136759D01*
X140882404Y-117204709D01*
X141209989Y-117309776D01*
X141536880Y-117454820D01*
X141860467Y-117640010D01*
X142207739Y-117892472D01*
X142529778Y-118184366D01*
X142819491Y-118508466D01*
X143069787Y-118857546D01*
X143273576Y-119224381D01*
X143292074Y-119263624D01*
X143446990Y-119642410D01*
X143564704Y-120036011D01*
X143646737Y-120451948D01*
X143694610Y-120897740D01*
X143709844Y-121380905D01*
X143691321Y-121880373D01*
X143632529Y-122372252D01*
X143532555Y-122832706D01*
X143390504Y-123265001D01*
X143205482Y-123672404D01*
X142976594Y-124058181D01*
X142761593Y-124352911D01*
X142464721Y-124684530D01*
X142141145Y-124968572D01*
X141791005Y-125204945D01*
X141414444Y-125393555D01*
X141011602Y-125534311D01*
X140582623Y-125627118D01*
X140577727Y-125627841D01*
X140495116Y-125635090D01*
X140370450Y-125640466D01*
X140215260Y-125643720D01*
X140041070Y-125644600D01*
X139859410Y-125642855D01*
X139732092Y-125640298D01*
X139543190Y-125634376D01*
X139391820Y-125625897D01*
X139267061Y-125613957D01*
X139157998Y-125597652D01*
X139053711Y-125576075D01*
X138936380Y-125548192D01*
X138813967Y-125516439D01*
X138703257Y-125483129D01*
X138594202Y-125444359D01*
X138476754Y-125396228D01*
X138340866Y-125334835D01*
X138176489Y-125256278D01*
X137973576Y-125156655D01*
X137412367Y-124879307D01*
X137861860Y-124141002D01*
X137920707Y-124044371D01*
X138026431Y-123870906D01*
X138121060Y-123715827D01*
X138201136Y-123584791D01*
X138263201Y-123483454D01*
X138303796Y-123417473D01*
X138319463Y-123392504D01*
X138323821Y-123393250D01*
X138358923Y-123417685D01*
X138420592Y-123468397D01*
X138499084Y-123537518D01*
X138638873Y-123656943D01*
X138888427Y-123833542D01*
X139130553Y-123956653D01*
X139305520Y-124018132D01*
X139601464Y-124080963D01*
X139892237Y-124092100D01*
X140173623Y-124052301D01*
X140441405Y-123962326D01*
X140691368Y-123822934D01*
X140919293Y-123634881D01*
X141046119Y-123496374D01*
X141224790Y-123240184D01*
X141371398Y-122942889D01*
X141486642Y-122602966D01*
X141571226Y-122218892D01*
X141575063Y-122195049D01*
X141592792Y-122040508D01*
X141605990Y-121848495D01*
X141614550Y-121632128D01*
X141618366Y-121404528D01*
X141617330Y-121178815D01*
X141611337Y-120968110D01*
X141600279Y-120785532D01*
X141584048Y-120644203D01*
X141521839Y-120324061D01*
X141417164Y-119950093D01*
X141285518Y-119622690D01*
X141127077Y-119342105D01*
X140942017Y-119108591D01*
X140730515Y-118922402D01*
X140492746Y-118783791D01*
X140228886Y-118693011D01*
X140170345Y-118681744D01*
X140023637Y-118667032D01*
X139852186Y-118662230D01*
X139675200Y-118667073D01*
X139511886Y-118681299D01*
X139381453Y-118704643D01*
X139164167Y-118778974D01*
X138912011Y-118914674D01*
X138687487Y-119093253D01*
X138647859Y-119130871D01*
X138576054Y-119197426D01*
X138525305Y-119242223D01*
X138504688Y-119257124D01*
X138499612Y-119249997D01*
X138468368Y-119204996D01*
X138411924Y-119123284D01*
X138334010Y-119010274D01*
X138238354Y-118871376D01*
X138128687Y-118712001D01*
X138008738Y-118537559D01*
X137518119Y-117823820D01*
X137627720Y-117790982D01*
X137639157Y-117787261D01*
X137713606Y-117757705D01*
X137820942Y-117710045D01*
X137948569Y-117650016D01*
X138083892Y-117583349D01*
X138142859Y-117553873D01*
X138470297Y-117401699D01*
X138772093Y-117284023D01*
X139059854Y-117197835D01*
X139345187Y-117140125D01*
X139639700Y-117107883D01*
X139955001Y-117098098D01*
X140174428Y-117103066D01*
G36*
X140174428Y-117103066D02*
G01*
X140541445Y-117136759D01*
X140882404Y-117204709D01*
X141209989Y-117309776D01*
X141536880Y-117454820D01*
X141860467Y-117640010D01*
X142207739Y-117892472D01*
X142529778Y-118184366D01*
X142819491Y-118508466D01*
X143069787Y-118857546D01*
X143273576Y-119224381D01*
X143292074Y-119263624D01*
X143446990Y-119642410D01*
X143564704Y-120036011D01*
X143646737Y-120451948D01*
X143694610Y-120897740D01*
X143709844Y-121380905D01*
X143691321Y-121880373D01*
X143632529Y-122372252D01*
X143532555Y-122832706D01*
X143390504Y-123265001D01*
X143205482Y-123672404D01*
X142976594Y-124058181D01*
X142761593Y-124352911D01*
X142464721Y-124684530D01*
X142141145Y-124968572D01*
X141791005Y-125204945D01*
X141414444Y-125393555D01*
X141011602Y-125534311D01*
X140582623Y-125627118D01*
X140577727Y-125627841D01*
X140495116Y-125635090D01*
X140370450Y-125640466D01*
X140215260Y-125643720D01*
X140041070Y-125644600D01*
X139859410Y-125642855D01*
X139732092Y-125640298D01*
X139543190Y-125634376D01*
X139391820Y-125625897D01*
X139267061Y-125613957D01*
X139157998Y-125597652D01*
X139053711Y-125576075D01*
X138936380Y-125548192D01*
X138813967Y-125516439D01*
X138703257Y-125483129D01*
X138594202Y-125444359D01*
X138476754Y-125396228D01*
X138340866Y-125334835D01*
X138176489Y-125256278D01*
X137973576Y-125156655D01*
X137412367Y-124879307D01*
X137861860Y-124141002D01*
X137920707Y-124044371D01*
X138026431Y-123870906D01*
X138121060Y-123715827D01*
X138201136Y-123584791D01*
X138263201Y-123483454D01*
X138303796Y-123417473D01*
X138319463Y-123392504D01*
X138323821Y-123393250D01*
X138358923Y-123417685D01*
X138420592Y-123468397D01*
X138499084Y-123537518D01*
X138638873Y-123656943D01*
X138888427Y-123833542D01*
X139130553Y-123956653D01*
X139305520Y-124018132D01*
X139601464Y-124080963D01*
X139892237Y-124092100D01*
X140173623Y-124052301D01*
X140441405Y-123962326D01*
X140691368Y-123822934D01*
X140919293Y-123634881D01*
X141046119Y-123496374D01*
X141224790Y-123240184D01*
X141371398Y-122942889D01*
X141486642Y-122602966D01*
X141571226Y-122218892D01*
X141575063Y-122195049D01*
X141592792Y-122040508D01*
X141605990Y-121848495D01*
X141614550Y-121632128D01*
X141618366Y-121404528D01*
X141617330Y-121178815D01*
X141611337Y-120968110D01*
X141600279Y-120785532D01*
X141584048Y-120644203D01*
X141521839Y-120324061D01*
X141417164Y-119950093D01*
X141285518Y-119622690D01*
X141127077Y-119342105D01*
X140942017Y-119108591D01*
X140730515Y-118922402D01*
X140492746Y-118783791D01*
X140228886Y-118693011D01*
X140170345Y-118681744D01*
X140023637Y-118667032D01*
X139852186Y-118662230D01*
X139675200Y-118667073D01*
X139511886Y-118681299D01*
X139381453Y-118704643D01*
X139164167Y-118778974D01*
X138912011Y-118914674D01*
X138687487Y-119093253D01*
X138647859Y-119130871D01*
X138576054Y-119197426D01*
X138525305Y-119242223D01*
X138504688Y-119257124D01*
X138499612Y-119249997D01*
X138468368Y-119204996D01*
X138411924Y-119123284D01*
X138334010Y-119010274D01*
X138238354Y-118871376D01*
X138128687Y-118712001D01*
X138008738Y-118537559D01*
X137518119Y-117823820D01*
X137627720Y-117790982D01*
X137639157Y-117787261D01*
X137713606Y-117757705D01*
X137820942Y-117710045D01*
X137948569Y-117650016D01*
X138083892Y-117583349D01*
X138142859Y-117553873D01*
X138470297Y-117401699D01*
X138772093Y-117284023D01*
X139059854Y-117197835D01*
X139345187Y-117140125D01*
X139639700Y-117107883D01*
X139955001Y-117098098D01*
X140174428Y-117103066D01*
G37*
X131252470Y-122794151D02*
X131246675Y-123046897D01*
X131230104Y-123269796D01*
X131201475Y-123474973D01*
X131159504Y-123674551D01*
X131102909Y-123880654D01*
X131017087Y-124127010D01*
X130859463Y-124459578D01*
X130666115Y-124757457D01*
X130440001Y-125017832D01*
X130184079Y-125237886D01*
X129901306Y-125414806D01*
X129594640Y-125545775D01*
X129267040Y-125627979D01*
X129263098Y-125628638D01*
X129023682Y-125651675D01*
X128760627Y-125648600D01*
X128492686Y-125621310D01*
X128238619Y-125571701D01*
X128017180Y-125501667D01*
X127922662Y-125459049D01*
X127799562Y-125394273D01*
X127673068Y-125320186D01*
X127556380Y-125244943D01*
X127462696Y-125176697D01*
X127405216Y-125123604D01*
X127392021Y-125109028D01*
X127376290Y-125103933D01*
X127365776Y-125129228D01*
X127358028Y-125192979D01*
X127350592Y-125303248D01*
X127336937Y-125533020D01*
X126290917Y-125540174D01*
X125244897Y-125547327D01*
X125317274Y-125423826D01*
X125321588Y-125416524D01*
X125342635Y-125382247D01*
X125361728Y-125351710D01*
X125378970Y-125322262D01*
X125394465Y-125291249D01*
X125408314Y-125256018D01*
X125420621Y-125213917D01*
X125431488Y-125162293D01*
X125441018Y-125098492D01*
X125449313Y-125019862D01*
X125456477Y-124923750D01*
X125462613Y-124807504D01*
X125467822Y-124668469D01*
X125472208Y-124503993D01*
X125475873Y-124311424D01*
X125478921Y-124088108D01*
X125481453Y-123831392D01*
X125483573Y-123538625D01*
X125485384Y-123207151D01*
X125486987Y-122834320D01*
X125488487Y-122417477D01*
X125489985Y-121953970D01*
X125491585Y-121441147D01*
X125492994Y-120999812D01*
X127473496Y-120999812D01*
X127473496Y-123838911D01*
X127610055Y-123928482D01*
X127662570Y-123960749D01*
X127782818Y-124025208D01*
X127896829Y-124076539D01*
X127946759Y-124093919D01*
X128105632Y-124128616D01*
X128306506Y-124146334D01*
X128408651Y-124150021D01*
X128503466Y-124149183D01*
X128574046Y-124139713D01*
X128637353Y-124119015D01*
X128710347Y-124084491D01*
X128850627Y-123992012D01*
X128972155Y-123861192D01*
X129069435Y-123692608D01*
X129143390Y-123483616D01*
X129194947Y-123231573D01*
X129225031Y-122933838D01*
X129234568Y-122587768D01*
X129234104Y-122509090D01*
X129220393Y-122144547D01*
X129187100Y-121827345D01*
X129133416Y-121554137D01*
X129058529Y-121321577D01*
X128961631Y-121126317D01*
X128841912Y-120965012D01*
X128792244Y-120915782D01*
X128638316Y-120813219D01*
X128457620Y-120750807D01*
X128257984Y-120728902D01*
X128047235Y-120747857D01*
X127833201Y-120808029D01*
X127623711Y-120909771D01*
X127473496Y-120999812D01*
X125492994Y-120999812D01*
X125493388Y-120876353D01*
X125507044Y-116711299D01*
X126592689Y-116704158D01*
X126671639Y-116703677D01*
X126903926Y-116702724D01*
X127116387Y-116702530D01*
X127303224Y-116703057D01*
X127458636Y-116704264D01*
X127576824Y-116706112D01*
X127651990Y-116708561D01*
X127678334Y-116711572D01*
X127674964Y-116721114D01*
X127649822Y-116766351D01*
X127608180Y-116832137D01*
X127604026Y-116838427D01*
X127571739Y-116889221D01*
X127544668Y-116938642D01*
X127522354Y-116991780D01*
X127504338Y-117053726D01*
X127490160Y-117129571D01*
X127479362Y-117224405D01*
X127471484Y-117343318D01*
X127466068Y-117491402D01*
X127462655Y-117673747D01*
X127460785Y-117895443D01*
X127459999Y-118161582D01*
X127459840Y-118477253D01*
X127460126Y-118723713D01*
X127461002Y-118965680D01*
X127462405Y-119185079D01*
X127464272Y-119376568D01*
X127466538Y-119534804D01*
X127469140Y-119654445D01*
X127472014Y-119730147D01*
X127475097Y-119756568D01*
X127485040Y-119752467D01*
X127528749Y-119723590D01*
X127591172Y-119676164D01*
X127681669Y-119612386D01*
X127851698Y-119518413D01*
X128046036Y-119434588D01*
X128246541Y-119369401D01*
X128415001Y-119336161D01*
X128624809Y-119314972D01*
X128851879Y-119307631D01*
X129078688Y-119314147D01*
X129287715Y-119334528D01*
X129461434Y-119368784D01*
X129638319Y-119426488D01*
X129933406Y-119566374D01*
X130206634Y-119752343D01*
X130452963Y-119980113D01*
X130667353Y-120245402D01*
X130844762Y-120543928D01*
X130888806Y-120635469D01*
X131012232Y-120944243D01*
X131108729Y-121279363D01*
X131179515Y-121646734D01*
X131225811Y-122052264D01*
X131248835Y-122501862D01*
X131249904Y-122587768D01*
X131252470Y-122794151D01*
G36*
X131252470Y-122794151D02*
G01*
X131246675Y-123046897D01*
X131230104Y-123269796D01*
X131201475Y-123474973D01*
X131159504Y-123674551D01*
X131102909Y-123880654D01*
X131017087Y-124127010D01*
X130859463Y-124459578D01*
X130666115Y-124757457D01*
X130440001Y-125017832D01*
X130184079Y-125237886D01*
X129901306Y-125414806D01*
X129594640Y-125545775D01*
X129267040Y-125627979D01*
X129263098Y-125628638D01*
X129023682Y-125651675D01*
X128760627Y-125648600D01*
X128492686Y-125621310D01*
X128238619Y-125571701D01*
X128017180Y-125501667D01*
X127922662Y-125459049D01*
X127799562Y-125394273D01*
X127673068Y-125320186D01*
X127556380Y-125244943D01*
X127462696Y-125176697D01*
X127405216Y-125123604D01*
X127392021Y-125109028D01*
X127376290Y-125103933D01*
X127365776Y-125129228D01*
X127358028Y-125192979D01*
X127350592Y-125303248D01*
X127336937Y-125533020D01*
X126290917Y-125540174D01*
X125244897Y-125547327D01*
X125317274Y-125423826D01*
X125321588Y-125416524D01*
X125342635Y-125382247D01*
X125361728Y-125351710D01*
X125378970Y-125322262D01*
X125394465Y-125291249D01*
X125408314Y-125256018D01*
X125420621Y-125213917D01*
X125431488Y-125162293D01*
X125441018Y-125098492D01*
X125449313Y-125019862D01*
X125456477Y-124923750D01*
X125462613Y-124807504D01*
X125467822Y-124668469D01*
X125472208Y-124503993D01*
X125475873Y-124311424D01*
X125478921Y-124088108D01*
X125481453Y-123831392D01*
X125483573Y-123538625D01*
X125485384Y-123207151D01*
X125486987Y-122834320D01*
X125488487Y-122417477D01*
X125489985Y-121953970D01*
X125491585Y-121441147D01*
X125492994Y-120999812D01*
X127473496Y-120999812D01*
X127473496Y-123838911D01*
X127610055Y-123928482D01*
X127662570Y-123960749D01*
X127782818Y-124025208D01*
X127896829Y-124076539D01*
X127946759Y-124093919D01*
X128105632Y-124128616D01*
X128306506Y-124146334D01*
X128408651Y-124150021D01*
X128503466Y-124149183D01*
X128574046Y-124139713D01*
X128637353Y-124119015D01*
X128710347Y-124084491D01*
X128850627Y-123992012D01*
X128972155Y-123861192D01*
X129069435Y-123692608D01*
X129143390Y-123483616D01*
X129194947Y-123231573D01*
X129225031Y-122933838D01*
X129234568Y-122587768D01*
X129234104Y-122509090D01*
X129220393Y-122144547D01*
X129187100Y-121827345D01*
X129133416Y-121554137D01*
X129058529Y-121321577D01*
X128961631Y-121126317D01*
X128841912Y-120965012D01*
X128792244Y-120915782D01*
X128638316Y-120813219D01*
X128457620Y-120750807D01*
X128257984Y-120728902D01*
X128047235Y-120747857D01*
X127833201Y-120808029D01*
X127623711Y-120909771D01*
X127473496Y-120999812D01*
X125492994Y-120999812D01*
X125493388Y-120876353D01*
X125507044Y-116711299D01*
X126592689Y-116704158D01*
X126671639Y-116703677D01*
X126903926Y-116702724D01*
X127116387Y-116702530D01*
X127303224Y-116703057D01*
X127458636Y-116704264D01*
X127576824Y-116706112D01*
X127651990Y-116708561D01*
X127678334Y-116711572D01*
X127674964Y-116721114D01*
X127649822Y-116766351D01*
X127608180Y-116832137D01*
X127604026Y-116838427D01*
X127571739Y-116889221D01*
X127544668Y-116938642D01*
X127522354Y-116991780D01*
X127504338Y-117053726D01*
X127490160Y-117129571D01*
X127479362Y-117224405D01*
X127471484Y-117343318D01*
X127466068Y-117491402D01*
X127462655Y-117673747D01*
X127460785Y-117895443D01*
X127459999Y-118161582D01*
X127459840Y-118477253D01*
X127460126Y-118723713D01*
X127461002Y-118965680D01*
X127462405Y-119185079D01*
X127464272Y-119376568D01*
X127466538Y-119534804D01*
X127469140Y-119654445D01*
X127472014Y-119730147D01*
X127475097Y-119756568D01*
X127485040Y-119752467D01*
X127528749Y-119723590D01*
X127591172Y-119676164D01*
X127681669Y-119612386D01*
X127851698Y-119518413D01*
X128046036Y-119434588D01*
X128246541Y-119369401D01*
X128415001Y-119336161D01*
X128624809Y-119314972D01*
X128851879Y-119307631D01*
X129078688Y-119314147D01*
X129287715Y-119334528D01*
X129461434Y-119368784D01*
X129638319Y-119426488D01*
X129933406Y-119566374D01*
X130206634Y-119752343D01*
X130452963Y-119980113D01*
X130667353Y-120245402D01*
X130844762Y-120543928D01*
X130888806Y-120635469D01*
X131012232Y-120944243D01*
X131108729Y-121279363D01*
X131179515Y-121646734D01*
X131225811Y-122052264D01*
X131248835Y-122501862D01*
X131249904Y-122587768D01*
X131252470Y-122794151D01*
G37*
X137425846Y-123653570D02*
X137413580Y-123873784D01*
X137387070Y-124078682D01*
X137347068Y-124249364D01*
X137283240Y-124424970D01*
X137135287Y-124714367D01*
X136946172Y-124968982D01*
X136717854Y-125187080D01*
X136452290Y-125366925D01*
X136151439Y-125506782D01*
X135817259Y-125604917D01*
X135680989Y-125627051D01*
X135486261Y-125642433D01*
X135274189Y-125645893D01*
X135062496Y-125637708D01*
X134868902Y-125618157D01*
X134711130Y-125587520D01*
X134631850Y-125563399D01*
X134451793Y-125492812D01*
X134268760Y-125403195D01*
X134101636Y-125304266D01*
X133969304Y-125205744D01*
X133967678Y-125204322D01*
X133895162Y-125142837D01*
X133839370Y-125099056D01*
X133812261Y-125082375D01*
X133809297Y-125086357D01*
X133802591Y-125129377D01*
X133797930Y-125209613D01*
X133796184Y-125314525D01*
X133796184Y-125546676D01*
X132771990Y-125546676D01*
X132744726Y-125546671D01*
X132516061Y-125546271D01*
X132306193Y-125545276D01*
X132121093Y-125543759D01*
X131966732Y-125541795D01*
X131849082Y-125539457D01*
X131774113Y-125536821D01*
X131747797Y-125533960D01*
X131748410Y-125531460D01*
X131765627Y-125494554D01*
X131801718Y-125425217D01*
X131850216Y-125335949D01*
X131952635Y-125150654D01*
X131967653Y-123321261D01*
X133905431Y-123321261D01*
X133906193Y-123465798D01*
X133909884Y-123617666D01*
X133917115Y-123727439D01*
X133928412Y-123802263D01*
X133944302Y-123849287D01*
X133964742Y-123882866D01*
X134041718Y-123974401D01*
X134144856Y-124069695D01*
X134257898Y-124154602D01*
X134364587Y-124214975D01*
X134423781Y-124237127D01*
X134560079Y-124266620D01*
X134738095Y-124281699D01*
X134925780Y-124279415D01*
X135104008Y-124248400D01*
X135252773Y-124184327D01*
X135381482Y-124084309D01*
X135417689Y-124047314D01*
X135511958Y-123921148D01*
X135562963Y-123785159D01*
X135578281Y-123621526D01*
X135574131Y-123535078D01*
X135533092Y-123357116D01*
X135446879Y-123204368D01*
X135313920Y-123075116D01*
X135132647Y-122967641D01*
X134901491Y-122880224D01*
X134808302Y-122857283D01*
X134695486Y-122841575D01*
X134553507Y-122832852D01*
X134369732Y-122829919D01*
X134339879Y-122829921D01*
X134202393Y-122831599D01*
X134084293Y-122835656D01*
X133997323Y-122841559D01*
X133953227Y-122848776D01*
X133948153Y-122851119D01*
X133931747Y-122865832D01*
X133920128Y-122895398D01*
X133912491Y-122947772D01*
X133908033Y-123030905D01*
X133905947Y-123152750D01*
X133905431Y-123321261D01*
X131967653Y-123321261D01*
X131968442Y-123225170D01*
X131970791Y-122944724D01*
X131974078Y-122587053D01*
X131977528Y-122276543D01*
X131981420Y-122008804D01*
X131986032Y-121779442D01*
X131991645Y-121584068D01*
X131998535Y-121418289D01*
X132006982Y-121277715D01*
X132017266Y-121157953D01*
X132029663Y-121054614D01*
X132044454Y-120963305D01*
X132061916Y-120879635D01*
X132082329Y-120799213D01*
X132105972Y-120717647D01*
X132133122Y-120630547D01*
X132240082Y-120357490D01*
X132386559Y-120105128D01*
X132568977Y-119889068D01*
X132789005Y-119708178D01*
X133048313Y-119561328D01*
X133348572Y-119447389D01*
X133691451Y-119365228D01*
X134078621Y-119313717D01*
X134213942Y-119303474D01*
X134441844Y-119295984D01*
X134667731Y-119302729D01*
X134902178Y-119324844D01*
X135155761Y-119363468D01*
X135439055Y-119419737D01*
X135762635Y-119494789D01*
X135837430Y-119512948D01*
X136025260Y-119557634D01*
X136203285Y-119598779D01*
X136360710Y-119633953D01*
X136486739Y-119660725D01*
X136570574Y-119676665D01*
X136763996Y-119708434D01*
X136492069Y-120367501D01*
X136424051Y-120532055D01*
X136357136Y-120693296D01*
X136299723Y-120830961D01*
X136254631Y-120938316D01*
X136224678Y-121008624D01*
X136212682Y-121035149D01*
X136210796Y-121035529D01*
X136176035Y-121023686D01*
X136107682Y-120993337D01*
X136018069Y-120949884D01*
X135831811Y-120865261D01*
X135575508Y-120772735D01*
X135313183Y-120701878D01*
X135055093Y-120654469D01*
X134811499Y-120632289D01*
X134592658Y-120637116D01*
X134408829Y-120670730D01*
X134280529Y-120724066D01*
X134134820Y-120833368D01*
X134022652Y-120981649D01*
X133947236Y-121164349D01*
X133911784Y-121376904D01*
X133899299Y-121572805D01*
X134551021Y-121574589D01*
X134770806Y-121576432D01*
X135013904Y-121582977D01*
X135221576Y-121595330D01*
X135404564Y-121614691D01*
X135573611Y-121642261D01*
X135739459Y-121679242D01*
X135912850Y-121726833D01*
X136172286Y-121817420D01*
X136477436Y-121966598D01*
X136745245Y-122149327D01*
X136973070Y-122363038D01*
X137158270Y-122605160D01*
X137298203Y-122873123D01*
X137390229Y-123164358D01*
X137404641Y-123242795D01*
X137423117Y-123436940D01*
X137425443Y-123621526D01*
X137425846Y-123653570D01*
G36*
X137425846Y-123653570D02*
G01*
X137413580Y-123873784D01*
X137387070Y-124078682D01*
X137347068Y-124249364D01*
X137283240Y-124424970D01*
X137135287Y-124714367D01*
X136946172Y-124968982D01*
X136717854Y-125187080D01*
X136452290Y-125366925D01*
X136151439Y-125506782D01*
X135817259Y-125604917D01*
X135680989Y-125627051D01*
X135486261Y-125642433D01*
X135274189Y-125645893D01*
X135062496Y-125637708D01*
X134868902Y-125618157D01*
X134711130Y-125587520D01*
X134631850Y-125563399D01*
X134451793Y-125492812D01*
X134268760Y-125403195D01*
X134101636Y-125304266D01*
X133969304Y-125205744D01*
X133967678Y-125204322D01*
X133895162Y-125142837D01*
X133839370Y-125099056D01*
X133812261Y-125082375D01*
X133809297Y-125086357D01*
X133802591Y-125129377D01*
X133797930Y-125209613D01*
X133796184Y-125314525D01*
X133796184Y-125546676D01*
X132771990Y-125546676D01*
X132744726Y-125546671D01*
X132516061Y-125546271D01*
X132306193Y-125545276D01*
X132121093Y-125543759D01*
X131966732Y-125541795D01*
X131849082Y-125539457D01*
X131774113Y-125536821D01*
X131747797Y-125533960D01*
X131748410Y-125531460D01*
X131765627Y-125494554D01*
X131801718Y-125425217D01*
X131850216Y-125335949D01*
X131952635Y-125150654D01*
X131967653Y-123321261D01*
X133905431Y-123321261D01*
X133906193Y-123465798D01*
X133909884Y-123617666D01*
X133917115Y-123727439D01*
X133928412Y-123802263D01*
X133944302Y-123849287D01*
X133964742Y-123882866D01*
X134041718Y-123974401D01*
X134144856Y-124069695D01*
X134257898Y-124154602D01*
X134364587Y-124214975D01*
X134423781Y-124237127D01*
X134560079Y-124266620D01*
X134738095Y-124281699D01*
X134925780Y-124279415D01*
X135104008Y-124248400D01*
X135252773Y-124184327D01*
X135381482Y-124084309D01*
X135417689Y-124047314D01*
X135511958Y-123921148D01*
X135562963Y-123785159D01*
X135578281Y-123621526D01*
X135574131Y-123535078D01*
X135533092Y-123357116D01*
X135446879Y-123204368D01*
X135313920Y-123075116D01*
X135132647Y-122967641D01*
X134901491Y-122880224D01*
X134808302Y-122857283D01*
X134695486Y-122841575D01*
X134553507Y-122832852D01*
X134369732Y-122829919D01*
X134339879Y-122829921D01*
X134202393Y-122831599D01*
X134084293Y-122835656D01*
X133997323Y-122841559D01*
X133953227Y-122848776D01*
X133948153Y-122851119D01*
X133931747Y-122865832D01*
X133920128Y-122895398D01*
X133912491Y-122947772D01*
X133908033Y-123030905D01*
X133905947Y-123152750D01*
X133905431Y-123321261D01*
X131967653Y-123321261D01*
X131968442Y-123225170D01*
X131970791Y-122944724D01*
X131974078Y-122587053D01*
X131977528Y-122276543D01*
X131981420Y-122008804D01*
X131986032Y-121779442D01*
X131991645Y-121584068D01*
X131998535Y-121418289D01*
X132006982Y-121277715D01*
X132017266Y-121157953D01*
X132029663Y-121054614D01*
X132044454Y-120963305D01*
X132061916Y-120879635D01*
X132082329Y-120799213D01*
X132105972Y-120717647D01*
X132133122Y-120630547D01*
X132240082Y-120357490D01*
X132386559Y-120105128D01*
X132568977Y-119889068D01*
X132789005Y-119708178D01*
X133048313Y-119561328D01*
X133348572Y-119447389D01*
X133691451Y-119365228D01*
X134078621Y-119313717D01*
X134213942Y-119303474D01*
X134441844Y-119295984D01*
X134667731Y-119302729D01*
X134902178Y-119324844D01*
X135155761Y-119363468D01*
X135439055Y-119419737D01*
X135762635Y-119494789D01*
X135837430Y-119512948D01*
X136025260Y-119557634D01*
X136203285Y-119598779D01*
X136360710Y-119633953D01*
X136486739Y-119660725D01*
X136570574Y-119676665D01*
X136763996Y-119708434D01*
X136492069Y-120367501D01*
X136424051Y-120532055D01*
X136357136Y-120693296D01*
X136299723Y-120830961D01*
X136254631Y-120938316D01*
X136224678Y-121008624D01*
X136212682Y-121035149D01*
X136210796Y-121035529D01*
X136176035Y-121023686D01*
X136107682Y-120993337D01*
X136018069Y-120949884D01*
X135831811Y-120865261D01*
X135575508Y-120772735D01*
X135313183Y-120701878D01*
X135055093Y-120654469D01*
X134811499Y-120632289D01*
X134592658Y-120637116D01*
X134408829Y-120670730D01*
X134280529Y-120724066D01*
X134134820Y-120833368D01*
X134022652Y-120981649D01*
X133947236Y-121164349D01*
X133911784Y-121376904D01*
X133899299Y-121572805D01*
X134551021Y-121574589D01*
X134770806Y-121576432D01*
X135013904Y-121582977D01*
X135221576Y-121595330D01*
X135404564Y-121614691D01*
X135573611Y-121642261D01*
X135739459Y-121679242D01*
X135912850Y-121726833D01*
X136172286Y-121817420D01*
X136477436Y-121966598D01*
X136745245Y-122149327D01*
X136973070Y-122363038D01*
X137158270Y-122605160D01*
X137298203Y-122873123D01*
X137390229Y-123164358D01*
X137404641Y-123242795D01*
X137423117Y-123436940D01*
X137425443Y-123621526D01*
X137425846Y-123653570D01*
G37*
X155748440Y-125600659D02*
X155745628Y-125812454D01*
X155742138Y-125994895D01*
X155737898Y-126150241D01*
X155732838Y-126280750D01*
X155726887Y-126388680D01*
X155719973Y-126476291D01*
X155712026Y-126545839D01*
X155702973Y-126599585D01*
X155692745Y-126639785D01*
X155681270Y-126668700D01*
X155668477Y-126688586D01*
X155654295Y-126701703D01*
X155638653Y-126710309D01*
X155621480Y-126716663D01*
X155602705Y-126723022D01*
X155582256Y-126731646D01*
X155570750Y-126735968D01*
X155549645Y-126740687D01*
X155518284Y-126745011D01*
X155474451Y-126748957D01*
X155415927Y-126752542D01*
X155340493Y-126755784D01*
X155245930Y-126758700D01*
X155130020Y-126761307D01*
X154990545Y-126763622D01*
X154825287Y-126765663D01*
X154632026Y-126767447D01*
X154408545Y-126768992D01*
X154152625Y-126770315D01*
X153862047Y-126771433D01*
X153534593Y-126772364D01*
X153168044Y-126773124D01*
X152760183Y-126773732D01*
X152308790Y-126774204D01*
X151811648Y-126774559D01*
X151266537Y-126774812D01*
X150671240Y-126774982D01*
X150023537Y-126775086D01*
X149818282Y-126775106D01*
X149184636Y-126775119D01*
X148602749Y-126775040D01*
X148070428Y-126774851D01*
X147585481Y-126774538D01*
X147145715Y-126774085D01*
X146748940Y-126773475D01*
X146392961Y-126772693D01*
X146075587Y-126771723D01*
X145794627Y-126770549D01*
X145547886Y-126769155D01*
X145333174Y-126767525D01*
X145148299Y-126765643D01*
X144991067Y-126763493D01*
X144859287Y-126761060D01*
X144750766Y-126758327D01*
X144663313Y-126755279D01*
X144594735Y-126751899D01*
X144542839Y-126748172D01*
X144505434Y-126744082D01*
X144480327Y-126739612D01*
X144465327Y-126734748D01*
X144460554Y-126732583D01*
X144441016Y-126725472D01*
X144423099Y-126720279D01*
X144406730Y-126714742D01*
X144391836Y-126706599D01*
X144378346Y-126693590D01*
X144366186Y-126673452D01*
X144355283Y-126643924D01*
X144345566Y-126602744D01*
X144336961Y-126547650D01*
X144329395Y-126476381D01*
X144322797Y-126386675D01*
X144317093Y-126276270D01*
X144312211Y-126142906D01*
X144308078Y-125984319D01*
X144304622Y-125798249D01*
X144301769Y-125582434D01*
X144300833Y-125482497D01*
X145021046Y-125482497D01*
X145021836Y-125492067D01*
X145036323Y-125499823D01*
X145069055Y-125505955D01*
X145124578Y-125510652D01*
X145207441Y-125514106D01*
X145322191Y-125516506D01*
X145473375Y-125518041D01*
X145665540Y-125518903D01*
X145903234Y-125519280D01*
X146191004Y-125519364D01*
X147396441Y-125519364D01*
X147192635Y-125150654D01*
X147192635Y-119797536D01*
X147396441Y-119428826D01*
X145241764Y-119428826D01*
X145233974Y-122262428D01*
X145226184Y-125096031D01*
X145149801Y-125259161D01*
X145109530Y-125340016D01*
X145063929Y-125421013D01*
X145029492Y-125470827D01*
X145029406Y-125470923D01*
X145021046Y-125482497D01*
X144300833Y-125482497D01*
X144299448Y-125334612D01*
X144297586Y-125052521D01*
X144296109Y-124733901D01*
X144294946Y-124376488D01*
X144294024Y-123978023D01*
X144293269Y-123536242D01*
X144292610Y-123048884D01*
X144291974Y-122513688D01*
X144291288Y-121928393D01*
X144290480Y-121290735D01*
X144290375Y-121213539D01*
X144289474Y-120579923D01*
X144288612Y-119998404D01*
X144287853Y-119466720D01*
X144287261Y-118982608D01*
X144286900Y-118543806D01*
X144286833Y-118148052D01*
X144287125Y-117793081D01*
X144287840Y-117476633D01*
X144289040Y-117196443D01*
X144290790Y-116950250D01*
X144293153Y-116735790D01*
X144296195Y-116550802D01*
X144299977Y-116393022D01*
X144304564Y-116260188D01*
X144310020Y-116150036D01*
X144316409Y-116060305D01*
X144323794Y-115988732D01*
X144332239Y-115933053D01*
X144341808Y-115891007D01*
X144352565Y-115860331D01*
X144364574Y-115838761D01*
X144377898Y-115824036D01*
X144392601Y-115813893D01*
X144408748Y-115806068D01*
X144426401Y-115798300D01*
X144445624Y-115788325D01*
X144451249Y-115785146D01*
X144536363Y-115754379D01*
X144629538Y-115741734D01*
X144734571Y-115741738D01*
X144736321Y-115980712D01*
X144736765Y-116008212D01*
X144770149Y-116287749D01*
X144855177Y-116550767D01*
X144990666Y-116794482D01*
X145175436Y-117016107D01*
X145274589Y-117106499D01*
X145495362Y-117256323D01*
X145736246Y-117360803D01*
X145990226Y-117419882D01*
X146250286Y-117433505D01*
X146509410Y-117401616D01*
X146760583Y-117324158D01*
X146967059Y-117216568D01*
X147880891Y-117216568D01*
X148001064Y-117303027D01*
X148102698Y-117384286D01*
X148245909Y-117516826D01*
X148408345Y-117682936D01*
X148583856Y-117876286D01*
X148766291Y-118090547D01*
X148813272Y-118147844D01*
X148893259Y-118246116D01*
X148997814Y-118375045D01*
X149123472Y-118530327D01*
X149266770Y-118707660D01*
X149424243Y-118902739D01*
X149592429Y-119111263D01*
X149767862Y-119328927D01*
X149848328Y-119428826D01*
X149947080Y-119551429D01*
X150126619Y-119774465D01*
X150303014Y-119993733D01*
X150472802Y-120204928D01*
X150632519Y-120403749D01*
X150778701Y-120585890D01*
X150907885Y-120747051D01*
X151016606Y-120882926D01*
X151101401Y-120989214D01*
X151158806Y-121061610D01*
X151185357Y-121095812D01*
X151187548Y-121108665D01*
X151180259Y-121133110D01*
X151161370Y-121171569D01*
X151128996Y-121226768D01*
X151081250Y-121301437D01*
X151016248Y-121398302D01*
X150932105Y-121520092D01*
X150826934Y-121669536D01*
X150698850Y-121849360D01*
X150545968Y-122062293D01*
X150366401Y-122311063D01*
X150158265Y-122598398D01*
X149919675Y-122927026D01*
X149729568Y-123188610D01*
X149497633Y-123507503D01*
X149293615Y-123787552D01*
X149115144Y-124031866D01*
X148959845Y-124243552D01*
X148825347Y-124425720D01*
X148709276Y-124581476D01*
X148609260Y-124713929D01*
X148522927Y-124826187D01*
X148447904Y-124921357D01*
X148381818Y-125002549D01*
X148322297Y-125072870D01*
X148266969Y-125135428D01*
X148213459Y-125193331D01*
X148159397Y-125249688D01*
X148102409Y-125307606D01*
X147892398Y-125519364D01*
X149304129Y-125519421D01*
X150715861Y-125519478D01*
X150706990Y-125348380D01*
X150706560Y-125339783D01*
X150704876Y-125271383D01*
X150708068Y-125205848D01*
X150718271Y-125139586D01*
X150737621Y-125069009D01*
X150768252Y-124990526D01*
X150812300Y-124900547D01*
X150871900Y-124795484D01*
X150949188Y-124671746D01*
X151046298Y-124525743D01*
X151165366Y-124353886D01*
X151308528Y-124152584D01*
X151477918Y-123918249D01*
X151675672Y-123647289D01*
X151903926Y-123336116D01*
X152709625Y-122239229D01*
X152716723Y-123511038D01*
X152717352Y-123629672D01*
X152718462Y-123949218D01*
X152717957Y-124221013D01*
X152715245Y-124450201D01*
X152709730Y-124641926D01*
X152700819Y-124801331D01*
X152687918Y-124933559D01*
X152670433Y-125043754D01*
X152647770Y-125137059D01*
X152619334Y-125218618D01*
X152584533Y-125293575D01*
X152542771Y-125367074D01*
X152493454Y-125444256D01*
X152443880Y-125519364D01*
X155020254Y-125519364D01*
X154953704Y-125430600D01*
X154943282Y-125416558D01*
X154859957Y-125287856D01*
X154802517Y-125157753D01*
X154764798Y-125008674D01*
X154740638Y-124823047D01*
X154739975Y-124814955D01*
X154736469Y-124738389D01*
X154733303Y-124610641D01*
X154730492Y-124434633D01*
X154728049Y-124213283D01*
X154725987Y-123949510D01*
X154724322Y-123646233D01*
X154723065Y-123306371D01*
X154722231Y-122932844D01*
X154721834Y-122528570D01*
X154721887Y-122096468D01*
X154722405Y-121639459D01*
X154723401Y-121160460D01*
X154724455Y-120730797D01*
X154725583Y-120263100D01*
X154726694Y-119844649D01*
X154727926Y-119472515D01*
X154729420Y-119143764D01*
X154731315Y-118855465D01*
X154733750Y-118604687D01*
X154736864Y-118388499D01*
X154740797Y-118203967D01*
X154745689Y-118048161D01*
X154751679Y-117918149D01*
X154758906Y-117811000D01*
X154767509Y-117723781D01*
X154777629Y-117653561D01*
X154789404Y-117597409D01*
X154802974Y-117552392D01*
X154818479Y-117515580D01*
X154836057Y-117484039D01*
X154855848Y-117454840D01*
X154877992Y-117425050D01*
X154902628Y-117391737D01*
X154926457Y-117358354D01*
X154972513Y-117292349D01*
X155000101Y-117250708D01*
X155000767Y-117248964D01*
X154991134Y-117241089D01*
X154957141Y-117234519D01*
X154895004Y-117229151D01*
X154800941Y-117224886D01*
X154671169Y-117221623D01*
X154501907Y-117219260D01*
X154289370Y-117217697D01*
X154029778Y-117216834D01*
X153719346Y-117216568D01*
X152417995Y-117216568D01*
X152486580Y-117298078D01*
X152526330Y-117354060D01*
X152592495Y-117486056D01*
X152650477Y-117650223D01*
X152694731Y-117832326D01*
X152697552Y-117849614D01*
X152705944Y-117940750D01*
X152712300Y-118081599D01*
X152716635Y-118273136D01*
X152718967Y-118516336D01*
X152719313Y-118812175D01*
X152717689Y-119161628D01*
X152709625Y-120328301D01*
X151876614Y-119274889D01*
X151852755Y-119244715D01*
X151641511Y-118977291D01*
X151461166Y-118748266D01*
X151308848Y-118553748D01*
X151181689Y-118389841D01*
X151076816Y-118252653D01*
X150991362Y-118138287D01*
X150922454Y-118042852D01*
X150867224Y-117962451D01*
X150822802Y-117893192D01*
X150786316Y-117831180D01*
X150754897Y-117772522D01*
X150725675Y-117713322D01*
X150680721Y-117608532D01*
X150651681Y-117497989D01*
X150643957Y-117378752D01*
X150644733Y-117216568D01*
X147880891Y-117216568D01*
X146967059Y-117216568D01*
X146996788Y-117201077D01*
X147211011Y-117032316D01*
X147270563Y-116972820D01*
X147446579Y-116752530D01*
X147571477Y-116513465D01*
X147645925Y-116254082D01*
X147670592Y-115972840D01*
X147670592Y-115741729D01*
X151591196Y-115741729D01*
X151836137Y-115741719D01*
X152362339Y-115741647D01*
X152837687Y-115741596D01*
X153264811Y-115741667D01*
X153646338Y-115741966D01*
X153984897Y-115742597D01*
X154283117Y-115743662D01*
X154543626Y-115745267D01*
X154769054Y-115747515D01*
X154962028Y-115750510D01*
X155125177Y-115754356D01*
X155261131Y-115759156D01*
X155372517Y-115765016D01*
X155461964Y-115772038D01*
X155532101Y-115780327D01*
X155585556Y-115789986D01*
X155624958Y-115801120D01*
X155652936Y-115813832D01*
X155672119Y-115828227D01*
X155685134Y-115844407D01*
X155694611Y-115862478D01*
X155703178Y-115882543D01*
X155713463Y-115904706D01*
X155713648Y-115905068D01*
X155718642Y-115919576D01*
X155723223Y-115943870D01*
X155727408Y-115980190D01*
X155731214Y-116030780D01*
X155734660Y-116097881D01*
X155737762Y-116183735D01*
X155740538Y-116290584D01*
X155743006Y-116420670D01*
X155745181Y-116576234D01*
X155747083Y-116759519D01*
X155748729Y-116972767D01*
X155750135Y-117218219D01*
X155751319Y-117498118D01*
X155752299Y-117814705D01*
X155753091Y-118170222D01*
X155753715Y-118566911D01*
X155754185Y-119007015D01*
X155754521Y-119492774D01*
X155754740Y-120026431D01*
X155754858Y-120610228D01*
X155754893Y-121246407D01*
X155754895Y-121371385D01*
X155754955Y-122000934D01*
X155755049Y-122578544D01*
X155755104Y-123106474D01*
X155755049Y-123586983D01*
X155754815Y-124022329D01*
X155754328Y-124414770D01*
X155753518Y-124766565D01*
X155752314Y-125079973D01*
X155750645Y-125357251D01*
X155749176Y-125519364D01*
X155748440Y-125600659D01*
G36*
X155748440Y-125600659D02*
G01*
X155745628Y-125812454D01*
X155742138Y-125994895D01*
X155737898Y-126150241D01*
X155732838Y-126280750D01*
X155726887Y-126388680D01*
X155719973Y-126476291D01*
X155712026Y-126545839D01*
X155702973Y-126599585D01*
X155692745Y-126639785D01*
X155681270Y-126668700D01*
X155668477Y-126688586D01*
X155654295Y-126701703D01*
X155638653Y-126710309D01*
X155621480Y-126716663D01*
X155602705Y-126723022D01*
X155582256Y-126731646D01*
X155570750Y-126735968D01*
X155549645Y-126740687D01*
X155518284Y-126745011D01*
X155474451Y-126748957D01*
X155415927Y-126752542D01*
X155340493Y-126755784D01*
X155245930Y-126758700D01*
X155130020Y-126761307D01*
X154990545Y-126763622D01*
X154825287Y-126765663D01*
X154632026Y-126767447D01*
X154408545Y-126768992D01*
X154152625Y-126770315D01*
X153862047Y-126771433D01*
X153534593Y-126772364D01*
X153168044Y-126773124D01*
X152760183Y-126773732D01*
X152308790Y-126774204D01*
X151811648Y-126774559D01*
X151266537Y-126774812D01*
X150671240Y-126774982D01*
X150023537Y-126775086D01*
X149818282Y-126775106D01*
X149184636Y-126775119D01*
X148602749Y-126775040D01*
X148070428Y-126774851D01*
X147585481Y-126774538D01*
X147145715Y-126774085D01*
X146748940Y-126773475D01*
X146392961Y-126772693D01*
X146075587Y-126771723D01*
X145794627Y-126770549D01*
X145547886Y-126769155D01*
X145333174Y-126767525D01*
X145148299Y-126765643D01*
X144991067Y-126763493D01*
X144859287Y-126761060D01*
X144750766Y-126758327D01*
X144663313Y-126755279D01*
X144594735Y-126751899D01*
X144542839Y-126748172D01*
X144505434Y-126744082D01*
X144480327Y-126739612D01*
X144465327Y-126734748D01*
X144460554Y-126732583D01*
X144441016Y-126725472D01*
X144423099Y-126720279D01*
X144406730Y-126714742D01*
X144391836Y-126706599D01*
X144378346Y-126693590D01*
X144366186Y-126673452D01*
X144355283Y-126643924D01*
X144345566Y-126602744D01*
X144336961Y-126547650D01*
X144329395Y-126476381D01*
X144322797Y-126386675D01*
X144317093Y-126276270D01*
X144312211Y-126142906D01*
X144308078Y-125984319D01*
X144304622Y-125798249D01*
X144301769Y-125582434D01*
X144300833Y-125482497D01*
X145021046Y-125482497D01*
X145021836Y-125492067D01*
X145036323Y-125499823D01*
X145069055Y-125505955D01*
X145124578Y-125510652D01*
X145207441Y-125514106D01*
X145322191Y-125516506D01*
X145473375Y-125518041D01*
X145665540Y-125518903D01*
X145903234Y-125519280D01*
X146191004Y-125519364D01*
X147396441Y-125519364D01*
X147192635Y-125150654D01*
X147192635Y-119797536D01*
X147396441Y-119428826D01*
X145241764Y-119428826D01*
X145233974Y-122262428D01*
X145226184Y-125096031D01*
X145149801Y-125259161D01*
X145109530Y-125340016D01*
X145063929Y-125421013D01*
X145029492Y-125470827D01*
X145029406Y-125470923D01*
X145021046Y-125482497D01*
X144300833Y-125482497D01*
X144299448Y-125334612D01*
X144297586Y-125052521D01*
X144296109Y-124733901D01*
X144294946Y-124376488D01*
X144294024Y-123978023D01*
X144293269Y-123536242D01*
X144292610Y-123048884D01*
X144291974Y-122513688D01*
X144291288Y-121928393D01*
X144290480Y-121290735D01*
X144290375Y-121213539D01*
X144289474Y-120579923D01*
X144288612Y-119998404D01*
X144287853Y-119466720D01*
X144287261Y-118982608D01*
X144286900Y-118543806D01*
X144286833Y-118148052D01*
X144287125Y-117793081D01*
X144287840Y-117476633D01*
X144289040Y-117196443D01*
X144290790Y-116950250D01*
X144293153Y-116735790D01*
X144296195Y-116550802D01*
X144299977Y-116393022D01*
X144304564Y-116260188D01*
X144310020Y-116150036D01*
X144316409Y-116060305D01*
X144323794Y-115988732D01*
X144332239Y-115933053D01*
X144341808Y-115891007D01*
X144352565Y-115860331D01*
X144364574Y-115838761D01*
X144377898Y-115824036D01*
X144392601Y-115813893D01*
X144408748Y-115806068D01*
X144426401Y-115798300D01*
X144445624Y-115788325D01*
X144451249Y-115785146D01*
X144536363Y-115754379D01*
X144629538Y-115741734D01*
X144734571Y-115741738D01*
X144736321Y-115980712D01*
X144736765Y-116008212D01*
X144770149Y-116287749D01*
X144855177Y-116550767D01*
X144990666Y-116794482D01*
X145175436Y-117016107D01*
X145274589Y-117106499D01*
X145495362Y-117256323D01*
X145736246Y-117360803D01*
X145990226Y-117419882D01*
X146250286Y-117433505D01*
X146509410Y-117401616D01*
X146760583Y-117324158D01*
X146967059Y-117216568D01*
X147880891Y-117216568D01*
X148001064Y-117303027D01*
X148102698Y-117384286D01*
X148245909Y-117516826D01*
X148408345Y-117682936D01*
X148583856Y-117876286D01*
X148766291Y-118090547D01*
X148813272Y-118147844D01*
X148893259Y-118246116D01*
X148997814Y-118375045D01*
X149123472Y-118530327D01*
X149266770Y-118707660D01*
X149424243Y-118902739D01*
X149592429Y-119111263D01*
X149767862Y-119328927D01*
X149848328Y-119428826D01*
X149947080Y-119551429D01*
X150126619Y-119774465D01*
X150303014Y-119993733D01*
X150472802Y-120204928D01*
X150632519Y-120403749D01*
X150778701Y-120585890D01*
X150907885Y-120747051D01*
X151016606Y-120882926D01*
X151101401Y-120989214D01*
X151158806Y-121061610D01*
X151185357Y-121095812D01*
X151187548Y-121108665D01*
X151180259Y-121133110D01*
X151161370Y-121171569D01*
X151128996Y-121226768D01*
X151081250Y-121301437D01*
X151016248Y-121398302D01*
X150932105Y-121520092D01*
X150826934Y-121669536D01*
X150698850Y-121849360D01*
X150545968Y-122062293D01*
X150366401Y-122311063D01*
X150158265Y-122598398D01*
X149919675Y-122927026D01*
X149729568Y-123188610D01*
X149497633Y-123507503D01*
X149293615Y-123787552D01*
X149115144Y-124031866D01*
X148959845Y-124243552D01*
X148825347Y-124425720D01*
X148709276Y-124581476D01*
X148609260Y-124713929D01*
X148522927Y-124826187D01*
X148447904Y-124921357D01*
X148381818Y-125002549D01*
X148322297Y-125072870D01*
X148266969Y-125135428D01*
X148213459Y-125193331D01*
X148159397Y-125249688D01*
X148102409Y-125307606D01*
X147892398Y-125519364D01*
X149304129Y-125519421D01*
X150715861Y-125519478D01*
X150706990Y-125348380D01*
X150706560Y-125339783D01*
X150704876Y-125271383D01*
X150708068Y-125205848D01*
X150718271Y-125139586D01*
X150737621Y-125069009D01*
X150768252Y-124990526D01*
X150812300Y-124900547D01*
X150871900Y-124795484D01*
X150949188Y-124671746D01*
X151046298Y-124525743D01*
X151165366Y-124353886D01*
X151308528Y-124152584D01*
X151477918Y-123918249D01*
X151675672Y-123647289D01*
X151903926Y-123336116D01*
X152709625Y-122239229D01*
X152716723Y-123511038D01*
X152717352Y-123629672D01*
X152718462Y-123949218D01*
X152717957Y-124221013D01*
X152715245Y-124450201D01*
X152709730Y-124641926D01*
X152700819Y-124801331D01*
X152687918Y-124933559D01*
X152670433Y-125043754D01*
X152647770Y-125137059D01*
X152619334Y-125218618D01*
X152584533Y-125293575D01*
X152542771Y-125367074D01*
X152493454Y-125444256D01*
X152443880Y-125519364D01*
X155020254Y-125519364D01*
X154953704Y-125430600D01*
X154943282Y-125416558D01*
X154859957Y-125287856D01*
X154802517Y-125157753D01*
X154764798Y-125008674D01*
X154740638Y-124823047D01*
X154739975Y-124814955D01*
X154736469Y-124738389D01*
X154733303Y-124610641D01*
X154730492Y-124434633D01*
X154728049Y-124213283D01*
X154725987Y-123949510D01*
X154724322Y-123646233D01*
X154723065Y-123306371D01*
X154722231Y-122932844D01*
X154721834Y-122528570D01*
X154721887Y-122096468D01*
X154722405Y-121639459D01*
X154723401Y-121160460D01*
X154724455Y-120730797D01*
X154725583Y-120263100D01*
X154726694Y-119844649D01*
X154727926Y-119472515D01*
X154729420Y-119143764D01*
X154731315Y-118855465D01*
X154733750Y-118604687D01*
X154736864Y-118388499D01*
X154740797Y-118203967D01*
X154745689Y-118048161D01*
X154751679Y-117918149D01*
X154758906Y-117811000D01*
X154767509Y-117723781D01*
X154777629Y-117653561D01*
X154789404Y-117597409D01*
X154802974Y-117552392D01*
X154818479Y-117515580D01*
X154836057Y-117484039D01*
X154855848Y-117454840D01*
X154877992Y-117425050D01*
X154902628Y-117391737D01*
X154926457Y-117358354D01*
X154972513Y-117292349D01*
X155000101Y-117250708D01*
X155000767Y-117248964D01*
X154991134Y-117241089D01*
X154957141Y-117234519D01*
X154895004Y-117229151D01*
X154800941Y-117224886D01*
X154671169Y-117221623D01*
X154501907Y-117219260D01*
X154289370Y-117217697D01*
X154029778Y-117216834D01*
X153719346Y-117216568D01*
X152417995Y-117216568D01*
X152486580Y-117298078D01*
X152526330Y-117354060D01*
X152592495Y-117486056D01*
X152650477Y-117650223D01*
X152694731Y-117832326D01*
X152697552Y-117849614D01*
X152705944Y-117940750D01*
X152712300Y-118081599D01*
X152716635Y-118273136D01*
X152718967Y-118516336D01*
X152719313Y-118812175D01*
X152717689Y-119161628D01*
X152709625Y-120328301D01*
X151876614Y-119274889D01*
X151852755Y-119244715D01*
X151641511Y-118977291D01*
X151461166Y-118748266D01*
X151308848Y-118553748D01*
X151181689Y-118389841D01*
X151076816Y-118252653D01*
X150991362Y-118138287D01*
X150922454Y-118042852D01*
X150867224Y-117962451D01*
X150822802Y-117893192D01*
X150786316Y-117831180D01*
X150754897Y-117772522D01*
X150725675Y-117713322D01*
X150680721Y-117608532D01*
X150651681Y-117497989D01*
X150643957Y-117378752D01*
X150644733Y-117216568D01*
X147880891Y-117216568D01*
X146967059Y-117216568D01*
X146996788Y-117201077D01*
X147211011Y-117032316D01*
X147270563Y-116972820D01*
X147446579Y-116752530D01*
X147571477Y-116513465D01*
X147645925Y-116254082D01*
X147670592Y-115972840D01*
X147670592Y-115741729D01*
X151591196Y-115741729D01*
X151836137Y-115741719D01*
X152362339Y-115741647D01*
X152837687Y-115741596D01*
X153264811Y-115741667D01*
X153646338Y-115741966D01*
X153984897Y-115742597D01*
X154283117Y-115743662D01*
X154543626Y-115745267D01*
X154769054Y-115747515D01*
X154962028Y-115750510D01*
X155125177Y-115754356D01*
X155261131Y-115759156D01*
X155372517Y-115765016D01*
X155461964Y-115772038D01*
X155532101Y-115780327D01*
X155585556Y-115789986D01*
X155624958Y-115801120D01*
X155652936Y-115813832D01*
X155672119Y-115828227D01*
X155685134Y-115844407D01*
X155694611Y-115862478D01*
X155703178Y-115882543D01*
X155713463Y-115904706D01*
X155713648Y-115905068D01*
X155718642Y-115919576D01*
X155723223Y-115943870D01*
X155727408Y-115980190D01*
X155731214Y-116030780D01*
X155734660Y-116097881D01*
X155737762Y-116183735D01*
X155740538Y-116290584D01*
X155743006Y-116420670D01*
X155745181Y-116576234D01*
X155747083Y-116759519D01*
X155748729Y-116972767D01*
X155750135Y-117218219D01*
X155751319Y-117498118D01*
X155752299Y-117814705D01*
X155753091Y-118170222D01*
X155753715Y-118566911D01*
X155754185Y-119007015D01*
X155754521Y-119492774D01*
X155754740Y-120026431D01*
X155754858Y-120610228D01*
X155754893Y-121246407D01*
X155754895Y-121371385D01*
X155754955Y-122000934D01*
X155755049Y-122578544D01*
X155755104Y-123106474D01*
X155755049Y-123586983D01*
X155754815Y-124022329D01*
X155754328Y-124414770D01*
X155753518Y-124766565D01*
X155752314Y-125079973D01*
X155750645Y-125357251D01*
X155749176Y-125519364D01*
X155748440Y-125600659D01*
G37*
%TD*%
M02*
