%TF.GenerationSoftware,KiCad,Pcbnew,9.0.2*%
%TF.CreationDate,2025-06-28T03:21:36+09:00*%
%TF.ProjectId,ESP32-S3-TESTBOARD,45535033-322d-4533-932d-54455354424f,rev?*%
%TF.SameCoordinates,Original*%
%TF.FileFunction,Paste,Top*%
%TF.FilePolarity,Positive*%
%FSLAX46Y46*%
G04 Gerber Fmt 4.6, Leading zero omitted, Abs format (unit mm)*
G04 Created by KiCad (PCBNEW 9.0.2) date 2025-06-28 03:21:36*
%MOMM*%
%LPD*%
G01*
G04 APERTURE LIST*
G04 Aperture macros list*
%AMRoundRect*
0 Rectangle with rounded corners*
0 $1 Rounding radius*
0 $2 $3 $4 $5 $6 $7 $8 $9 X,Y pos of 4 corners*
0 Add a 4 corners polygon primitive as box body*
4,1,4,$2,$3,$4,$5,$6,$7,$8,$9,$2,$3,0*
0 Add four circle primitives for the rounded corners*
1,1,$1+$1,$2,$3*
1,1,$1+$1,$4,$5*
1,1,$1+$1,$6,$7*
1,1,$1+$1,$8,$9*
0 Add four rect primitives between the rounded corners*
20,1,$1+$1,$2,$3,$4,$5,0*
20,1,$1+$1,$4,$5,$6,$7,0*
20,1,$1+$1,$6,$7,$8,$9,0*
20,1,$1+$1,$8,$9,$2,$3,0*%
G04 Aperture macros list end*
%ADD10RoundRect,0.375000X0.375000X-0.625000X0.375000X0.625000X-0.375000X0.625000X-0.375000X-0.625000X0*%
%ADD11RoundRect,0.500000X1.400000X-0.500000X1.400000X0.500000X-1.400000X0.500000X-1.400000X-0.500000X0*%
%ADD12RoundRect,0.250000X-0.475000X0.250000X-0.475000X-0.250000X0.475000X-0.250000X0.475000X0.250000X0*%
%ADD13R,0.900000X1.700000*%
%ADD14RoundRect,0.225000X-0.225000X-0.250000X0.225000X-0.250000X0.225000X0.250000X-0.225000X0.250000X0*%
%ADD15RoundRect,0.150000X-0.625000X0.150000X-0.625000X-0.150000X0.625000X-0.150000X0.625000X0.150000X0*%
%ADD16RoundRect,0.250000X-0.650000X0.350000X-0.650000X-0.350000X0.650000X-0.350000X0.650000X0.350000X0*%
%ADD17RoundRect,0.225000X0.250000X-0.225000X0.250000X0.225000X-0.250000X0.225000X-0.250000X-0.225000X0*%
%ADD18RoundRect,0.225000X0.375000X-0.225000X0.375000X0.225000X-0.375000X0.225000X-0.375000X-0.225000X0*%
%ADD19RoundRect,0.200000X-0.300000X-0.200000X0.300000X-0.200000X0.300000X0.200000X-0.300000X0.200000X0*%
%ADD20RoundRect,0.135000X-0.135000X-0.185000X0.135000X-0.185000X0.135000X0.185000X-0.135000X0.185000X0*%
%ADD21RoundRect,0.062500X-0.062500X0.117500X-0.062500X-0.117500X0.062500X-0.117500X0.062500X0.117500X0*%
%ADD22RoundRect,0.135000X-0.185000X0.135000X-0.185000X-0.135000X0.185000X-0.135000X0.185000X0.135000X0*%
%ADD23RoundRect,0.218750X-0.218750X-0.256250X0.218750X-0.256250X0.218750X0.256250X-0.218750X0.256250X0*%
%ADD24RoundRect,0.135000X0.135000X0.185000X-0.135000X0.185000X-0.135000X-0.185000X0.135000X-0.185000X0*%
%ADD25RoundRect,0.150000X0.150000X-0.512500X0.150000X0.512500X-0.150000X0.512500X-0.150000X-0.512500X0*%
%ADD26R,0.600000X1.450000*%
%ADD27R,0.300000X1.450000*%
%ADD28RoundRect,0.150000X-0.150000X-0.335000X0.150000X-0.335000X0.150000X0.335000X-0.150000X0.335000X0*%
%ADD29RoundRect,0.100000X-0.300000X-0.100000X0.300000X-0.100000X0.300000X0.100000X-0.300000X0.100000X0*%
%ADD30RoundRect,0.225000X-0.250000X0.225000X-0.250000X-0.225000X0.250000X-0.225000X0.250000X0.225000X0*%
%ADD31RoundRect,0.155000X-0.155000X0.212500X-0.155000X-0.212500X0.155000X-0.212500X0.155000X0.212500X0*%
%ADD32RoundRect,0.250000X0.625000X-0.375000X0.625000X0.375000X-0.625000X0.375000X-0.625000X-0.375000X0*%
%ADD33RoundRect,0.155000X0.155000X-0.212500X0.155000X0.212500X-0.155000X0.212500X-0.155000X-0.212500X0*%
%ADD34R,0.900000X0.900000*%
%ADD35R,1.500000X0.900000*%
%ADD36R,0.900000X1.500000*%
%ADD37RoundRect,0.218750X-0.381250X0.218750X-0.381250X-0.218750X0.381250X-0.218750X0.381250X0.218750X0*%
G04 APERTURE END LIST*
D10*
%TO.C,U3*%
X123375000Y-130725000D03*
X125675000Y-130725000D03*
D11*
X125675000Y-124425000D03*
D10*
X127975000Y-130725000D03*
%TD*%
D12*
%TO.C,C5*%
X127975000Y-133200000D03*
X127975000Y-135100000D03*
%TD*%
%TO.C,C6*%
X125675000Y-133200000D03*
X125675000Y-135100000D03*
%TD*%
D13*
%TO.C,SW1*%
X160700000Y-117200000D03*
X157300000Y-117200000D03*
%TD*%
D14*
%TO.C,C7*%
X152620000Y-107100000D03*
X154170000Y-107100000D03*
%TD*%
D15*
%TO.C,J4*%
X118300000Y-99900000D03*
X118300000Y-100900000D03*
X118300000Y-101900000D03*
X118300000Y-102900000D03*
D16*
X114425000Y-98600000D03*
X114425000Y-104200000D03*
%TD*%
D13*
%TO.C,SW2*%
X160800000Y-123950000D03*
X157400000Y-123950000D03*
%TD*%
D17*
%TO.C,C2*%
X125150000Y-89750000D03*
X125150000Y-88200000D03*
%TD*%
D18*
%TO.C,D1*%
X131250000Y-133200000D03*
X131250000Y-129900000D03*
%TD*%
D19*
%TO.C,D5*%
X147700000Y-122500000D03*
X147700000Y-123900000D03*
X150200000Y-123900000D03*
X150200000Y-122500000D03*
%TD*%
D20*
%TO.C,R7*%
X151790000Y-123900000D03*
X152810000Y-123900000D03*
%TD*%
D21*
%TO.C,D2*%
X155500000Y-118047500D03*
X155500000Y-117207500D03*
%TD*%
D22*
%TO.C,R10*%
X122490000Y-100315000D03*
X122490000Y-101335000D03*
%TD*%
D23*
%TO.C,D3*%
X115250000Y-125600000D03*
X116825000Y-125600000D03*
%TD*%
D22*
%TO.C,R11*%
X124250000Y-100315000D03*
X124250000Y-101335000D03*
%TD*%
D24*
%TO.C,R6*%
X145810000Y-123900000D03*
X144790000Y-123900000D03*
%TD*%
D25*
%TO.C,U1*%
X137050000Y-126637500D03*
X138000000Y-126637500D03*
X138950000Y-126637500D03*
X138950000Y-124362500D03*
X138000000Y-124362500D03*
X137050000Y-124362500D03*
%TD*%
D22*
%TO.C,R5*%
X118737500Y-124590000D03*
X118737500Y-125610000D03*
%TD*%
%TO.C,R2*%
X152700000Y-114840000D03*
X152700000Y-115860000D03*
%TD*%
D26*
%TO.C,J1*%
X134750000Y-130855000D03*
X135550000Y-130855000D03*
D27*
X136750000Y-130855000D03*
X137750000Y-130855000D03*
X138250000Y-130855000D03*
X139250000Y-130855000D03*
D26*
X140450000Y-130855000D03*
X141250000Y-130855000D03*
X141250000Y-130855000D03*
X140450000Y-130855000D03*
D27*
X139750000Y-130855000D03*
X138750000Y-130855000D03*
X137250000Y-130855000D03*
X136250000Y-130855000D03*
D26*
X135550000Y-130855000D03*
X134750000Y-130855000D03*
%TD*%
D20*
%TO.C,R8*%
X149880000Y-107100000D03*
X150900000Y-107100000D03*
%TD*%
D28*
%TO.C,U4*%
X142900000Y-111225000D03*
X142900000Y-112425000D03*
X143650000Y-111225000D03*
X143650000Y-112425000D03*
D29*
X141825000Y-110825000D03*
X141825000Y-111825000D03*
X141825000Y-112825000D03*
X144725000Y-112825000D03*
X144725000Y-111825000D03*
X144725000Y-110825000D03*
%TD*%
D20*
%TO.C,R1*%
X124540000Y-96000000D03*
X125560000Y-96000000D03*
%TD*%
D30*
%TO.C,C4*%
X152700000Y-117175000D03*
X152700000Y-118725000D03*
%TD*%
D20*
%TO.C,R3*%
X146180000Y-127975000D03*
X147200000Y-127975000D03*
%TD*%
D21*
%TO.C,D6*%
X154400000Y-109620000D03*
X154400000Y-108780000D03*
%TD*%
%TO.C,D4*%
X155700000Y-124820000D03*
X155700000Y-123980000D03*
%TD*%
D20*
%TO.C,R4*%
X146190000Y-129475000D03*
X147210000Y-129475000D03*
%TD*%
D31*
%TO.C,C8*%
X146325000Y-111807500D03*
X146325000Y-112942500D03*
%TD*%
D20*
%TO.C,R9*%
X151780000Y-122500000D03*
X152800000Y-122500000D03*
%TD*%
D31*
%TO.C,C1*%
X141800000Y-125507500D03*
X141800000Y-126642500D03*
%TD*%
D32*
%TO.C,F1*%
X133600000Y-128150000D03*
X133600000Y-125350000D03*
%TD*%
D33*
%TO.C,C3*%
X127050000Y-89767500D03*
X127050000Y-88632500D03*
%TD*%
D34*
%TO.C,U2*%
X135000000Y-94860000D03*
X135000000Y-96260000D03*
X135000000Y-97660000D03*
X136400000Y-94860000D03*
X136400000Y-96260000D03*
X136400000Y-97660000D03*
X137800000Y-94860000D03*
X137800000Y-96260000D03*
X137800000Y-97660000D03*
D35*
X129150000Y-88540000D03*
X129150000Y-89810000D03*
X129150000Y-91080000D03*
X129150000Y-92350000D03*
X129150000Y-93620000D03*
X129150000Y-94890000D03*
X129150000Y-96160000D03*
X129150000Y-97430000D03*
X129150000Y-98700000D03*
X129150000Y-99970000D03*
X129150000Y-101240000D03*
X129150000Y-102510000D03*
X129150000Y-103780000D03*
X129150000Y-105050000D03*
D36*
X130915000Y-106300000D03*
X132185000Y-106300000D03*
X133455000Y-106300000D03*
X134725000Y-106300000D03*
X135995000Y-106300000D03*
X137265000Y-106300000D03*
X138535000Y-106300000D03*
X139805000Y-106300000D03*
X141075000Y-106300000D03*
X142345000Y-106300000D03*
X143615000Y-106300000D03*
X144885000Y-106300000D03*
D35*
X146650000Y-105050000D03*
X146650000Y-103780000D03*
X146650000Y-102510000D03*
X146650000Y-101240000D03*
X146650000Y-99970000D03*
X146650000Y-98700000D03*
X146650000Y-97430000D03*
X146650000Y-96160000D03*
X146650000Y-94890000D03*
X146650000Y-93620000D03*
X146650000Y-92350000D03*
X146650000Y-91080000D03*
X146650000Y-89810000D03*
X146650000Y-88540000D03*
%TD*%
D37*
%TO.C,FB1*%
X131225000Y-125387500D03*
X131225000Y-127512500D03*
%TD*%
M02*
